<?xml version="1.0" encoding="UTF-8" standalone="no"?>
<svg
   width="720"
   height="720"
   viewBox="0 0 190.5 190.5"
   version="1.1"
   id="svg1258"
   sodipodi:docname="multiple-machines-ntp.svg"
   inkscape:version="1.3.2 (091e20e, 2023-11-25, custom)"
   xmlns:inkscape="http://www.inkscape.org/namespaces/inkscape"
   xmlns:sodipodi="http://sodipodi.sourceforge.net/DTD/sodipodi-0.dtd"
   xmlns="http://www.w3.org/2000/svg"
   xmlns:svg="http://www.w3.org/2000/svg"
   xmlns:rdf="http://www.w3.org/1999/02/22-rdf-syntax-ns#"
   xmlns:cc="http://creativecommons.org/ns#"
   xmlns:dc="http://purl.org/dc/elements/1.1/">
  <metadata
     id="metadata1262">
    <rdf:RDF>
      <cc:Work
         rdf:about="">
        <dc:format>image/svg+xml</dc:format>
        <dc:type
           rdf:resource="http://purl.org/dc/dcmitype/StillImage" />
      </cc:Work>
    </rdf:RDF>
  </metadata>
  <sodipodi:namedview
     pagecolor="#ffffff"
     bordercolor="#666666"
     borderopacity="1"
     objecttolerance="10"
     gridtolerance="10"
     guidetolerance="10"
     inkscape:pageopacity="0"
     inkscape:pageshadow="2"
     inkscape:window-width="1920"
     inkscape:window-height="1009"
     id="namedview1260"
     showgrid="false"
     inkscape:zoom="1.1389221"
     inkscape:cx="363.5016"
     inkscape:cy="363.94061"
     inkscape:window-x="-8"
     inkscape:window-y="-8"
     inkscape:window-maximized="1"
     inkscape:current-layer="g1256"
     inkscape:showpageshadow="2"
     inkscape:pagecheckerboard="0"
     inkscape:deskcolor="#d1d1d1" />
  <defs
     id="defs1190">
    <marker
       markerWidth="3.06"
       markerHeight="4.71"
       refX="1.53"
       refY="2.35"
       orient="auto"
       id="a">
      <path
         d="m.35.35 2 2-2 2"
         fill="none"
         stroke="#000"
         id="path1184" />
    </marker>
    <marker
       markerWidth="3.06"
       markerHeight="4.71"
       refX="1.53"
       refY="2.35"
       orient="auto"
       id="b">
      <path
         d="m.35.35 2 2-2 2"
         fill="none"
         stroke="#000"
         id="path1187" />
    </marker>
  </defs>
  <g
     transform="translate(-23.81 50.27)"
     id="g1256">
    <rect
       width="52.92"
       height="37.04"
       x="26.46"
       y="100.54"
       fill="#0c322c"
       paint-order="markers fill stroke"
       id="rect1192" />
    <rect
       width="52.92"
       height="37.04"
       x="92.6"
       y="100.54"
       fill="#f3b292"
       paint-order="markers fill stroke"
       id="rect1194" />
    <rect
       width="52.92"
       height="37.04"
       x="158.75"
       y="100.54"
       fill="#c7f1e3"
       paint-order="markers fill stroke"
       id="rect1196" />
    <path
       d="M113.77 97.9V76.73"
       fill="none"
       stroke="#0c322c"
       stroke-width=".53"
       marker-end="url(#a)"
       id="path1198"
       style="stroke:#000000;stroke-opacity:1;stroke-width:0.52996042;stroke-miterlimit:4;stroke-dasharray:none;stroke-linecap:square" />
    <path
       d="M124.35 76.73V97.9"
       fill="none"
       stroke="#0c322c"
       stroke-width=".53"
       marker-end="url(#a)"
       id="path1200"
       style="stroke:#000000;stroke-opacity:1;stroke-width:0.52996042;stroke-miterlimit:4;stroke-dasharray:none;stroke-linecap:square" />
    <path
       d="M89.96 60.85H58.2V97.9"
       fill="none"
       stroke="#0c322c"
       stroke-width=".53"
       marker-end="url(#a)"
       id="path1202"
       style="stroke:#000000;stroke-opacity:1;stroke-width:0.52996042;stroke-miterlimit:4;stroke-dasharray:none;stroke-linecap:square" />
    <path
       d="M47.62 97.9V50.27h42.34"
       fill="none"
       stroke="#0c322c"
       stroke-width=".53"
       marker-end="url(#a)"
       id="path1204"
       style="stroke:#000000;stroke-opacity:1;stroke-width:0.52996042;stroke-miterlimit:4;stroke-dasharray:none;stroke-linecap:square" />
    <path
       d="M179.92 97.9V60.85h-31.75"
       fill="none"
       stroke="#0c322c"
       stroke-width=".53"
       marker-end="url(#a)"
       id="path1206"
       style="stroke:#000000;stroke-opacity:1;stroke-width:0.52996042;stroke-miterlimit:4;stroke-dasharray:none;stroke-linecap:square" />
    <path
       d="M148.17 50.27h42.33V97.9"
       fill="none"
       stroke="#0c322c"
       stroke-width=".53"
       marker-end="url(#a)"
       id="path1208"
       style="stroke:#000000;stroke-opacity:1;stroke-width:0.52996042;stroke-miterlimit:4;stroke-dasharray:none;stroke-linecap:square" />
    <rect
       width="52.92"
       height="37.04"
       x="92.6"
       y="37.04"
       fill="#fe7c3f"
       paint-order="markers fill stroke"
       id="rect1210" />
    <path
       d="m 42.587118,120.87458 q -0.34086,0 -0.61256,-0.11856 -0.26676,-0.1235 -0.4199,-0.33592 -0.15314,-0.21736 -0.15808,-0.49894 h 0.47918 q 0.0247,0.24206 0.1976,0.41002 0.17784,0.16302 0.51376,0.16302 0.3211,0 0.50388,-0.15808 0.18772,-0.16302 0.18772,-0.41496 0,-0.1976 -0.10868,-0.3211 -0.10868,-0.1235 -0.2717,-0.18772 -0.16302,-0.0642 -0.43966,-0.13832 -0.34086,-0.0889 -0.54834,-0.17784 -0.20254,-0.0889 -0.35074,-0.27664 -0.14326,-0.19266 -0.14326,-0.51376 0,-0.28158 0.14326,-0.49894 0.14326,-0.21736 0.40014,-0.33592 0.26182,-0.11856 0.59774,-0.11856 0.48412,0 0.7904,0.24206 0.31122,0.24206 0.35074,0.6422 h -0.494 q -0.0247,-0.1976 -0.20748,-0.3458 -0.18278,-0.15314 -0.48412,-0.15314 -0.28158,0 -0.45942,0.1482 -0.17784,0.14326 -0.17784,0.40508 0,0.18772 0.10374,0.30628 0.10868,0.11856 0.26182,0.18278 0.15808,0.0593 0.43966,0.13832 0.34086,0.0939 0.54834,0.18772 0.20748,0.0889 0.35568,0.28158 0.1482,0.18772 0.1482,0.51376 0,0.25194 -0.13338,0.47424 -0.13338,0.2223 -0.3952,0.36062 -0.26182,0.13832 -0.6175,0.13832 z m 4.278039,-1.49188 q 0,0.12844 -0.01482,0.2717 h -2.16372 q 0.0247,0.40014 0.2717,0.62738 0.25194,0.2223 0.60762,0.2223 0.29146,0 0.48412,-0.13338 0.1976,-0.13832 0.27664,-0.36556 h 0.48412 q -0.10868,0.39026 -0.43472,0.63726 -0.32604,0.24206 -0.81016,0.24206 -0.38532,0 -0.6916,-0.1729 -0.30134,-0.1729 -0.47424,-0.48906 -0.1729,-0.3211 -0.1729,-0.741 0,-0.4199 0.16796,-0.73606 0.16796,-0.31616 0.4693,-0.48412 0.30628,-0.1729 0.70148,-0.1729 0.38532,0 0.68172,0.16796 0.2964,0.16796 0.45448,0.46436 0.16302,0.29146 0.16302,0.66196 z m -0.46436,-0.0939 q 0,-0.25688 -0.11362,-0.43966 -0.11362,-0.18772 -0.31122,-0.28158 -0.19266,-0.0988 -0.42978,-0.0988 -0.34086,0 -0.58292,0.21736 -0.23712,0.21736 -0.2717,0.60268 z m 1.506704,-0.7163 q 0.11856,-0.23218 0.33592,-0.36062 0.2223,-0.12844 0.53846,-0.12844 v 0.46436 h -0.11856 q -0.75582,0 -0.75582,0.82004 V 120.84 h -0.44954 v -2.70712 h 0.44954 z m 2.400837,1.8525 0.8398,-2.29216 h 0.47918 l -1.0621,2.70712 h -0.523641 l -1.0621,-2.70712 h 0.48412 z m 1.995764,-2.73182 q -0.12844,0 -0.21736,-0.0889 -0.08892,-0.0889 -0.08892,-0.21736 0,-0.12844 0.08892,-0.21736 0.08892,-0.0889 0.21736,-0.0889 0.1235,0 0.20748,0.0889 0.08892,0.0889 0.08892,0.21736 0,0.12844 -0.08892,0.21736 -0.08398,0.0889 -0.20748,0.0889 z m 0.21736,0.43966 V 120.84 h -0.44954 v -2.70712 z m 0.597741,1.34368 q 0,-0.41496 0.16796,-0.72618 0.16796,-0.31616 0.45942,-0.48906 0.2964,-0.1729 0.66196,-0.1729 0.31616,0 0.58786,0.1482 0.2717,0.14326 0.41496,0.38038 v -1.4326 h 0.45448 v 3.6556 h -0.45448 v -0.50882 q -0.13338,0.24206 -0.3952,0.40014 -0.26182,0.15314 -0.61256,0.15314 -0.36062,0 -0.65702,-0.17784 -0.29146,-0.17784 -0.45942,-0.49894 -0.16796,-0.3211 -0.16796,-0.73112 z m 2.29216,0.005 q 0,-0.30628 -0.1235,-0.53352 -0.1235,-0.22724 -0.33592,-0.3458 -0.20748,-0.1235 -0.45942,-0.1235 -0.25194,0 -0.45942,0.11856 -0.20748,0.11856 -0.33098,0.3458 -0.1235,0.22724 -0.1235,0.53352 0,0.31122 0.1235,0.5434 0.1235,0.22724 0.33098,0.35074 0.20748,0.11856 0.45942,0.11856 0.25194,0 0.45942,-0.11856 0.21242,-0.1235 0.33592,-0.35074 0.1235,-0.23218 0.1235,-0.53846 z m 2.395903,1.40296 q -0.38038,0 -0.6916,-0.1729 -0.30628,-0.1729 -0.48412,-0.48906 -0.1729,-0.3211 -0.1729,-0.741 0,-0.41496 0.17784,-0.73112 0.18278,-0.3211 0.494,-0.48906 0.31122,-0.1729 0.69654,-0.1729 0.38532,0 0.69654,0.1729 0.31122,0.16796 0.48906,0.48412 0.18278,0.31616 0.18278,0.73606 0,0.4199 -0.18772,0.741 -0.18278,0.31616 -0.49894,0.48906 -0.31616,0.1729 -0.70148,0.1729 z m 0,-0.3952 q 0.24206,0 0.45448,-0.11362 0.21242,-0.11362 0.34086,-0.34086 0.13338,-0.22724 0.13338,-0.55328 0,-0.32604 -0.12844,-0.55328 -0.12844,-0.22724 -0.33592,-0.33592 -0.20748,-0.11362 -0.44954,-0.11362 -0.247,0 -0.45448,0.11362 -0.20254,0.10868 -0.32604,0.33592 -0.1235,0.22724 -0.1235,0.55328 0,0.33098 0.11856,0.55822 0.1235,0.22724 0.32604,0.34086 0.20254,0.10868 0.4446,0.10868 z m 2.430478,-1.91672 q 0.11856,-0.23218 0.33592,-0.36062 0.2223,-0.12844 0.53846,-0.12844 v 0.46436 h -0.11856 q -0.75582,0 -0.75582,0.82004 V 120.84 h -0.44954 v -2.70712 h 0.44954 z m 2.519396,-0.89414 v -0.41002 h 0.92872 V 120.84 h -0.45448 v -3.1616 z"
       id="text1222"
       style="font-weight:500;font-size:4.94px;line-height:1.25;font-family:Poppins;-inkscape-font-specification:'Poppins, Medium';letter-spacing:0;fill:#ffffff;stroke-width:0.26"
       aria-label="Servidor 1" />
    <path
       style="font-weight:500;font-size:4.94px;line-height:1.25;font-family:Poppins;-inkscape-font-specification:'Poppins, Medium';text-align:center;letter-spacing:0;text-anchor:middle;stroke-width:0.26"
       d="m 108.34465,120.91458 q -0.34086,0 -0.61256,-0.11856 -0.26676,-0.1235 -0.4199,-0.33592 -0.15314,-0.21736 -0.15808,-0.49894 h 0.47918 q 0.0247,0.24206 0.1976,0.41002 0.17784,0.16302 0.51376,0.16302 0.3211,0 0.50388,-0.15808 0.18772,-0.16302 0.18772,-0.41496 0,-0.1976 -0.10868,-0.3211 -0.10868,-0.1235 -0.2717,-0.18772 -0.16302,-0.0642 -0.43966,-0.13832 -0.34086,-0.0889 -0.54834,-0.17784 -0.20254,-0.0889 -0.35074,-0.27664 -0.14326,-0.19266 -0.14326,-0.51376 0,-0.28158 0.14326,-0.49894 0.14326,-0.21736 0.40014,-0.33592 0.26182,-0.11856 0.59774,-0.11856 0.48412,0 0.7904,0.24206 0.31122,0.24206 0.35074,0.6422 h -0.494 q -0.0247,-0.1976 -0.20748,-0.3458 -0.18278,-0.15314 -0.48412,-0.15314 -0.28158,0 -0.45942,0.1482 -0.17784,0.14326 -0.17784,0.40508 0,0.18772 0.10374,0.30628 0.10868,0.11856 0.26182,0.18278 0.15808,0.0593 0.43966,0.13832 0.34086,0.0939 0.54834,0.18772 0.20748,0.0889 0.35568,0.28158 0.1482,0.18772 0.1482,0.51376 0,0.25194 -0.13338,0.47424 -0.13338,0.2223 -0.3952,0.36062 -0.26182,0.13832 -0.6175,0.13832 z m 4.27804,-1.49188 q 0,0.12844 -0.0148,0.2717 h -2.16372 q 0.0247,0.40014 0.2717,0.62738 0.25194,0.2223 0.60762,0.2223 0.29146,0 0.48412,-0.13338 0.1976,-0.13832 0.27664,-0.36556 h 0.48412 q -0.10868,0.39026 -0.43472,0.63726 -0.32604,0.24206 -0.81016,0.24206 -0.38532,0 -0.6916,-0.1729 -0.30134,-0.1729 -0.47424,-0.48906 -0.1729,-0.3211 -0.1729,-0.741 0,-0.4199 0.16796,-0.73606 0.16796,-0.31616 0.4693,-0.48412 0.30628,-0.1729 0.70148,-0.1729 0.38532,0 0.68172,0.16796 0.2964,0.16796 0.45448,0.46436 0.16302,0.29146 0.16302,0.66196 z m -0.46436,-0.0939 q 0,-0.25688 -0.11362,-0.43966 -0.11362,-0.18772 -0.31122,-0.28158 -0.19266,-0.0988 -0.42978,-0.0988 -0.34086,0 -0.58292,0.21736 -0.23712,0.21736 -0.2717,0.60268 z m 1.50671,-0.7163 q 0.11856,-0.23218 0.33592,-0.36062 0.2223,-0.12844 0.53846,-0.12844 v 0.46436 h -0.11856 q -0.75582,0 -0.75582,0.82004 V 120.88 h -0.44954 v -2.70712 h 0.44954 z m 2.40083,1.8525 0.8398,-2.29216 h 0.47918 l -1.0621,2.70712 h -0.52364 l -1.0621,-2.70712 h 0.48412 z m 1.99577,-2.73182 q -0.12844,0 -0.21736,-0.0889 -0.0889,-0.0889 -0.0889,-0.21736 0,-0.12844 0.0889,-0.21736 0.0889,-0.0889 0.21736,-0.0889 0.1235,0 0.20748,0.0889 0.0889,0.0889 0.0889,0.21736 0,0.12844 -0.0889,0.21736 -0.084,0.0889 -0.20748,0.0889 z m 0.21736,0.43966 V 120.88 h -0.44954 v -2.70712 z m 0.59774,1.34368 q 0,-0.41496 0.16796,-0.72618 0.16796,-0.31616 0.45942,-0.48906 0.2964,-0.1729 0.66196,-0.1729 0.31616,0 0.58786,0.1482 0.2717,0.14326 0.41496,0.38038 v -1.4326 h 0.45448 v 3.6556 h -0.45448 v -0.50882 q -0.13338,0.24206 -0.3952,0.40014 -0.26182,0.15314 -0.61256,0.15314 -0.36062,0 -0.65702,-0.17784 -0.29146,-0.17784 -0.45942,-0.49894 -0.16796,-0.3211 -0.16796,-0.73112 z m 2.29216,0.005 q 0,-0.30628 -0.1235,-0.53352 -0.1235,-0.22724 -0.33592,-0.3458 -0.20748,-0.1235 -0.45942,-0.1235 -0.25194,0 -0.45942,0.11856 -0.20748,0.11856 -0.33098,0.3458 -0.1235,0.22724 -0.1235,0.53352 0,0.31122 0.1235,0.5434 0.1235,0.22724 0.33098,0.35074 0.20748,0.11856 0.45942,0.11856 0.25194,0 0.45942,-0.11856 0.21242,-0.1235 0.33592,-0.35074 0.1235,-0.23218 0.1235,-0.53846 z m 2.3959,1.40296 q -0.38038,0 -0.6916,-0.1729 -0.30628,-0.1729 -0.48412,-0.48906 -0.1729,-0.3211 -0.1729,-0.741 0,-0.41496 0.17784,-0.73112 0.18278,-0.3211 0.494,-0.48906 0.31122,-0.1729 0.69654,-0.1729 0.38532,0 0.69654,0.1729 0.31122,0.16796 0.48906,0.48412 0.18278,0.31616 0.18278,0.73606 0,0.4199 -0.18772,0.741 -0.18278,0.31616 -0.49894,0.48906 -0.31616,0.1729 -0.70148,0.1729 z m 0,-0.3952 q 0.24206,0 0.45448,-0.11362 0.21242,-0.11362 0.34086,-0.34086 0.13338,-0.22724 0.13338,-0.55328 0,-0.32604 -0.12844,-0.55328 -0.12844,-0.22724 -0.33592,-0.33592 -0.20748,-0.11362 -0.44954,-0.11362 -0.247,0 -0.45448,0.11362 -0.20254,0.10868 -0.32604,0.33592 -0.1235,0.22724 -0.1235,0.55328 0,0.33098 0.11856,0.55822 0.1235,0.22724 0.32604,0.34086 0.20254,0.10868 0.4446,0.10868 z m 2.43048,-1.91672 q 0.11856,-0.23218 0.33592,-0.36062 0.2223,-0.12844 0.53846,-0.12844 v 0.46436 h -0.11856 q -0.75582,0 -0.75582,0.82004 V 120.88 h -0.44954 v -2.70712 h 0.44954 z m 2.58362,1.90684 q 0.62738,-0.50388 0.98306,-0.82498 0.35568,-0.32604 0.59774,-0.67678 0.247,-0.35568 0.247,-0.69654 0,-0.3211 -0.15808,-0.50388 -0.15314,-0.18772 -0.49894,-0.18772 -0.33592,0 -0.52364,0.21242 -0.18278,0.20748 -0.1976,0.55822 h -0.43472 q 0.0198,-0.55328 0.33592,-0.85462 0.31616,-0.30134 0.8151,-0.30134 0.50882,0 0.80522,0.28158 0.30134,0.28158 0.30134,0.77558 0,0.41002 -0.247,0.80028 -0.24206,0.38532 -0.55328,0.68172 -0.31122,0.29146 -0.79534,0.68172 h 1.69936 v 0.37544 h -2.37614 z"
       id="text1226"
       aria-label="Servidor 2" />
    <path
       d="m 174.71625,120.91458 q -0.34086,0 -0.61256,-0.11856 -0.26676,-0.1235 -0.4199,-0.33592 -0.15314,-0.21736 -0.15808,-0.49894 h 0.47918 q 0.0247,0.24206 0.1976,0.41002 0.17784,0.16302 0.51376,0.16302 0.3211,0 0.50388,-0.15808 0.18772,-0.16302 0.18772,-0.41496 0,-0.1976 -0.10868,-0.3211 -0.10868,-0.1235 -0.2717,-0.18772 -0.16302,-0.0642 -0.43966,-0.13832 -0.34086,-0.0889 -0.54834,-0.17784 -0.20254,-0.0889 -0.35074,-0.27664 -0.14326,-0.19266 -0.14326,-0.51376 0,-0.28158 0.14326,-0.49894 0.14326,-0.21736 0.40014,-0.33592 0.26182,-0.11856 0.59774,-0.11856 0.48412,0 0.7904,0.24206 0.31122,0.24206 0.35074,0.6422 h -0.494 q -0.0247,-0.1976 -0.20748,-0.3458 -0.18278,-0.15314 -0.48412,-0.15314 -0.28158,0 -0.45942,0.1482 -0.17784,0.14326 -0.17784,0.40508 0,0.18772 0.10374,0.30628 0.10868,0.11856 0.26182,0.18278 0.15808,0.0593 0.43966,0.13832 0.34086,0.0939 0.54834,0.18772 0.20748,0.0889 0.35568,0.28158 0.1482,0.18772 0.1482,0.51376 0,0.25194 -0.13338,0.47424 -0.13338,0.2223 -0.3952,0.36062 -0.26182,0.13832 -0.6175,0.13832 z m 4.27803,-1.49188 q 0,0.12844 -0.0148,0.2717 h -2.16372 q 0.0247,0.40014 0.2717,0.62738 0.25194,0.2223 0.60762,0.2223 0.29146,0 0.48412,-0.13338 0.1976,-0.13832 0.27664,-0.36556 h 0.48412 q -0.10868,0.39026 -0.43472,0.63726 -0.32604,0.24206 -0.81016,0.24206 -0.38532,0 -0.6916,-0.1729 -0.30134,-0.1729 -0.47424,-0.48906 -0.1729,-0.3211 -0.1729,-0.741 0,-0.4199 0.16796,-0.73606 0.16796,-0.31616 0.4693,-0.48412 0.30628,-0.1729 0.70148,-0.1729 0.38532,0 0.68172,0.16796 0.2964,0.16796 0.45448,0.46436 0.16302,0.29146 0.16302,0.66196 z m -0.46436,-0.0939 q 0,-0.25688 -0.11362,-0.43966 -0.11362,-0.18772 -0.31122,-0.28158 -0.19266,-0.0988 -0.42978,-0.0988 -0.34086,0 -0.58292,0.21736 -0.23712,0.21736 -0.2717,0.60268 z m 1.50671,-0.7163 q 0.11856,-0.23218 0.33592,-0.36062 0.2223,-0.12844 0.53846,-0.12844 v 0.46436 h -0.11856 q -0.75582,0 -0.75582,0.82004 V 120.88 h -0.44954 v -2.70712 h 0.44954 z m 2.40084,1.8525 0.8398,-2.29216 h 0.47918 l -1.0621,2.70712 h -0.52364 l -1.06211,-2.70712 h 0.48412 z m 1.99576,-2.73182 q -0.12844,0 -0.21736,-0.0889 -0.0889,-0.0889 -0.0889,-0.21736 0,-0.12844 0.0889,-0.21736 0.0889,-0.0889 0.21736,-0.0889 0.1235,0 0.20748,0.0889 0.0889,0.0889 0.0889,0.21736 0,0.12844 -0.0889,0.21736 -0.084,0.0889 -0.20748,0.0889 z m 0.21736,0.43966 V 120.88 h -0.44954 v -2.70712 z m 0.59774,1.34368 q 0,-0.41496 0.16796,-0.72618 0.16796,-0.31616 0.45942,-0.48906 0.2964,-0.1729 0.66196,-0.1729 0.31616,0 0.58786,0.1482 0.2717,0.14326 0.41496,0.38038 v -1.4326 h 0.45448 v 3.6556 h -0.45448 v -0.50882 q -0.13338,0.24206 -0.3952,0.40014 -0.26182,0.15314 -0.61256,0.15314 -0.36062,0 -0.65702,-0.17784 -0.29146,-0.17784 -0.45942,-0.49894 -0.16796,-0.3211 -0.16796,-0.73112 z m 2.29216,0.005 q 0,-0.30628 -0.1235,-0.53352 -0.1235,-0.22724 -0.33592,-0.3458 -0.20748,-0.1235 -0.45942,-0.1235 -0.25194,0 -0.45942,0.11856 -0.20748,0.11856 -0.33098,0.3458 -0.1235,0.22724 -0.1235,0.53352 0,0.31122 0.1235,0.5434 0.1235,0.22724 0.33098,0.35074 0.20748,0.11856 0.45942,0.11856 0.25194,0 0.45942,-0.11856 0.21242,-0.1235 0.33592,-0.35074 0.1235,-0.23218 0.1235,-0.53846 z m 2.3959,1.40296 q -0.38038,0 -0.6916,-0.1729 -0.30628,-0.1729 -0.48412,-0.48906 -0.1729,-0.3211 -0.1729,-0.741 0,-0.41496 0.17784,-0.73112 0.18278,-0.3211 0.494,-0.48906 0.31122,-0.1729 0.69654,-0.1729 0.38532,0 0.69654,0.1729 0.31122,0.16796 0.48906,0.48412 0.18278,0.31616 0.18278,0.73606 0,0.4199 -0.18772,0.741 -0.18278,0.31616 -0.49894,0.48906 -0.31616,0.1729 -0.70148,0.1729 z m 0,-0.3952 q 0.24206,0 0.45448,-0.11362 0.21242,-0.11362 0.34086,-0.34086 0.13338,-0.22724 0.13338,-0.55328 0,-0.32604 -0.12844,-0.55328 -0.12844,-0.22724 -0.33592,-0.33592 -0.20748,-0.11362 -0.44954,-0.11362 -0.247,0 -0.45448,0.11362 -0.20254,0.10868 -0.32604,0.33592 -0.1235,0.22724 -0.1235,0.55328 0,0.33098 0.11856,0.55822 0.1235,0.22724 0.32604,0.34086 0.20254,0.10868 0.4446,0.10868 z m 2.43048,-1.91672 q 0.11856,-0.23218 0.33592,-0.36062 0.2223,-0.12844 0.53846,-0.12844 v 0.46436 h -0.11856 q -0.75582,0 -0.75582,0.82004 V 120.88 h -0.44954 v -2.70712 h 0.44954 z m 2.62808,-0.40508 q 0.0346,-0.45448 0.35074,-0.71136 0.31616,-0.25688 0.82004,-0.25688 0.33592,0 0.57798,0.1235 0.247,0.11856 0.3705,0.32604 0.12844,0.20748 0.12844,0.4693 0,0.30628 -0.17784,0.52858 -0.1729,0.2223 -0.45448,0.28652 v 0.0247 q 0.3211,0.079 0.50882,0.31122 0.18772,0.23218 0.18772,0.60762 0,0.28158 -0.12844,0.50882 -0.12844,0.2223 -0.38532,0.35074 -0.25688,0.12844 -0.6175,0.12844 -0.52364,0 -0.85956,-0.2717 -0.33592,-0.27664 -0.37544,-0.78052 h 0.43472 q 0.0346,0.2964 0.24206,0.48412 0.20748,0.18772 0.55328,0.18772 0.3458,0 0.52364,-0.17784 0.18278,-0.18278 0.18278,-0.4693 0,-0.3705 -0.247,-0.53352 -0.247,-0.16302 -0.74594,-0.16302 h -0.11362 v -0.37544 h 0.11856 q 0.45448,-0.005 0.68666,-0.1482 0.23218,-0.1482 0.23218,-0.45448 0,-0.26182 -0.1729,-0.4199 -0.16796,-0.15808 -0.48412,-0.15808 -0.30628,0 -0.494,0.15808 -0.18772,0.15808 -0.2223,0.42484 z"
       id="text1230"
       style="font-weight:500;font-size:4.94px;line-height:1.25;font-family:Poppins;-inkscape-font-specification:'Poppins, Medium';letter-spacing:0;stroke-width:0.26"
       aria-label="Servidor 3" />
    <rect
       width="52.92"
       height="37.04"
       x="92.6"
       y="-47.62"
       fill="#c0c2c4"
       paint-order="markers fill stroke"
       id="rect1232" />
    <path
       style="font-weight:500;font-size:4.94px;line-height:1.25;font-family:Poppins;-inkscape-font-specification:'Poppins, Medium';text-align:center;letter-spacing:0;text-anchor:middle;stroke-width:0.26"
       d="m 110.4644,-33.964588 q -0.34086,0 -0.61256,-0.11856 -0.26676,-0.1235 -0.4199,-0.33592 -0.15314,-0.21736 -0.15808,-0.49894 h 0.47918 q 0.0247,0.24206 0.1976,0.41002 0.17784,0.16302 0.51376,0.16302 0.3211,0 0.50388,-0.15808 0.18772,-0.16302 0.18772,-0.41496 0,-0.1976 -0.10868,-0.3211 -0.10868,-0.1235 -0.2717,-0.18772 -0.16302,-0.06422 -0.43966,-0.13832 -0.34086,-0.08892 -0.54834,-0.17784 -0.20254,-0.08892 -0.35074,-0.27664 -0.14326,-0.19266 -0.14326,-0.51376 0,-0.28158 0.14326,-0.49894 0.14326,-0.21736 0.40014,-0.33592 0.26182,-0.11856 0.59774,-0.11856 0.48412,0 0.7904,0.24206 0.31122,0.24206 0.35074,0.6422 h -0.494 q -0.0247,-0.1976 -0.20748,-0.3458 -0.18278,-0.15314 -0.48412,-0.15314 -0.28158,0 -0.45942,0.1482 -0.17784,0.14326 -0.17784,0.40508 0,0.18772 0.10374,0.30628 0.10868,0.11856 0.26182,0.18278 0.15808,0.05928 0.43966,0.13832 0.34086,0.09386 0.54834,0.18772 0.20748,0.08892 0.35568,0.28158 0.1482,0.18772 0.1482,0.51376 0,0.25194 -0.13338,0.47424 -0.13338,0.2223 -0.3952,0.36062 -0.26182,0.13832 -0.6175,0.13832 z m 4.27804,-1.49188 q 0,0.12844 -0.0148,0.2717 h -2.16372 q 0.0247,0.40014 0.2717,0.62738 0.25194,0.2223 0.60762,0.2223 0.29146,0 0.48412,-0.13338 0.1976,-0.13832 0.27664,-0.36556 h 0.48412 q -0.10868,0.39026 -0.43472,0.63726 -0.32604,0.24206 -0.81016,0.24206 -0.38532,0 -0.6916,-0.1729 -0.30134,-0.1729 -0.47424,-0.48906 -0.1729,-0.3211 -0.1729,-0.741 0,-0.4199 0.16796,-0.73606 0.16796,-0.31616 0.4693,-0.48412 0.30628,-0.1729 0.70148,-0.1729 0.38532,0 0.68172,0.16796 0.2964,0.16796 0.45448,0.46436 0.16302,0.29146 0.16302,0.66196 z m -0.46436,-0.09386 q 0,-0.25688 -0.11362,-0.43966 -0.11362,-0.18772 -0.31122,-0.28158 -0.19266,-0.0988 -0.42978,-0.0988 -0.34086,0 -0.58292,0.21736 -0.23712,0.21736 -0.2717,0.60268 z m 1.5067,-0.7163 q 0.11856,-0.23218 0.33592,-0.36062 0.2223,-0.12844 0.53846,-0.12844 v 0.46436 h -0.11856 q -0.75582,0 -0.75582,0.82004 v 1.47212 h -0.44954 v -2.70712 h 0.44954 z m 2.40084,1.8525 0.8398,-2.29216 h 0.47918 l -1.0621,2.70712 h -0.52364 l -1.0621,-2.70712 h 0.48412 z m 1.99576,-2.73182 q -0.12844,0 -0.21736,-0.08892 -0.0889,-0.08892 -0.0889,-0.21736 0,-0.12844 0.0889,-0.21736 0.0889,-0.08892 0.21736,-0.08892 0.1235,0 0.20748,0.08892 0.0889,0.08892 0.0889,0.21736 0,0.12844 -0.0889,0.21736 -0.084,0.08892 -0.20748,0.08892 z m 0.21736,0.43966 v 2.70712 h -0.44954 v -2.70712 z m 0.59774,1.34368 q 0,-0.41496 0.16796,-0.72618 0.16796,-0.31616 0.45942,-0.48906 0.2964,-0.1729 0.66196,-0.1729 0.31616,0 0.58786,0.1482 0.2717,0.14326 0.41496,0.38038 v -1.4326 h 0.45448 v 3.6556 h -0.45448 v -0.50882 q -0.13338,0.24206 -0.3952,0.40014 -0.26182,0.15314 -0.61256,0.15314 -0.36062,0 -0.65702,-0.17784 -0.29146,-0.17784 -0.45942,-0.49894 -0.16796,-0.3211 -0.16796,-0.73112 z m 2.29216,0.0049 q 0,-0.30628 -0.1235,-0.53352 -0.1235,-0.22724 -0.33592,-0.3458 -0.20748,-0.1235 -0.45942,-0.1235 -0.25194,0 -0.45942,0.11856 -0.20748,0.11856 -0.33098,0.3458 -0.1235,0.22724 -0.1235,0.53352 0,0.31122 0.1235,0.5434 0.1235,0.22724 0.33098,0.35074 0.20748,0.11856 0.45942,0.11856 0.25194,0 0.45942,-0.11856 0.21242,-0.1235 0.33592,-0.35074 0.1235,-0.23218 0.1235,-0.53846 z m 2.39591,1.40296 q -0.38038,0 -0.6916,-0.1729 -0.30628,-0.1729 -0.48412,-0.48906 -0.1729,-0.3211 -0.1729,-0.741 0,-0.41496 0.17784,-0.73112 0.18278,-0.3211 0.494,-0.48906 0.31122,-0.1729 0.69654,-0.1729 0.38532,0 0.69654,0.1729 0.31122,0.16796 0.48906,0.48412 0.18278,0.31616 0.18278,0.73606 0,0.4199 -0.18772,0.741 -0.18278,0.31616 -0.49894,0.48906 -0.31616,0.1729 -0.70148,0.1729 z m 0,-0.3952 q 0.24206,0 0.45448,-0.11362 0.21242,-0.11362 0.34086,-0.34086 0.13338,-0.22724 0.13338,-0.55328 0,-0.32604 -0.12844,-0.55328 -0.12844,-0.22724 -0.33592,-0.33592 -0.20748,-0.11362 -0.44954,-0.11362 -0.247,0 -0.45448,0.11362 -0.20254,0.10868 -0.32604,0.33592 -0.1235,0.22724 -0.1235,0.55328 0,0.33098 0.11856,0.55822 0.1235,0.22724 0.32604,0.34086 0.20254,0.10868 0.4446,0.10868 z m 2.43047,-1.91672 q 0.11856,-0.23218 0.33592,-0.36062 0.2223,-0.12844 0.53846,-0.12844 v 0.46436 h -0.11856 q -0.75582,0 -0.75582,0.82004 v 1.47212 h -0.44954 v -2.70712 h 0.44954 z"
       id="text1240"
       aria-label="Servidor" />
    <path
       style="font-weight:500;font-size:4.94px;line-height:1.25;font-family:Poppins;-inkscape-font-specification:'Poppins, Medium';text-align:center;letter-spacing:0;text-anchor:middle;stroke-width:0.26"
       d="m 111.9217,-30.405688 q 0.30628,0 0.55328,0.13338 0.247,0.12844 0.38532,0.39026 0.14326,0.26182 0.14326,0.63726 v 1.59562 h -0.4446 v -1.5314 q 0,-0.40508 -0.20254,-0.6175 -0.20254,-0.21736 -0.55328,-0.21736 -0.35568,0 -0.5681,0.2223 -0.20748,0.2223 -0.20748,0.64714 v 1.49682 h -0.44954 v -3.6556 h 0.44954 v 1.3338 q 0.13338,-0.20748 0.36556,-0.3211 0.23712,-0.11362 0.52858,-0.11362 z m 2.99858,2.80098 q -0.38038,0 -0.6916,-0.1729 -0.30628,-0.1729 -0.48412,-0.48906 -0.1729,-0.3211 -0.1729,-0.741 0,-0.41496 0.17784,-0.73112 0.18278,-0.3211 0.494,-0.48906 0.31122,-0.1729 0.69654,-0.1729 0.38532,0 0.69654,0.1729 0.31122,0.16796 0.48906,0.48412 0.18278,0.31616 0.18278,0.73606 0,0.4199 -0.18772,0.741 -0.18278,0.31616 -0.49894,0.48906 -0.31616,0.1729 -0.70148,0.1729 z m 0,-0.3952 q 0.24206,0 0.45448,-0.11362 0.21242,-0.11362 0.34086,-0.34086 0.13338,-0.22724 0.13338,-0.55328 0,-0.32604 -0.12844,-0.55328 -0.12844,-0.22724 -0.33592,-0.33592 -0.20748,-0.11362 -0.44954,-0.11362 -0.247,0 -0.45448,0.11362 -0.20254,0.10868 -0.32604,0.33592 -0.1235,0.22724 -0.1235,0.55328 0,0.33098 0.11856,0.55822 0.1235,0.22724 0.32604,0.34086 0.20254,0.10868 0.4446,0.10868 z m 2.43048,-1.91672 q 0.11856,-0.23218 0.33592,-0.36062 0.2223,-0.12844 0.53846,-0.12844 v 0.46436 h -0.11856 q -0.75582,0 -0.75582,0.82004 v 1.47212 h -0.44954 v -2.70712 h 0.44954 z m 1.22511,0.90402 q 0,-0.41496 0.16796,-0.72618 0.16796,-0.31616 0.45942,-0.48906 0.2964,-0.1729 0.65702,-0.1729 0.35568,0 0.6175,0.15314 0.26182,0.15314 0.39026,0.38532 v -0.494 h 0.45448 v 2.70712 h -0.45448 v -0.50388 q -0.13338,0.23712 -0.40014,0.3952 -0.26182,0.15314 -0.61256,0.15314 -0.36062,0 -0.65208,-0.17784 -0.29146,-0.17784 -0.45942,-0.49894 -0.16796,-0.3211 -0.16796,-0.73112 z m 2.29216,0.0049 q 0,-0.30628 -0.1235,-0.53352 -0.1235,-0.22724 -0.33592,-0.3458 -0.20748,-0.1235 -0.45942,-0.1235 -0.25194,0 -0.45942,0.11856 -0.20748,0.11856 -0.33098,0.3458 -0.1235,0.22724 -0.1235,0.53352 0,0.31122 0.1235,0.5434 0.1235,0.22724 0.33098,0.35074 0.20748,0.11856 0.45942,0.11856 0.25194,0 0.45942,-0.11856 0.21242,-0.1235 0.33592,-0.35074 0.1235,-0.23218 0.1235,-0.53846 z m 1.66479,-0.90896 q 0.11856,-0.23218 0.33592,-0.36062 0.2223,-0.12844 0.53846,-0.12844 v 0.46436 h -0.11856 q -0.75582,0 -0.75582,0.82004 v 1.47212 h -0.44954 v -2.70712 h 0.44954 z m 1.62525,-0.87932 q -0.12844,0 -0.21736,-0.08892 -0.0889,-0.08892 -0.0889,-0.21736 0,-0.12844 0.0889,-0.21736 0.0889,-0.08892 0.21736,-0.08892 0.1235,0 0.20748,0.08892 0.0889,0.08892 0.0889,0.21736 0,0.12844 -0.0889,0.21736 -0.084,0.08892 -0.20748,0.08892 z m 0.21736,0.43966 v 2.70712 h -0.44954 v -2.70712 z m 1.94636,2.75158 q -0.38038,0 -0.6916,-0.1729 -0.30628,-0.1729 -0.48412,-0.48906 -0.1729,-0.3211 -0.1729,-0.741 0,-0.41496 0.17784,-0.73112 0.18278,-0.3211 0.494,-0.48906 0.31122,-0.1729 0.69654,-0.1729 0.38532,0 0.69654,0.1729 0.31122,0.16796 0.48906,0.48412 0.18278,0.31616 0.18278,0.73606 0,0.4199 -0.18772,0.741 -0.18278,0.31616 -0.49894,0.48906 -0.31616,0.1729 -0.70148,0.1729 z m 0,-0.3952 q 0.24206,0 0.45448,-0.11362 0.21242,-0.11362 0.34086,-0.34086 0.13338,-0.22724 0.13338,-0.55328 0,-0.32604 -0.12844,-0.55328 -0.12844,-0.22724 -0.33592,-0.33592 -0.20748,-0.11362 -0.44954,-0.11362 -0.247,0 -0.45448,0.11362 -0.20254,0.10868 -0.32604,0.33592 -0.1235,0.22724 -0.1235,0.55328 0,0.33098 0.11856,0.55822 0.1235,0.22724 0.32604,0.34086 0.20254,0.10868 0.4446,0.10868 z"
       id="text1240-9"
       aria-label="horario" />
    <path
       style="font-weight:500;font-size:4.94px;line-height:1.25;font-family:Poppins;-inkscape-font-specification:'Poppins, Medium';text-align:center;letter-spacing:0;text-anchor:middle;stroke-width:0.26"
       d="m 112.68246,-22.756468 q 0,0.12844 -0.0148,0.2717 h -2.16372 q 0.0247,0.40014 0.2717,0.62738 0.25194,0.2223 0.60762,0.2223 0.29146,0 0.48412,-0.13338 0.1976,-0.13832 0.27664,-0.36556 h 0.48412 q -0.10868,0.39026 -0.43472,0.63726 -0.32604,0.24206 -0.81016,0.24206 -0.38532,0 -0.6916,-0.1729 -0.30134,-0.1729 -0.47424,-0.48906 -0.1729,-0.3211 -0.1729,-0.741 0,-0.4199 0.16796,-0.73606 0.16796,-0.31616 0.4693,-0.48412 0.30628,-0.1729 0.70148,-0.1729 0.38532,0 0.68172,0.16796 0.2964,0.16796 0.45448,0.46436 0.16302,0.29146 0.16302,0.66196 z m -0.46436,-0.09386 q 0,-0.25688 -0.11362,-0.43966 -0.11362,-0.18772 -0.31122,-0.28158 -0.19266,-0.0988 -0.42978,-0.0988 -0.34086,0 -0.58292,0.21736 -0.23712,0.21736 -0.2717,0.60268 z m 2.47,1.55116 -0.6422,-1.00776 -0.6175,1.00776 h -0.4693 l 0.87438,-1.34368 -0.87438,-1.36344 h 0.50882 l 0.6422,1.00282 0.61256,-1.00282 h 0.4693 l -0.86944,1.33874 0.87438,1.36838 z m 1.50176,-2.33662 v 1.59562 q 0,0.1976 0.084,0.28158 0.084,0.07904 0.29146,0.07904 h 0.33098 v 0.38038 h -0.40508 q -0.37544,0 -0.56316,-0.1729 -0.18772,-0.1729 -0.18772,-0.5681 v -1.59562 h -0.35074 v -0.3705 h 0.35074 v -0.68172 h 0.44954 v 0.68172 h 0.70642 v 0.3705 z m 3.71982,0.87932 q 0,0.12844 -0.0148,0.2717 h -2.16372 q 0.0247,0.40014 0.2717,0.62738 0.25194,0.2223 0.60762,0.2223 0.29146,0 0.48412,-0.13338 0.1976,-0.13832 0.27664,-0.36556 h 0.48412 q -0.10868,0.39026 -0.43472,0.63726 -0.32604,0.24206 -0.81016,0.24206 -0.38532,0 -0.6916,-0.1729 -0.30134,-0.1729 -0.47424,-0.48906 -0.1729,-0.3211 -0.1729,-0.741 0,-0.4199 0.16796,-0.73606 0.16796,-0.31616 0.4693,-0.48412 0.30628,-0.1729 0.70148,-0.1729 0.38532,0 0.68172,0.16796 0.2964,0.16796 0.45448,0.46436 0.16302,0.29146 0.16302,0.66196 z m -0.46436,-0.09386 q 0,-0.25688 -0.11362,-0.43966 -0.11362,-0.18772 -0.31122,-0.28158 -0.19266,-0.0988 -0.42978,-0.0988 -0.34086,0 -0.58292,0.21736 -0.23712,0.21736 -0.2717,0.60268 z m 1.50671,-0.7163 q 0.11856,-0.23218 0.33592,-0.36062 0.2223,-0.12844 0.53846,-0.12844 v 0.46436 h -0.11856 q -0.75582,0 -0.75582,0.82004 v 1.47212 h -0.44954 v -2.70712 h 0.44954 z m 2.71205,-0.48906 q 0.494,0 0.80028,0.30134 0.30628,0.2964 0.30628,0.85956 v 1.59562 h -0.4446 v -1.5314 q 0,-0.40508 -0.20254,-0.6175 -0.20254,-0.21736 -0.55328,-0.21736 -0.35568,0 -0.5681,0.2223 -0.20748,0.2223 -0.20748,0.64714 v 1.49682 h -0.44954 v -2.70712 h 0.44954 v 0.38532 q 0.13338,-0.20748 0.36062,-0.3211 0.23218,-0.11362 0.50882,-0.11362 z m 3.02328,2.80098 q -0.38038,0 -0.6916,-0.1729 -0.30628,-0.1729 -0.48412,-0.48906 -0.1729,-0.3211 -0.1729,-0.741 0,-0.41496 0.17784,-0.73112 0.18278,-0.3211 0.494,-0.48906 0.31122,-0.1729 0.69654,-0.1729 0.38532,0 0.69654,0.1729 0.31122,0.16796 0.48906,0.48412 0.18278,0.31616 0.18278,0.73606 0,0.4199 -0.18772,0.741 -0.18278,0.31616 -0.49894,0.48906 -0.31616,0.1729 -0.70148,0.1729 z m 0,-0.3952 q 0.24206,0 0.45448,-0.11362 0.21242,-0.11362 0.34086,-0.34086 0.13338,-0.22724 0.13338,-0.55328 0,-0.32604 -0.12844,-0.55328 -0.12844,-0.22724 -0.33592,-0.33592 -0.20748,-0.11362 -0.44954,-0.11362 -0.247,0 -0.45448,0.11362 -0.20254,0.10868 -0.32604,0.33592 -0.1235,0.22724 -0.1235,0.55328 0,0.33098 0.11856,0.55822 0.1235,0.22724 0.32604,0.34086 0.20254,0.10868 0.4446,0.10868 z"
       id="text1240-9-1"
       aria-label="externo" />
    <path
       style="font-weight:500;font-size:4.94px;line-height:1.25;font-family:Poppins;-inkscape-font-specification:'Poppins, Medium';text-align:center;letter-spacing:0;text-anchor:middle;stroke-width:0.26"
       d="m 110.4644,51.231247 q -0.34086,0 -0.61256,-0.11856 -0.26676,-0.1235 -0.4199,-0.33592 -0.15314,-0.21736 -0.15808,-0.49894 h 0.47918 q 0.0247,0.24206 0.1976,0.41002 0.17784,0.16302 0.51376,0.16302 0.3211,0 0.50388,-0.15808 0.18772,-0.16302 0.18772,-0.41496 0,-0.1976 -0.10868,-0.3211 -0.10868,-0.1235 -0.2717,-0.18772 -0.16302,-0.06422 -0.43966,-0.13832 -0.34086,-0.08892 -0.54834,-0.17784 -0.20254,-0.08892 -0.35074,-0.27664 -0.14326,-0.19266 -0.14326,-0.51376 0,-0.28158 0.14326,-0.49894 0.14326,-0.21736 0.40014,-0.33592 0.26182,-0.11856 0.59774,-0.11856 0.48412,0 0.7904,0.24206 0.31122,0.24206 0.35074,0.6422 h -0.494 q -0.0247,-0.1976 -0.20748,-0.3458 -0.18278,-0.15314 -0.48412,-0.15314 -0.28158,0 -0.45942,0.1482 -0.17784,0.14326 -0.17784,0.40508 0,0.18772 0.10374,0.30628 0.10868,0.11856 0.26182,0.18278 0.15808,0.05928 0.43966,0.13832 0.34086,0.09386 0.54834,0.18772 0.20748,0.08892 0.35568,0.28158 0.1482,0.18772 0.1482,0.51376 0,0.25194 -0.13338,0.47424 -0.13338,0.2223 -0.3952,0.36062 -0.26182,0.13832 -0.6175,0.13832 z m 4.27804,-1.49188 q 0,0.12844 -0.0148,0.2717 h -2.16372 q 0.0247,0.40014 0.2717,0.62738 0.25194,0.2223 0.60762,0.2223 0.29146,0 0.48412,-0.13338 0.1976,-0.13832 0.27664,-0.36556 h 0.48412 q -0.10868,0.39026 -0.43472,0.63726 -0.32604,0.24206 -0.81016,0.24206 -0.38532,0 -0.6916,-0.1729 -0.30134,-0.1729 -0.47424,-0.48906 -0.1729,-0.3211 -0.1729,-0.741 0,-0.4199 0.16796,-0.73606 0.16796,-0.31616 0.4693,-0.48412 0.30628,-0.1729 0.70148,-0.1729 0.38532,0 0.68172,0.16796 0.2964,0.16796 0.45448,0.46436 0.16302,0.29146 0.16302,0.66196 z m -0.46436,-0.09386 q 0,-0.25688 -0.11362,-0.43966 -0.11362,-0.18772 -0.31122,-0.28158 -0.19266,-0.0988 -0.42978,-0.0988 -0.34086,0 -0.58292,0.21736 -0.23712,0.21736 -0.2717,0.60268 z m 1.5067,-0.7163 q 0.11856,-0.23218 0.33592,-0.36062 0.2223,-0.12844 0.53846,-0.12844 v 0.46436 h -0.11856 q -0.75582,0 -0.75582,0.82004 v 1.47212 h -0.44954 v -2.70712 h 0.44954 z m 2.40084,1.8525 0.8398,-2.29216 h 0.47918 l -1.0621,2.70712 h -0.52364 l -1.0621,-2.70712 h 0.48412 z m 1.99576,-2.73182 q -0.12844,0 -0.21736,-0.08892 -0.0889,-0.08892 -0.0889,-0.21736 0,-0.12844 0.0889,-0.21736 0.0889,-0.08892 0.21736,-0.08892 0.1235,0 0.20748,0.08892 0.0889,0.08892 0.0889,0.21736 0,0.12844 -0.0889,0.21736 -0.084,0.08892 -0.20748,0.08892 z m 0.21736,0.43966 v 2.70712 h -0.44954 v -2.70712 z m 0.59774,1.34368 q 0,-0.41496 0.16796,-0.72618 0.16796,-0.31616 0.45942,-0.48906 0.2964,-0.1729 0.66196,-0.1729 0.31616,0 0.58786,0.1482 0.2717,0.14326 0.41496,0.38038 v -1.4326 h 0.45448 v 3.6556 h -0.45448 v -0.50882 q -0.13338,0.24206 -0.3952,0.40014 -0.26182,0.15314 -0.61256,0.15314 -0.36062,0 -0.65702,-0.17784 -0.29146,-0.17784 -0.45942,-0.49894 -0.16796,-0.3211 -0.16796,-0.73112 z m 2.29216,0.0049 q 0,-0.30628 -0.1235,-0.53352 -0.1235,-0.22724 -0.33592,-0.3458 -0.20748,-0.1235 -0.45942,-0.1235 -0.25194,0 -0.45942,0.11856 -0.20748,0.11856 -0.33098,0.3458 -0.1235,0.22724 -0.1235,0.53352 0,0.31122 0.1235,0.5434 0.1235,0.22724 0.33098,0.35074 0.20748,0.11856 0.45942,0.11856 0.25194,0 0.45942,-0.11856 0.21242,-0.1235 0.33592,-0.35074 0.1235,-0.23218 0.1235,-0.53846 z m 2.39591,1.40296 q -0.38038,0 -0.6916,-0.1729 -0.30628,-0.1729 -0.48412,-0.48906 -0.1729,-0.3211 -0.1729,-0.741 0,-0.41496 0.17784,-0.73112 0.18278,-0.3211 0.494,-0.48906 0.31122,-0.1729 0.69654,-0.1729 0.38532,0 0.69654,0.1729 0.31122,0.16796 0.48906,0.48412 0.18278,0.31616 0.18278,0.73606 0,0.4199 -0.18772,0.741 -0.18278,0.31616 -0.49894,0.48906 -0.31616,0.1729 -0.70148,0.1729 z m 0,-0.3952 q 0.24206,0 0.45448,-0.11362 0.21242,-0.11362 0.34086,-0.34086 0.13338,-0.22724 0.13338,-0.55328 0,-0.32604 -0.12844,-0.55328 -0.12844,-0.22724 -0.33592,-0.33592 -0.20748,-0.11362 -0.44954,-0.11362 -0.247,0 -0.45448,0.11362 -0.20254,0.10868 -0.32604,0.33592 -0.1235,0.22724 -0.1235,0.55328 0,0.33098 0.11856,0.55822 0.1235,0.22724 0.32604,0.34086 0.20254,0.10868 0.4446,0.10868 z m 2.43047,-1.91672 q 0.11856,-0.23218 0.33592,-0.36062 0.2223,-0.12844 0.53846,-0.12844 v 0.46436 h -0.11856 q -0.75582,0 -0.75582,0.82004 v 1.47212 h -0.44954 v -2.70712 h 0.44954 z"
       id="text1240-3"
       aria-label="Servidor" />
    <path
       style="font-weight:500;font-size:4.94px;line-height:1.25;font-family:Poppins;-inkscape-font-specification:'Poppins, Medium';text-align:center;letter-spacing:0;text-anchor:middle;stroke-width:0.26"
       d="m 111.9217,54.790149 q 0.30628,0 0.55328,0.13338 0.247,0.12844 0.38532,0.39026 0.14326,0.26182 0.14326,0.63726 v 1.59562 h -0.4446 v -1.5314 q 0,-0.40508 -0.20254,-0.6175 -0.20254,-0.21736 -0.55328,-0.21736 -0.35568,0 -0.5681,0.2223 -0.20748,0.2223 -0.20748,0.64714 v 1.49682 h -0.44954 v -3.6556 h 0.44954 v 1.3338 q 0.13338,-0.20748 0.36556,-0.3211 0.23712,-0.11362 0.52858,-0.11362 z m 2.99858,2.80098 q -0.38038,0 -0.6916,-0.1729 -0.30628,-0.1729 -0.48412,-0.48906 -0.1729,-0.3211 -0.1729,-0.741 0,-0.41496 0.17784,-0.73112 0.18278,-0.3211 0.494,-0.48906 0.31122,-0.1729 0.69654,-0.1729 0.38532,0 0.69654,0.1729 0.31122,0.16796 0.48906,0.48412 0.18278,0.31616 0.18278,0.73606 0,0.4199 -0.18772,0.741 -0.18278,0.31616 -0.49894,0.48906 -0.31616,0.1729 -0.70148,0.1729 z m 0,-0.3952 q 0.24206,0 0.45448,-0.11362 0.21242,-0.11362 0.34086,-0.34086 0.13338,-0.22724 0.13338,-0.55328 0,-0.32604 -0.12844,-0.55328 -0.12844,-0.22724 -0.33592,-0.33592 -0.20748,-0.11362 -0.44954,-0.11362 -0.247,0 -0.45448,0.11362 -0.20254,0.10868 -0.32604,0.33592 -0.1235,0.22724 -0.1235,0.55328 0,0.33098 0.11856,0.55822 0.1235,0.22724 0.32604,0.34086 0.20254,0.10868 0.4446,0.10868 z m 2.43048,-1.91672 q 0.11856,-0.23218 0.33592,-0.36062 0.2223,-0.12844 0.53846,-0.12844 v 0.46436 h -0.11856 q -0.75582,0 -0.75582,0.82004 v 1.47212 h -0.44954 v -2.70712 h 0.44954 z m 1.22511,0.90402 q 0,-0.41496 0.16796,-0.72618 0.16796,-0.31616 0.45942,-0.48906 0.2964,-0.1729 0.65702,-0.1729 0.35568,0 0.6175,0.15314 0.26182,0.15314 0.39026,0.38532 v -0.494 h 0.45448 v 2.70712 h -0.45448 v -0.50388 q -0.13338,0.23712 -0.40014,0.3952 -0.26182,0.15314 -0.61256,0.15314 -0.36062,0 -0.65208,-0.17784 -0.29146,-0.17784 -0.45942,-0.49894 -0.16796,-0.3211 -0.16796,-0.73112 z m 2.29216,0.0049 q 0,-0.30628 -0.1235,-0.53352 -0.1235,-0.22724 -0.33592,-0.3458 -0.20748,-0.1235 -0.45942,-0.1235 -0.25194,0 -0.45942,0.11856 -0.20748,0.11856 -0.33098,0.3458 -0.1235,0.22724 -0.1235,0.53352 0,0.31122 0.1235,0.5434 0.1235,0.22724 0.33098,0.35074 0.20748,0.11856 0.45942,0.11856 0.25194,0 0.45942,-0.11856 0.21242,-0.1235 0.33592,-0.35074 0.1235,-0.23218 0.1235,-0.53846 z m 1.66479,-0.90896 q 0.11856,-0.23218 0.33592,-0.36062 0.2223,-0.12844 0.53846,-0.12844 v 0.46436 h -0.11856 q -0.75582,0 -0.75582,0.82004 v 1.47212 h -0.44954 v -2.70712 h 0.44954 z m 1.62525,-0.87932 q -0.12844,0 -0.21736,-0.08892 -0.0889,-0.08892 -0.0889,-0.21736 0,-0.12844 0.0889,-0.21736 0.0889,-0.08892 0.21736,-0.08892 0.1235,0 0.20748,0.08892 0.0889,0.08892 0.0889,0.21736 0,0.12844 -0.0889,0.21736 -0.084,0.08892 -0.20748,0.08892 z m 0.21736,0.43966 v 2.70712 h -0.44954 v -2.70712 z m 1.94636,2.75158 q -0.38038,0 -0.6916,-0.1729 -0.30628,-0.1729 -0.48412,-0.48906 -0.1729,-0.3211 -0.1729,-0.741 0,-0.41496 0.17784,-0.73112 0.18278,-0.3211 0.494,-0.48906 0.31122,-0.1729 0.69654,-0.1729 0.38532,0 0.69654,0.1729 0.31122,0.16796 0.48906,0.48412 0.18278,0.31616 0.18278,0.73606 0,0.4199 -0.18772,0.741 -0.18278,0.31616 -0.49894,0.48906 -0.31616,0.1729 -0.70148,0.1729 z m 0,-0.3952 q 0.24206,0 0.45448,-0.11362 0.21242,-0.11362 0.34086,-0.34086 0.13338,-0.22724 0.13338,-0.55328 0,-0.32604 -0.12844,-0.55328 -0.12844,-0.22724 -0.33592,-0.33592 -0.20748,-0.11362 -0.44954,-0.11362 -0.247,0 -0.45448,0.11362 -0.20254,0.10868 -0.32604,0.33592 -0.1235,0.22724 -0.1235,0.55328 0,0.33098 0.11856,0.55822 0.1235,0.22724 0.32604,0.34086 0.20254,0.10868 0.4446,0.10868 z"
       id="text1240-9-6"
       aria-label="horario" />
    <path
       style="font-weight:500;font-size:4.94px;line-height:1.25;font-family:Poppins;-inkscape-font-specification:'Poppins, Medium';text-align:center;letter-spacing:0;text-anchor:middle;stroke-width:0.26"
       d="m 110.97075,60.749887 q -0.12844,0 -0.21736,-0.08892 -0.0889,-0.08892 -0.0889,-0.21736 0,-0.12844 0.0889,-0.21736 0.0889,-0.08892 0.21736,-0.08892 0.1235,0 0.20748,0.08892 0.0889,0.08892 0.0889,0.21736 0,0.12844 -0.0889,0.21736 -0.084,0.08892 -0.20748,0.08892 z m 0.21736,0.43966 v 2.70712 h -0.44954 v -2.70712 z m 2.08468,-0.0494 q 0.494,0 0.80028,0.30134 0.30628,0.2964 0.30628,0.85956 v 1.59562 h -0.4446 v -1.5314 q 0,-0.40508 -0.20254,-0.6175 -0.20254,-0.21736 -0.55328,-0.21736 -0.35568,0 -0.5681,0.2223 -0.20748,0.2223 -0.20748,0.64714 v 1.49682 h -0.44954 v -2.70712 h 0.44954 v 0.38532 q 0.13338,-0.20748 0.36062,-0.3211 0.23218,-0.11362 0.50882,-0.11362 z m 2.39096,0.4199 v 1.59562 q 0,0.1976 0.084,0.28158 0.084,0.07904 0.29146,0.07904 h 0.33098 v 0.38038 h -0.40508 q -0.37544,0 -0.56316,-0.1729 -0.18772,-0.1729 -0.18772,-0.5681 v -1.59562 h -0.35074 v -0.3705 h 0.35074 v -0.68172 h 0.44954 v 0.68172 h 0.70642 v 0.3705 z m 3.71982,0.87932 q 0,0.12844 -0.0148,0.2717 h -2.16372 q 0.0247,0.40014 0.2717,0.62738 0.25194,0.2223 0.60762,0.2223 0.29146,0 0.48412,-0.13338 0.1976,-0.13832 0.27664,-0.36556 h 0.48412 q -0.10868,0.39026 -0.43472,0.63726 -0.32604,0.24206 -0.81016,0.24206 -0.38532,0 -0.6916,-0.1729 -0.30134,-0.1729 -0.47424,-0.48906 -0.1729,-0.3211 -0.1729,-0.741 0,-0.4199 0.16796,-0.73606 0.16796,-0.31616 0.4693,-0.48412 0.30628,-0.1729 0.70148,-0.1729 0.38532,0 0.68172,0.16796 0.2964,0.16796 0.45448,0.46436 0.16302,0.29146 0.16302,0.66196 z m -0.46436,-0.09386 q 0,-0.25688 -0.11362,-0.43966 -0.11362,-0.18772 -0.31122,-0.28158 -0.19266,-0.0988 -0.42978,-0.0988 -0.34086,0 -0.58292,0.21736 -0.23712,0.21736 -0.2717,0.60268 z m 1.5067,-0.7163 q 0.11856,-0.23218 0.33592,-0.36062 0.2223,-0.12844 0.53846,-0.12844 v 0.46436 h -0.11856 q -0.75582,0 -0.75582,0.82004 v 1.47212 h -0.44954 v -2.70712 h 0.44954 z m 2.71206,-0.48906 q 0.494,0 0.80028,0.30134 0.30628,0.2964 0.30628,0.85956 v 1.59562 h -0.4446 v -1.5314 q 0,-0.40508 -0.20254,-0.6175 -0.20254,-0.21736 -0.55328,-0.21736 -0.35568,0 -0.5681,0.2223 -0.20748,0.2223 -0.20748,0.64714 v 1.49682 h -0.44954 v -2.70712 h 0.44954 v 0.38532 q 0.13338,-0.20748 0.36062,-0.3211 0.23218,-0.11362 0.50882,-0.11362 z m 3.02328,2.80098 q -0.38038,0 -0.6916,-0.1729 -0.30628,-0.1729 -0.48412,-0.48906 -0.1729,-0.3211 -0.1729,-0.741 0,-0.41496 0.17784,-0.73112 0.18278,-0.3211 0.494,-0.48906 0.31122,-0.1729 0.69654,-0.1729 0.38532,0 0.69654,0.1729 0.31122,0.16796 0.48906,0.48412 0.18278,0.31616 0.18278,0.73606 0,0.4199 -0.18772,0.741 -0.18278,0.31616 -0.49894,0.48906 -0.31616,0.1729 -0.70148,0.1729 z m 0,-0.3952 q 0.24206,0 0.45448,-0.11362 0.21242,-0.11362 0.34086,-0.34086 0.13338,-0.22724 0.13338,-0.55328 0,-0.32604 -0.12844,-0.55328 -0.12844,-0.22724 -0.33592,-0.33592 -0.20748,-0.11362 -0.44954,-0.11362 -0.247,0 -0.45448,0.11362 -0.20254,0.10868 -0.32604,0.33592 -0.1235,0.22724 -0.1235,0.55328 0,0.33098 0.11856,0.55822 0.1235,0.22724 0.32604,0.34086 0.20254,0.10868 0.4446,0.10868 z"
       id="text1240-9-1-4"
       aria-label="interno" />
    <path
       d="M114.3 34.4V-7.94"
       fill="none"
       stroke="#0c322c"
       stroke-width=".53"
       marker-end="url(#b)"
       id="path1242"
       style="stroke:#000000;stroke-opacity:1;stroke-width:0.52996042;stroke-miterlimit:4;stroke-dasharray:none;stroke-linecap:square" />
    <path
       d="M124.88-7.94v41.8"
       fill="none"
       stroke="#0c322c"
       stroke-width=".53"
       marker-end="url(#b)"
       id="path1244"
       style="stroke:#000000;stroke-opacity:1;stroke-width:0.52996042;stroke-miterlimit:4;stroke-dasharray:none;stroke-linecap:square" />
    <path
       d="M26.46 13.23h185.2"
       fill="none"
       stroke="red"
       stroke-width=".66"
       stroke-dasharray="2.64583, 2.64583"
       id="path1246" />
    <path
       style="font-weight:500;font-size:4.94px;line-height:1.25;font-family:Poppins;-inkscape-font-specification:'Poppins, Medium';text-align:center;letter-spacing:0;text-anchor:middle;stroke-width:0.26"
       d="m 59.155801,3.8959399 q 0,-0.50388 0.22724,-0.90402 0.22724,-0.40508 0.6175,-0.6323201 0.3952,-0.22724 0.87438,-0.22724 0.56316,0 0.98306,0.2717 0.4199,0.2717001 0.61256,0.7706401 h -0.53846 q -0.14326,-0.31122 -0.41496,-0.47918 -0.26676,-0.1679601 -0.6422,-0.1679601 -0.36062,0 -0.64714,0.1679601 -0.28652,0.16796 -0.44954,0.47918 -0.16302,0.30628 -0.16302,0.72124 0,0.41002 0.16302,0.72124 0.16302,0.30628 0.44954,0.47424 0.28652,0.16796 0.64714,0.16796 0.37544,0 0.6422,-0.16302 0.2717,-0.16796 0.41496,-0.47918 h 0.53846 q -0.19266,0.494 -0.61256,0.7657 -0.4199,0.26676 -0.98306,0.26676 -0.47918,0 -0.87438,-0.2223 -0.39026,-0.22724 -0.6175,-0.62738 -0.22724,-0.40014 -0.22724,-0.90402 z m 5.162297,1.76852 q -0.38038,0 -0.6916,-0.1729 -0.30628,-0.1729 -0.48412,-0.48906 -0.1729,-0.3211 -0.1729,-0.741 0,-0.41496 0.17784,-0.73112 0.18278,-0.3211 0.494,-0.48906 0.31122,-0.1729 0.69654,-0.1729 0.38532,0 0.69654,0.1729 0.31122,0.16796 0.48906,0.48412 0.18278,0.31616 0.18278,0.73606 0,0.4199 -0.18772,0.741 -0.18278,0.31616 -0.49894,0.48906 -0.31616,0.1729 -0.70148,0.1729 z m 0,-0.3952 q 0.24206,0 0.45448,-0.11362 0.21242,-0.11362 0.34086,-0.34086 0.13338,-0.22724 0.13338,-0.55328 0,-0.32604 -0.12844,-0.55328 -0.12844,-0.22724 -0.33592,-0.33592 -0.20748,-0.11362 -0.44954,-0.11362 -0.247,0 -0.45448,0.11362 -0.20254,0.10868 -0.32604,0.33592 -0.1235,0.22724 -0.1235,0.55328 0,0.33098 0.11856,0.55822 0.1235,0.22724 0.32604,0.34086 0.20254,0.10868 0.4446,0.10868 z m 2.430477,-1.91672 q 0.11856,-0.23218 0.33592,-0.36062 0.2223,-0.12844 0.53846,-0.12844 v 0.46436 h -0.11856 q -0.75582,0 -0.75582,0.82004 v 1.47212 h -0.44954 v -2.70712 h 0.44954 z m 1.941416,-0.06916 v 1.59562 q 0,0.1976 0.08398,0.28158 0.08398,0.07904 0.29146,0.07904 h 0.33098 v 0.38038 h -0.40508 q -0.37544,0 -0.56316,-0.1729 -0.18772,-0.1729 -0.18772,-0.5681 v -1.59562 h -0.35074 v -0.3705 h 0.35074 V 2.2311598 h 0.44954 v 0.6817201 h 0.70642 v 0.3705 z m 1.081862,0.97318 q 0,-0.41496 0.16796,-0.72618 0.16796,-0.31616 0.45942,-0.48906 0.2964,-0.1729 0.65702,-0.1729 0.35568,0 0.6175,0.15314 0.26182,0.15314 0.39026,0.38532 v -0.494 h 0.45448 v 2.70712 h -0.45448 v -0.50388 q -0.13338,0.23712 -0.40014,0.3952 -0.26182,0.15314 -0.61256,0.15314 -0.36062,0 -0.65208,-0.17784 -0.29146,-0.17784 -0.45942,-0.49894 -0.16796,-0.3211 -0.16796,-0.73112 z m 2.29216,0.00494 q 0,-0.30628 -0.1235,-0.53352 -0.1235,-0.22724 -0.33592,-0.3458 -0.20748,-0.1235 -0.45942,-0.1235 -0.25194,0 -0.45942,0.11856 -0.20748,0.11856 -0.33098,0.3458 -0.1235,0.22724 -0.1235,0.53352 0,0.31122 0.1235,0.5434 0.1235,0.22724 0.33098,0.35074 0.20748,0.11856 0.45942,0.11856 0.25194,0 0.45942,-0.11856 0.21242,-0.1235 0.33592,-0.35074 0.1235,-0.23218 0.1235,-0.53846 z m 2.316863,-0.97812 h -0.5681 v 2.33662 h -0.44954 v -2.33662 h -0.35074 v -0.3705 h 0.35074 v -0.19266 q 0,-0.4544801 0.23218,-0.6619601 0.23712,-0.21242 0.75582,-0.21242 v 0.37544 q -0.2964,0 -0.4199,0.11856 -0.11856,0.11362 -0.11856,0.3803801 v 0.19266 h 0.5681 z m 2.924482,-0.3705 v 2.70712 h -0.44954 v -0.40014 q -0.12844,0.20748 -0.36062,0.32604 -0.22724,0.11362 -0.50388,0.11362 -0.31616,0 -0.5681,-0.12844 -0.25194,-0.13338 -0.40014,-0.3952 -0.14326,-0.26182 -0.14326,-0.63726 v -1.58574 h 0.4446 v 1.52646 q 0,0.40014 0.20254,0.6175 0.20254,0.21242 0.55328,0.21242 0.36062,0 0.5681,-0.2223 0.20748,-0.2223 0.20748,-0.64714 v -1.48694 z m 3.230756,1.24982 q 0,0.12844 -0.01482,0.2717 h -2.16372 q 0.0247,0.40014 0.2717,0.62738 0.25194,0.2223 0.60762,0.2223 0.29146,0 0.48412,-0.13338 0.1976,-0.13832 0.27664,-0.36556 h 0.48412 q -0.10868,0.39026 -0.43472,0.63726 -0.32604,0.24206 -0.81016,0.24206 -0.38532,0 -0.6916,-0.1729 -0.30134,-0.1729 -0.47424,-0.48906 -0.1729,-0.3211 -0.1729,-0.741 0,-0.4199 0.16796,-0.73606 0.16796,-0.31616 0.4693,-0.48412 0.30628,-0.1729 0.70148,-0.1729 0.38532,0 0.68172,0.16796 0.2964,0.16796 0.45448,0.46436 0.16302,0.29146 0.16302,0.66196 z m -0.46436,-0.09386 q 0,-0.25688 -0.11362,-0.43966 -0.11362,-0.18772 -0.31122,-0.28158 -0.19266,-0.0988 -0.42978,-0.0988 -0.34086,0 -0.58292,0.21736 -0.23712,0.21736 -0.2717,0.60268 z m 2.173606,-1.20042 q 0.35074,0 0.61256,0.15314 0.26676,0.15314 0.3952,0.38532 v -0.494 h 0.45448 v 2.7664 q 0,0.3705 -0.15808,0.65702 -0.15808,0.29146 -0.45448,0.45448 -0.29146,0.16302 -0.68172,0.16302 -0.53352,0 -0.8892,-0.25194 -0.35568,-0.25194 -0.4199,-0.68666 h 0.4446 q 0.0741,0.247 0.30628,0.3952 0.23218,0.15314 0.55822,0.15314 0.3705,0 0.60268,-0.23218 0.23712,-0.23218 0.23712,-0.65208 v -0.5681 q -0.13338,0.23712 -0.3952,0.3952 -0.26182,0.15808 -0.61256,0.15808 -0.36062,0 -0.65702,-0.17784 -0.29146,-0.17784 -0.45942,-0.49894 -0.16796,-0.3211 -0.16796,-0.73112 0,-0.41496 0.16796,-0.72618 0.16796,-0.31616 0.45942,-0.48906 0.2964,-0.1729 0.65702,-0.1729 z m 1.00776,1.39308 q 0,-0.30628 -0.1235,-0.53352 -0.1235,-0.22724 -0.33592,-0.3458 -0.20748,-0.1235 -0.45942,-0.1235 -0.25194,0 -0.45942,0.11856 -0.20748,0.11856 -0.33098,0.3458 -0.1235,0.22724 -0.1235,0.53352 0,0.31122 0.1235,0.5434 0.1235,0.22724 0.33098,0.35074 0.20748,0.11856 0.45942,0.11856 0.25194,0 0.45942,-0.11856 0.21242,-0.1235 0.33592,-0.35074 0.1235,-0.23218 0.1235,-0.53846 z m 2.395903,1.40296 q -0.38038,0 -0.6916,-0.1729 -0.30628,-0.1729 -0.48412,-0.48906 -0.1729,-0.3211 -0.1729,-0.741 0,-0.41496 0.17784,-0.73112 0.18278,-0.3211 0.494,-0.48906 0.31122,-0.1729 0.69654,-0.1729 0.38532,0 0.69654,0.1729 0.31122,0.16796 0.48906,0.48412 0.18278,0.31616 0.18278,0.73606 0,0.4199 -0.18772,0.741 -0.18278,0.31616 -0.49894,0.48906 -0.31616,0.1729 -0.70148,0.1729 z m 0,-0.3952 q 0.24206,0 0.45448,-0.11362 0.21242,-0.11362 0.34086,-0.34086 0.13338,-0.22724 0.13338,-0.55328 0,-0.32604 -0.12844,-0.55328 -0.12844,-0.22724 -0.33592,-0.33592 -0.20748,-0.11362 -0.44954,-0.11362 -0.247,0 -0.45448,0.11362 -0.20254,0.10868 -0.32604,0.33592 -0.1235,0.22724 -0.1235,0.55328 0,0.33098 0.11856,0.55822 0.1235,0.22724 0.32604,0.34086 0.20254,0.10868 0.4446,0.10868 z m 2.939296,0.3952 q -0.31122,0 -0.55822,-0.10374 -0.247,-0.10868 -0.39026,-0.2964 -0.14326,-0.19266 -0.15808,-0.43966 h 0.46436 q 0.01976,0.20254 0.18772,0.33098 0.1729,0.12844 0.44954,0.12844 0.25688,0 0.40508,-0.11362 0.1482,-0.11362 0.1482,-0.28652 0,-0.17784 -0.15808,-0.26182 -0.15808,-0.08892 -0.48906,-0.1729 -0.30134,-0.07904 -0.494,-0.15808 -0.18772,-0.08398 -0.32604,-0.24206 -0.13338,-0.16302 -0.13338,-0.42484 0,-0.20748 0.1235,-0.38038 0.1235,-0.1729 0.35074,-0.2717 0.22724,-0.10374 0.5187,-0.10374 0.44954,0 0.72618,0.22724 0.27664,0.22724 0.2964,0.62244 h -0.44954 q -0.01482,-0.21242 -0.1729,-0.34086 -0.15314,-0.12844 -0.41496,-0.12844 -0.24206,0 -0.38532,0.10374 -0.14326,0.10374 -0.14326,0.2717 0,0.13338 0.08398,0.2223 0.08892,0.08398 0.21736,0.13832 0.13338,0.0494 0.36556,0.11362 0.29146,0.07904 0.47424,0.15808 0.18278,0.0741 0.31122,0.22724 0.13338,0.15314 0.13832,0.40014 0,0.2223 -0.1235,0.40014 -0.1235,0.17784 -0.35074,0.28158 -0.2223,0.0988 -0.51376,0.0988 z"
       id="text1250"
       aria-label="Cortafuegos" />
    <path
       d="m 148.23242,3.3259402 q 0,-0.50388 0.22724,-0.90402 0.22724,-0.40508 0.6175,-0.63232 0.3952,-0.22724 0.87438,-0.22724 0.56316,0 0.98306,0.2717 0.4199,0.2717 0.61256,0.77064 h -0.53846 q -0.14326,-0.31122 -0.41496,-0.47918 -0.26676,-0.16796 -0.6422,-0.16796 -0.36062,0 -0.64714,0.16796 -0.28652,0.16796 -0.44954,0.47918 -0.16302,0.30628 -0.16302,0.72124 0,0.41002 0.16302,0.72124 0.16302,0.30628 0.44954,0.47424 0.28652,0.16796 0.64714,0.16796 0.37544,0 0.6422,-0.16302 0.2717,-0.16796 0.41496,-0.47918 h 0.53846 q -0.19266,0.494 -0.61256,0.7657 -0.4199,0.26676 -0.98306,0.26676 -0.47918,0 -0.87438,-0.2223 -0.39026,-0.22724 -0.6175,-0.62738 -0.22724,-0.40014 -0.22724,-0.90402 z m 5.1623,1.76852 q -0.38038,0 -0.6916,-0.1729 -0.30628,-0.1729 -0.48412,-0.48906 -0.1729,-0.3211 -0.1729,-0.741 0,-0.41496 0.17784,-0.73112 0.18278,-0.3211 0.494,-0.48906 0.31122,-0.1729 0.69654,-0.1729 0.38532,0 0.69654,0.1729 0.31122,0.16796 0.48906,0.48412 0.18278,0.31616 0.18278,0.73606 0,0.4199 -0.18772,0.741 -0.18278,0.31616 -0.49894,0.48906 -0.31616,0.1729 -0.70148,0.1729 z m 0,-0.3952 q 0.24206,0 0.45448,-0.11362 0.21242,-0.11362 0.34086,-0.34086 0.13338,-0.22724 0.13338,-0.55328 0,-0.32604 -0.12844,-0.55328 -0.12844,-0.22724 -0.33592,-0.33592 -0.20748,-0.11362 -0.44954,-0.11362 -0.247,0 -0.45448,0.11362 -0.20254,0.10868 -0.32604,0.33592 -0.1235,0.22724 -0.1235,0.55328 0,0.33098 0.11856,0.55822 0.1235,0.22724 0.32604,0.34086 0.20254,0.10868 0.4446,0.10868 z m 2.43048,-1.91672 q 0.11856,-0.23218 0.33592,-0.36062 0.2223,-0.12844 0.53846,-0.12844 v 0.46436 h -0.11856 q -0.75582,0 -0.75582,0.82004 v 1.47212 h -0.44954 v -2.70712 h 0.44954 z m 1.94141,-0.06916 v 1.59562 q 0,0.1976 0.084,0.28158 0.084,0.07904 0.29146,0.07904 h 0.33098 v 0.38038 h -0.40508 q -0.37544,0 -0.56316,-0.1729 -0.18772,-0.1729 -0.18772,-0.5681 v -1.59562 h -0.35074 v -0.3705 h 0.35074 v -0.68172 h 0.44954 v 0.68172 h 0.70642 v 0.3705 z m 1.08187,0.97318 q 0,-0.41496 0.16796,-0.72618 0.16796,-0.31616 0.45942,-0.48906 0.2964,-0.1729 0.65702,-0.1729 0.35568,0 0.6175,0.15314 0.26182,0.15314 0.39026,0.38532 v -0.494 h 0.45448 v 2.70712 h -0.45448 v -0.50388 q -0.13338,0.23712 -0.40014,0.3952 -0.26182,0.15314 -0.61256,0.15314 -0.36062,0 -0.65208,-0.17784 -0.29146,-0.17784 -0.45942,-0.49894 -0.16796,-0.3211 -0.16796,-0.73112 z m 2.29216,0.00494 q 0,-0.30628 -0.1235,-0.53352 -0.1235,-0.22724 -0.33592,-0.3458 -0.20748,-0.1235 -0.45942,-0.1235 -0.25194,0 -0.45942,0.11856 -0.20748,0.11856 -0.33098,0.3458 -0.1235,0.22724 -0.1235,0.53352 0,0.31122 0.1235,0.5434 0.1235,0.22724 0.33098,0.35074 0.20748,0.11856 0.45942,0.11856 0.25194,0 0.45942,-0.11856 0.21242,-0.1235 0.33592,-0.35074 0.1235,-0.23218 0.1235,-0.53846 z m 2.31686,-0.97812 h -0.5681 v 2.33662 h -0.44954 v -2.33662 h -0.35074 v -0.3705 h 0.35074 v -0.19266 q 0,-0.45448 0.23218,-0.6619601 0.23712,-0.21242 0.75582,-0.21242 v 0.3754401 q -0.2964,0 -0.4199,0.11856 -0.11856,0.11362 -0.11856,0.38038 v 0.19266 h 0.5681 z m 2.92448,-0.3705 v 2.70712 h -0.44954 v -0.40014 q -0.12844,0.20748 -0.36062,0.32604 -0.22724,0.11362 -0.50388,0.11362 -0.31616,0 -0.5681,-0.12844 -0.25194,-0.13338 -0.40014,-0.3952 -0.14326,-0.26182 -0.14326,-0.63726 v -1.58574 h 0.4446 v 1.52646 q 0,0.40014 0.20254,0.6175 0.20254,0.21242 0.55328,0.21242 0.36062,0 0.5681,-0.2223 0.20748,-0.2223 0.20748,-0.64714 v -1.48694 z m 3.23076,1.24982 q 0,0.12844 -0.0148,0.2717 h -2.16372 q 0.0247,0.40014 0.2717,0.62738 0.25194,0.2223 0.60762,0.2223 0.29146,0 0.48412,-0.13338 0.1976,-0.13832 0.27664,-0.36556 h 0.48412 q -0.10868,0.39026 -0.43472,0.63726 -0.32604,0.24206 -0.81016,0.24206 -0.38532,0 -0.6916,-0.1729 -0.30134,-0.1729 -0.47424,-0.48906 -0.1729,-0.3211 -0.1729,-0.741 0,-0.4199 0.16796,-0.73606 0.16796,-0.31616 0.4693,-0.48412 0.30628,-0.1729 0.70148,-0.1729 0.38532,0 0.68172,0.16796 0.2964,0.16796 0.45448,0.46436 0.16302,0.29146 0.16302,0.66196 z m -0.46436,-0.09386 q 0,-0.25688 -0.11362,-0.43966 -0.11362,-0.18772 -0.31122,-0.28158 -0.19266,-0.0988 -0.42978,-0.0988 -0.34086,0 -0.58292,0.21736 -0.23712,0.21736 -0.2717,0.60268 z m 2.1736,-1.20042 q 0.35074,0 0.61256,0.15314 0.26676,0.15314 0.3952,0.38532 v -0.494 h 0.45448 v 2.7664 q 0,0.3705 -0.15808,0.65702 -0.15808,0.29146 -0.45448,0.45448 -0.29146,0.16302 -0.68172,0.16302 -0.53352,0 -0.8892,-0.25194 -0.35568,-0.25194 -0.4199,-0.68666 h 0.4446 q 0.0741,0.247 0.30628,0.3952 0.23218,0.15314 0.55822,0.15314 0.3705,0 0.60268,-0.23218 0.23712,-0.23218 0.23712,-0.65208 v -0.5681 q -0.13338,0.23712 -0.3952,0.3952 -0.26182,0.15808 -0.61256,0.15808 -0.36062,0 -0.65702,-0.17784 -0.29146,-0.17784 -0.45942,-0.49894 -0.16796,-0.3211 -0.16796,-0.73112 0,-0.41496 0.16796,-0.72618 0.16796,-0.31616 0.45942,-0.48906 0.2964,-0.1729 0.65702,-0.1729 z m 1.00776,1.39308 q 0,-0.30628 -0.1235,-0.53352 -0.1235,-0.22724 -0.33592,-0.3458 -0.20748,-0.1235 -0.45942,-0.1235 -0.25194,0 -0.45942,0.11856 -0.20748,0.11856 -0.33098,0.3458 -0.1235,0.22724 -0.1235,0.53352 0,0.31122 0.1235,0.5434 0.1235,0.22724 0.33098,0.35074 0.20748,0.11856 0.45942,0.11856 0.25194,0 0.45942,-0.11856 0.21242,-0.1235 0.33592,-0.35074 0.1235,-0.23218 0.1235,-0.53846 z m 2.39591,1.40296 q -0.38038,0 -0.6916,-0.1729 -0.30628,-0.1729 -0.48412,-0.48906 -0.1729,-0.3211 -0.1729,-0.741 0,-0.41496 0.17784,-0.73112 0.18278,-0.3211 0.494,-0.48906 0.31122,-0.1729 0.69654,-0.1729 0.38532,0 0.69654,0.1729 0.31122,0.16796 0.48906,0.48412 0.18278,0.31616 0.18278,0.73606 0,0.4199 -0.18772,0.741 -0.18278,0.31616 -0.49894,0.48906 -0.31616,0.1729 -0.70148,0.1729 z m 0,-0.3952 q 0.24206,0 0.45448,-0.11362 0.21242,-0.11362 0.34086,-0.34086 0.13338,-0.22724 0.13338,-0.55328 0,-0.32604 -0.12844,-0.55328 -0.12844,-0.22724 -0.33592,-0.33592 -0.20748,-0.11362 -0.44954,-0.11362 -0.247,0 -0.45448,0.11362 -0.20254,0.10868 -0.32604,0.33592 -0.1235,0.22724 -0.1235,0.55328 0,0.33098 0.11856,0.55822 0.1235,0.22724 0.32604,0.34086 0.20254,0.10868 0.4446,0.10868 z m 2.93929,0.3952 q -0.31122,0 -0.55822,-0.10374 -0.247,-0.10868 -0.39026,-0.2964 -0.14326,-0.19266 -0.15808,-0.43966 h 0.46436 q 0.0198,0.20254 0.18772,0.33098 0.1729,0.12844 0.44954,0.12844 0.25688,0 0.40508,-0.11362 0.1482,-0.11362 0.1482,-0.28652 0,-0.17784 -0.15808,-0.26182 -0.15808,-0.08892 -0.48906,-0.1729 -0.30134,-0.07904 -0.494,-0.15808 -0.18772,-0.08398 -0.32604,-0.24206 -0.13338,-0.16302 -0.13338,-0.42484 0,-0.20748 0.1235,-0.38038 0.1235,-0.1729 0.35074,-0.2717 0.22724,-0.10374 0.5187,-0.10374 0.44954,0 0.72618,0.22724 0.27664,0.22724 0.2964,0.62244 h -0.44954 q -0.0148,-0.21242 -0.1729,-0.34086 -0.15314,-0.12844 -0.41496,-0.12844 -0.24206,0 -0.38532,0.10374 -0.14326,0.10374 -0.14326,0.2717 0,0.13338 0.084,0.2223 0.0889,0.08398 0.21736,0.13832 0.13338,0.0494 0.36556,0.11362 0.29146,0.07904 0.47424,0.15808 0.18278,0.0741 0.31122,0.22724 0.13338,0.15314 0.13832,0.40014 0,0.2223 -0.1235,0.40014 -0.1235,0.17784 -0.35074,0.28158 -0.2223,0.0988 -0.51376,0.0988 z"
       id="text1254"
       style="font-weight:500;font-size:4.94px;line-height:1.25;font-family:Poppins;-inkscape-font-specification:'Poppins, Medium';letter-spacing:0;stroke-width:0.26"
       aria-label="Cortafuegos" />
  </g>
</svg>
