<?xml version="1.0" encoding="UTF-8" standalone="no"?>
<svg
   width="720"
   height="490"
   viewBox="0 0 190.5 129.65"
   version="1.1"
   id="svg51"
   sodipodi:docname="desktop-machine-ntp.svg"
   inkscape:version="1.3.2 (091e20e, 2023-11-25, custom)"
   xmlns:inkscape="http://www.inkscape.org/namespaces/inkscape"
   xmlns:sodipodi="http://sodipodi.sourceforge.net/DTD/sodipodi-0.dtd"
   xmlns="http://www.w3.org/2000/svg"
   xmlns:svg="http://www.w3.org/2000/svg"
   xmlns:rdf="http://www.w3.org/1999/02/22-rdf-syntax-ns#"
   xmlns:cc="http://creativecommons.org/ns#"
   xmlns:dc="http://purl.org/dc/elements/1.1/">
  <metadata
     id="metadata55">
    <rdf:RDF>
      <cc:Work
         rdf:about="">
        <dc:format>image/svg+xml</dc:format>
        <dc:type
           rdf:resource="http://purl.org/dc/dcmitype/StillImage" />
      </cc:Work>
    </rdf:RDF>
  </metadata>
  <sodipodi:namedview
     pagecolor="#ffffff"
     bordercolor="#666666"
     borderopacity="1"
     objecttolerance="10"
     gridtolerance="10"
     guidetolerance="10"
     inkscape:pageopacity="0"
     inkscape:pageshadow="2"
     inkscape:window-width="1920"
     inkscape:window-height="1009"
     id="namedview53"
     showgrid="false"
     inkscape:zoom="1.2035246"
     inkscape:cx="360.6075"
     inkscape:cy="245.52884"
     inkscape:window-x="-8"
     inkscape:window-y="-8"
     inkscape:window-maximized="1"
     inkscape:current-layer="g49"
     inkscape:showpageshadow="2"
     inkscape:pagecheckerboard="0"
     inkscape:deskcolor="#d1d1d1" />
  <defs
     id="defs5">
    <marker
       markerWidth="3.06"
       markerHeight="4.71"
       refX="1.53"
       refY="2.35"
       orient="auto"
       id="a">
      <path
         d="m.35.35 2 2-2 2"
         fill="none"
         stroke="#000"
         id="path2" />
    </marker>
  </defs>
  <g
     transform="translate(-23.81 -10.58)"
     id="g49">
    <rect
       width="52.92"
       height="37.04"
       x="92.6"
       y="13.23"
       fill="#30ba78"
       paint-order="markers fill stroke"
       id="rect7" />
    <rect
       width="52.92"
       height="37.04"
       x="26.46"
       y="100.54"
       fill="#0c322c"
       paint-order="markers fill stroke"
       id="rect9" />
    <rect
       width="52.92"
       height="37.04"
       x="92.6"
       y="100.54"
       fill="#fe7c3f"
       paint-order="markers fill stroke"
       id="rect11" />
    <rect
       width="52.92"
       height="37.04"
       x="158.75"
       y="100.54"
       fill="#c7f1e3"
       paint-order="markers fill stroke"
       id="rect13" />
    <path
       d="M113.77 97.9V52.92"
       fill="none"
       stroke="#0c322c"
       stroke-width=".53"
       marker-end="url(#a)"
       id="path15"
       style="fill:none;stroke:#000000;stroke-opacity:1;stroke-width:0.52997745;stroke-miterlimit:4;stroke-dasharray:none;stroke-linecap:square" />
    <path
       d="M124.35 52.92V97.9"
       fill="none"
       stroke="#0c322c"
       stroke-width=".53"
       marker-end="url(#a)"
       id="path17"
       style="fill:none;stroke:#000000;stroke-opacity:1;stroke-width:0.52997745;stroke-miterlimit:4;stroke-dasharray:none;stroke-linecap:square" />
    <path
       d="M89.96 37.04H58.2V97.9"
       fill="none"
       stroke="#0c322c"
       stroke-width=".53"
       marker-end="url(#a)"
       id="path19"
       style="fill:none;stroke:#000000;stroke-opacity:1;stroke-width:0.52997745;stroke-miterlimit:4;stroke-dasharray:none;stroke-linecap:square" />
    <path
       d="M47.62 97.9V26.46h42.34"
       fill="none"
       stroke="#0c322c"
       stroke-width=".53"
       marker-end="url(#a)"
       id="path21"
       style="fill:none;stroke:#000000;stroke-opacity:1;stroke-width:0.52997745;stroke-miterlimit:4;stroke-dasharray:none;stroke-linecap:square" />
    <path
       d="M179.92 97.9V37.04h-31.75"
       fill="none"
       stroke="#0c322c"
       stroke-width=".53"
       marker-end="url(#a)"
       id="path23"
       style="fill:none;stroke:#000000;stroke-opacity:1;stroke-width:0.52997745;stroke-miterlimit:4;stroke-dasharray:none;stroke-linecap:square" />
    <path
       d="M148.17 26.46h42.33V97.9"
       fill="none"
       stroke="#0c322c"
       stroke-width=".53"
       marker-end="url(#a)"
       id="path25"
       style="fill:none;stroke:#000000;stroke-opacity:1;stroke-width:0.52997745;stroke-miterlimit:4;stroke-dasharray:none;stroke-linecap:square" />
    <path
       style="font-size:4.94px;line-height:1.25;font-family:'Noto Sans CJK SC';-inkscape-font-specification:'Noto Sans CJK SC';text-align:center;letter-spacing:0;text-anchor:middle;stroke-width:0.26"
       d="m 111.44746,26.117776 h -0.92872 c 0.0692,-0.2223 0.1235,-0.44954 0.17784,-0.68666 l -0.36062,-0.06916 c -0.17784,0.85956 -0.48906,1.67466 -0.9386,2.183481 0.079,0.0494 0.24206,0.16796 0.30134,0.23218 0.27664,-0.3458 0.51376,-0.800281 0.70148,-1.314041 h 0.9386 c -0.084,0.5187 -0.21736,0.968241 -0.38532,1.358501 -0.20748,-0.17784 -0.49894,-0.38532 -0.73606,-0.53352 l -0.2223,0.24206 c 0.26676,0.17784 0.5928,0.42978 0.80028,0.62244 -0.35074,0.6422 -0.82992,1.09174 -1.40296,1.3832 0.0889,0.05928 0.24206,0.20748 0.2964,0.30134 1.05222,-0.57304 1.82286,-1.72406 2.08468,-3.655601 l -0.25194,-0.08398 z m 1.12632,0.8398 v -1.59068 h -0.37544 v 4.505281 h 0.37544 v -2.682421 c 0.39026,0.330981 0.8398,0.745941 1.0621,1.027521 l 0.29146,-0.25194 c -0.26182,-0.31122 -0.79534,-0.780521 -1.22018,-1.116441 z m 4.2731,-1.0127 h -0.90896 c -0.0593,-0.16796 -0.15808,-0.41002 -0.26182,-0.60268 l -0.3211,0.09386 c 0.0692,0.15314 0.1482,0.3458 0.20254,0.50882 h -1.02258 v 0.33592 h 2.31192 z m -1.36838,1.21524 c -0.0494,-0.23218 -0.18278,-0.57798 -0.32604,-0.83486 l -0.31616,0.07904 c 0.13338,0.26676 0.26182,0.6175 0.30628,0.844741 z m 0.8892,1.225121 v 0.89414 h -1.34368 v -0.89414 z m -1.69442,1.4573 h 0.35074 v -0.23712 h 1.34368 v 0.1976 h 0.36062 v -1.74876 h -2.05504 z m 1.59068,-3.532101 c -0.079,0.27664 -0.22724,0.68172 -0.36062,0.958361 h -1.51164 v 0.33592 h 2.5688 v -0.33592 h -0.70148 c 0.1235,-0.256881 0.26182,-0.592801 0.3705,-0.879321 z m 2.2724,-0.70148 -0.0593,0.01976 h -1.26464 v 4.238521 h 0.33098 v -3.902601 h 0.78546 c -0.13338,0.38038 -0.32604,0.90402 -0.50882,1.318981 0.43966,0.44954 0.56316,0.80522 0.56316,1.11644 0.005,0.16796 -0.0296,0.3211 -0.12844,0.38532 -0.0543,0.02964 -0.1235,0.04446 -0.1976,0.0494 -0.0988,0.0049 -0.23712,0.0049 -0.38038,-0.0099 0.0593,0.10374 0.0939,0.25194 0.0988,0.35074 0.13832,0.0049 0.2964,0.0049 0.4199,-0.0099 0.11362,-0.0099 0.2223,-0.04446 0.30628,-0.10374 0.15808,-0.10374 0.2223,-0.3458 0.2223,-0.62738 0,-0.3458 -0.10868,-0.72618 -0.54834,-1.19054 0.20748,-0.454481 0.43472,-1.017641 0.61256,-1.467181 z m 2.12914,0.49894 v 1.07692 h -0.8398 v -1.07692 z m -0.8398,2.524341 v -1.11644 h 0.8398 v 1.11644 z m 1.1856,-2.855321 h -1.5314 v 3.581501 h 0.3458 v -0.39026 h 1.1856 z m 2.78122,0.57304 h -0.59774 v -0.95836 h -0.36556 v 0.95836 h -1.59562 v 0.36062 h 1.59562 v 2.618201 c 0,0.0988 -0.0395,0.12844 -0.13832,0.13338 -0.10868,0.0049 -0.47424,0.0049 -0.85462,-0.0049 0.0593,0.0988 0.11362,0.26676 0.13338,0.36556 0.494,0.0049 0.80522,0 0.97812,-0.06422 0.1729,-0.05434 0.247,-0.16796 0.247,-0.42978 v -2.618201 h 0.59774 z m -1.31898,1.931541 c -0.16302,-0.2964 -0.50882,-0.80028 -0.77064,-1.175721 l -0.30134,0.158081 c 0.26182,0.38038 0.5928,0.90402 0.75088,1.20536 z m 1.99576,1.59562 h 0.3705 v -3.403661 h -0.3705 z m 0.0741,-4.273101 c 0.2223,0.21736 0.47918,0.52364 0.5928,0.72124 l 0.2964,-0.1976 c -0.11362,-0.20254 -0.38038,-0.494 -0.60762,-0.69654 z m 1.3338,2.430481 h 1.17572 v 0.66196 h -1.17572 z m 0,-0.963301 h 1.17572 v 0.657021 h -1.17572 z m -0.33098,1.931541 h 1.8525 v -2.237821 h -1.8525 z m 2.94424,-3.359201 h -2.74664 v 0.3458 h 2.3712 v 3.438241 c 0,0.06422 -0.0198,0.08892 -0.084,0.08892 -0.0543,0 -0.26182,0.0049 -0.4693,-0.0049 0.0494,0.0988 0.0988,0.247 0.11856,0.3458 0.30134,0 0.50882,-0.0049 0.63726,-0.06916 0.12844,-0.05928 0.1729,-0.15314 0.1729,-0.36062 z"
       id="text33"
       aria-label="外部时间" />
    <path
       style="font-size:4.94px;line-height:1.25;font-family:'Noto Sans CJK SC';-inkscape-font-specification:'Noto Sans CJK SC';text-align:center;letter-spacing:0;text-anchor:middle;stroke-width:0.26"
       d="m 112.52438,34.216731 c 0.005,-0.1976 0.01,-0.39026 0.01,-0.55822 v -0.2717 h 0.74594 v 0.82992 z m 0.75582,-1.98094 v 0.81016 h -0.74594 v -0.81016 z m 0.34086,-0.34086 h -1.42272 v 1.76358 c 0,0.72618 -0.0247,1.7043 -0.36556,2.3959 0.0889,0.03458 0.23712,0.11856 0.30134,0.17784 0.22724,-0.46436 0.32604,-1.08186 0.3705,-1.66478 h 0.77558 v 1.21524 c 0,0.06916 -0.0247,0.08892 -0.0939,0.09386 -0.0593,0.0049 -0.26676,0.0049 -0.494,0 0.0494,0.09386 0.0988,0.25688 0.10868,0.35074 0.33098,0 0.52858,-0.0049 0.65208,-0.06916 0.12844,-0.06422 0.16796,-0.1729 0.16796,-0.3705 z m 2.25758,2.02046 c -0.11362,0.4199 -0.28158,0.7904 -0.494,1.10656 -0.22724,-0.32604 -0.40508,-0.70148 -0.53846,-1.10656 z m 0.18772,-0.35074 -0.0642,0.0099 h -1.60056 v -1.32392 h 1.3832 v 0.60268 c 0,0.05928 -0.0198,0.07904 -0.0988,0.07904 -0.0741,0.0049 -0.33098,0.0049 -0.63232,0 0.0494,0.08892 0.10374,0.21242 0.11856,0.31122 0.3705,0 0.6175,0 0.77558,-0.0494 0.1482,-0.05434 0.19266,-0.1482 0.19266,-0.33592 v -0.94848 h -2.08468 v 4.31756 h 0.3458 v -2.31192 h 0.1235 c 0.16302,0.50882 0.38038,0.98306 0.65702,1.3832 -0.22724,0.26676 -0.48412,0.47918 -0.75582,0.62738 0.0741,0.06422 0.16796,0.18772 0.21736,0.2717 0.2717,-0.15808 0.52364,-0.3705 0.74594,-0.63232 0.23712,0.27664 0.50388,0.49894 0.80028,0.6669 0.0543,-0.08892 0.15314,-0.21242 0.23712,-0.28158 -0.31122,-0.15314 -0.58786,-0.37544 -0.82498,-0.64714 0.31122,-0.43966 0.54834,-0.99294 0.67678,-1.66478 z m 3.0134,0.8892 c 0.0346,-0.13832 0.0692,-0.2964 0.0939,-0.45942 l -0.38038,-0.02964 c -0.0198,0.17784 -0.0543,0.34086 -0.0939,0.48906 h -1.47212 v 0.3211 h 1.3585 c -0.28158,0.63232 -0.82992,0.9633 -1.69936,1.13126 0.0692,0.0741 0.16302,0.22724 0.20254,0.31122 0.96824,-0.23218 1.57586,-0.64714 1.88708,-1.44248 h 1.49682 c -0.084,0.64714 -0.18278,0.94848 -0.2964,1.04234 -0.0543,0.03952 -0.11362,0.04446 -0.21242,0.04446 -0.1235,0 -0.43472,-0.0049 -0.74594,-0.03458 0.0642,0.09386 0.10868,0.22724 0.11362,0.32604 0.29146,0.01976 0.58786,0.01976 0.73112,0.01482 0.18278,-0.0099 0.29146,-0.03458 0.40014,-0.13338 0.16796,-0.15314 0.28158,-0.52364 0.38532,-1.41778 0.0148,-0.0494 0.0198,-0.16302 0.0198,-0.16302 z m -0.8151,-1.91672 h 1.99576 c -0.29146,0.29146 -0.69654,0.52858 -1.1609,0.7163 -0.38038,-0.16302 -0.6916,-0.37544 -0.90896,-0.64714 z m 2.34156,-0.33592 -0.0642,0.01976 h -1.99082 c 0.11856,-0.14326 0.2223,-0.29146 0.31616,-0.43472 l -0.38532,-0.07904 c -0.25194,0.42978 -0.741,0.9386 -1.4326,1.28934 0.079,0.05928 0.17784,0.18772 0.22724,0.2717 0.25194,-0.14326 0.47918,-0.29146 0.67678,-0.45448 0.20254,0.23218 0.44954,0.42484 0.73606,0.58292 -0.58292,0.18772 -1.23006,0.30628 -1.85744,0.36556 0.0593,0.08398 0.1235,0.22724 0.1482,0.3211 0.7163,-0.08892 1.4573,-0.23712 2.11432,-0.494 0.57304,0.23712 1.2597,0.3705 2.01552,0.43472 0.0445,-0.10374 0.12844,-0.247 0.20254,-0.33098 -0.65702,-0.03952 -1.26958,-0.12844 -1.78334,-0.28652 0.5434,-0.26676 1.00282,-0.60762 1.29922,-1.05222 z m 4.88072,0.74594 h -0.9139 v -0.69654 h 0.9139 z m 0.35568,-1.0127 h -1.61044 v 1.32886 h 1.61044 z m -1.28934,3.82356 v -0.72618 h 0.87438 v 0.72618 z m -1.15102,0 h -0.82004 v -0.72618 h 0.82004 z m -0.0494,-2.81086 h -0.87438 v -0.69654 h 0.87438 z m 2.85038,1.14114 v -0.32604 h -0.85462 l 0.11856,-0.1235 c -0.16302,-0.12844 -0.47424,-0.28158 -0.72618,-0.36556 l -0.19266,0.19266 c 0.1976,0.0741 0.42484,0.18772 0.58786,0.2964 h -1.37826 c 0.11362,-0.15808 0.21242,-0.3211 0.2964,-0.48412 l -0.35074,-0.06916 v -1.27452 h -1.5561 v 1.32886 h 1.50176 c -0.079,0.16302 -0.18772,0.33592 -0.33098,0.49894 h -1.52152 v 0.32604 h 1.20536 c -0.33098,0.28652 -0.76076,0.54834 -1.29428,0.74594 0.0692,0.05928 0.16796,0.19266 0.1976,0.27664 0.11856,-0.04446 0.22724,-0.09386 0.33592,-0.14326 v 1.25476 h 0.34086 v -0.14326 h 0.82004 v 0.11856 h 0.35074 v -1.48694 h -1.04234 c 0.30628,-0.18772 0.56316,-0.40014 0.77558,-0.62244 h 0.92378 c 0.2223,0.23218 0.50882,0.44954 0.82498,0.62244 h -1.02258 v 1.51164 h 0.34086 v -0.14326 h 0.87438 v 0.11856 h 0.35568 v -1.235 c 0.0939,0.03458 0.18772,0.06422 0.28158,0.09386 0.0494,-0.08892 0.1482,-0.2223 0.23218,-0.29146 -0.5187,-0.12844 -1.05716,-0.37544 -1.42766,-0.67678 z"
       id="text33-1"
       aria-label="服务器" />
    <path
       style="font-size:4.94px;line-height:1.25;font-family:'Noto Sans CJK SC';-inkscape-font-specification:'Noto Sans CJK SC';letter-spacing:0;fill:#ffffff;stroke-width:0.26"
       d="m 42.764643,117.42574 h 3.3839 v 0.67184 h 0.3705 v -1.0127 h -1.82286 c -0.05434,-0.14326 -0.15314,-0.33098 -0.24206,-0.4693 l -0.37544,0.10868 c 0.06422,0.10868 0.12844,0.23712 0.18278,0.36062 h -1.8525 v 1.0127 h 0.35568 z m 3.10726,0.98306 c -0.27664,0.25688 -0.70148,0.58292 -1.07692,0.82498 -0.10374,-0.26676 -0.27664,-0.52858 -0.50388,-0.75582 0.12844,-0.084 0.24206,-0.16796 0.35074,-0.26182 h 1.22512 v -0.3211 h -2.8405 v 0.3211 h 1.12632 c -0.4693,0.3211 -1.14114,0.5681 -1.76358,0.7163 0.06422,0.0692 0.16796,0.21736 0.20254,0.29146 0.47424,-0.14326 0.98306,-0.33592 1.42272,-0.58292 0.09386,0.0939 0.1729,0.18772 0.23712,0.29146 -0.42978,0.3211 -1.25476,0.67184 -1.87226,0.82004 0.06916,0.0741 0.1482,0.20748 0.18772,0.28652 0.58786,-0.18278 1.34862,-0.52858 1.83274,-0.85956 0.05928,0.11362 0.0988,0.23218 0.13338,0.3458 -0.48906,0.4446 -1.44742,0.90402 -2.23782,1.0868 0.06916,0.084 0.15314,0.21736 0.19266,0.31122 0.70642,-0.21736 1.55116,-0.62738 2.11432,-1.05716 0.04446,0.40014 -0.04446,0.741 -0.19266,0.84968 -0.09386,0.0889 -0.18772,0.10374 -0.31616,0.10374 -0.10374,0 -0.26676,-0.01 -0.4446,-0.0247 0.05434,0.0988 0.09386,0.24206 0.09386,0.3458 0.15808,0.005 0.31122,0.01 0.42484,0.01 0.21736,0 0.3458,-0.0395 0.50388,-0.1729 0.26676,-0.20748 0.39026,-0.8151 0.2223,-1.45236 0.0741,-0.0395 0.15808,-0.0889 0.23218,-0.13832 0.26676,0.71136 0.73606,1.2844 1.36344,1.56598 0.0494,-0.0939 0.15808,-0.23218 0.23712,-0.30134 -0.6175,-0.23712 -1.0868,-0.79534 -1.31404,-1.44742 0.26676,-0.17784 0.53846,-0.37544 0.76076,-0.55822 z m 3.72476,0.89414 v -0.82004 h 1.32886 v 0.82004 z m -1.56598,0 c 0.01482,-0.18278 0.01976,-0.36556 0.01976,-0.52858 v -0.29146 h 1.18066 v 0.82004 z m 1.20042,-1.95624 v 0.7904 h -1.18066 v -0.7904 z m 1.69442,0.7904 h -1.32886 v -0.7904 h 1.32886 z m 0.36062,-1.14114 h -3.59632 v 1.7784 c 0,0.68666 -0.0494,1.5561 -0.5928,2.16866 0.07904,0.0445 0.22724,0.16796 0.28158,0.24206 0.37544,-0.4199 0.5434,-0.98306 0.6175,-1.5314 h 1.235 v 1.4573 h 0.36556 v -1.4573 h 1.32886 v 1.00282 c 0,0.0939 -0.03458,0.1235 -0.13338,0.12844 -0.08892,0 -0.42484,0.005 -0.77064,-0.01 0.0494,0.0988 0.10868,0.25688 0.1235,0.35568 0.46436,0.005 0.75088,0 0.91884,-0.0593 0.15808,-0.0642 0.2223,-0.1729 0.2223,-0.41002 z m 1.59068,2.47494 v -0.70642 h 1.21524 v 0.70642 z m 1.21524,-1.7537 v 0.70642 h -1.21524 v -0.70642 z m 1.6549,0 v 0.70642 h -1.26958 v -0.70642 z m -1.26958,1.7537 v -0.70642 h 1.26958 v 0.70642 z m 0.35074,1.235 c -0.2964,0 -0.35074,-0.0593 -0.35074,-0.3458 v -0.52858 h 1.63514 v -2.47 h -1.63514 v -0.70642 h -0.38532 v 0.70642 h -1.59068 v 2.77134 h 0.37544 v -0.30134 h 1.21524 v 0.5187 c 0,0.57798 0.16302,0.72124 0.71136,0.72124 h 1.0868 c 0.5187,0 0.63726,-0.26182 0.70148,-1.00282 -0.11362,-0.0296 -0.2717,-0.0939 -0.36062,-0.16302 -0.03952,0.6422 -0.08892,0.80028 -0.36556,0.80028 z m 2.7417,-1.58574 c 0.0099,-0.1729 0.0099,-0.33592 0.0099,-0.48906 v -0.34086 h 0.63232 v 0.82992 z m 0.6422,-2.0007 v 0.85956 h -0.63232 v -0.85956 z m 0.31616,-0.30134 h -1.27452 v 1.81298 c 0,0.70642 -0.01976,1.66478 -0.2964,2.3465 0.0741,0.0346 0.21242,0.13832 0.2717,0.20254 0.20254,-0.48412 0.29146,-1.14114 0.32604,-1.74382 h 0.65702 v 1.2844 c 0,0.0593 -0.01976,0.0741 -0.06916,0.079 -0.05434,0 -0.1976,0 -0.36062,-0.01 0.04446,0.0939 0.08892,0.23712 0.0988,0.32604 0.24206,0 0.40014,-0.005 0.50388,-0.0642 0.10868,-0.0543 0.14326,-0.15314 0.14326,-0.32604 z m 2.44036,3.7297 h -1.8031 v -2.41566 h -0.35074 v 2.75652 h 2.15384 v 0.26182 h 0.34086 v -3.0381 h -0.34086 z m -0.1729,-0.58786 c -0.11856,-0.22724 -0.30134,-0.52364 -0.51376,-0.82992 0.1729,-0.37544 0.3211,-0.78052 0.43472,-1.2103 l -0.31122,-0.0692 c -0.08398,0.3458 -0.20254,0.67184 -0.33592,0.98306 -0.18278,-0.25688 -0.38038,-0.50882 -0.5681,-0.73112 l -0.23218,0.1729 c 0.21242,0.26676 0.4446,0.57304 0.65208,0.87932 -0.19266,0.36556 -0.42484,0.6916 -0.68666,0.94354 0.06916,0.0593 0.19266,0.18278 0.24206,0.24206 0.23712,-0.247 0.45448,-0.54834 0.6422,-0.89414 0.1729,0.2717 0.31616,0.52364 0.41496,0.72124 z m -0.61256,-2.55892 0.13338,-0.0494 c -0.0741,-0.18278 -0.23218,-0.48412 -0.36556,-0.70642 l -0.3211,0.10868 c 0.11362,0.1976 0.247,0.45942 0.3211,0.64714 h -1.2597 v 0.35074 h 2.75158 v -0.35074 z"
       id="text37"
       aria-label="家用电脑" />
    <path
       style="font-size:4.94px;line-height:1.25;font-family:'Noto Sans CJK SC';-inkscape-font-specification:'Noto Sans CJK SC';text-align:center;letter-spacing:0;text-anchor:middle;stroke-width:0.26"
       d="m 118.71806,119.12511 h -2.0254 v -0.80028 h 1.74876 v -0.35074 h -1.74876 v -0.80028 c 0.58292,-0.0692 1.12138,-0.16302 1.54128,-0.29146 l -0.27664,-0.29146 c -0.741,0.23218 -2.1736,0.36062 -3.33944,0.41496 0.0346,0.084 0.079,0.22724 0.0939,0.32604 0.50882,-0.0247 1.06704,-0.0593 1.61044,-0.11856 v 0.76076 h -1.69936 v 0.35074 h 1.69936 v 0.80028 h -2.03034 v 0.36062 h 2.03034 v 1.09174 c 0,0.10374 -0.0445,0.13832 -0.15314,0.13832 -0.11362,0.005 -0.49894,0.01 -0.9139,-0.005 0.0593,0.0988 0.12844,0.26182 0.15808,0.36556 0.5187,0.005 0.83486,-0.005 1.01764,-0.0642 0.18278,-0.0593 0.26182,-0.16796 0.26182,-0.42978 v -1.09668 h 2.0254 z m 2.43542,-0.15314 c -0.10374,-0.13832 -0.55822,-0.73606 -0.72618,-0.92378 v -0.16302 h 0.68666 v -0.35074 h -0.68666 v -0.94848 h -0.36062 v 0.94848 h -0.82498 v 0.35074 h 0.78052 c -0.16796,0.68172 -0.5187,1.46718 -0.85462,1.90684 0.0593,0.084 0.15314,0.21736 0.1976,0.3211 0.26182,-0.33098 0.50882,-0.86944 0.70148,-1.41778 v 2.3959 h 0.36062 v -2.5688 c 0.18278,0.2717 0.41002,0.6175 0.51376,0.80028 z m 1.98094,1.72406 c -0.0346,0 -0.0593,-0.01 -0.084,-0.0296 -0.0198,-0.0198 -0.0296,-0.11362 -0.0296,-0.27664 v -3.52716 h -1.6302 v 1.57586 c 0,0.75582 -0.0642,1.73394 -0.73112,2.4206 0.084,0.0445 0.23218,0.1729 0.28652,0.247 0.70642,-0.73112 0.81016,-1.8525 0.81016,-2.66266 v -1.23006 h 0.90402 v 3.14184 c 0,0.42978 0.0247,0.51376 0.10374,0.58292 0.079,0.0692 0.18278,0.0988 0.27664,0.0988 h 0.24206 c 0.0939,0 0.18772,-0.0198 0.25688,-0.0692 0.0642,-0.0543 0.10374,-0.12844 0.12844,-0.2717 0.0247,-0.1235 0.0395,-0.48906 0.0395,-0.7657 -0.0939,-0.0346 -0.20748,-0.0889 -0.28158,-0.15808 0,0.33098 -0.01,0.58786 -0.0148,0.70148 -0.0148,0.11362 -0.0247,0.15808 -0.0494,0.18772 -0.0247,0.0247 -0.0593,0.0346 -0.0939,0.0346 z"
       id="text43"
       aria-label="手机" />
    <path
       style="font-size:4.94px;line-height:1.25;font-family:'Noto Sans CJK SC';-inkscape-font-specification:'Noto Sans CJK SC';letter-spacing:0;stroke-width:0.26"
       d="m 176.74449,118.7546 c -0.13832,-0.0988 -0.70642,-0.4446 -0.89908,-0.54834 0.01,-0.0296 0.0198,-0.0543 0.0247,-0.084 h 0.9139 v -0.30134 h -0.85956 c 0.01,-0.0642 0.01,-0.11856 0.01,-0.17784 v -0.28652 h 0.72618 v -0.2964 h -1.34368 c 0.0494,-0.11856 0.0988,-0.23712 0.13338,-0.36062 l -0.33098,-0.0642 c -0.11362,0.3705 -0.30628,0.741 -0.55822,0.98306 0.084,0.0395 0.22724,0.12844 0.2964,0.17784 0.10868,-0.11856 0.21736,-0.2717 0.31122,-0.43966 h 0.41496 v 0.28652 c 0,0.0593 0,0.11362 -0.01,0.17784 h -1.0127 v 0.30134 h 0.94848 c -0.10374,0.30134 -0.36556,0.62738 -0.99294,0.87438 0.084,0.0543 0.18772,0.1729 0.23218,0.25194 0.5187,-0.23712 0.8151,-0.51376 0.98306,-0.79534 0.247,0.16796 0.61256,0.42978 0.75582,0.55328 z m 1.17572,0.68172 v 0.46436 h -2.28228 v -0.46436 z m -2.28228,1.23994 v -0.48906 h 2.28228 v 0.48906 z m -0.36062,0.48412 h 0.36062 v -0.18278 h 2.28228 v 0.1729 h 0.3705 v -2.01552 h -3.0134 z m 3.07268,-2.73676 h -1.01764 v -1.04728 h 1.01764 z m -1.36344,-1.37826 v 1.71418 h 1.72406 v -1.71418 z m 6.40718,1.75864 c 0.39026,0 0.49894,-0.16796 0.5434,-0.76076 -0.10374,-0.0247 -0.25194,-0.079 -0.32604,-0.14326 -0.0247,0.48906 -0.0593,0.57304 -0.247,0.57304 h -0.78546 c -0.2223,0 -0.26182,-0.0346 -0.26182,-0.18772 v -0.49894 c 0.47424,-0.14326 1.00282,-0.31616 1.39308,-0.49894 l -0.247,-0.26676 c -0.28158,0.14326 -0.72618,0.32604 -1.14608,0.46436 v -0.82498 h -0.35568 v 1.6302 c 0,0.40014 0.11856,0.51376 0.58292,0.51376 z m -3.29992,1.0621 v -0.44954 h 1.04234 v 0.44954 z m 1.04234,-1.1609 v 0.4199 h -1.04234 v -0.4199 z m 0.36062,-0.31122 h -1.74382 v 2.76146 h 0.34086 v -1.00282 h 1.04234 v 0.57798 c 0,0.0642 -0.0148,0.079 -0.084,0.079 -0.0642,0.005 -0.2717,0.01 -0.50388,0 0.0494,0.0939 0.0988,0.23712 0.11856,0.33592 0.31122,0 0.52364,-0.005 0.65702,-0.0642 0.13832,-0.0593 0.1729,-0.15808 0.1729,-0.3458 z m -0.71136,-1.32886 c 0.11856,0.16302 0.247,0.35568 0.35568,0.54834 l -1.08186,0.0642 c 0.21242,-0.26182 0.43472,-0.59774 0.60268,-0.92378 l -0.37544,-0.11856 c -0.15808,0.38532 -0.42978,0.77558 -0.51376,0.87932 -0.084,0.10374 -0.15314,0.1729 -0.22724,0.19266 0.0445,0.0889 0.0988,0.2717 0.11856,0.3458 0.10868,-0.0395 0.27664,-0.0642 1.62526,-0.16302 0.0445,0.0988 0.079,0.18278 0.10868,0.26182 l 0.3211,-0.14326 c -0.10374,-0.29146 -0.38038,-0.73606 -0.63232,-1.06704 z m 1.80804,3.72476 c -0.22724,0 -0.2717,-0.0296 -0.2717,-0.19266 v -0.57304 c 0.49894,-0.13832 1.06704,-0.32604 1.44248,-0.54834 l -0.24206,-0.2717 c -0.27664,0.18278 -0.75582,0.3705 -1.20042,0.51376 v -0.77558 h -0.36062 v 1.6549 c 0,0.40508 0.1235,0.5187 0.59774,0.5187 h 0.85956 c 0.41002,0 0.5187,-0.1729 0.56316,-0.8398 -0.10374,-0.0198 -0.247,-0.079 -0.32604,-0.13338 -0.0247,0.54834 -0.0642,0.64714 -0.26676,0.64714 z m 2.60338,-1.31898 v -0.70642 h 1.21524 v 0.70642 z m 1.21524,-1.7537 v 0.70642 h -1.21524 v -0.70642 z m 1.6549,0 v 0.70642 h -1.26958 v -0.70642 z m -1.26958,1.7537 v -0.70642 h 1.26958 v 0.70642 z m 0.35074,1.235 c -0.2964,0 -0.35074,-0.0593 -0.35074,-0.3458 v -0.52858 h 1.63514 v -2.47 h -1.63514 v -0.70642 h -0.38532 v 0.70642 h -1.59068 v 2.77134 h 0.37544 v -0.30134 h 1.21524 v 0.5187 c 0,0.57798 0.16302,0.72124 0.71136,0.72124 h 1.0868 c 0.5187,0 0.63726,-0.26182 0.70148,-1.00282 -0.11362,-0.0296 -0.2717,-0.0939 -0.36062,-0.16302 -0.0395,0.6422 -0.0889,0.80028 -0.36556,0.80028 z m 4.55468,-3.49258 h 1.51658 v 2.28228 h 0.36556 v -2.60832 h -2.23782 v 2.60832 h 0.35568 z m -1.05716,0.0642 c -0.0889,-0.18278 -0.28158,-0.43472 -0.4693,-0.6175 l -0.28158,0.16302 c 0.17784,0.19266 0.36556,0.46436 0.45448,0.6422 z m 0.48412,2.1242 c -0.0939,-0.10868 -0.43472,-0.50388 -0.6175,-0.70642 0.23218,-0.33098 0.43472,-0.70642 0.57304,-1.08186 l -0.1976,-0.13338 -0.0692,0.0148 h -1.36838 v 0.33592 h 1.19054 c -0.28652,0.62244 -0.81016,1.23994 -1.3091,1.5808 0.0543,0.0692 0.13338,0.25194 0.16302,0.35568 0.19266,-0.14326 0.38532,-0.3211 0.57304,-0.52364 v 1.91178 h 0.35074 v -2.11432 c 0.1729,0.2223 0.38038,0.50388 0.47918,0.65208 z m 1.81792,1.40296 c -0.14326,0 -0.18278,-0.0346 -0.18278,-0.1729 v -1.21524 h -0.247 c 0.0741,-0.30134 0.0988,-0.58786 0.0988,-0.85956 v -0.96824 h -0.35568 v 0.95836 c 0,0.7657 -0.1482,1.69936 -1.38814,2.34156 0.0741,0.0593 0.19266,0.1976 0.23218,0.27664 0.73606,-0.39026 1.12138,-0.90896 1.31898,-1.43754 v 0.94354 c 0,0.3211 0.13338,0.41496 0.4693,0.41496 h 0.44954 c 0.4199,0 0.47918,-0.1976 0.52364,-0.97318 -0.0939,-0.0247 -0.21242,-0.0741 -0.30134,-0.14326 -0.0247,0.70642 -0.0494,0.83486 -0.21736,0.83486 z"
       id="text47"
       aria-label="智能电视" />
  </g>
</svg>
