<?xml version="1.0" encoding="UTF-8" standalone="no"?>
<svg
   width="720"
   height="720"
   viewBox="0 0 190.5 190.5"
   version="1.1"
   id="svg1258"
   sodipodi:docname="multiple-machines-ntp.svg"
   inkscape:version="1.3.2 (091e20e, 2023-11-25, custom)"
   xmlns:inkscape="http://www.inkscape.org/namespaces/inkscape"
   xmlns:sodipodi="http://sodipodi.sourceforge.net/DTD/sodipodi-0.dtd"
   xmlns="http://www.w3.org/2000/svg"
   xmlns:svg="http://www.w3.org/2000/svg"
   xmlns:rdf="http://www.w3.org/1999/02/22-rdf-syntax-ns#"
   xmlns:cc="http://creativecommons.org/ns#"
   xmlns:dc="http://purl.org/dc/elements/1.1/">
  <metadata
     id="metadata1262">
    <rdf:RDF>
      <cc:Work
         rdf:about="">
        <dc:format>image/svg+xml</dc:format>
        <dc:type
           rdf:resource="http://purl.org/dc/dcmitype/StillImage" />
      </cc:Work>
    </rdf:RDF>
  </metadata>
  <sodipodi:namedview
     pagecolor="#ffffff"
     bordercolor="#666666"
     borderopacity="1"
     objecttolerance="10"
     gridtolerance="10"
     guidetolerance="10"
     inkscape:pageopacity="0"
     inkscape:pageshadow="2"
     inkscape:window-width="1920"
     inkscape:window-height="1009"
     id="namedview1260"
     showgrid="false"
     inkscape:zoom="1.1389221"
     inkscape:cx="346.81915"
     inkscape:cy="363.94061"
     inkscape:window-x="-8"
     inkscape:window-y="-8"
     inkscape:window-maximized="1"
     inkscape:current-layer="g1256"
     inkscape:showpageshadow="2"
     inkscape:pagecheckerboard="0"
     inkscape:deskcolor="#d1d1d1" />
  <defs
     id="defs1190">
    <marker
       markerWidth="3.06"
       markerHeight="4.71"
       refX="1.53"
       refY="2.35"
       orient="auto"
       id="a">
      <path
         d="m.35.35 2 2-2 2"
         fill="none"
         stroke="#000"
         id="path1184" />
    </marker>
    <marker
       markerWidth="3.06"
       markerHeight="4.71"
       refX="1.53"
       refY="2.35"
       orient="auto"
       id="b">
      <path
         d="m.35.35 2 2-2 2"
         fill="none"
         stroke="#000"
         id="path1187" />
    </marker>
  </defs>
  <g
     transform="translate(-23.81 50.27)"
     id="g1256">
    <rect
       width="52.92"
       height="37.04"
       x="26.46"
       y="100.54"
       fill="#0c322c"
       paint-order="markers fill stroke"
       id="rect1192" />
    <rect
       width="52.92"
       height="37.04"
       x="92.6"
       y="100.54"
       fill="#f3b292"
       paint-order="markers fill stroke"
       id="rect1194" />
    <rect
       width="52.92"
       height="37.04"
       x="158.75"
       y="100.54"
       fill="#c7f1e3"
       paint-order="markers fill stroke"
       id="rect1196" />
    <path
       d="M113.77 97.9V76.73"
       fill="none"
       stroke="#0c322c"
       stroke-width=".53"
       marker-end="url(#a)"
       id="path1198"
       style="stroke:#000000;stroke-opacity:1;stroke-width:0.52996042;stroke-miterlimit:4;stroke-dasharray:none;stroke-linecap:square" />
    <path
       d="M124.35 76.73V97.9"
       fill="none"
       stroke="#0c322c"
       stroke-width=".53"
       marker-end="url(#a)"
       id="path1200"
       style="stroke:#000000;stroke-opacity:1;stroke-width:0.52996042;stroke-miterlimit:4;stroke-dasharray:none;stroke-linecap:square" />
    <path
       d="M89.96 60.85H58.2V97.9"
       fill="none"
       stroke="#0c322c"
       stroke-width=".53"
       marker-end="url(#a)"
       id="path1202"
       style="stroke:#000000;stroke-opacity:1;stroke-width:0.52996042;stroke-miterlimit:4;stroke-dasharray:none;stroke-linecap:square" />
    <path
       d="M47.62 97.9V50.27h42.34"
       fill="none"
       stroke="#0c322c"
       stroke-width=".53"
       marker-end="url(#a)"
       id="path1204"
       style="stroke:#000000;stroke-opacity:1;stroke-width:0.52996042;stroke-miterlimit:4;stroke-dasharray:none;stroke-linecap:square" />
    <path
       d="M179.92 97.9V60.85h-31.75"
       fill="none"
       stroke="#0c322c"
       stroke-width=".53"
       marker-end="url(#a)"
       id="path1206"
       style="stroke:#000000;stroke-opacity:1;stroke-width:0.52996042;stroke-miterlimit:4;stroke-dasharray:none;stroke-linecap:square" />
    <path
       d="M148.17 50.27h42.33V97.9"
       fill="none"
       stroke="#0c322c"
       stroke-width=".53"
       marker-end="url(#a)"
       id="path1208"
       style="stroke:#000000;stroke-opacity:1;stroke-width:0.52996042;stroke-miterlimit:4;stroke-dasharray:none;stroke-linecap:square" />
    <rect
       width="52.92"
       height="37.04"
       x="92.6"
       y="37.04"
       fill="#fe7c3f"
       paint-order="markers fill stroke"
       id="rect1210" />
    <g
       id="text1222"
       style="font-weight:500;font-size:4.94px;line-height:1.25;font-family:Poppins;-inkscape-font-specification:'Poppins, Medium';letter-spacing:0;fill:#ffffff;stroke-width:0.26"
       aria-label="服务器 1">
      <path
         style="font-weight:normal;font-family:'Noto Sans CJK SC';-inkscape-font-specification:'Noto Sans CJK SC'"
         d="m 44.635214,119.2098 c 0.0049,-0.1976 0.0099,-0.39026 0.0099,-0.55822 v -0.2717 h 0.74594 v 0.82992 z m 0.75582,-1.98094 v 0.81016 h -0.74594 v -0.81016 z m 0.34086,-0.34086 h -1.42272 v 1.76358 c 0,0.72618 -0.0247,1.7043 -0.36556,2.3959 0.08892,0.0346 0.23712,0.11856 0.30134,0.17784 0.22724,-0.46436 0.32604,-1.08186 0.3705,-1.66478 h 0.77558 v 1.21524 c 0,0.0692 -0.0247,0.0889 -0.09386,0.0939 -0.05928,0.005 -0.26676,0.005 -0.494,0 0.0494,0.0939 0.0988,0.25688 0.10868,0.35074 0.33098,0 0.52858,-0.005 0.65208,-0.0692 0.12844,-0.0642 0.16796,-0.1729 0.16796,-0.3705 z m 2.25758,2.02046 c -0.11362,0.4199 -0.28158,0.7904 -0.494,1.10656 -0.22724,-0.32604 -0.40508,-0.70148 -0.53846,-1.10656 z m 0.18772,-0.35074 -0.06422,0.01 h -1.60056 v -1.32392 h 1.3832 v 0.60268 c 0,0.0593 -0.01976,0.079 -0.0988,0.079 -0.0741,0.005 -0.33098,0.005 -0.63232,0 0.0494,0.0889 0.10374,0.21242 0.11856,0.31122 0.3705,0 0.6175,0 0.77558,-0.0494 0.1482,-0.0543 0.19266,-0.1482 0.19266,-0.33592 v -0.94848 h -2.08468 v 4.31756 h 0.3458 v -2.31192 h 0.1235 c 0.16302,0.50882 0.38038,0.98306 0.65702,1.3832 -0.22724,0.26676 -0.48412,0.47918 -0.75582,0.62738 0.0741,0.0642 0.16796,0.18772 0.21736,0.2717 0.2717,-0.15808 0.52364,-0.3705 0.74594,-0.63232 0.23712,0.27664 0.50388,0.49894 0.80028,0.6669 0.05434,-0.0889 0.15314,-0.21242 0.23712,-0.28158 -0.31122,-0.15314 -0.58786,-0.37544 -0.82498,-0.64714 0.31122,-0.43966 0.54834,-0.99294 0.67678,-1.66478 z m 3.0134,0.8892 c 0.03458,-0.13832 0.06916,-0.2964 0.09386,-0.45942 l -0.38038,-0.0296 c -0.01976,0.17784 -0.05434,0.34086 -0.09386,0.48906 h -1.47212 v 0.3211 h 1.3585 c -0.28158,0.63232 -0.82992,0.9633 -1.69936,1.13126 0.06916,0.0741 0.16302,0.22724 0.20254,0.31122 0.96824,-0.23218 1.57586,-0.64714 1.88708,-1.44248 h 1.49682 c -0.08398,0.64714 -0.18278,0.94848 -0.2964,1.04234 -0.05434,0.0395 -0.11362,0.0445 -0.21242,0.0445 -0.1235,0 -0.43472,-0.005 -0.74594,-0.0346 0.06422,0.0939 0.10868,0.22724 0.11362,0.32604 0.29146,0.0198 0.58786,0.0198 0.73112,0.0148 0.18278,-0.01 0.29146,-0.0346 0.40014,-0.13338 0.16796,-0.15314 0.28158,-0.52364 0.38532,-1.41778 0.01482,-0.0494 0.01976,-0.16302 0.01976,-0.16302 z m -0.8151,-1.91672 h 1.99576 c -0.29146,0.29146 -0.69654,0.52858 -1.1609,0.7163 -0.38038,-0.16302 -0.6916,-0.37544 -0.90896,-0.64714 z m 2.34156,-0.33592 -0.06422,0.0198 h -1.99082 c 0.11856,-0.14326 0.2223,-0.29146 0.31616,-0.43472 l -0.38532,-0.079 c -0.25194,0.42978 -0.741,0.9386 -1.4326,1.28934 0.07904,0.0593 0.17784,0.18772 0.22724,0.2717 0.25194,-0.14326 0.47918,-0.29146 0.67678,-0.45448 0.20254,0.23218 0.44954,0.42484 0.73606,0.58292 -0.58292,0.18772 -1.23006,0.30628 -1.85744,0.36556 0.05928,0.084 0.1235,0.22724 0.1482,0.3211 0.7163,-0.0889 1.4573,-0.23712 2.11432,-0.494 0.57304,0.23712 1.2597,0.3705 2.01552,0.43472 0.04446,-0.10374 0.12844,-0.247 0.20254,-0.33098 -0.65702,-0.0395 -1.26958,-0.12844 -1.78334,-0.28652 0.5434,-0.26676 1.00282,-0.60762 1.29922,-1.05222 z m 4.88072,0.74594 h -0.9139 v -0.69654 h 0.9139 z m 0.35568,-1.0127 h -1.61044 v 1.32886 h 1.61044 z m -1.28934,3.82356 v -0.72618 h 0.87438 v 0.72618 z m -1.15102,0 h -0.82004 v -0.72618 h 0.82004 z m -0.0494,-2.81086 h -0.87438 v -0.69654 h 0.87438 z m 2.85038,1.14114 v -0.32604 h -0.85462 l 0.11856,-0.1235 c -0.16302,-0.12844 -0.47424,-0.28158 -0.72618,-0.36556 l -0.19266,0.19266 c 0.1976,0.0741 0.42484,0.18772 0.58786,0.2964 h -1.37826 c 0.11362,-0.15808 0.21242,-0.3211 0.2964,-0.48412 l -0.35074,-0.0692 v -1.27452 h -1.5561 v 1.32886 h 1.50176 c -0.07904,0.16302 -0.18772,0.33592 -0.33098,0.49894 h -1.52152 v 0.32604 h 1.20536 c -0.33098,0.28652 -0.76076,0.54834 -1.29428,0.74594 0.06916,0.0593 0.16796,0.19266 0.1976,0.27664 0.11856,-0.0445 0.22724,-0.0939 0.33592,-0.14326 v 1.25476 h 0.34086 v -0.14326 h 0.82004 v 0.11856 h 0.35074 v -1.48694 h -1.04234 c 0.30628,-0.18772 0.56316,-0.40014 0.77558,-0.62244 h 0.92378 c 0.2223,0.23218 0.50882,0.44954 0.82498,0.62244 h -1.02258 v 1.51164 h 0.34086 v -0.14326 h 0.87438 v 0.11856 h 0.35568 v -1.235 c 0.09386,0.0346 0.18772,0.0642 0.28158,0.0939 0.0494,-0.0889 0.1482,-0.2223 0.23218,-0.29146 -0.5187,-0.12844 -1.05716,-0.37544 -1.42766,-0.67678 z"
         id="path1" />
      <path
         d="m 60.087535,117.6784 v -0.41002 h 0.92872 V 120.84 h -0.45448 v -3.1616 z"
         id="path2" />
    </g>
    <g
       id="text1226"
       style="font-weight:500;font-size:4.94px;line-height:1.25;font-family:Poppins;-inkscape-font-specification:'Poppins, Medium';letter-spacing:0;stroke-width:0.26"
       aria-label="服务器 2">
      <path
         style="font-weight:normal;font-family:'Noto Sans CJK SC';-inkscape-font-specification:'Noto Sans CJK SC';text-align:center;text-anchor:middle"
         d="m 110.40463,119.2498 c 0.005,-0.1976 0.01,-0.39026 0.01,-0.55822 v -0.2717 h 0.74594 v 0.82992 z m 0.75582,-1.98094 v 0.81016 h -0.74594 v -0.81016 z m 0.34086,-0.34086 h -1.42272 v 1.76358 c 0,0.72618 -0.0247,1.7043 -0.36556,2.3959 0.0889,0.0346 0.23712,0.11856 0.30134,0.17784 0.22724,-0.46436 0.32604,-1.08186 0.3705,-1.66478 h 0.77558 v 1.21524 c 0,0.0692 -0.0247,0.0889 -0.0939,0.0939 -0.0593,0.005 -0.26676,0.005 -0.494,0 0.0494,0.0939 0.0988,0.25688 0.10868,0.35074 0.33098,0 0.52858,-0.005 0.65208,-0.0692 0.12844,-0.0642 0.16796,-0.1729 0.16796,-0.3705 z m 2.25758,2.02046 c -0.11362,0.4199 -0.28158,0.7904 -0.494,1.10656 -0.22724,-0.32604 -0.40508,-0.70148 -0.53846,-1.10656 z m 0.18772,-0.35074 -0.0642,0.01 h -1.60056 v -1.32392 h 1.3832 v 0.60268 c 0,0.0593 -0.0198,0.079 -0.0988,0.079 -0.0741,0.005 -0.33098,0.005 -0.63232,0 0.0494,0.0889 0.10374,0.21242 0.11856,0.31122 0.3705,0 0.6175,0 0.77558,-0.0494 0.1482,-0.0543 0.19266,-0.1482 0.19266,-0.33592 v -0.94848 h -2.08468 v 4.31756 h 0.3458 v -2.31192 h 0.1235 c 0.16302,0.50882 0.38038,0.98306 0.65702,1.3832 -0.22724,0.26676 -0.48412,0.47918 -0.75582,0.62738 0.0741,0.0642 0.16796,0.18772 0.21736,0.2717 0.2717,-0.15808 0.52364,-0.3705 0.74594,-0.63232 0.23712,0.27664 0.50388,0.49894 0.80028,0.6669 0.0543,-0.0889 0.15314,-0.21242 0.23712,-0.28158 -0.31122,-0.15314 -0.58786,-0.37544 -0.82498,-0.64714 0.31122,-0.43966 0.54834,-0.99294 0.67678,-1.66478 z m 3.0134,0.8892 c 0.0346,-0.13832 0.0692,-0.2964 0.0939,-0.45942 l -0.38038,-0.0296 c -0.0198,0.17784 -0.0543,0.34086 -0.0939,0.48906 h -1.47212 v 0.3211 h 1.3585 c -0.28158,0.63232 -0.82992,0.9633 -1.69936,1.13126 0.0692,0.0741 0.16302,0.22724 0.20254,0.31122 0.96824,-0.23218 1.57586,-0.64714 1.88708,-1.44248 h 1.49682 c -0.084,0.64714 -0.18278,0.94848 -0.2964,1.04234 -0.0543,0.0395 -0.11362,0.0445 -0.21242,0.0445 -0.1235,0 -0.43472,-0.005 -0.74594,-0.0346 0.0642,0.0939 0.10868,0.22724 0.11362,0.32604 0.29146,0.0198 0.58786,0.0198 0.73112,0.0148 0.18278,-0.01 0.29146,-0.0346 0.40014,-0.13338 0.16796,-0.15314 0.28158,-0.52364 0.38532,-1.41778 0.0148,-0.0494 0.0198,-0.16302 0.0198,-0.16302 z m -0.8151,-1.91672 h 1.99576 c -0.29146,0.29146 -0.69654,0.52858 -1.1609,0.7163 -0.38038,-0.16302 -0.6916,-0.37544 -0.90896,-0.64714 z m 2.34156,-0.33592 -0.0642,0.0198 h -1.99082 c 0.11856,-0.14326 0.2223,-0.29146 0.31616,-0.43472 l -0.38532,-0.079 c -0.25194,0.42978 -0.741,0.9386 -1.4326,1.28934 0.079,0.0593 0.17784,0.18772 0.22724,0.2717 0.25194,-0.14326 0.47918,-0.29146 0.67678,-0.45448 0.20254,0.23218 0.44954,0.42484 0.73606,0.58292 -0.58292,0.18772 -1.23006,0.30628 -1.85744,0.36556 0.0593,0.084 0.1235,0.22724 0.1482,0.3211 0.7163,-0.0889 1.4573,-0.23712 2.11432,-0.494 0.57304,0.23712 1.2597,0.3705 2.01552,0.43472 0.0445,-0.10374 0.12844,-0.247 0.20254,-0.33098 -0.65702,-0.0395 -1.26958,-0.12844 -1.78334,-0.28652 0.5434,-0.26676 1.00282,-0.60762 1.29922,-1.05222 z m 4.88072,0.74594 h -0.9139 v -0.69654 h 0.9139 z m 0.35568,-1.0127 h -1.61044 v 1.32886 h 1.61044 z m -1.28934,3.82356 v -0.72618 h 0.87438 v 0.72618 z m -1.15102,0 h -0.82004 v -0.72618 h 0.82004 z m -0.0494,-2.81086 h -0.87438 v -0.69654 h 0.87438 z m 2.85038,1.14114 v -0.32604 h -0.85462 l 0.11856,-0.1235 c -0.16302,-0.12844 -0.47424,-0.28158 -0.72618,-0.36556 l -0.19266,0.19266 c 0.1976,0.0741 0.42484,0.18772 0.58786,0.2964 h -1.37826 c 0.11362,-0.15808 0.21242,-0.3211 0.2964,-0.48412 l -0.35074,-0.0692 v -1.27452 h -1.5561 v 1.32886 h 1.50176 c -0.079,0.16302 -0.18772,0.33592 -0.33098,0.49894 h -1.52152 v 0.32604 h 1.20536 c -0.33098,0.28652 -0.76076,0.54834 -1.29428,0.74594 0.0692,0.0593 0.16796,0.19266 0.1976,0.27664 0.11856,-0.0445 0.22724,-0.0939 0.33592,-0.14326 v 1.25476 h 0.34086 v -0.14326 h 0.82004 v 0.11856 h 0.35074 v -1.48694 h -1.04234 c 0.30628,-0.18772 0.56316,-0.40014 0.77558,-0.62244 h 0.92378 c 0.2223,0.23218 0.50882,0.44954 0.82498,0.62244 h -1.02258 v 1.51164 h 0.34086 v -0.14326 h 0.87438 v 0.11856 h 0.35568 v -1.235 c 0.0939,0.0346 0.18772,0.0642 0.28158,0.0939 0.0494,-0.0889 0.1482,-0.2223 0.23218,-0.29146 -0.5187,-0.12844 -1.05716,-0.37544 -1.42766,-0.67678 z"
         id="path3" />
      <path
         style="text-align:center;text-anchor:middle"
         d="m 125.92118,120.51938 q 0.62738,-0.50388 0.98306,-0.82498 0.35568,-0.32604 0.59774,-0.67678 0.247,-0.35568 0.247,-0.69654 0,-0.3211 -0.15808,-0.50388 -0.15314,-0.18772 -0.49894,-0.18772 -0.33592,0 -0.52364,0.21242 -0.18278,0.20748 -0.1976,0.55822 H 125.936 q 0.0198,-0.55328 0.33592,-0.85462 0.31616,-0.30134 0.8151,-0.30134 0.50882,0 0.80522,0.28158 0.30134,0.28158 0.30134,0.77558 0,0.41002 -0.247,0.80028 -0.24206,0.38532 -0.55328,0.68172 -0.31122,0.29146 -0.79534,0.68172 h 1.69936 v 0.37544 h -2.37614 z"
         id="path4" />
    </g>
    <g
       id="text1230"
       style="font-weight:500;font-size:4.94px;line-height:1.25;font-family:Poppins;-inkscape-font-specification:'Poppins, Medium';letter-spacing:0;stroke-width:0.26"
       aria-label="服务器 3">
      <path
         style="font-weight:normal;font-family:'Noto Sans CJK SC';-inkscape-font-specification:'Noto Sans CJK SC'"
         d="m 176.23522,119.2498 c 0.005,-0.1976 0.01,-0.39026 0.01,-0.55822 v -0.2717 h 0.74594 v 0.82992 z m 0.75582,-1.98094 v 0.81016 h -0.74594 v -0.81016 z m 0.34086,-0.34086 h -1.42272 v 1.76358 c 0,0.72618 -0.0247,1.7043 -0.36556,2.3959 0.0889,0.0346 0.23712,0.11856 0.30134,0.17784 0.22724,-0.46436 0.32604,-1.08186 0.3705,-1.66478 h 0.77558 v 1.21524 c 0,0.0692 -0.0247,0.0889 -0.0939,0.0939 -0.0593,0.005 -0.26676,0.005 -0.494,0 0.0494,0.0939 0.0988,0.25688 0.10868,0.35074 0.33098,0 0.52858,-0.005 0.65208,-0.0692 0.12844,-0.0642 0.16796,-0.1729 0.16796,-0.3705 z m 2.25758,2.02046 c -0.11362,0.4199 -0.28158,0.7904 -0.494,1.10656 -0.22724,-0.32604 -0.40508,-0.70148 -0.53846,-1.10656 z m 0.18772,-0.35074 -0.0642,0.01 h -1.60056 v -1.32392 h 1.3832 v 0.60268 c 0,0.0593 -0.0198,0.079 -0.0988,0.079 -0.0741,0.005 -0.33098,0.005 -0.63232,0 0.0494,0.0889 0.10374,0.21242 0.11856,0.31122 0.3705,0 0.6175,0 0.77558,-0.0494 0.1482,-0.0543 0.19266,-0.1482 0.19266,-0.33592 v -0.94848 h -2.08468 v 4.31756 h 0.3458 v -2.31192 h 0.1235 c 0.16302,0.50882 0.38038,0.98306 0.65702,1.3832 -0.22724,0.26676 -0.48412,0.47918 -0.75582,0.62738 0.0741,0.0642 0.16796,0.18772 0.21736,0.2717 0.2717,-0.15808 0.52364,-0.3705 0.74594,-0.63232 0.23712,0.27664 0.50388,0.49894 0.80028,0.6669 0.0543,-0.0889 0.15314,-0.21242 0.23712,-0.28158 -0.31122,-0.15314 -0.58786,-0.37544 -0.82498,-0.64714 0.31122,-0.43966 0.54834,-0.99294 0.67678,-1.66478 z m 3.0134,0.8892 c 0.0346,-0.13832 0.0692,-0.2964 0.0939,-0.45942 l -0.38038,-0.0296 c -0.0198,0.17784 -0.0543,0.34086 -0.0939,0.48906 h -1.47212 v 0.3211 h 1.3585 c -0.28158,0.63232 -0.82992,0.9633 -1.69936,1.13126 0.0692,0.0741 0.16302,0.22724 0.20254,0.31122 0.96824,-0.23218 1.57586,-0.64714 1.88708,-1.44248 h 1.49682 c -0.084,0.64714 -0.18278,0.94848 -0.2964,1.04234 -0.0543,0.0395 -0.11362,0.0445 -0.21242,0.0445 -0.1235,0 -0.43472,-0.005 -0.74594,-0.0346 0.0642,0.0939 0.10868,0.22724 0.11362,0.32604 0.29146,0.0198 0.58786,0.0198 0.73112,0.0148 0.18278,-0.01 0.29146,-0.0346 0.40014,-0.13338 0.16796,-0.15314 0.28158,-0.52364 0.38532,-1.41778 0.0148,-0.0494 0.0198,-0.16302 0.0198,-0.16302 z m -0.8151,-1.91672 h 1.99576 c -0.29146,0.29146 -0.69654,0.52858 -1.1609,0.7163 -0.38038,-0.16302 -0.6916,-0.37544 -0.90896,-0.64714 z m 2.34156,-0.33592 -0.0642,0.0198 h -1.99082 c 0.11856,-0.14326 0.2223,-0.29146 0.31616,-0.43472 l -0.38532,-0.079 c -0.25194,0.42978 -0.741,0.9386 -1.4326,1.28934 0.079,0.0593 0.17784,0.18772 0.22724,0.2717 0.25194,-0.14326 0.47918,-0.29146 0.67678,-0.45448 0.20254,0.23218 0.44954,0.42484 0.73606,0.58292 -0.58292,0.18772 -1.23006,0.30628 -1.85744,0.36556 0.0593,0.084 0.1235,0.22724 0.1482,0.3211 0.7163,-0.0889 1.4573,-0.23712 2.11432,-0.494 0.57304,0.23712 1.2597,0.3705 2.01552,0.43472 0.0445,-0.10374 0.12844,-0.247 0.20254,-0.33098 -0.65702,-0.0395 -1.26958,-0.12844 -1.78334,-0.28652 0.5434,-0.26676 1.00282,-0.60762 1.29922,-1.05222 z m 4.88072,0.74594 h -0.9139 v -0.69654 h 0.9139 z m 0.35568,-1.0127 h -1.61044 v 1.32886 h 1.61044 z m -1.28934,3.82356 v -0.72618 h 0.87438 v 0.72618 z m -1.15102,0 h -0.82004 v -0.72618 h 0.82004 z m -0.0494,-2.81086 h -0.87438 v -0.69654 h 0.87438 z m 2.85038,1.14114 v -0.32604 h -0.85462 l 0.11856,-0.1235 c -0.16302,-0.12844 -0.47424,-0.28158 -0.72618,-0.36556 l -0.19266,0.19266 c 0.1976,0.0741 0.42484,0.18772 0.58786,0.2964 h -1.37826 c 0.11362,-0.15808 0.21242,-0.3211 0.2964,-0.48412 l -0.35074,-0.0692 v -1.27452 h -1.5561 v 1.32886 h 1.50176 c -0.079,0.16302 -0.18772,0.33592 -0.33098,0.49894 h -1.52152 v 0.32604 h 1.20536 c -0.33098,0.28652 -0.76076,0.54834 -1.29428,0.74594 0.0692,0.0593 0.16796,0.19266 0.1976,0.27664 0.11856,-0.0445 0.22724,-0.0939 0.33592,-0.14326 v 1.25476 h 0.34086 v -0.14326 h 0.82004 v 0.11856 h 0.35074 v -1.48694 h -1.04234 c 0.30628,-0.18772 0.56316,-0.40014 0.77558,-0.62244 h 0.92378 c 0.2223,0.23218 0.50882,0.44954 0.82498,0.62244 h -1.02258 v 1.51164 h 0.34086 v -0.14326 h 0.87438 v 0.11856 h 0.35568 v -1.235 c 0.0939,0.0346 0.18772,0.0642 0.28158,0.0939 0.0494,-0.0889 0.1482,-0.2223 0.23218,-0.29146 -0.5187,-0.12844 -1.05716,-0.37544 -1.42766,-0.67678 z"
         id="path5" />
      <path
         d="m 191.79622,118.20746 q 0.0346,-0.45448 0.35074,-0.71136 0.31616,-0.25688 0.82004,-0.25688 0.33592,0 0.57798,0.1235 0.247,0.11856 0.3705,0.32604 0.12844,0.20748 0.12844,0.4693 0,0.30628 -0.17784,0.52858 -0.1729,0.2223 -0.45448,0.28652 v 0.0247 q 0.3211,0.079 0.50882,0.31122 0.18772,0.23218 0.18772,0.60762 0,0.28158 -0.12844,0.50882 -0.12844,0.2223 -0.38532,0.35074 -0.25688,0.12844 -0.6175,0.12844 -0.52364,0 -0.85956,-0.2717 -0.33592,-0.27664 -0.37544,-0.78052 h 0.43472 q 0.0346,0.2964 0.24206,0.48412 0.20748,0.18772 0.55328,0.18772 0.3458,0 0.52364,-0.17784 0.18278,-0.18278 0.18278,-0.4693 0,-0.3705 -0.247,-0.53352 -0.247,-0.16302 -0.74594,-0.16302 h -0.11362 v -0.37544 h 0.11856 q 0.45448,-0.005 0.68666,-0.1482 0.23218,-0.1482 0.23218,-0.45448 0,-0.26182 -0.1729,-0.4199 -0.16796,-0.15808 -0.48412,-0.15808 -0.30628,0 -0.494,0.15808 -0.18772,0.15808 -0.2223,0.42484 z"
         id="path6" />
    </g>
    <rect
       width="52.92"
       height="37.04"
       x="92.6"
       y="-47.62"
       fill="#c0c2c4"
       paint-order="markers fill stroke"
       id="rect1232" />
    <path
       style="font-size:4.94px;line-height:1.25;font-family:'Noto Sans CJK SC';-inkscape-font-specification:'Noto Sans CJK SC';text-align:center;letter-spacing:0;text-anchor:middle;stroke-width:0.26"
       d="m 111.44746,-35.26146 h -0.92872 c 0.0692,-0.2223 0.1235,-0.44954 0.17784,-0.68666 l -0.36062,-0.06916 c -0.17784,0.85956 -0.48906,1.67466 -0.9386,2.18348 0.079,0.0494 0.24206,0.16796 0.30134,0.23218 0.27664,-0.3458 0.51376,-0.80028 0.70148,-1.31404 h 0.9386 c -0.084,0.5187 -0.21736,0.96824 -0.38532,1.3585 -0.20748,-0.17784 -0.49894,-0.38532 -0.73606,-0.53352 l -0.2223,0.24206 c 0.26676,0.17784 0.5928,0.42978 0.80028,0.62244 -0.35074,0.6422 -0.82992,1.09174 -1.40296,1.3832 0.0889,0.05928 0.24206,0.20748 0.2964,0.30134 1.05222,-0.57304 1.82286,-1.72406 2.08468,-3.6556 l -0.25194,-0.08398 z m 1.12632,0.8398 v -1.59068 h -0.37544 v 4.50528 h 0.37544 v -2.68242 c 0.39026,0.33098 0.8398,0.74594 1.0621,1.02752 l 0.29146,-0.25194 c -0.26182,-0.31122 -0.79534,-0.78052 -1.22018,-1.11644 z m 4.2731,-1.0127 h -0.90896 c -0.0593,-0.16796 -0.15808,-0.41002 -0.26182,-0.60268 l -0.3211,0.09386 c 0.0692,0.15314 0.1482,0.3458 0.20254,0.50882 h -1.02258 v 0.33592 h 2.31192 z m -1.36838,1.21524 c -0.0494,-0.23218 -0.18278,-0.57798 -0.32604,-0.83486 l -0.31616,0.07904 c 0.13338,0.26676 0.26182,0.6175 0.30628,0.84474 z m 0.8892,1.22512 v 0.89414 h -1.34368 V -32.994 Z m -1.69442,1.4573 h 0.35074 v -0.23712 h 1.34368 v 0.1976 h 0.36062 v -1.74876 h -2.05504 z m 1.59068,-3.5321 c -0.079,0.27664 -0.22724,0.68172 -0.36062,0.95836 h -1.51164 v 0.33592 h 2.5688 v -0.33592 h -0.70148 c 0.1235,-0.25688 0.26182,-0.5928 0.3705,-0.87932 z m 2.2724,-0.70148 -0.0593,0.01976 h -1.26464 v 4.23852 h 0.33098 v -3.9026 h 0.78546 c -0.13338,0.38038 -0.32604,0.90402 -0.50882,1.31898 0.43966,0.44954 0.56316,0.80522 0.56316,1.11644 0.005,0.16796 -0.0296,0.3211 -0.12844,0.38532 -0.0543,0.02964 -0.1235,0.04446 -0.1976,0.0494 -0.0988,0.0049 -0.23712,0.0049 -0.38038,-0.0099 0.0593,0.10374 0.0939,0.25194 0.0988,0.35074 0.13832,0.0049 0.2964,0.0049 0.4199,-0.0099 0.11362,-0.0099 0.2223,-0.04446 0.30628,-0.10374 0.15808,-0.10374 0.2223,-0.3458 0.2223,-0.62738 0,-0.3458 -0.10868,-0.72618 -0.54834,-1.19054 0.20748,-0.45448 0.43472,-1.01764 0.61256,-1.46718 z m 2.12914,0.49894 v 1.07692 h -0.8398 v -1.07692 z m -0.8398,2.52434 v -1.11644 h 0.8398 v 1.11644 z m 1.1856,-2.85532 h -1.5314 v 3.5815 h 0.3458 v -0.39026 h 1.1856 z m 2.78122,0.57304 h -0.59774 v -0.95836 h -0.36556 v 0.95836 h -1.59562 v 0.36062 h 1.59562 v 2.6182 c 0,0.0988 -0.0395,0.12844 -0.13832,0.13338 -0.10868,0.0049 -0.47424,0.0049 -0.85462,-0.0049 0.0593,0.0988 0.11362,0.26676 0.13338,0.36556 0.494,0.0049 0.80522,0 0.97812,-0.06422 0.1729,-0.05434 0.247,-0.16796 0.247,-0.42978 v -2.6182 h 0.59774 z m -1.31898,1.93154 c -0.16302,-0.2964 -0.50882,-0.80028 -0.77064,-1.17572 l -0.30134,0.15808 c 0.26182,0.38038 0.5928,0.90402 0.75088,1.20536 z m 1.99576,1.59562 h 0.3705 v -3.40366 h -0.3705 z m 0.0741,-4.2731 c 0.2223,0.21736 0.47918,0.52364 0.5928,0.72124 l 0.2964,-0.1976 c -0.11362,-0.20254 -0.38038,-0.494 -0.60762,-0.69654 z m 1.3338,2.43048 h 1.17572 v 0.66196 h -1.17572 z m 0,-0.9633 h 1.17572 v 0.65702 h -1.17572 z m -0.33098,1.93154 h 1.8525 v -2.23782 h -1.8525 z m 2.94424,-3.3592 h -2.74664 v 0.3458 h 2.3712 v 3.43824 c 0,0.06422 -0.0198,0.08892 -0.084,0.08892 -0.0543,0 -0.26182,0.0049 -0.4693,-0.0049 0.0494,0.0988 0.0988,0.247 0.11856,0.3458 0.30134,0 0.50882,-0.0049 0.63726,-0.06916 0.12844,-0.05928 0.1729,-0.15314 0.1729,-0.36062 z"
       id="text1240"
       aria-label="外部时间" />
    <path
       style="font-size:4.94px;line-height:1.25;font-family:'Noto Sans CJK SC';-inkscape-font-specification:'Noto Sans CJK SC';text-align:center;letter-spacing:0;text-anchor:middle;stroke-width:0.26"
       d="m 112.52438,-27.162699 c 0.005,-0.1976 0.01,-0.39026 0.01,-0.55822 v -0.2717 h 0.74594 v 0.82992 z m 0.75582,-1.98094 v 0.81016 h -0.74594 v -0.81016 z m 0.34086,-0.34086 h -1.42272 v 1.76358 c 0,0.72618 -0.0247,1.7043 -0.36556,2.3959 0.0889,0.03458 0.23712,0.11856 0.30134,0.17784 0.22724,-0.46436 0.32604,-1.08186 0.3705,-1.66478 h 0.77558 v 1.21524 c 0,0.06916 -0.0247,0.08892 -0.0939,0.09386 -0.0593,0.0049 -0.26676,0.0049 -0.494,0 0.0494,0.09386 0.0988,0.25688 0.10868,0.35074 0.33098,0 0.52858,-0.0049 0.65208,-0.06916 0.12844,-0.06422 0.16796,-0.1729 0.16796,-0.3705 z m 2.25758,2.02046 c -0.11362,0.4199 -0.28158,0.7904 -0.494,1.10656 -0.22724,-0.32604 -0.40508,-0.70148 -0.53846,-1.10656 z m 0.18772,-0.35074 -0.0642,0.0099 h -1.60056 v -1.32392 h 1.3832 v 0.60268 c 0,0.05928 -0.0198,0.07904 -0.0988,0.07904 -0.0741,0.0049 -0.33098,0.0049 -0.63232,0 0.0494,0.08892 0.10374,0.21242 0.11856,0.31122 0.3705,0 0.6175,0 0.77558,-0.0494 0.1482,-0.05434 0.19266,-0.1482 0.19266,-0.33592 v -0.94848 h -2.08468 v 4.31756 h 0.3458 v -2.31192 h 0.1235 c 0.16302,0.50882 0.38038,0.98306 0.65702,1.3832 -0.22724,0.26676 -0.48412,0.47918 -0.75582,0.62738 0.0741,0.06422 0.16796,0.18772 0.21736,0.2717 0.2717,-0.15808 0.52364,-0.3705 0.74594,-0.63232 0.23712,0.27664 0.50388,0.49894 0.80028,0.6669 0.0543,-0.08892 0.15314,-0.21242 0.23712,-0.28158 -0.31122,-0.15314 -0.58786,-0.37544 -0.82498,-0.64714 0.31122,-0.43966 0.54834,-0.99294 0.67678,-1.66478 z m 3.0134,0.8892 c 0.0346,-0.13832 0.0692,-0.2964 0.0939,-0.45942 l -0.38038,-0.02964 c -0.0198,0.17784 -0.0543,0.34086 -0.0939,0.48906 h -1.47212 v 0.3211 h 1.3585 c -0.28158,0.63232 -0.82992,0.9633 -1.69936,1.13126 0.0692,0.0741 0.16302,0.22724 0.20254,0.31122 0.96824,-0.23218 1.57586,-0.64714 1.88708,-1.44248 h 1.49682 c -0.084,0.64714 -0.18278,0.94848 -0.2964,1.04234 -0.0543,0.03952 -0.11362,0.04446 -0.21242,0.04446 -0.1235,0 -0.43472,-0.0049 -0.74594,-0.03458 0.0642,0.09386 0.10868,0.22724 0.11362,0.32604 0.29146,0.01976 0.58786,0.01976 0.73112,0.01482 0.18278,-0.0099 0.29146,-0.03458 0.40014,-0.13338 0.16796,-0.15314 0.28158,-0.52364 0.38532,-1.41778 0.0148,-0.0494 0.0198,-0.16302 0.0198,-0.16302 z m -0.8151,-1.91672 h 1.99576 c -0.29146,0.29146 -0.69654,0.52858 -1.1609,0.7163 -0.38038,-0.16302 -0.6916,-0.37544 -0.90896,-0.64714 z m 2.34156,-0.33592 -0.0642,0.01976 h -1.99082 c 0.11856,-0.14326 0.2223,-0.29146 0.31616,-0.43472 l -0.38532,-0.07904 c -0.25194,0.42978 -0.741,0.9386 -1.4326,1.28934 0.079,0.05928 0.17784,0.18772 0.22724,0.2717 0.25194,-0.14326 0.47918,-0.29146 0.67678,-0.45448 0.20254,0.23218 0.44954,0.42484 0.73606,0.58292 -0.58292,0.18772 -1.23006,0.30628 -1.85744,0.36556 0.0593,0.08398 0.1235,0.22724 0.1482,0.3211 0.7163,-0.08892 1.4573,-0.23712 2.11432,-0.494 0.57304,0.23712 1.2597,0.3705 2.01552,0.43472 0.0445,-0.10374 0.12844,-0.247 0.20254,-0.33098 -0.65702,-0.03952 -1.26958,-0.12844 -1.78334,-0.28652 0.5434,-0.26676 1.00282,-0.60762 1.29922,-1.05222 z m 4.88072,0.74594 h -0.9139 v -0.69654 h 0.9139 z m 0.35568,-1.0127 h -1.61044 v 1.32886 h 1.61044 z m -1.28934,3.82356 v -0.72618 h 0.87438 v 0.72618 z m -1.15102,0 h -0.82004 v -0.72618 h 0.82004 z m -0.0494,-2.81086 h -0.87438 v -0.69654 h 0.87438 z m 2.85038,1.14114 v -0.32604 h -0.85462 l 0.11856,-0.1235 c -0.16302,-0.12844 -0.47424,-0.28158 -0.72618,-0.36556 l -0.19266,0.19266 c 0.1976,0.0741 0.42484,0.18772 0.58786,0.2964 h -1.37826 c 0.11362,-0.15808 0.21242,-0.3211 0.2964,-0.48412 l -0.35074,-0.06916 v -1.27452 h -1.5561 v 1.32886 h 1.50176 c -0.079,0.16302 -0.18772,0.33592 -0.33098,0.49894 h -1.52152 v 0.32604 h 1.20536 c -0.33098,0.28652 -0.76076,0.54834 -1.29428,0.74594 0.0692,0.05928 0.16796,0.19266 0.1976,0.27664 0.11856,-0.04446 0.22724,-0.09386 0.33592,-0.14326 v 1.25476 h 0.34086 v -0.14326 h 0.82004 v 0.11856 h 0.35074 v -1.48694 h -1.04234 c 0.30628,-0.18772 0.56316,-0.40014 0.77558,-0.62244 h 0.92378 c 0.2223,0.23218 0.50882,0.44954 0.82498,0.62244 h -1.02258 v 1.51164 h 0.34086 v -0.14326 h 0.87438 v 0.11856 h 0.35568 v -1.235 c 0.0939,0.03458 0.18772,0.06422 0.28158,0.09386 0.0494,-0.08892 0.1482,-0.2223 0.23218,-0.29146 -0.5187,-0.12844 -1.05716,-0.37544 -1.42766,-0.67678 z"
       id="text1240-5"
       aria-label="服务器" />
    <path
       style="font-size:4.94px;line-height:1.25;font-family:'Noto Sans CJK SC';-inkscape-font-specification:'Noto Sans CJK SC';text-align:center;letter-spacing:0;text-anchor:middle;stroke-width:0.26"
       d="m 113.626,50.552463 h -1.78828 v -0.84474 h -0.36556 v 0.84474 h -1.78828 v 3.67536 h 0.36062 v -3.31474 h 1.42272 c -0.0296,0.64714 -0.20748,1.46224 -1.29428,2.04022 0.084,0.06422 0.20748,0.1976 0.26182,0.27664 0.66196,-0.39026 1.01764,-0.84968 1.20042,-1.32392 0.45448,0.42484 0.94848,0.92872 1.20042,1.2597 l 0.30134,-0.23712 c -0.30134,-0.36556 -0.90402,-0.94354 -1.39308,-1.37332 0.0543,-0.2223 0.079,-0.43966 0.0889,-0.6422 h 1.4326 v 2.8158 c 0,0.08892 -0.0296,0.11856 -0.11856,0.1235 -0.10374,0.0049 -0.43966,0.0049 -0.78546,-0.0099 0.0543,0.0988 0.10868,0.2717 0.1235,0.3705 0.43966,0 0.74594,0 0.91884,-0.06422 0.16796,-0.05928 0.2223,-0.17784 0.2223,-0.41496 z m 3.22088,-0.26182 h -0.90896 c -0.0593,-0.16796 -0.15808,-0.41002 -0.26182,-0.60268 l -0.3211,0.09386 c 0.0692,0.15314 0.1482,0.3458 0.20254,0.50882 h -1.02258 v 0.33592 h 2.31192 z m -1.36838,1.21524 c -0.0494,-0.23218 -0.18278,-0.57798 -0.32604,-0.83486 l -0.31616,0.07904 c 0.13338,0.26676 0.26182,0.6175 0.30628,0.84474 z m 0.8892,1.22512 v 0.89414 h -1.34368 v -0.89414 z m -1.69442,1.4573 h 0.35074 v -0.23712 h 1.34368 v 0.1976 h 0.36062 v -1.74876 h -2.05504 z m 1.59068,-3.5321 c -0.079,0.27664 -0.22724,0.68172 -0.36062,0.95836 h -1.51164 v 0.33592 h 2.5688 v -0.33592 h -0.70148 c 0.1235,-0.25688 0.26182,-0.5928 0.3705,-0.87932 z m 2.2724,-0.70148 -0.0593,0.01976 h -1.26464 v 4.23852 h 0.33098 v -3.9026 h 0.78546 c -0.13338,0.38038 -0.32604,0.90402 -0.50882,1.31898 0.43966,0.44954 0.56316,0.80522 0.56316,1.11644 0.005,0.16796 -0.0296,0.3211 -0.12844,0.38532 -0.0543,0.02964 -0.1235,0.04446 -0.1976,0.0494 -0.0988,0.0049 -0.23712,0.0049 -0.38038,-0.0099 0.0593,0.10374 0.0939,0.25194 0.0988,0.35074 0.13832,0.0049 0.2964,0.0049 0.4199,-0.0099 0.11362,-0.0099 0.2223,-0.04446 0.30628,-0.10374 0.15808,-0.10374 0.2223,-0.3458 0.2223,-0.62738 0,-0.3458 -0.10868,-0.72618 -0.54834,-1.19054 0.20748,-0.45448 0.43472,-1.01764 0.61256,-1.46718 z m 2.12914,0.49894 v 1.07692 h -0.8398 v -1.07692 z m -0.8398,2.52434 v -1.11644 h 0.8398 v 1.11644 z m 1.1856,-2.85532 h -1.5314 v 3.5815 h 0.3458 v -0.39026 h 1.1856 z m 2.78122,0.57304 h -0.59774 v -0.95836 h -0.36556 v 0.95836 h -1.59562 v 0.36062 h 1.59562 v 2.6182 c 0,0.0988 -0.0395,0.12844 -0.13832,0.13338 -0.10868,0.0049 -0.47424,0.0049 -0.85462,-0.0049 0.0593,0.0988 0.11362,0.26676 0.13338,0.36556 0.494,0.0049 0.80522,0 0.97812,-0.06422 0.1729,-0.05434 0.247,-0.16796 0.247,-0.42978 v -2.6182 h 0.59774 z m -1.31898,1.93154 c -0.16302,-0.2964 -0.50882,-0.80028 -0.77064,-1.17572 l -0.30134,0.15808 c 0.26182,0.38038 0.5928,0.90402 0.75088,1.20536 z m 1.99576,1.59562 h 0.3705 v -3.40366 h -0.3705 z m 0.0741,-4.2731 c 0.2223,0.21736 0.47918,0.52364 0.5928,0.72124 l 0.2964,-0.1976 c -0.11362,-0.20254 -0.38038,-0.494 -0.60762,-0.69654 z m 1.3338,2.43048 h 1.17572 v 0.66196 h -1.17572 z m 0,-0.9633 h 1.17572 v 0.65702 h -1.17572 z m -0.33098,1.93154 h 1.8525 v -2.23782 h -1.8525 z m 2.94424,-3.3592 h -2.74664 v 0.3458 h 2.3712 v 3.43824 c 0,0.06422 -0.0198,0.08892 -0.084,0.08892 -0.0543,0 -0.26182,0.0049 -0.4693,-0.0049 0.0494,0.0988 0.0988,0.247 0.11856,0.3458 0.30134,0 0.50882,-0.0049 0.63726,-0.06916 0.12844,-0.05928 0.1729,-0.15314 0.1729,-0.36062 z"
       id="text1240-8"
       aria-label="内部时间" />
    <path
       style="font-size:4.94px;line-height:1.25;font-family:'Noto Sans CJK SC';-inkscape-font-specification:'Noto Sans CJK SC';text-align:center;letter-spacing:0;text-anchor:middle;stroke-width:0.26"
       d="m 112.52438,58.562309 c 0.005,-0.1976 0.01,-0.39026 0.01,-0.55822 v -0.2717 h 0.74594 v 0.82992 z m 0.75582,-1.98094 v 0.81016 h -0.74594 v -0.81016 z m 0.34086,-0.34086 h -1.42272 v 1.76358 c 0,0.72618 -0.0247,1.7043 -0.36556,2.3959 0.0889,0.03458 0.23712,0.11856 0.30134,0.17784 0.22724,-0.46436 0.32604,-1.08186 0.3705,-1.66478 h 0.77558 v 1.21524 c 0,0.06916 -0.0247,0.08892 -0.0939,0.09386 -0.0593,0.0049 -0.26676,0.0049 -0.494,0 0.0494,0.09386 0.0988,0.25688 0.10868,0.35074 0.33098,0 0.52858,-0.0049 0.65208,-0.06916 0.12844,-0.06422 0.16796,-0.1729 0.16796,-0.3705 z m 2.25758,2.02046 c -0.11362,0.4199 -0.28158,0.7904 -0.494,1.10656 -0.22724,-0.32604 -0.40508,-0.70148 -0.53846,-1.10656 z m 0.18772,-0.35074 -0.0642,0.0099 h -1.60056 v -1.32392 h 1.3832 v 0.60268 c 0,0.05928 -0.0198,0.07904 -0.0988,0.07904 -0.0741,0.0049 -0.33098,0.0049 -0.63232,0 0.0494,0.08892 0.10374,0.21242 0.11856,0.31122 0.3705,0 0.6175,0 0.77558,-0.0494 0.1482,-0.05434 0.19266,-0.1482 0.19266,-0.33592 v -0.94848 h -2.08468 v 4.31756 h 0.3458 v -2.31192 h 0.1235 c 0.16302,0.50882 0.38038,0.98306 0.65702,1.3832 -0.22724,0.26676 -0.48412,0.47918 -0.75582,0.62738 0.0741,0.06422 0.16796,0.18772 0.21736,0.2717 0.2717,-0.15808 0.52364,-0.3705 0.74594,-0.63232 0.23712,0.27664 0.50388,0.49894 0.80028,0.6669 0.0543,-0.08892 0.15314,-0.21242 0.23712,-0.28158 -0.31122,-0.15314 -0.58786,-0.37544 -0.82498,-0.64714 0.31122,-0.43966 0.54834,-0.99294 0.67678,-1.66478 z m 3.0134,0.8892 c 0.0346,-0.13832 0.0692,-0.2964 0.0939,-0.45942 l -0.38038,-0.02964 c -0.0198,0.17784 -0.0543,0.34086 -0.0939,0.48906 h -1.47212 v 0.3211 h 1.3585 c -0.28158,0.63232 -0.82992,0.9633 -1.69936,1.13126 0.0692,0.0741 0.16302,0.22724 0.20254,0.31122 0.96824,-0.23218 1.57586,-0.64714 1.88708,-1.44248 h 1.49682 c -0.084,0.64714 -0.18278,0.94848 -0.2964,1.04234 -0.0543,0.03952 -0.11362,0.04446 -0.21242,0.04446 -0.1235,0 -0.43472,-0.0049 -0.74594,-0.03458 0.0642,0.09386 0.10868,0.22724 0.11362,0.32604 0.29146,0.01976 0.58786,0.01976 0.73112,0.01482 0.18278,-0.0099 0.29146,-0.03458 0.40014,-0.13338 0.16796,-0.15314 0.28158,-0.52364 0.38532,-1.41778 0.0148,-0.0494 0.0198,-0.16302 0.0198,-0.16302 z m -0.8151,-1.91672 h 1.99576 c -0.29146,0.29146 -0.69654,0.52858 -1.1609,0.7163 -0.38038,-0.16302 -0.6916,-0.37544 -0.90896,-0.64714 z m 2.34156,-0.33592 -0.0642,0.01976 h -1.99082 c 0.11856,-0.14326 0.2223,-0.29146 0.31616,-0.43472 l -0.38532,-0.07904 c -0.25194,0.42978 -0.741,0.9386 -1.4326,1.28934 0.079,0.05928 0.17784,0.18772 0.22724,0.2717 0.25194,-0.14326 0.47918,-0.29146 0.67678,-0.45448 0.20254,0.23218 0.44954,0.42484 0.73606,0.58292 -0.58292,0.18772 -1.23006,0.30628 -1.85744,0.36556 0.0593,0.08398 0.1235,0.22724 0.1482,0.3211 0.7163,-0.08892 1.4573,-0.23712 2.11432,-0.494 0.57304,0.23712 1.2597,0.3705 2.01552,0.43472 0.0445,-0.10374 0.12844,-0.247 0.20254,-0.33098 -0.65702,-0.03952 -1.26958,-0.12844 -1.78334,-0.28652 0.5434,-0.26676 1.00282,-0.60762 1.29922,-1.05222 z m 4.88072,0.74594 h -0.9139 v -0.69654 h 0.9139 z m 0.35568,-1.0127 h -1.61044 v 1.32886 h 1.61044 z m -1.28934,3.82356 v -0.72618 h 0.87438 v 0.72618 z m -1.15102,0 h -0.82004 v -0.72618 h 0.82004 z m -0.0494,-2.81086 h -0.87438 v -0.69654 h 0.87438 z m 2.85038,1.14114 v -0.32604 h -0.85462 l 0.11856,-0.1235 c -0.16302,-0.12844 -0.47424,-0.28158 -0.72618,-0.36556 l -0.19266,0.19266 c 0.1976,0.0741 0.42484,0.18772 0.58786,0.2964 h -1.37826 c 0.11362,-0.15808 0.21242,-0.3211 0.2964,-0.48412 l -0.35074,-0.06916 v -1.27452 h -1.5561 v 1.32886 h 1.50176 c -0.079,0.16302 -0.18772,0.33592 -0.33098,0.49894 h -1.52152 v 0.32604 h 1.20536 c -0.33098,0.28652 -0.76076,0.54834 -1.29428,0.74594 0.0692,0.05928 0.16796,0.19266 0.1976,0.27664 0.11856,-0.04446 0.22724,-0.09386 0.33592,-0.14326 v 1.25476 h 0.34086 v -0.14326 h 0.82004 v 0.11856 h 0.35074 v -1.48694 h -1.04234 c 0.30628,-0.18772 0.56316,-0.40014 0.77558,-0.62244 h 0.92378 c 0.2223,0.23218 0.50882,0.44954 0.82498,0.62244 h -1.02258 v 1.51164 h 0.34086 v -0.14326 h 0.87438 v 0.11856 h 0.35568 v -1.235 c 0.0939,0.03458 0.18772,0.06422 0.28158,0.09386 0.0494,-0.08892 0.1482,-0.2223 0.23218,-0.29146 -0.5187,-0.12844 -1.05716,-0.37544 -1.42766,-0.67678 z"
       id="text1240-5-6"
       aria-label="服务器" />
    <path
       d="M114.3 34.4V-7.94"
       fill="none"
       stroke="#0c322c"
       stroke-width=".53"
       marker-end="url(#b)"
       id="path1242"
       style="stroke:#000000;stroke-opacity:1;stroke-width:0.52996042;stroke-miterlimit:4;stroke-dasharray:none;stroke-linecap:square" />
    <path
       d="M124.88-7.94v41.8"
       fill="none"
       stroke="#0c322c"
       stroke-width=".53"
       marker-end="url(#b)"
       id="path1244"
       style="stroke:#000000;stroke-opacity:1;stroke-width:0.52996042;stroke-miterlimit:4;stroke-dasharray:none;stroke-linecap:square" />
    <path
       d="M26.46 13.23h185.2"
       fill="none"
       stroke="red"
       stroke-width=".66"
       stroke-dasharray="2.64583, 2.64583"
       id="path1246" />
    <path
       style="font-size:4.94px;line-height:1.25;font-family:'Noto Sans CJK SC';-inkscape-font-specification:'Noto Sans CJK SC';letter-spacing:0;stroke-width:0.26"
       d="m 76.604473,1.6828198 -0.05434,0.01482 h -1.21524 v 4.3027401 h 0.3458 V 2.0286198 h 0.72618 c -0.10868,0.3458 -0.2717,0.8151001 -0.4199,1.1806601 0.37544,0.3952 0.4693,0.73606 0.4693,1.0127 0,0.1482 -0.0247,0.28652 -0.10374,0.34086 -0.04446,0.02964 -0.10374,0.04446 -0.16796,0.0494 -0.08892,0 -0.18772,0 -0.31122,-0.00988 0.05928,0.0988 0.08892,0.23712 0.09386,0.33592 0.11362,0.00494 0.25194,0.00494 0.36062,-0.00494 0.0988,-0.01482 0.19266,-0.04446 0.26676,-0.0988 0.14326,-0.09386 0.20254,-0.31122 0.20254,-0.57798 0,-0.31122 -0.08892,-0.67184 -0.4693,-1.09174 0.1729,-0.40014 0.3705,-0.9188401 0.52364,-1.3338001 z m 1.27452,-0.10868 c 0.08892,0.23712 0.18278,0.55328 0.22724,0.741 l 0.35074,-0.10868 c -0.04446,-0.17784 -0.15808,-0.48412 -0.24206,-0.71136 z m 1.71912,1.0868001 V 2.3151398 h -2.8405 v 0.3458001 h 0.78052 c -0.02964,1.31404 -0.12844,2.46506 -1.22018,3.05292 0.08398,0.06422 0.1976,0.18772 0.247,0.2717 0.84968,-0.47918 1.15102,-1.2844 1.26464,-2.24276 h 1.1115 c -0.0494,1.2597 -0.10374,1.73394 -0.20748,1.84262 -0.0494,0.05434 -0.09386,0.06422 -0.18278,0.06422 -0.0988,0 -0.35568,-0.00494 -0.62244,-0.02964 0.06422,0.10374 0.0988,0.25194 0.10868,0.36556 0.26182,0.00988 0.52858,0.01976 0.67184,0 0.15314,-0.01482 0.247,-0.0494 0.33592,-0.16796 0.15314,-0.1729 0.20254,-0.72124 0.26182,-2.24276 v -0.16796 h -1.44742 c 0.01976,-0.24206 0.03458,-0.48906 0.03952,-0.74594 z m 4.35708,-0.1827801 c -0.1482,0.4347201 -0.43472,1.0324601 -0.66196,1.4029601 l 0.31122,0.13338 c 0.23712,-0.35568 0.52364,-0.9139 0.741,-1.37826 z m -3.04304,-0.00494 c -0.11362,0.4791801 -0.3211,1.0374001 -0.62738,1.3881401 l 0.3458,0.1729 c 0.31616,-0.36062 0.51376,-0.95342 0.63726,-1.44248 z m 1.51164,0.9287201 c 0.08892,-0.58786 0.09386,-1.2251201 0.0988,-1.8574401 h -0.3952 c -0.0099,1.7290001 0.0494,3.4135401 -2.0007,4.1594801 0.09386,0.07904 0.1976,0.20748 0.247,0.30134 1.12632,-0.42484 1.6549,-1.1362 1.91178,-1.98094 0.36556,0.99294 1.00776,1.64996 2.05998,1.9513 0.0494,-0.10374 0.15808,-0.25688 0.23712,-0.34086 -1.19548,-0.28158 -1.85744,-1.07198 -2.1489,-2.23288 z m 3.4827,1.04234 v -1.43754 h 0.47918 v -0.34086 h -0.47918 V 1.5444998 h -0.33592 v 1.1213801 h -0.52858 v 0.34086 h 0.52858 v 1.57092 c -0.21736,0.09386 -0.4199,0.17784 -0.58292,0.23218 l 0.13832,0.35074 c 0.39026,-0.1729 0.87932,-0.3952 1.34368,-0.6175 l -0.07904,-0.30628 z m 2.42554,0.53352 h -0.78546 v -0.37544 h 0.78546 z m 0.28158,-0.58292 h -1.3338 v 0.78546 h 1.3338 z m 0.29146,-0.29146 v 1.3832 h -1.9266 v -1.3832 z m -2.25758,1.89202 h 0.33098 v -0.21736 h 1.9266 v 0.20254 h 0.34086 v -2.1736 h -2.59844 z m 1.482,-2.8652 V 2.2262198 h 1.17572 v -0.31616 h -1.17572 v -0.42484 h -0.35074 v 0.42484 h -1.1856 v 0.31616 h 1.1856 v 0.9040201 h -1.36838 v 0.31616 h 3.09738 v -0.31616 z m -1.34368,-0.6817201 c 0.18278,0.1976001 0.39026,0.4693001 0.47424,0.6422001 l 0.26676,-0.15808 c -0.08892,-0.17784 -0.2964,-0.4396601 -0.47918,-0.6273801 z m 1.83274,0.6422001 c 0.16302,-0.16796 0.35568,-0.40014 0.5187,-0.6372601 l -0.29146,-0.13832 c -0.11362,0.19266 -0.33098,0.4693001 -0.48906,0.6372601 z"
       id="text1250"
       aria-label="防火墙" />
    <path
       style="font-size:4.94px;line-height:1.25;font-family:'Noto Sans CJK SC';-inkscape-font-specification:'Noto Sans CJK SC';letter-spacing:0;stroke-width:0.26"
       d="m 149.70948,1.1128201 -0.0543,0.01482 h -1.21524 v 4.3027401 h 0.3458 V 1.4586201 h 0.72618 c -0.10868,0.3458001 -0.2717,0.8151001 -0.4199,1.1806601 0.37544,0.3952 0.4693,0.73606 0.4693,1.0127 0,0.1482 -0.0247,0.28652 -0.10374,0.34086 -0.0445,0.02964 -0.10374,0.04446 -0.16796,0.0494 -0.0889,0 -0.18772,0 -0.31122,-0.00988 0.0593,0.0988 0.0889,0.23712 0.0939,0.33592 0.11362,0.00494 0.25194,0.00494 0.36062,-0.00494 0.0988,-0.01482 0.19266,-0.04446 0.26676,-0.0988 0.14326,-0.09386 0.20254,-0.31122 0.20254,-0.57798 0,-0.31122 -0.0889,-0.67184 -0.4693,-1.09174 0.1729,-0.40014 0.3705,-0.91884 0.52364,-1.3338001 z m 1.27452,-0.10868 c 0.0889,0.23712 0.18278,0.5532801 0.22724,0.7410001 l 0.35074,-0.10868 c -0.0445,-0.1778401 -0.15808,-0.4841201 -0.24206,-0.71136006 z m 1.71912,1.0868001 v -0.3458 h -2.8405 v 0.3458 h 0.78052 c -0.0296,1.31404 -0.12844,2.46506 -1.22018,3.05292 0.084,0.06422 0.1976,0.18772 0.247,0.2717 0.84968,-0.47918 1.15102,-1.2844 1.26464,-2.24276 h 1.1115 c -0.0494,1.2597 -0.10374,1.73394 -0.20748,1.84262 -0.0494,0.05434 -0.0939,0.06422 -0.18278,0.06422 -0.0988,0 -0.35568,-0.00494 -0.62244,-0.02964 0.0642,0.10374 0.0988,0.25194 0.10868,0.36556 0.26182,0.00988 0.52858,0.01976 0.67184,0 0.15314,-0.01482 0.247,-0.0494 0.33592,-0.16796 0.15314,-0.1729 0.20254,-0.72124 0.26182,-2.24276 v -0.16796 h -1.44742 c 0.0198,-0.24206 0.0346,-0.48906 0.0395,-0.74594 z m 4.35708,-0.18278 c -0.1482,0.43472 -0.43472,1.03246 -0.66196,1.40296 l 0.31122,0.13338 c 0.23712,-0.35568 0.52364,-0.9139 0.741,-1.37826 z m -3.04304,-0.00494 c -0.11362,0.47918 -0.3211,1.0374 -0.62738,1.38814 l 0.3458,0.1729 c 0.31616,-0.36062 0.51376,-0.95342 0.63726,-1.44248 z m 1.51164,0.92872 c 0.0889,-0.58786 0.0939,-1.22512 0.0988,-1.85744006 h -0.3952 c -0.01,1.72900006 0.0494,3.41354006 -2.0007,4.15948006 0.0939,0.07904 0.1976,0.20748 0.247,0.30134 1.12632,-0.42484 1.6549,-1.1362 1.91178,-1.98094 0.36556,0.99294 1.00776,1.64996 2.05998,1.9513 0.0494,-0.10374 0.15808,-0.25688 0.23712,-0.34086 -1.19548,-0.28158 -1.85744,-1.07198 -2.1489,-2.23288 z m 3.4827,1.04234 v -1.43754 h 0.47918 v -0.34086 H 159.0115 V 0.97450014 h -0.33592 V 2.0958802 H 158.147 v 0.34086 h 0.52858 v 1.57092 c -0.21736,0.09386 -0.4199,0.17784 -0.58292,0.23218 l 0.13832,0.35074 c 0.39026,-0.1729 0.87932,-0.3952 1.34368,-0.6175 l -0.079,-0.30628 z m 2.42554,0.53352 h -0.78546 v -0.37544 h 0.78546 z m 0.28158,-0.58292 h -1.3338 v 0.78546 h 1.3338 z m 0.29146,-0.29146 v 1.3832 h -1.9266 v -1.3832 z m -2.25758,1.89202 h 0.33098 v -0.21736 h 1.9266 v 0.20254 h 0.34086 v -2.1736 h -2.59844 z m 1.482,-2.8652 v -0.90402 h 1.17572 V 1.3400601 H 161.2345 V 0.91522014 h -0.35074 V 1.3400601 h -1.1856 v 0.3161601 h 1.1856 v 0.90402 h -1.36838 v 0.31616 h 3.09738 v -0.31616 z m -1.34368,-0.68172 c 0.18278,0.1976 0.39026,0.4693 0.47424,0.6422 l 0.26676,-0.15808 c -0.0889,-0.17784 -0.2964,-0.43966 -0.47918,-0.62738 z m 1.83274,0.6422 c 0.16302,-0.16796 0.35568,-0.40014 0.5187,-0.63726 l -0.29146,-0.13832 c -0.11362,0.19266 -0.33098,0.4693 -0.48906,0.63726 z"
       id="text1254"
       aria-label="防火墙" />
  </g>
</svg>
