<?xml version="1.0" encoding="UTF-8" standalone="no"?>
<svg
   width="720"
   height="490"
   viewBox="0 0 190.5 129.65"
   version="1.1"
   id="svg51"
   sodipodi:docname="desktop-machine-ntp.svg"
   inkscape:version="1.3.2 (091e20e, 2023-11-25, custom)"
   xmlns:inkscape="http://www.inkscape.org/namespaces/inkscape"
   xmlns:sodipodi="http://sodipodi.sourceforge.net/DTD/sodipodi-0.dtd"
   xmlns="http://www.w3.org/2000/svg"
   xmlns:svg="http://www.w3.org/2000/svg"
   xmlns:rdf="http://www.w3.org/1999/02/22-rdf-syntax-ns#"
   xmlns:cc="http://creativecommons.org/ns#"
   xmlns:dc="http://purl.org/dc/elements/1.1/">
  <metadata
     id="metadata55">
    <rdf:RDF>
      <cc:Work
         rdf:about="">
        <dc:format>image/svg+xml</dc:format>
        <dc:type
           rdf:resource="http://purl.org/dc/dcmitype/StillImage" />
      </cc:Work>
    </rdf:RDF>
  </metadata>
  <sodipodi:namedview
     pagecolor="#ffffff"
     bordercolor="#666666"
     borderopacity="1"
     objecttolerance="10"
     gridtolerance="10"
     guidetolerance="10"
     inkscape:pageopacity="0"
     inkscape:pageshadow="2"
     inkscape:window-width="1920"
     inkscape:window-height="1009"
     id="namedview53"
     showgrid="false"
     inkscape:zoom="1.2035246"
     inkscape:cx="360.6075"
     inkscape:cy="245.52884"
     inkscape:window-x="-8"
     inkscape:window-y="-8"
     inkscape:window-maximized="1"
     inkscape:current-layer="g49"
     inkscape:showpageshadow="2"
     inkscape:pagecheckerboard="0"
     inkscape:deskcolor="#d1d1d1" />
  <defs
     id="defs5">
    <marker
       markerWidth="3.06"
       markerHeight="4.71"
       refX="1.53"
       refY="2.35"
       orient="auto"
       id="a">
      <path
         d="m.35.35 2 2-2 2"
         fill="none"
         stroke="#000"
         id="path2" />
    </marker>
  </defs>
  <g
     transform="translate(-23.81 -10.58)"
     id="g49">
    <rect
       width="52.92"
       height="37.04"
       x="92.6"
       y="13.23"
       fill="#30ba78"
       paint-order="markers fill stroke"
       id="rect7" />
    <rect
       width="52.92"
       height="37.04"
       x="26.46"
       y="100.54"
       fill="#0c322c"
       paint-order="markers fill stroke"
       id="rect9" />
    <rect
       width="52.92"
       height="37.04"
       x="92.6"
       y="100.54"
       fill="#fe7c3f"
       paint-order="markers fill stroke"
       id="rect11" />
    <rect
       width="52.92"
       height="37.04"
       x="158.75"
       y="100.54"
       fill="#c7f1e3"
       paint-order="markers fill stroke"
       id="rect13" />
    <path
       d="M113.77 97.9V52.92"
       fill="none"
       stroke="#0c322c"
       stroke-width=".53"
       marker-end="url(#a)"
       id="path15"
       style="fill:none;stroke:#000000;stroke-opacity:1;stroke-width:0.52997745;stroke-miterlimit:4;stroke-dasharray:none;stroke-linecap:square" />
    <path
       d="M124.35 52.92V97.9"
       fill="none"
       stroke="#0c322c"
       stroke-width=".53"
       marker-end="url(#a)"
       id="path17"
       style="fill:none;stroke:#000000;stroke-opacity:1;stroke-width:0.52997745;stroke-miterlimit:4;stroke-dasharray:none;stroke-linecap:square" />
    <path
       d="M89.96 37.04H58.2V97.9"
       fill="none"
       stroke="#0c322c"
       stroke-width=".53"
       marker-end="url(#a)"
       id="path19"
       style="fill:none;stroke:#000000;stroke-opacity:1;stroke-width:0.52997745;stroke-miterlimit:4;stroke-dasharray:none;stroke-linecap:square" />
    <path
       d="M47.62 97.9V26.46h42.34"
       fill="none"
       stroke="#0c322c"
       stroke-width=".53"
       marker-end="url(#a)"
       id="path21"
       style="fill:none;stroke:#000000;stroke-opacity:1;stroke-width:0.52997745;stroke-miterlimit:4;stroke-dasharray:none;stroke-linecap:square" />
    <path
       d="M179.92 97.9V37.04h-31.75"
       fill="none"
       stroke="#0c322c"
       stroke-width=".53"
       marker-end="url(#a)"
       id="path23"
       style="fill:none;stroke:#000000;stroke-opacity:1;stroke-width:0.52997745;stroke-miterlimit:4;stroke-dasharray:none;stroke-linecap:square" />
    <path
       d="M148.17 26.46h42.33V97.9"
       fill="none"
       stroke="#0c322c"
       stroke-width=".53"
       marker-end="url(#a)"
       id="path25"
       style="fill:none;stroke:#000000;stroke-opacity:1;stroke-width:0.52997745;stroke-miterlimit:4;stroke-dasharray:none;stroke-linecap:square" />
    <path
       style="font-size:4.94px;line-height:1.25;font-family:'Noto Sans CJK JP';-inkscape-font-specification:'Noto Sans CJK JP';text-align:center;letter-spacing:0;text-anchor:middle;stroke-width:0.26"
       d="m 116.94628,26.458636 c -0.0939,0.49894 -0.23218,0.943541 -0.40508,1.333801 -0.23712,-0.21242 -0.60268,-0.45942 -0.92378,-0.647141 0.13338,-0.20748 0.25194,-0.43966 0.36556,-0.68666 z m 1.4079,-1.09174 h -0.37544 v 1.882141 c -0.1976,-0.232181 -0.3705,-0.474241 -0.50388,-0.721241 l -0.19266,0.0741 c 0.0247,-0.13338 0.0543,-0.2717 0.0741,-0.41496 l -0.23712,-0.08892 -0.0692,0.01976 h -0.92872 c 0.084,-0.21736 0.15808,-0.44954 0.2223,-0.68172 l -0.36062,-0.0741 c -0.22724,0.88426 -0.63726,1.69936 -1.18066,2.203241 0.084,0.05434 0.24206,0.1729 0.30134,0.23712 0.11362,-0.11362 0.2223,-0.24206 0.32604,-0.38038 0.34086,0.20748 0.7163,0.48412 0.94354,0.70148 -0.37544,0.6669 -0.87438,1.14608 -1.46224,1.45236 0.0889,0.05434 0.22724,0.18772 0.29146,0.2717 0.9386,-0.52364 1.6796,-1.5067 2.04022,-3.062801 0.1976,0.33592 0.45448,0.666901 0.73606,0.968241 v 2.10938 h 0.37544 v -1.74876 c 0.28158,0.247 0.58292,0.45942 0.87932,0.61256 0.0642,-0.0988 0.17784,-0.24206 0.26182,-0.31122 -0.39026,-0.17784 -0.7904,-0.44954 -1.14114,-0.78052 z m 3.9273,0.5434 h -1.00282 v -0.52858 h -0.35074 v 0.52858 h -0.988 v 0.3211 h 2.34156 z m -0.60762,1.309101 c 0.10374,-0.217361 0.2223,-0.543401 0.32604,-0.829921 l -0.3458,-0.08398 c -0.0593,0.247 -0.18278,0.61256 -0.27664,0.8398 z m -0.89908,-0.08892 c -0.0247,-0.21242 -0.11362,-0.54834 -0.22724,-0.7904 l -0.30628,0.06422 c 0.10374,0.25194 0.19266,0.58292 0.21736,0.80028 z m 0.94354,1.225121 v 0.90896 h -1.235 v -0.90896 z m -1.57586,1.52152 h 0.34086 v -0.29146 h 1.235 v 0.26182 h 0.35568 v -1.81792 h -1.93154 z m -0.33098,-2.27734 h 2.53916 v -0.33592 h -2.53916 z m 4.2484,-1.961181 -0.0593,0.01482 h -1.45236 v 4.218761 h 0.35568 v -3.872961 h 0.93366 c -0.15314,0.3952 -0.3705,0.92872 -0.57304,1.343681 0.49894,0.42978 0.63726,0.79534 0.63726,1.10656 0,0.17784 -0.0296,0.32604 -0.13338,0.39026 -0.0593,0.03458 -0.13832,0.0494 -0.21242,0.05434 -0.10374,0.0049 -0.23712,0.0049 -0.39026,-0.0099 0.0642,0.10374 0.0988,0.26182 0.10374,0.36556 0.14326,0.0049 0.30628,0.0049 0.42978,-0.0099 0.12844,-0.01482 0.23218,-0.0494 0.3211,-0.10868 0.1729,-0.11362 0.24206,-0.34086 0.24206,-0.6422 -0.005,-0.35074 -0.12844,-0.741 -0.62244,-1.19548 0.23218,-0.449541 0.48412,-1.017641 0.68666,-1.482001 z"
       id="text33"
       aria-label="外部" />
    <path
       style="font-size:4.94px;line-height:1.25;font-family:'Noto Sans CJK JP';-inkscape-font-specification:'Noto Sans CJK JP';text-align:center;letter-spacing:0;text-anchor:middle;stroke-width:0.26"
       d="m 108.82986,32.482791 c -0.084,0.03458 -0.19266,0.0494 -0.32604,0.0494 h -1.34862 c 0.0395,-0.06422 0.0741,-0.1235 0.10374,-0.18278 0.0494,-0.09386 0.13832,-0.26182 0.21736,-0.39026 l -0.4446,-0.14326 c -0.0346,0.12844 -0.10868,0.30628 -0.15808,0.3952 -0.2223,0.44954 -0.73606,1.19054 -1.58574,1.71418 l 0.33098,0.25688 c 0.55328,-0.37544 0.99294,-0.85956 1.3091,-1.29922 h 1.6796 c -0.0939,0.39026 -0.33592,0.89908 -0.63726,1.31898 -0.38532,-0.23218 -0.80028,-0.4693 -1.0868,-0.6175 l -0.25194,0.29146 c 0.27664,0.15314 0.6916,0.40014 1.08186,0.65208 -0.44954,0.494 -1.09174,0.96824 -1.9513,1.23006 l 0.35568,0.30628 c 0.86944,-0.3211 1.49188,-0.80522 1.93648,-1.31404 0.18772,0.12844 0.35074,0.247 0.4693,0.34086 l 0.2717,-0.35568 c -0.1235,-0.08892 -0.29146,-0.20254 -0.47918,-0.3211 0.3458,-0.48412 0.59774,-1.03246 0.72124,-1.46718 0.0296,-0.07904 0.0741,-0.1976 0.11362,-0.26676 z m 4.88072,-0.494 c -0.27664,0.35074 -0.79534,0.78052 -1.29922,1.09174 -0.5434,0.34086 -1.3832,0.7163 -2.20818,0.90896 l 0.22724,0.38532 c 0.64714,-0.19266 1.32886,-0.47918 1.85744,-0.77064 v 1.86732 c 0,0.18772 -0.0148,0.43472 -0.0296,0.52858 h 0.48412 c -0.0198,-0.0988 -0.0296,-0.34086 -0.0296,-0.52858 v -2.11432 c 0.50882,-0.3211 0.98306,-0.72618 1.32392,-1.07198 z m 5.52292,3.83838 c -0.20254,-0.50882 -0.741,-1.50176 -1.09174,-2.01058 l -0.3705,0.16796 c 0.18278,0.23712 0.40014,0.62244 0.59774,1.0127 -0.53846,0.06916 -1.48694,0.17784 -2.21312,0.247 0.247,-0.6422 0.73112,-2.15878 0.87932,-2.62314 0.0642,-0.20748 0.11856,-0.33592 0.16796,-0.45942 l -0.48906,-0.0988 c -0.0198,0.12844 -0.0395,0.247 -0.0988,0.47424 -0.13832,0.48412 -0.6422,2.06492 -0.91884,2.74664 -0.0889,0.0049 -0.1729,0.0099 -0.247,0.01482 -0.14326,0.0049 -0.31122,0.0099 -0.45942,0.0049 l 0.0741,0.45942 c 0.14326,-0.01976 0.28652,-0.04446 0.41002,-0.05434 0.66196,-0.05928 2.31192,-0.24206 3.07762,-0.34086 0.10868,0.24206 0.20748,0.4693 0.2717,0.64714 z m 3.88778,-2.80098 v -0.6175 c 0,-0.19266 0.0198,-0.35568 0.0247,-0.40508 h -0.4446 c 0.01,0.0494 0.0247,0.21242 0.0247,0.40508 v 0.6175 h -1.4079 v -0.63232 c 0,-0.1729 0.0198,-0.31122 0.0247,-0.36062 h -0.43966 c 0.005,0.0494 0.0198,0.20254 0.0198,0.36062 v 0.63232 h -0.52858 c -0.21242,0 -0.45448,-0.0247 -0.49894,-0.03458 v 0.42978 c 0.0593,-0.0049 0.28158,-0.01976 0.49894,-0.01976 h 0.52858 v 0.80028 c 0,0.18772 -0.0148,0.40014 -0.0198,0.44954 h 0.43472 c -0.005,-0.0494 -0.0198,-0.26676 -0.0198,-0.44954 v -0.80028 h 1.4079 v 0.20748 c 0,1.3832 -0.44954,1.80804 -1.34862,2.15384 l 0.33098,0.31122 c 1.13126,-0.50388 1.41284,-1.18066 1.41284,-2.49964 v -0.1729 h 0.5434 c 0.21736,0 0.40014,0.0099 0.44954,0.01482 v -0.41496 c -0.0642,0.0099 -0.23218,0.0247 -0.44954,0.0247 z m 1.88708,1.16584 c 0.15314,-0.01482 0.41496,-0.0247 0.68666,-0.0247 h 2.71206 c 0.2223,0 0.42978,0.01976 0.52858,0.0247 v -0.48412 c -0.10868,0.0099 -0.28652,0.0247 -0.53352,0.0247 h -2.70712 c -0.27664,0 -0.53846,-0.01482 -0.68666,-0.0247 z m 8.16582,-2.19336 -0.26182,0.10868 c 0.13338,0.18772 0.30134,0.48412 0.40014,0.68666 l 0.26676,-0.11856 c -0.0988,-0.20254 -0.28158,-0.50388 -0.40508,-0.67678 z m 0.5434,-0.1976 -0.26182,0.10868 c 0.14326,0.18772 0.30134,0.46436 0.41002,0.68172 l 0.26676,-0.11856 c -0.0939,-0.18278 -0.28158,-0.494 -0.41496,-0.67184 z m -3.24558,2.55892 c -0.1729,0.41496 -0.44954,0.93366 -0.76076,1.34368 l 0.4199,0.17784 c 0.27664,-0.3952 0.5434,-0.90402 0.72618,-1.3585 0.20748,-0.50388 0.38038,-1.235 0.44954,-1.54128 0.0198,-0.10868 0.0593,-0.25194 0.0889,-0.36062 l -0.43966,-0.08892 c -0.0642,0.5681 -0.2717,1.31898 -0.48412,1.8278 z m 2.43048,-0.18772 c 0.20748,0.52858 0.43472,1.19548 0.55822,1.69936 l 0.43966,-0.14326 c -0.12844,-0.4446 -0.39026,-1.20042 -0.5928,-1.68948 -0.20748,-0.52364 -0.52364,-1.20536 -0.72124,-1.56104 l -0.40014,0.13338 c 0.21736,0.36556 0.5187,1.05222 0.7163,1.56104 z"
       id="text33-6"
       aria-label="タイムサーバ" />
    <g
       id="text37"
       style="font-weight:500;font-size:4.94px;line-height:1.25;font-family:Poppins;-inkscape-font-specification:'Poppins, Medium';letter-spacing:0;fill:#ffffff;stroke-width:0.26"
       aria-label="ホームPC">
      <path
         style="font-weight:normal;font-family:'Noto Sans CJK JP';-inkscape-font-specification:'Noto Sans CJK JP'"
         d="m 42.793681,118.73484 c -0.19266,0.40014 -0.61256,0.988 -0.94354,1.28934 l 0.34086,0.23218 c 0.28158,-0.30134 0.741,-0.93366 0.94848,-1.35356 z m 2.71206,-0.59774 c 0.11856,0 0.26676,0.005 0.40014,0.0148 v -0.41002 c -0.1235,0.0148 -0.28652,0.0247 -0.40508,0.0247 h -1.30416 v -0.50882 c 0,-0.10374 0.01482,-0.28158 0.02964,-0.35074 h -0.46436 c 0.01976,0.0741 0.03952,0.24206 0.03952,0.35074 v 0.50882 h -1.37826 c -0.15314,0 -0.28158,-0.01 -0.4199,-0.0296 v 0.4199 c 0.13338,-0.0148 0.2717,-0.0198 0.42484,-0.0198 h 1.37332 v 0.0395 c 0,0.23218 0,1.92166 -0.0049,2.18842 0,0.13338 -0.05928,0.18772 -0.19266,0.18772 -0.12844,0 -0.35074,-0.0148 -0.5681,-0.0543 l 0.03458,0.39026 c 0.20254,0.0247 0.494,0.0346 0.70148,0.0346 0.30134,0 0.42484,-0.13338 0.42484,-0.39026 v -2.3959 z m -0.63726,0.78052 c 0.26182,0.31122 0.63232,0.92378 0.82498,1.31404 l 0.36556,-0.20254 c -0.1976,-0.35568 -0.58786,-0.97812 -0.85462,-1.29428 z m 2.0254,0.20748 c 0.15314,-0.0148 0.41496,-0.0247 0.68666,-0.0247 h 2.71206 c 0.2223,0 0.42978,0.0198 0.52858,0.0247 v -0.48412 c -0.10868,0.01 -0.28652,0.0247 -0.53352,0.0247 h -2.70712 c -0.27664,0 -0.53846,-0.0148 -0.68666,-0.0247 z m 8.896936,1.63514 c -0.20254,-0.50882 -0.741,-1.50176 -1.09174,-2.01058 l -0.3705,0.16796 c 0.18278,0.23712 0.40014,0.62244 0.59774,1.0127 -0.53846,0.0692 -1.48694,0.17784 -2.21312,0.247 0.247,-0.6422 0.73112,-2.15878 0.87932,-2.62314 0.06422,-0.20748 0.11856,-0.33592 0.16796,-0.45942 l -0.48906,-0.0988 c -0.01976,0.12844 -0.03952,0.247 -0.0988,0.47424 -0.13832,0.48412 -0.6422,2.06492 -0.91884,2.74664 -0.08892,0.005 -0.1729,0.01 -0.247,0.0148 -0.14326,0.005 -0.31122,0.01 -0.45942,0.005 l 0.0741,0.45942 c 0.14326,-0.0198 0.28652,-0.0445 0.41002,-0.0543 0.66196,-0.0593 2.31192,-0.24206 3.07762,-0.34086 0.10868,0.24206 0.20748,0.4693 0.2717,0.64714 z"
         id="path1" />
      <path
         d="m 58.804218,118.34458 q 0,0.42978 -0.2964,0.7163 -0.29146,0.28158 -0.89414,0.28158 h -0.66196 V 120.78 h -0.44954 v -3.44318 h 1.1115 q 0.58292,0 0.88426,0.28158 0.30628,0.28158 0.30628,0.72618 z m -1.19054,0.62738 q 0.37544,0 0.55328,-0.16302 0.17784,-0.16302 0.17784,-0.46436 0,-0.63726 -0.73112,-0.63726 h -0.66196 v 1.26464 z m 1.580801,0.084 q 0,-0.50388 0.22724,-0.90402 0.22724,-0.40508 0.6175,-0.63232 0.3952,-0.22724 0.874381,-0.22724 0.56316,0 0.98306,0.2717 0.4199,0.2717 0.61256,0.77064 h -0.53846 q -0.14326,-0.31122 -0.41496,-0.47918 -0.26676,-0.16796 -0.6422,-0.16796 -0.360621,0 -0.647141,0.16796 -0.28652,0.16796 -0.44954,0.47918 -0.16302,0.30628 -0.16302,0.72124 0,0.41002 0.16302,0.72124 0.16302,0.30628 0.44954,0.47424 0.28652,0.16796 0.647141,0.16796 0.37544,0 0.6422,-0.16302 0.2717,-0.16796 0.41496,-0.47918 h 0.53846 q -0.19266,0.494 -0.61256,0.7657 -0.4199,0.26676 -0.98306,0.26676 -0.479181,0 -0.874381,-0.2223 -0.39026,-0.22724 -0.6175,-0.62738 -0.22724,-0.40014 -0.22724,-0.90402 z"
         id="path3" />
    </g>
    <path
       style="font-size:4.94px;line-height:1.25;font-family:'Noto Sans CJK JP';-inkscape-font-specification:'Noto Sans CJK JP';text-align:center;letter-spacing:0;text-anchor:middle;stroke-width:0.26"
       d="m 112.26642,117.48254 h -0.77064 v -0.2964 h 0.77064 z m 0,0.55328 h -0.77064 v -0.31616 h 0.77064 z m 0,0.55822 h -0.77064 v -0.3211 h 0.77064 z m -1.48694,-0.16302 c -0.16796,0.0543 -0.34086,0.11362 -0.50882,0.16302 v -0.90402 h 0.47918 c 0.0543,0.0543 0.11362,0.11362 0.14326,0.15314 0.0988,-0.0939 0.19266,-0.1976 0.28652,-0.31122 v 1.33874 h 2.54904 v -0.27664 h -1.12632 v -0.3211 h 0.94354 v -0.23712 h -0.94354 v -0.31616 h 0.94354 v -0.23712 h -0.94354 v -0.2964 h 1.07692 v -0.27664 h -1.04728 c 0.079,-0.13832 0.16302,-0.29146 0.24206,-0.43966 l -0.35568,-0.0889 c -0.0543,0.1482 -0.14326,0.35568 -0.23218,0.52858 h -0.7163 c 0.0741,-0.15314 0.13832,-0.30628 0.19266,-0.4693 l -0.3211,-0.079 c -0.12844,0.41496 -0.36062,0.80522 -0.6422,1.09668 v -0.10374 h -0.52858 v -0.988 h -0.34086 v 0.988 h -0.6175 v 0.33592 h 0.6175 v 1.0127 c -0.25688,0.079 -0.494,0.1482 -0.68172,0.20254 l 0.0939,0.35568 c 0.17784,-0.0543 0.37544,-0.1235 0.58786,-0.19266 v 1.37826 c 0,0.0741 -0.0247,0.0889 -0.084,0.0889 -0.0593,0.005 -0.25194,0.005 -0.46436,0 0.0494,0.0988 0.0939,0.25194 0.10868,0.33592 0.30628,0.005 0.494,-0.01 0.61256,-0.0642 0.1235,-0.0593 0.16796,-0.16302 0.16796,-0.36062 v -1.49188 c 0.18772,-0.0593 0.37544,-0.1235 0.55822,-0.18278 z m 2.99364,1.14114 h -0.91884 c 0.0346,-0.14326 0.0642,-0.29146 0.0939,-0.42978 h -2.06492 v 0.30628 h 0.68172 c -0.079,0.60762 -0.37544,0.9633 -0.93366,1.17078 0.0741,0.0593 0.19266,0.1976 0.23712,0.26676 0.6175,-0.2717 0.95836,-0.6916 1.05716,-1.43754 h 0.63232 c -0.0494,0.21242 -0.10374,0.42978 -0.15314,0.59774 l 0.31616,0.0494 c 0.0198,-0.0741 0.0445,-0.15314 0.0642,-0.24206 h 0.62244 c -0.0494,0.42484 -0.10374,0.61256 -0.17784,0.68172 -0.0395,0.0346 -0.084,0.0395 -0.16796,0.0395 -0.0889,0 -0.33098,-0.005 -0.57304,-0.0247 0.0593,0.084 0.0988,0.21242 0.10374,0.30134 0.247,0.0198 0.47918,0.0198 0.5928,0.01 0.14326,-0.005 0.23218,-0.0346 0.31616,-0.10868 0.11856,-0.11856 0.18772,-0.3952 0.25688,-1.0374 z m 0.66196,-0.3211 h 0.34086 v -0.6669 h 1.5314 v 0.5187 h -1.31898 v 1.40296 h 0.35568 v -1.10162 h 0.9633 v 1.46718 h 0.35568 v -1.46718 h 1.0621 v 0.7163 c 0,0.0543 -0.0198,0.0692 -0.0889,0.0741 -0.0642,0.005 -0.2964,0.01 -0.55822,0 0.0445,0.0889 0.0939,0.21242 0.11362,0.31616 0.3458,0 0.57304,-0.005 0.71136,-0.0593 0.14326,-0.0543 0.17784,-0.14326 0.17784,-0.33098 v -1.01764 h -1.41778 v -0.5187 h 1.5561 v 0.6669 h 0.35074 v -0.96824 h -4.13478 z m 3.11714,-1.57586 h -0.8892 v -0.48412 h 0.8892 z m -2.0995,-0.48412 h 0.85956 v 0.48412 h -0.85956 z m 2.45518,-0.31122 v -0.48906 h -0.35568 v 0.48906 h -0.8892 v -0.51376 h -0.35074 v 0.51376 h -0.85956 v -0.48906 h -0.3458 v 0.48906 h -0.80522 v 0.31122 h 0.80522 v 0.78546 h 2.80098 v -0.78546 h 0.80028 v -0.31122 z m 3.33944,1.67466 h 0.35568 v -1.12632 h 1.57586 v 0.6916 h 0.34086 v -0.95836 h -1.91672 v -0.30134 h 1.6302 v -0.28652 h -3.58644 v 0.28652 h 1.60056 v 0.30134 h -1.88214 v 0.95836 h 0.33098 v -0.6916 h 1.55116 z m 0.6175,-0.12844 h 1.17572 v -0.23218 h -1.17572 z m 0,-0.73112 v 0.22724 h 1.05716 v -0.22724 z m -0.86944,0 h -1.04234 v 0.22724 h 1.04234 z m -1.1362,0.73112 h 1.1362 v -0.23218 h -1.1362 z m 0.27664,1.48694 v -0.33592 h 1.09668 v 0.33592 z m 1.09668,-0.92378 v 0.34086 h -1.09668 v -0.34086 z m 1.52646,0.34086 h -1.17572 v -0.34086 h 1.17572 z m -1.17572,0.58292 v -0.33592 h 1.17572 v 0.33592 z m 0.3705,0.62738 c -0.31122,0 -0.3705,-0.0346 -0.3705,-0.20254 v -0.15808 h 1.5314 v -1.4573 h -3.32956 v 1.71418 h 0.35074 v -0.25688 h 1.09668 v 0.15808 c 0,0.3952 0.15314,0.48906 0.70642,0.48906 h 1.1362 c 0.46436,0 0.57798,-0.1482 0.63232,-0.74594 -0.10374,-0.0198 -0.23712,-0.0692 -0.3211,-0.1235 -0.0247,0.494 -0.0741,0.58292 -0.33592,0.58292 z m 3.81862,-4.00634 h -1.39308 v 0.2964 h 1.39308 z m -0.2964,2.98376 v 0.82498 h -0.8151 v -0.82498 z m 0.3211,-0.30134 h -1.4573 v 1.64996 h 0.3211 v -0.2223 h 1.1362 z m -1.44742,-0.38038 h 1.4326 v -0.29146 h -1.4326 z m 1.4326,-0.9633 h -1.4326 v 0.29146 h 1.4326 z m -1.66478,-0.38038 h 1.8278 v -0.30134 h -1.8278 z m 3.94706,2.80098 h -1.45236 v -0.988 h 1.45236 z m 0.5928,-2.1489 v -0.35074 h -1.15596 v -0.8398 c 0.36062,-0.0593 0.70148,-0.12844 0.97812,-0.21242 l -0.26676,-0.2964 c -0.494,0.15314 -1.37332,0.27664 -2.11432,0.35074 0.0395,0.084 0.0939,0.21736 0.10374,0.30628 0.2964,-0.0247 0.61256,-0.0543 0.92872,-0.0939 v 0.78546 h -1.15102 v 0.35074 h 1.15102 v 0.82498 h -0.8645 v 1.9019 h 0.3458 v -0.247 h 1.45236 v 0.21736 h 0.36556 v -1.87226 h -0.92872 v -0.82498 z"
       id="text43"
       aria-label="携帯電話" />
    <path
       style="font-size:4.94px;line-height:1.25;font-family:'Noto Sans CJK JP';-inkscape-font-specification:'Noto Sans CJK JP';letter-spacing:0;stroke-width:0.26"
       d="m 172.17822,117.28248 c -0.079,0.0247 -0.20748,0.0445 -0.3705,0.0445 h -1.90684 c -0.1482,0 -0.42978,-0.0247 -0.49894,-0.0346 v 0.44954 c 0.0543,-0.005 0.32604,-0.0247 0.49894,-0.0247 h 1.9266 c -0.1235,0.40508 -0.48412,0.99294 -0.82004,1.37332 -0.50882,0.5681 -1.23994,1.15596 -2.03528,1.46718 l 0.31616,0.33098 c 0.73112,-0.33098 1.39802,-0.87438 1.9266,-1.44248 0.50388,0.44954 1.02752,1.03246 1.3585,1.46718 l 0.3458,-0.30134 c -0.3211,-0.38532 -0.92378,-1.02752 -1.44248,-1.47212 0.35074,-0.4446 0.66196,-1.02258 0.82992,-1.44742 0.0296,-0.0692 0.0939,-0.17784 0.1235,-0.21736 z m 5.36484,0.11362 c -0.0692,0.0247 -0.17784,0.0395 -0.31616,0.0395 h -2.94424 c -0.1729,0 -0.36556,-0.0198 -0.50388,-0.0395 v 0.4446 c 0.0988,-0.01 0.31122,-0.0296 0.50388,-0.0296 h 2.90472 c -0.247,0.4446 -0.8151,1.17078 -1.54128,1.71418 -0.33592,-0.30134 -0.741,-0.62738 -0.92378,-0.76076 l -0.3211,0.25688 c 0.26182,0.18278 0.83486,0.67678 1.13126,0.97318 0.31122,0.3211 0.70642,0.75582 0.8892,1.00776 l 0.36062,-0.28652 c -0.1976,-0.24206 -0.54834,-0.61256 -0.84474,-0.90896 0.8151,-0.62244 1.44248,-1.42766 1.79816,-2.00564 0.0296,-0.0445 0.0741,-0.0988 0.1235,-0.15314 z m 1.17078,1.729 c 0.15314,-0.0148 0.41496,-0.0247 0.68666,-0.0247 h 2.71206 c 0.2223,0 0.42978,0.0198 0.52858,0.0247 v -0.48412 c -0.10868,0.01 -0.28652,0.0247 -0.53352,0.0247 h -2.70712 c -0.27664,0 -0.53846,-0.0148 -0.68666,-0.0247 z m 8.6203,-0.0346 c -0.52364,-0.26182 -1.4573,-0.6175 -2.10938,-0.8151 v -0.80522 c 0,-0.1482 0.0198,-0.36062 0.0346,-0.51376 h -0.48412 c 0.0296,0.15314 0.0395,0.37544 0.0395,0.51376 v 2.87508 c 0,0.18278 -0.01,0.42484 -0.0296,0.58292 h 0.47424 c -0.0198,-0.16302 -0.0296,-0.42484 -0.0296,-0.58292 l -0.005,-1.6302 c 0.54834,0.1729 1.40296,0.50388 1.94142,0.79534 z m 4.26322,-1.57092 c 0.14326,0 0.31616,0.005 0.45942,0.0148 v -0.41002 c -0.14326,0.0198 -0.3211,0.0296 -0.45942,0.0296 h -2.0007 c -0.15808,0 -0.30628,-0.0148 -0.4446,-0.0296 v 0.41002 c 0.1235,-0.01 0.28652,-0.0148 0.44954,-0.0148 z m -2.60338,0.86944 c -0.15314,0 -0.2964,-0.01 -0.42978,-0.0247 v 0.41002 c 0.13338,-0.01 0.27664,-0.01 0.42978,-0.01 h 1.47706 c -0.0148,0.46436 -0.0692,0.87932 -0.28652,1.22512 -0.19266,0.31122 -0.54834,0.59774 -0.93366,0.75582 l 0.36556,0.26676 c 0.4199,-0.21242 0.79534,-0.5681 0.97318,-0.89908 0.1976,-0.36556 0.27664,-0.8151 0.29146,-1.34862 h 1.34368 c 0.11856,0 0.27664,0.005 0.38532,0.01 v -0.41002 c -0.11856,0.0198 -0.28158,0.0247 -0.38532,0.0247 z m 5.41918,2.47988 c 0.0741,-0.0494 0.15314,-0.0741 0.20748,-0.0889 1.23006,-0.36062 2.2477,-0.96824 2.8899,-1.76358 l -0.2223,-0.3458 c -0.61256,0.79534 -1.75864,1.44742 -2.70218,1.68454 v -2.80098 c 0,-0.14326 0.0148,-0.32604 0.0346,-0.44954 h -0.48412 c 0.0148,0.0988 0.0395,0.31616 0.0395,0.44954 v 2.82568 c 0,0.0988 -0.0148,0.16302 -0.0494,0.24206 z m 7.5582,-3.2851 c -0.10374,-0.1976 -0.28158,-0.49894 -0.40508,-0.67184 l -0.26182,0.10868 c 0.13338,0.18772 0.30134,0.48412 0.40014,0.68666 z m -2.64784,1.41284 c 0.61256,-0.15808 1.46718,-0.4199 2.02046,-0.6422 0.1482,-0.0543 0.32604,-0.13338 0.46436,-0.19266 l -0.1729,-0.3952 c -0.13832,0.084 -0.28158,0.15808 -0.43472,0.2223 -0.51376,0.2223 -1.29428,0.45942 -1.8772,0.60268 v -1.11644 c 0,-0.13832 0.01,-0.28652 0.0247,-0.40014 h -0.45942 c 0.0247,0.11362 0.0296,0.28158 0.0296,0.40014 v 2.717 c 0,0.40014 0.21242,0.57304 0.5928,0.6422 0.20254,0.0346 0.49894,0.0494 0.7904,0.0494 0.53846,0 1.27946,-0.0395 1.70924,-0.10374 v -0.44954 c -0.41002,0.10868 -1.16584,0.15808 -1.68948,0.15808 -0.24206,0 -0.49894,-0.0148 -0.65208,-0.0395 -0.24206,-0.0494 -0.3458,-0.11362 -0.3458,-0.36556 z m 2.52434,-2.1736 c 0.13832,0.18772 0.30134,0.46436 0.41002,0.68172 l 0.26676,-0.1235 c -0.0939,-0.18278 -0.28652,-0.48906 -0.41496,-0.67184 z"
       id="text47"
       aria-label="スマートテレビ" />
  </g>
</svg>
