<?xml version="1.0" encoding="UTF-8" standalone="no"?>
<svg
   width="720"
   height="720"
   viewBox="0 0 190.5 190.5"
   version="1.1"
   id="svg1258"
   sodipodi:docname="multiple-machines-ntp.svg"
   inkscape:version="1.3.2 (091e20e, 2023-11-25, custom)"
   xmlns:inkscape="http://www.inkscape.org/namespaces/inkscape"
   xmlns:sodipodi="http://sodipodi.sourceforge.net/DTD/sodipodi-0.dtd"
   xmlns="http://www.w3.org/2000/svg"
   xmlns:svg="http://www.w3.org/2000/svg"
   xmlns:rdf="http://www.w3.org/1999/02/22-rdf-syntax-ns#"
   xmlns:cc="http://creativecommons.org/ns#"
   xmlns:dc="http://purl.org/dc/elements/1.1/">
  <metadata
     id="metadata1262">
    <rdf:RDF>
      <cc:Work
         rdf:about="">
        <dc:format>image/svg+xml</dc:format>
        <dc:type
           rdf:resource="http://purl.org/dc/dcmitype/StillImage" />
      </cc:Work>
    </rdf:RDF>
  </metadata>
  <sodipodi:namedview
     pagecolor="#ffffff"
     bordercolor="#666666"
     borderopacity="1"
     objecttolerance="10"
     gridtolerance="10"
     guidetolerance="10"
     inkscape:pageopacity="0"
     inkscape:pageshadow="2"
     inkscape:window-width="1920"
     inkscape:window-height="1009"
     id="namedview1260"
     showgrid="false"
     inkscape:zoom="1.1389221"
     inkscape:cx="346.81915"
     inkscape:cy="363.94061"
     inkscape:window-x="-8"
     inkscape:window-y="-8"
     inkscape:window-maximized="1"
     inkscape:current-layer="g1256"
     inkscape:showpageshadow="2"
     inkscape:pagecheckerboard="0"
     inkscape:deskcolor="#d1d1d1" />
  <defs
     id="defs1190">
    <marker
       markerWidth="3.06"
       markerHeight="4.71"
       refX="1.53"
       refY="2.35"
       orient="auto"
       id="a">
      <path
         d="m.35.35 2 2-2 2"
         fill="none"
         stroke="#000"
         id="path1184" />
    </marker>
    <marker
       markerWidth="3.06"
       markerHeight="4.71"
       refX="1.53"
       refY="2.35"
       orient="auto"
       id="b">
      <path
         d="m.35.35 2 2-2 2"
         fill="none"
         stroke="#000"
         id="path1187" />
    </marker>
  </defs>
  <g
     transform="translate(-23.81 50.27)"
     id="g1256">
    <rect
       width="52.92"
       height="37.04"
       x="26.46"
       y="100.54"
       fill="#0c322c"
       paint-order="markers fill stroke"
       id="rect1192" />
    <rect
       width="52.92"
       height="37.04"
       x="92.6"
       y="100.54"
       fill="#f3b292"
       paint-order="markers fill stroke"
       id="rect1194" />
    <rect
       width="52.92"
       height="37.04"
       x="158.75"
       y="100.54"
       fill="#c7f1e3"
       paint-order="markers fill stroke"
       id="rect1196" />
    <path
       d="M113.77 97.9V76.73"
       fill="none"
       stroke="#0c322c"
       stroke-width=".53"
       marker-end="url(#a)"
       id="path1198"
       style="stroke:#000000;stroke-opacity:1;stroke-width:0.52996042;stroke-miterlimit:4;stroke-dasharray:none;stroke-linecap:square" />
    <path
       d="M124.35 76.73V97.9"
       fill="none"
       stroke="#0c322c"
       stroke-width=".53"
       marker-end="url(#a)"
       id="path1200"
       style="stroke:#000000;stroke-opacity:1;stroke-width:0.52996042;stroke-miterlimit:4;stroke-dasharray:none;stroke-linecap:square" />
    <path
       d="M89.96 60.85H58.2V97.9"
       fill="none"
       stroke="#0c322c"
       stroke-width=".53"
       marker-end="url(#a)"
       id="path1202"
       style="stroke:#000000;stroke-opacity:1;stroke-width:0.52996042;stroke-miterlimit:4;stroke-dasharray:none;stroke-linecap:square" />
    <path
       d="M47.62 97.9V50.27h42.34"
       fill="none"
       stroke="#0c322c"
       stroke-width=".53"
       marker-end="url(#a)"
       id="path1204"
       style="stroke:#000000;stroke-opacity:1;stroke-width:0.52996042;stroke-miterlimit:4;stroke-dasharray:none;stroke-linecap:square" />
    <path
       d="M179.92 97.9V60.85h-31.75"
       fill="none"
       stroke="#0c322c"
       stroke-width=".53"
       marker-end="url(#a)"
       id="path1206"
       style="stroke:#000000;stroke-opacity:1;stroke-width:0.52996042;stroke-miterlimit:4;stroke-dasharray:none;stroke-linecap:square" />
    <path
       d="M148.17 50.27h42.33V97.9"
       fill="none"
       stroke="#0c322c"
       stroke-width=".53"
       marker-end="url(#a)"
       id="path1208"
       style="stroke:#000000;stroke-opacity:1;stroke-width:0.52996042;stroke-miterlimit:4;stroke-dasharray:none;stroke-linecap:square" />
    <rect
       width="52.92"
       height="37.04"
       x="92.6"
       y="37.04"
       fill="#fe7c3f"
       paint-order="markers fill stroke"
       id="rect1210" />
    <g
       id="text1222"
       style="font-weight:500;font-size:4.94px;line-height:1.25;font-family:Poppins;-inkscape-font-specification:'Poppins, Medium';letter-spacing:0;fill:#ffffff;stroke-width:0.26"
       aria-label="サーバ1">
      <path
         style="font-weight:normal;font-family:'Noto Sans CJK JP';-inkscape-font-specification:'Noto Sans CJK JP'"
         d="m 47.317634,118.01926 v -0.6175 c 0,-0.19266 0.01976,-0.35568 0.0247,-0.40508 h -0.4446 c 0.0099,0.0494 0.0247,0.21242 0.0247,0.40508 v 0.6175 h -1.4079 v -0.63232 c 0,-0.1729 0.01976,-0.31122 0.0247,-0.36062 h -0.43966 c 0.0049,0.0494 0.01976,0.20254 0.01976,0.36062 v 0.63232 h -0.52858 c -0.21242,0 -0.45448,-0.0247 -0.49894,-0.0346 v 0.42978 c 0.05928,-0.005 0.28158,-0.0198 0.49894,-0.0198 h 0.52858 v 0.80028 c 0,0.18772 -0.01482,0.40014 -0.01976,0.44954 h 0.43472 c -0.0049,-0.0494 -0.01976,-0.26676 -0.01976,-0.44954 v -0.80028 h 1.4079 v 0.20748 c 0,1.3832 -0.44954,1.80804 -1.34862,2.15384 l 0.33098,0.31122 c 1.13126,-0.50388 1.41284,-1.18066 1.41284,-2.49964 v -0.1729 h 0.5434 c 0.21736,0 0.40014,0.01 0.44954,0.0148 v -0.41496 c -0.06422,0.01 -0.23218,0.0247 -0.44954,0.0247 z m 1.88708,1.16584 c 0.15314,-0.0148 0.41496,-0.0247 0.68666,-0.0247 h 2.71206 c 0.2223,0 0.42978,0.0198 0.52858,0.0247 v -0.48412 c -0.10868,0.01 -0.28652,0.0247 -0.53352,0.0247 h -2.70712 c -0.27664,0 -0.53846,-0.0148 -0.68666,-0.0247 z m 8.165819,-2.19336 -0.26182,0.10868 c 0.13338,0.18772 0.30134,0.48412 0.40014,0.68666 l 0.26676,-0.11856 c -0.0988,-0.20254 -0.28158,-0.50388 -0.40508,-0.67678 z m 0.5434,-0.1976 -0.26182,0.10868 c 0.14326,0.18772 0.30134,0.46436 0.41002,0.68172 l 0.26676,-0.11856 c -0.09386,-0.18278 -0.28158,-0.494 -0.41496,-0.67184 z m -3.24558,2.55892 c -0.1729,0.41496 -0.44954,0.93366 -0.76076,1.34368 l 0.4199,0.17784 c 0.27664,-0.3952 0.5434,-0.90402 0.72618,-1.3585 0.20748,-0.50388 0.38038,-1.235 0.44954,-1.54128 0.01976,-0.10868 0.05928,-0.25194 0.08892,-0.36062 l -0.43966,-0.0889 c -0.06422,0.5681 -0.2717,1.31898 -0.48412,1.8278 z m 2.43048,-0.18772 c 0.20748,0.52858 0.43472,1.19548 0.55822,1.69936 l 0.43966,-0.14326 c -0.12844,-0.4446 -0.39026,-1.20042 -0.5928,-1.68948 -0.20748,-0.52364 -0.52364,-1.20536 -0.72124,-1.56104 l -0.40014,0.13338 c 0.21736,0.36556 0.5187,1.05222 0.7163,1.56104 z"
         id="path1" />
      <path
         d="m 58.719153,117.6784 v -0.41002 h 0.92872 V 120.84 h -0.45448 v -3.1616 z"
         id="path2" />
    </g>
    <g
       id="text1226"
       style="font-weight:500;font-size:4.94px;line-height:1.25;font-family:Poppins;-inkscape-font-specification:'Poppins, Medium';letter-spacing:0;stroke-width:0.26"
       aria-label="サーバ2">
      <path
         style="font-weight:normal;font-family:'Noto Sans CJK JP';-inkscape-font-specification:'Noto Sans CJK JP';text-align:center;text-anchor:middle"
         d="m 113.77125,118.05926 v -0.6175 c 0,-0.19266 0.0198,-0.35568 0.0247,-0.40508 h -0.4446 c 0.01,0.0494 0.0247,0.21242 0.0247,0.40508 v 0.6175 h -1.4079 v -0.63232 c 0,-0.1729 0.0198,-0.31122 0.0247,-0.36062 h -0.43966 c 0.005,0.0494 0.0198,0.20254 0.0198,0.36062 v 0.63232 h -0.52858 c -0.21242,0 -0.45448,-0.0247 -0.49894,-0.0346 v 0.42978 c 0.0593,-0.005 0.28158,-0.0198 0.49894,-0.0198 h 0.52858 v 0.80028 c 0,0.18772 -0.0148,0.40014 -0.0198,0.44954 h 0.43472 c -0.005,-0.0494 -0.0198,-0.26676 -0.0198,-0.44954 v -0.80028 h 1.4079 v 0.20748 c 0,1.3832 -0.44954,1.80804 -1.34862,2.15384 l 0.33098,0.31122 c 1.13126,-0.50388 1.41284,-1.18066 1.41284,-2.49964 v -0.1729 h 0.5434 c 0.21736,0 0.40014,0.01 0.44954,0.0148 v -0.41496 c -0.0642,0.01 -0.23218,0.0247 -0.44954,0.0247 z m 1.88708,1.16584 c 0.15314,-0.0148 0.41496,-0.0247 0.68666,-0.0247 h 2.71206 c 0.2223,0 0.42978,0.0198 0.52858,0.0247 v -0.48412 c -0.10868,0.01 -0.28652,0.0247 -0.53352,0.0247 h -2.70712 c -0.27664,0 -0.53846,-0.0148 -0.68666,-0.0247 z m 8.16581,-2.19336 -0.26182,0.10868 c 0.13338,0.18772 0.30134,0.48412 0.40014,0.68666 l 0.26676,-0.11856 c -0.0988,-0.20254 -0.28158,-0.50388 -0.40508,-0.67678 z m 0.5434,-0.1976 -0.26182,0.10868 c 0.14326,0.18772 0.30134,0.46436 0.41002,0.68172 l 0.26676,-0.11856 c -0.0939,-0.18278 -0.28158,-0.494 -0.41496,-0.67184 z m -3.24558,2.55892 c -0.1729,0.41496 -0.44954,0.93366 -0.76076,1.34368 l 0.4199,0.17784 c 0.27664,-0.3952 0.5434,-0.90402 0.72618,-1.3585 0.20748,-0.50388 0.38038,-1.235 0.44954,-1.54128 0.0198,-0.10868 0.0593,-0.25194 0.0889,-0.36062 l -0.43966,-0.0889 c -0.0642,0.5681 -0.2717,1.31898 -0.48412,1.8278 z m 2.43048,-0.18772 c 0.20748,0.52858 0.43472,1.19548 0.55822,1.69936 l 0.43966,-0.14326 c -0.12844,-0.4446 -0.39026,-1.20042 -0.5928,-1.68948 -0.20748,-0.52364 -0.52364,-1.20536 -0.72124,-1.56104 l -0.40014,0.13338 c 0.21736,0.36556 0.5187,1.05222 0.7163,1.56104 z"
         id="path3" />
      <path
         style="text-align:center;text-anchor:middle"
         d="m 125.23698,120.51938 q 0.62738,-0.50388 0.98306,-0.82498 0.35568,-0.32604 0.59774,-0.67678 0.247,-0.35568 0.247,-0.69654 0,-0.3211 -0.15808,-0.50388 -0.15314,-0.18772 -0.49894,-0.18772 -0.33592,0 -0.52364,0.21242 -0.18278,0.20748 -0.1976,0.55822 h -0.43472 q 0.0198,-0.55328 0.33592,-0.85462 0.31616,-0.30134 0.8151,-0.30134 0.50882,0 0.80522,0.28158 0.30134,0.28158 0.30134,0.77558 0,0.41002 -0.247,0.80028 -0.24206,0.38532 -0.55328,0.68172 -0.31122,0.29146 -0.79534,0.68172 h 1.69936 v 0.37544 h -2.37614 z"
         id="path4" />
    </g>
    <g
       id="text1230"
       style="font-weight:500;font-size:4.94px;line-height:1.25;font-family:Poppins;-inkscape-font-specification:'Poppins, Medium';letter-spacing:0;stroke-width:0.26"
       aria-label="サーバ3">
      <path
         style="font-weight:normal;font-family:'Noto Sans CJK JP';-inkscape-font-specification:'Noto Sans CJK JP'"
         d="m 179.4468,118.05926 v -0.6175 c 0,-0.19266 0.0198,-0.35568 0.0247,-0.40508 h -0.4446 c 0.01,0.0494 0.0247,0.21242 0.0247,0.40508 v 0.6175 h -1.4079 v -0.63232 c 0,-0.1729 0.0198,-0.31122 0.0247,-0.36062 h -0.43966 c 0.005,0.0494 0.0198,0.20254 0.0198,0.36062 v 0.63232 h -0.52858 c -0.21242,0 -0.45448,-0.0247 -0.49894,-0.0346 v 0.42978 c 0.0593,-0.005 0.28158,-0.0198 0.49894,-0.0198 h 0.52858 v 0.80028 c 0,0.18772 -0.0148,0.40014 -0.0198,0.44954 h 0.43472 c -0.005,-0.0494 -0.0198,-0.26676 -0.0198,-0.44954 v -0.80028 h 1.4079 v 0.20748 c 0,1.3832 -0.44954,1.80804 -1.34862,2.15384 l 0.33098,0.31122 c 1.13126,-0.50388 1.41284,-1.18066 1.41284,-2.49964 v -0.1729 h 0.5434 c 0.21736,0 0.40014,0.01 0.44954,0.0148 v -0.41496 c -0.0642,0.01 -0.23218,0.0247 -0.44954,0.0247 z m 1.88708,1.16584 c 0.15314,-0.0148 0.41496,-0.0247 0.68666,-0.0247 h 2.71206 c 0.2223,0 0.42978,0.0198 0.52858,0.0247 v -0.48412 c -0.10868,0.01 -0.28652,0.0247 -0.53352,0.0247 h -2.70712 c -0.27664,0 -0.53846,-0.0148 -0.68666,-0.0247 z m 8.16582,-2.19336 -0.26182,0.10868 c 0.13338,0.18772 0.30134,0.48412 0.40014,0.68666 l 0.26676,-0.11856 c -0.0988,-0.20254 -0.28158,-0.50388 -0.40508,-0.67678 z m 0.5434,-0.1976 -0.26182,0.10868 c 0.14326,0.18772 0.30134,0.46436 0.41002,0.68172 l 0.26676,-0.11856 c -0.0939,-0.18278 -0.28158,-0.494 -0.41496,-0.67184 z m -3.24558,2.55892 c -0.1729,0.41496 -0.44954,0.93366 -0.76076,1.34368 l 0.4199,0.17784 c 0.27664,-0.3952 0.5434,-0.90402 0.72618,-1.3585 0.20748,-0.50388 0.38038,-1.235 0.44954,-1.54128 0.0198,-0.10868 0.0593,-0.25194 0.0889,-0.36062 l -0.43966,-0.0889 c -0.0642,0.5681 -0.2717,1.31898 -0.48412,1.8278 z m 2.43048,-0.18772 c 0.20748,0.52858 0.43472,1.19548 0.55822,1.69936 l 0.43966,-0.14326 c -0.12844,-0.4446 -0.39026,-1.20042 -0.5928,-1.68948 -0.20748,-0.52364 -0.52364,-1.20536 -0.72124,-1.56104 l -0.40014,0.13338 c 0.21736,0.36556 0.5187,1.05222 0.7163,1.56104 z"
         id="path5" />
      <path
         d="m 190.957,118.20746 q 0.0346,-0.45448 0.35074,-0.71136 0.31616,-0.25688 0.82004,-0.25688 0.33592,0 0.57798,0.1235 0.247,0.11856 0.3705,0.32604 0.12844,0.20748 0.12844,0.4693 0,0.30628 -0.17784,0.52858 -0.1729,0.2223 -0.45448,0.28652 v 0.0247 q 0.3211,0.079 0.50882,0.31122 0.18772,0.23218 0.18772,0.60762 0,0.28158 -0.12844,0.50882 -0.12844,0.2223 -0.38532,0.35074 -0.25688,0.12844 -0.6175,0.12844 -0.52364,0 -0.85956,-0.2717 -0.33592,-0.27664 -0.37544,-0.78052 h 0.43472 q 0.0346,0.2964 0.24206,0.48412 0.20748,0.18772 0.55328,0.18772 0.3458,0 0.52364,-0.17784 0.18278,-0.18278 0.18278,-0.4693 0,-0.3705 -0.247,-0.53352 -0.247,-0.16302 -0.74594,-0.16302 h -0.11362 v -0.37544 h 0.11856 q 0.45448,-0.005 0.68666,-0.1482 0.23218,-0.1482 0.23218,-0.45448 0,-0.26182 -0.1729,-0.4199 -0.16796,-0.15808 -0.48412,-0.15808 -0.30628,0 -0.494,0.15808 -0.18772,0.15808 -0.2223,0.42484 z"
         id="path6" />
    </g>
    <rect
       width="52.92"
       height="37.04"
       x="92.6"
       y="-47.62"
       fill="#c0c2c4"
       paint-order="markers fill stroke"
       id="rect1232" />
    <path
       style="font-size:4.94px;line-height:1.25;font-family:'Noto Sans CJK JP';-inkscape-font-specification:'Noto Sans CJK JP';text-align:center;letter-spacing:0;text-anchor:middle;stroke-width:0.26"
       d="m 116.4171,-35.978934 c -0.0939,0.49894 -0.23218,0.94354 -0.40508,1.3338 -0.23712,-0.21242 -0.60268,-0.45942 -0.92378,-0.64714 0.13338,-0.20748 0.25194,-0.43966 0.36556,-0.68666 z m 1.4079,-1.09174 h -0.37544 v 1.88214 c -0.1976,-0.23218 -0.3705,-0.47424 -0.50388,-0.72124 l -0.19266,0.0741 c 0.0247,-0.13338 0.0543,-0.2717 0.0741,-0.41496 l -0.23712,-0.08892 -0.0692,0.01976 h -0.92872 c 0.084,-0.21736 0.15808,-0.44954 0.2223,-0.68172 l -0.36062,-0.0741 c -0.22724,0.88426 -0.63726,1.69936 -1.18066,2.20324 0.084,0.05434 0.24206,0.1729 0.30134,0.23712 0.11362,-0.11362 0.2223,-0.24206 0.32604,-0.38038 0.34086,0.20748 0.7163,0.48412 0.94354,0.70148 -0.37544,0.6669 -0.87438,1.14608 -1.46224,1.45236 0.0889,0.05434 0.22724,0.18772 0.29146,0.2717 0.9386,-0.52364 1.6796,-1.5067 2.04022,-3.0628 0.1976,0.33592 0.45448,0.6669 0.73606,0.96824 v 2.10938 h 0.37544 v -1.74876 c 0.28158,0.247 0.58292,0.45942 0.87932,0.61256 0.0642,-0.0988 0.17784,-0.24206 0.26182,-0.31122 -0.39026,-0.17784 -0.7904,-0.44954 -1.14114,-0.78052 z m 3.9273,0.5434 h -1.00282 v -0.52858 h -0.35074 v 0.52858 h -0.988 v 0.3211 h 2.34156 z m -0.60762,1.3091 c 0.10374,-0.21736 0.2223,-0.5434 0.32604,-0.82992 l -0.3458,-0.08398 c -0.0593,0.247 -0.18278,0.61256 -0.27664,0.8398 z m -0.89908,-0.08892 c -0.0247,-0.21242 -0.11362,-0.54834 -0.22724,-0.7904 l -0.30628,0.06422 c 0.10374,0.25194 0.19266,0.58292 0.21736,0.80028 z m 0.94354,1.22512 v 0.90896 h -1.235 v -0.90896 z m -1.57586,1.52152 h 0.34086 v -0.29146 h 1.235 v 0.26182 h 0.35568 v -1.81792 h -1.93154 z m -0.33098,-2.27734 h 2.53916 v -0.33592 h -2.53916 z m 4.2484,-1.96118 -0.0593,0.01482 h -1.45236 v 4.21876 h 0.35568 v -3.87296 h 0.93366 c -0.15314,0.3952 -0.3705,0.92872 -0.57304,1.34368 0.49894,0.42978 0.63726,0.79534 0.63726,1.10656 0,0.17784 -0.0296,0.32604 -0.13338,0.39026 -0.0593,0.03458 -0.13832,0.0494 -0.21242,0.05434 -0.10374,0.0049 -0.23712,0.0049 -0.39026,-0.0099 0.0642,0.10374 0.0988,0.26182 0.10374,0.36556 0.14326,0.0049 0.30628,0.0049 0.42978,-0.0099 0.12844,-0.01482 0.23218,-0.0494 0.3211,-0.10868 0.1729,-0.11362 0.24206,-0.34086 0.24206,-0.6422 -0.005,-0.35074 -0.12844,-0.741 -0.62244,-1.19548 0.23218,-0.44954 0.48412,-1.01764 0.68666,-1.482 z"
       id="text1240"
       aria-label="外部" />
    <path
       style="font-size:4.94px;line-height:1.25;font-family:'Noto Sans CJK JP';-inkscape-font-specification:'Noto Sans CJK JP';text-align:center;letter-spacing:0;text-anchor:middle;stroke-width:0.26"
       d="m 108.30068,-29.425807 c -0.084,0.03458 -0.19266,0.0494 -0.32604,0.0494 h -1.34862 c 0.0395,-0.06422 0.0741,-0.1235 0.10374,-0.18278 0.0494,-0.09386 0.13832,-0.26182 0.21736,-0.39026 l -0.4446,-0.14326 c -0.0346,0.12844 -0.10868,0.30628 -0.15808,0.3952 -0.2223,0.44954 -0.73606,1.19054 -1.58574,1.71418 l 0.33098,0.25688 c 0.55328,-0.37544 0.99294,-0.85956 1.3091,-1.29922 h 1.6796 c -0.0939,0.39026 -0.33592,0.89908 -0.63726,1.31898 -0.38532,-0.23218 -0.80028,-0.4693 -1.0868,-0.6175 l -0.25194,0.29146 c 0.27664,0.15314 0.6916,0.40014 1.08186,0.65208 -0.44954,0.494001 -1.09174,0.968241 -1.9513,1.230061 l 0.35568,0.30628 c 0.86944,-0.3211 1.49188,-0.80522 1.93648,-1.314041 0.18772,0.128441 0.35074,0.247001 0.4693,0.340861 l 0.2717,-0.355681 c -0.1235,-0.08892 -0.29146,-0.20254 -0.47918,-0.3211 0.3458,-0.48412 0.59774,-1.03246 0.72124,-1.46718 0.0296,-0.07904 0.0741,-0.1976 0.11362,-0.26676 z m 4.88072,-0.494 c -0.27664,0.35074 -0.79534,0.78052 -1.29922,1.09174 -0.5434,0.34086 -1.3832,0.7163 -2.20818,0.90896 l 0.22724,0.38532 c 0.64714,-0.19266 1.32886,-0.47918 1.85744,-0.77064 v 1.867321 c 0,0.18772 -0.0148,0.43472 -0.0296,0.52858 h 0.48412 c -0.0198,-0.0988 -0.0296,-0.34086 -0.0296,-0.52858 v -2.114321 c 0.50882,-0.3211 0.98306,-0.72618 1.32392,-1.07198 z m 5.52292,3.838381 c -0.20254,-0.50882 -0.741,-1.501761 -1.09174,-2.010581 l -0.3705,0.16796 c 0.18278,0.23712 0.40014,0.62244 0.59774,1.012701 -0.53846,0.06916 -1.48694,0.17784 -2.21312,0.247 0.247,-0.642201 0.73112,-2.158781 0.87932,-2.623141 0.0642,-0.20748 0.11856,-0.33592 0.16796,-0.45942 l -0.48906,-0.0988 c -0.0198,0.12844 -0.0395,0.247 -0.0988,0.47424 -0.13832,0.48412 -0.6422,2.06492 -0.91884,2.746641 -0.0889,0.0049 -0.1729,0.0099 -0.247,0.01482 -0.14326,0.0049 -0.31122,0.0099 -0.45942,0.0049 l 0.0741,0.45942 c 0.14326,-0.01976 0.28652,-0.04446 0.41002,-0.05434 0.66196,-0.05928 2.31192,-0.24206 3.07762,-0.34086 0.10868,0.24206 0.20748,0.4693 0.2717,0.64714 z m 3.88778,-2.800981 v -0.6175 c 0,-0.19266 0.0198,-0.35568 0.0247,-0.40508 h -0.4446 c 0.01,0.0494 0.0247,0.21242 0.0247,0.40508 v 0.6175 h -1.4079 v -0.63232 c 0,-0.1729 0.0198,-0.31122 0.0247,-0.36062 h -0.43966 c 0.005,0.0494 0.0198,0.20254 0.0198,0.36062 v 0.63232 h -0.52858 c -0.21242,0 -0.45448,-0.0247 -0.49894,-0.03458 v 0.42978 c 0.0593,-0.0049 0.28158,-0.01976 0.49894,-0.01976 h 0.52858 v 0.80028 c 0,0.18772 -0.0148,0.40014 -0.0198,0.44954 h 0.43472 c -0.005,-0.0494 -0.0198,-0.26676 -0.0198,-0.44954 v -0.80028 h 1.4079 v 0.20748 c 0,1.383201 -0.44954,1.808041 -1.34862,2.153841 l 0.33098,0.31122 c 1.13126,-0.50388 1.41284,-1.18066 1.41284,-2.499641 v -0.1729 h 0.5434 c 0.21736,0 0.40014,0.0099 0.44954,0.01482 v -0.41496 c -0.0642,0.0099 -0.23218,0.0247 -0.44954,0.0247 z m 1.88708,1.16584 c 0.15314,-0.01482 0.41496,-0.0247 0.68666,-0.0247 h 2.71206 c 0.2223,0 0.42978,0.01976 0.52858,0.0247 v -0.48412 c -0.10868,0.0099 -0.28652,0.0247 -0.53352,0.0247 h -2.70712 c -0.27664,0 -0.53846,-0.01482 -0.68666,-0.0247 z m 8.16582,-2.19336 -0.26182,0.10868 c 0.13338,0.18772 0.30134,0.48412 0.40014,0.68666 l 0.26676,-0.11856 c -0.0988,-0.20254 -0.28158,-0.50388 -0.40508,-0.67678 z m 0.5434,-0.1976 -0.26182,0.10868 c 0.14326,0.18772 0.30134,0.46436 0.41002,0.68172 l 0.26676,-0.11856 c -0.0939,-0.18278 -0.28158,-0.494 -0.41496,-0.67184 z m -3.24558,2.55892 c -0.1729,0.41496 -0.44954,0.933661 -0.76076,1.343681 l 0.4199,0.17784 c 0.27664,-0.3952 0.5434,-0.90402 0.72618,-1.358501 0.20748,-0.50388 0.38038,-1.235 0.44954,-1.54128 0.0198,-0.10868 0.0593,-0.25194 0.0889,-0.36062 l -0.43966,-0.08892 c -0.0642,0.5681 -0.2717,1.31898 -0.48412,1.8278 z m 2.43048,-0.18772 c 0.20748,0.52858 0.43472,1.195481 0.55822,1.699361 l 0.43966,-0.14326 c -0.12844,-0.4446 -0.39026,-1.200421 -0.5928,-1.689481 -0.20748,-0.52364 -0.52364,-1.20536 -0.72124,-1.56104 l -0.40014,0.13338 c 0.21736,0.36556 0.5187,1.05222 0.7163,1.56104 z"
       id="text1240-5"
       aria-label="タイムサーバ" />
    <path
       style="font-size:4.94px;line-height:1.25;font-family:'Noto Sans CJK JP';-inkscape-font-specification:'Noto Sans CJK JP';text-align:center;letter-spacing:0;text-anchor:middle;stroke-width:0.26"
       d="m 118.566,50.023295 h -1.78828 v -0.84474 h -0.36556 v 0.84474 h -1.78828 v 3.67536 h 0.36062 v -3.31474 h 1.42272 c -0.0296,0.64714 -0.20748,1.46224 -1.29428,2.04022 0.084,0.06422 0.20748,0.1976 0.26182,0.27664 0.66196,-0.39026 1.01764,-0.84968 1.20042,-1.32392 0.45448,0.42484 0.94848,0.92872 1.20042,1.2597 l 0.30134,-0.23712 c -0.30134,-0.36556 -0.90402,-0.94354 -1.39308,-1.37332 0.0543,-0.2223 0.079,-0.43966 0.0889,-0.6422 h 1.4326 v 2.8158 c 0,0.08892 -0.0296,0.11856 -0.11856,0.1235 -0.10374,0.0049 -0.43966,0.0049 -0.78546,-0.0099 0.0543,0.0988 0.10868,0.2717 0.1235,0.3705 0.43966,0 0.74594,0 0.91884,-0.06422 0.16796,-0.05928 0.2223,-0.17784 0.2223,-0.41496 z m 3.1863,-0.2964 h -1.00282 v -0.52858 h -0.35074 v 0.52858 h -0.988 v 0.3211 h 2.34156 z m -0.60762,1.3091 c 0.10374,-0.21736 0.2223,-0.5434 0.32604,-0.82992 l -0.3458,-0.08398 c -0.0593,0.247 -0.18278,0.61256 -0.27664,0.8398 z m -0.89908,-0.08892 c -0.0247,-0.21242 -0.11362,-0.54834 -0.22724,-0.7904 l -0.30628,0.06422 c 0.10374,0.25194 0.19266,0.58292 0.21736,0.80028 z m 0.94354,1.22512 v 0.90896 h -1.235 v -0.90896 z m -1.57586,1.52152 h 0.34086 v -0.29146 h 1.235 v 0.26182 h 0.35568 v -1.81792 h -1.93154 z m -0.33098,-2.27734 h 2.53916 v -0.33592 h -2.53916 z m 4.2484,-1.96118 -0.0593,0.01482 h -1.45236 v 4.21876 h 0.35568 v -3.87296 h 0.93366 c -0.15314,0.3952 -0.3705,0.92872 -0.57304,1.34368 0.49894,0.42978 0.63726,0.79534 0.63726,1.10656 0,0.17784 -0.0296,0.32604 -0.13338,0.39026 -0.0593,0.03458 -0.13832,0.0494 -0.21242,0.05434 -0.10374,0.0049 -0.23712,0.0049 -0.39026,-0.0099 0.0642,0.10374 0.0988,0.26182 0.10374,0.36556 0.14326,0.0049 0.30628,0.0049 0.42978,-0.0099 0.12844,-0.01482 0.23218,-0.0494 0.3211,-0.10868 0.1729,-0.11362 0.24206,-0.34086 0.24206,-0.6422 -0.005,-0.35074 -0.12844,-0.741 -0.62244,-1.19548 0.23218,-0.44954 0.48412,-1.01764 0.68666,-1.482 z"
       id="text1240-9"
       aria-label="内部" />
    <path
       style="font-size:4.94px;line-height:1.25;font-family:'Noto Sans CJK JP';-inkscape-font-specification:'Noto Sans CJK JP';text-align:center;letter-spacing:0;text-anchor:middle;stroke-width:0.26"
       d="m 108.30068,56.828369 c -0.084,0.03458 -0.19266,0.0494 -0.32604,0.0494 h -1.34862 c 0.0395,-0.06422 0.0741,-0.1235 0.10374,-0.18278 0.0494,-0.09386 0.13832,-0.26182 0.21736,-0.39026 l -0.4446,-0.14326 c -0.0346,0.12844 -0.10868,0.30628 -0.15808,0.3952 -0.2223,0.44954 -0.73606,1.19054 -1.58574,1.71418 l 0.33098,0.25688 c 0.55328,-0.37544 0.99294,-0.85956 1.3091,-1.29922 h 1.6796 c -0.0939,0.39026 -0.33592,0.89908 -0.63726,1.31898 -0.38532,-0.23218 -0.80028,-0.4693 -1.0868,-0.6175 l -0.25194,0.29146 c 0.27664,0.15314 0.6916,0.40014 1.08186,0.65208 -0.44954,0.494 -1.09174,0.96824 -1.9513,1.23006 l 0.35568,0.30628 c 0.86944,-0.3211 1.49188,-0.80522 1.93648,-1.31404 0.18772,0.12844 0.35074,0.247 0.4693,0.34086 l 0.2717,-0.35568 c -0.1235,-0.08892 -0.29146,-0.20254 -0.47918,-0.3211 0.3458,-0.48412 0.59774,-1.03246 0.72124,-1.46718 0.0296,-0.07904 0.0741,-0.1976 0.11362,-0.26676 z m 4.88072,-0.494 c -0.27664,0.35074 -0.79534,0.78052 -1.29922,1.09174 -0.5434,0.34086 -1.3832,0.7163 -2.20818,0.90896 l 0.22724,0.38532 c 0.64714,-0.19266 1.32886,-0.47918 1.85744,-0.77064 v 1.86732 c 0,0.18772 -0.0148,0.43472 -0.0296,0.52858 h 0.48412 c -0.0198,-0.0988 -0.0296,-0.34086 -0.0296,-0.52858 v -2.11432 c 0.50882,-0.3211 0.98306,-0.72618 1.32392,-1.07198 z m 5.52292,3.83838 c -0.20254,-0.50882 -0.741,-1.50176 -1.09174,-2.01058 l -0.3705,0.16796 c 0.18278,0.23712 0.40014,0.62244 0.59774,1.0127 -0.53846,0.06916 -1.48694,0.17784 -2.21312,0.247 0.247,-0.6422 0.73112,-2.15878 0.87932,-2.62314 0.0642,-0.20748 0.11856,-0.33592 0.16796,-0.45942 l -0.48906,-0.0988 c -0.0198,0.12844 -0.0395,0.247 -0.0988,0.47424 -0.13832,0.48412 -0.6422,2.06492 -0.91884,2.74664 -0.0889,0.0049 -0.1729,0.0099 -0.247,0.01482 -0.14326,0.0049 -0.31122,0.0099 -0.45942,0.0049 l 0.0741,0.45942 c 0.14326,-0.01976 0.28652,-0.04446 0.41002,-0.05434 0.66196,-0.05928 2.31192,-0.24206 3.07762,-0.34086 0.10868,0.24206 0.20748,0.4693 0.2717,0.64714 z m 3.88778,-2.80098 v -0.6175 c 0,-0.19266 0.0198,-0.35568 0.0247,-0.40508 h -0.4446 c 0.01,0.0494 0.0247,0.21242 0.0247,0.40508 v 0.6175 h -1.4079 v -0.63232 c 0,-0.1729 0.0198,-0.31122 0.0247,-0.36062 h -0.43966 c 0.005,0.0494 0.0198,0.20254 0.0198,0.36062 v 0.63232 h -0.52858 c -0.21242,0 -0.45448,-0.0247 -0.49894,-0.03458 v 0.42978 c 0.0593,-0.0049 0.28158,-0.01976 0.49894,-0.01976 h 0.52858 v 0.80028 c 0,0.18772 -0.0148,0.40014 -0.0198,0.44954 h 0.43472 c -0.005,-0.0494 -0.0198,-0.26676 -0.0198,-0.44954 v -0.80028 h 1.4079 v 0.20748 c 0,1.3832 -0.44954,1.80804 -1.34862,2.15384 l 0.33098,0.31122 c 1.13126,-0.50388 1.41284,-1.18066 1.41284,-2.49964 v -0.1729 h 0.5434 c 0.21736,0 0.40014,0.0099 0.44954,0.01482 v -0.41496 c -0.0642,0.0099 -0.23218,0.0247 -0.44954,0.0247 z m 1.88708,1.16584 c 0.15314,-0.01482 0.41496,-0.0247 0.68666,-0.0247 h 2.71206 c 0.2223,0 0.42978,0.01976 0.52858,0.0247 v -0.48412 c -0.10868,0.0099 -0.28652,0.0247 -0.53352,0.0247 h -2.70712 c -0.27664,0 -0.53846,-0.01482 -0.68666,-0.0247 z m 8.16582,-2.19336 -0.26182,0.10868 c 0.13338,0.18772 0.30134,0.48412 0.40014,0.68666 l 0.26676,-0.11856 c -0.0988,-0.20254 -0.28158,-0.50388 -0.40508,-0.67678 z m 0.5434,-0.1976 -0.26182,0.10868 c 0.14326,0.18772 0.30134,0.46436 0.41002,0.68172 l 0.26676,-0.11856 c -0.0939,-0.18278 -0.28158,-0.494 -0.41496,-0.67184 z m -3.24558,2.55892 c -0.1729,0.41496 -0.44954,0.93366 -0.76076,1.34368 l 0.4199,0.17784 c 0.27664,-0.3952 0.5434,-0.90402 0.72618,-1.3585 0.20748,-0.50388 0.38038,-1.235 0.44954,-1.54128 0.0198,-0.10868 0.0593,-0.25194 0.0889,-0.36062 l -0.43966,-0.08892 c -0.0642,0.5681 -0.2717,1.31898 -0.48412,1.8278 z m 2.43048,-0.18772 c 0.20748,0.52858 0.43472,1.19548 0.55822,1.69936 l 0.43966,-0.14326 c -0.12844,-0.4446 -0.39026,-1.20042 -0.5928,-1.68948 -0.20748,-0.52364 -0.52364,-1.20536 -0.72124,-1.56104 l -0.40014,0.13338 c 0.21736,0.36556 0.5187,1.05222 0.7163,1.56104 z"
       id="text1240-5-1"
       aria-label="タイムサーバ" />
    <path
       d="M114.3 34.4V-7.94"
       fill="none"
       stroke="#0c322c"
       stroke-width=".53"
       marker-end="url(#b)"
       id="path1242"
       style="stroke:#000000;stroke-opacity:1;stroke-width:0.52996042;stroke-miterlimit:4;stroke-dasharray:none;stroke-linecap:square" />
    <path
       d="M124.88-7.94v41.8"
       fill="none"
       stroke="#0c322c"
       stroke-width=".53"
       marker-end="url(#b)"
       id="path1244"
       style="stroke:#000000;stroke-opacity:1;stroke-width:0.52996042;stroke-miterlimit:4;stroke-dasharray:none;stroke-linecap:square" />
    <path
       d="M26.46 13.23h185.2"
       fill="none"
       stroke="red"
       stroke-width=".66"
       stroke-dasharray="2.64583, 2.64583"
       id="path1246" />
    <path
       style="font-size:4.94px;line-height:1.25;font-family:'Noto Sans CJK JP';-inkscape-font-specification:'Noto Sans CJK JP';letter-spacing:0;stroke-width:0.26"
       d="m 56.641999,2.1422398 c -0.09386,0.0247 -0.18772,0.0247 -0.26182,0.0247 h -2.47988 c -0.16302,0 -0.35568,-0.01482 -0.494,-0.02964 v 0.4347201 c 0.12844,-0.00494 0.2964,-0.01482 0.494,-0.01482 h 2.52434 c -0.06422,0.47424 -0.2964,1.1609 -0.64714,1.61044 -0.41496,0.52858 -0.96824,0.94848 -1.9266,1.19054 l 0.33592,0.3705 c 0.90896,-0.28652 1.49682,-0.74594 1.94636,-1.32392 0.39026,-0.50882 0.62738,-1.30416 0.73606,-1.82286 0.01976,-0.09386 0.03952,-0.1778401 0.0741,-0.2470001 z m 3.17148,1.4918801 c 0.01482,0.0988 0.02964,0.1976 0.02964,0.29146 0,0.64714 -0.09386,1.19054 -0.76076,1.64008 -0.11362,0.07904 -0.23218,0.12844 -0.34086,0.16796 l 0.35074,0.27664 c 1.04234,-0.57798 1.14114,-1.32392 1.15102,-2.37614 z m 1.86732,-0.7163 c -0.06422,0.01482 -0.1976,0.0247 -0.2717,0.0247 h -2.44036 c -0.1482,0 -0.32604,-0.01482 -0.46436,-0.03458 v 0.41002 c 0.15314,-0.01482 0.31616,-0.01976 0.46436,-0.01976 l 2.36132,0.00494 c -0.14326,0.24206 -0.49894,0.67678 -0.84968,0.8892 l 0.3211,0.2223 c 0.4446,-0.30628 0.85956,-0.92378 1.00282,-1.15596 0.0247,-0.03952 0.06916,-0.0988 0.0988,-0.13338 z m 4.8165,-1.1559601 c -0.27664,0.35074 -0.79534,0.78052 -1.29922,1.0917401 -0.5434,0.34086 -1.3832,0.7163 -2.20818,0.90896 l 0.22724,0.38532 c 0.64714,-0.19266 1.32886,-0.47918 1.85744,-0.77064 v 1.86732 c 0,0.18772 -0.01482,0.43472 -0.02964,0.52858 h 0.48412 c -0.01976,-0.0988 -0.02964,-0.34086 -0.02964,-0.52858 v -2.11432 c 0.50882,-0.3211 0.98306,-0.7261801 1.32392,-1.0719801 z m 3.196179,1.1707801 c 0.01482,0.12844 0.01976,0.23712 0.01976,0.35568 0,0.82498 -0.10868,1.5314 -0.87438,2.0007 -0.13832,0.09386 -0.30628,0.1729 -0.43966,0.21736 l 0.36062,0.2964 c 1.2597,-0.62738 1.37826,-1.5314 1.37826,-2.87014 z m 2.1736,-0.8842601 c -0.0741,0.01482 -0.25194,0.02964 -0.3458,0.02964 h -2.83556 c -0.18278,0 -0.39026,-0.01976 -0.56316,-0.03952 v 0.4446 c 0.1976,-0.01976 0.38038,-0.02964 0.56316,-0.02964 h 2.81086 c -0.15808,0.3062801 -0.62244,0.8398001 -1.07692,1.1065601 l 0.32604,0.26182 c 0.56316,-0.39026 1.03246,-1.02752 1.23006,-1.3634401 0.03458,-0.05434 0.0988,-0.12844 0.13338,-0.17784 z m 4.673241,0.40508 c -0.06422,0.0247 -0.15808,0.03952 -0.34086,0.03952 h -1.10656 v -0.45942 c 0,-0.10374 0.0049,-0.21736 0.02964,-0.3705 h -0.47424 c 0.01976,0.15314 0.0247,0.26676 0.0247,0.3705 v 0.45942 h -1.09174 c -0.1729,0 -0.31616,-0.00494 -0.45942,-0.01976 0.01482,0.1086801 0.01482,0.2766401 0.01482,0.3803801 v 0.86944 c 0,0.09386 -0.0049,0.22724 -0.01482,0.31122 h 0.42978 c -0.01482,-0.0741 -0.01976,-0.20254 -0.01976,-0.29146 v -0.88426 h 2.76146 c -0.04446,0.42484 -0.20254,1.02258 -0.4693,1.44248 -0.30134,0.4693 -0.84474,0.83486 -1.33874,0.99294 -0.15808,0.05928 -0.3458,0.11362 -0.51376,0.13832 l 0.3211,0.3705 c 0.90402,-0.247 1.58574,-0.75088 1.95624,-1.40296 0.27664,-0.4693 0.4199,-1.0868 0.48412,-1.482 0.01976,-0.09386 0.0494,-0.2223 0.0741,-0.2964 z m 4.05574,0.8793201 -0.0099,-0.40014 c 0,-0.11362 0.0049,-0.22724 0.01976,-0.33098 h -0.4199 c 0.01976,0.10868 0.03458,0.23218 0.03458,0.33098 0.0049,0.09386 0.0099,0.23218 0.01482,0.40014 h -1.48694 c -0.11856,0 -0.25194,-0.00494 -0.36556,-0.01976 v 0.39026 c 0.11856,-0.00988 0.24206,-0.01482 0.37544,-0.01482 h 1.31898 c -0.33592,0.50388 -1.0868,1.15596 -1.8278,1.51164 l 0.27664,0.30628 c 0.67184,-0.35568 1.3832,-0.98306 1.71912,-1.4573 0.0099,0.52364 0.01482,1.07692 0.01482,1.38814 0,0.08892 -0.04446,0.14326 -0.13338,0.14326 -0.1482,0 -0.40508,-0.01482 -0.60268,-0.04446 l 0.01976,0.36062 c 0.1976,0.00988 0.5187,0.02964 0.7163,0.02964 0.21736,0 0.37544,-0.12844 0.3705,-0.34086 -0.0049,-0.46436 -0.01976,-1.27452 -0.02964,-1.89696 h 0.7163 c 0.09386,0 0.23218,0.00988 0.3211,0.01482 v -0.39026 c -0.06916,0.00988 -0.23218,0.01976 -0.33098,0.01976 z m 2.237819,0.63232 c 0.15314,-0.01482 0.41496,-0.0247 0.68666,-0.0247 h 2.71206 c 0.2223,0 0.42978,0.01976 0.52858,0.0247 v -0.48412 c -0.10868,0.00988 -0.28652,0.0247 -0.53352,0.0247 h -2.70712 c -0.27664,0 -0.53846,-0.01482 -0.68666,-0.0247 z m 5.132662,1.77346 c 0.41496,-0.34086 0.73112,-0.82498 0.87932,-1.35356 0.13338,-0.494 0.15314,-1.55116 0.15314,-2.0995001 0,-0.1482 0.01976,-0.2964 0.0247,-0.35568 h -0.45448 c 0.01976,0.10374 0.03458,0.21242 0.03458,0.36062 0,0.5483401 -0.0049,1.5314001 -0.1482,1.9858801 -0.1482,0.47918 -0.4446,0.91884 -0.85956,1.21524 z m 2.15384,-0.00494 c 0.0494,-0.03952 0.09386,-0.0741 0.16796,-0.11362 0.57304,-0.28652 1.259701,-0.7904 1.684541,-1.36838 l -0.23712,-0.33592 c -0.37544,0.55822 -0.983061,1.00776 -1.437541,1.21524 V 2.2805598 c 0,-0.18772 0.01482,-0.32604 0.01976,-0.36556 H 89.8635 c 0.0049,0.03952 0.02964,0.17784 0.02964,0.36556 v 2.9590601 c 0,0.0988 -0.01482,0.1976 -0.03458,0.27664 z"
       id="text1250"
       aria-label="ファイアウォール" />
    <path
       style="font-size:4.94px;line-height:1.25;font-family:'Noto Sans CJK JP';-inkscape-font-specification:'Noto Sans CJK JP';letter-spacing:0;stroke-width:0.26"
       d="m 149.32621,1.5722402 c -0.0939,0.0247 -0.18772,0.0247 -0.26182,0.0247 h -2.47988 c -0.16302,0 -0.35568,-0.01482 -0.494,-0.02964 v 0.43472 c 0.12844,-0.00494 0.2964,-0.01482 0.494,-0.01482 h 2.52434 c -0.0642,0.47424 -0.2964,1.1609 -0.64714,1.61044 -0.41496,0.52858 -0.96824,0.94848 -1.9266,1.19054 l 0.33592,0.3705 c 0.90896,-0.28652 1.49682,-0.74594 1.94636,-1.32392 0.39026,-0.50882 0.62738,-1.30416 0.73606,-1.82286 0.0198,-0.09386 0.0395,-0.17784 0.0741,-0.247 z m 3.17148,1.49188 c 0.0148,0.0988 0.0296,0.1976 0.0296,0.29146 0,0.64714 -0.0939,1.19054 -0.76076,1.64008 -0.11362,0.07904 -0.23218,0.12844 -0.34086,0.16796 l 0.35074,0.27664 c 1.04234,-0.57798 1.14114,-1.32392 1.15102,-2.37614 z m 1.86732,-0.7163 c -0.0642,0.01482 -0.1976,0.0247 -0.2717,0.0247 h -2.44036 c -0.1482,0 -0.32604,-0.01482 -0.46436,-0.03458 v 0.41002 c 0.15314,-0.01482 0.31616,-0.01976 0.46436,-0.01976 l 2.36132,0.00494 c -0.14326,0.24206 -0.49894,0.67678 -0.84968,0.8892 l 0.3211,0.2223 c 0.4446,-0.30628 0.85956,-0.92378 1.00282,-1.15596 0.0247,-0.03952 0.0692,-0.0988 0.0988,-0.13338 z m 4.8165,-1.1559601 c -0.27664,0.3507401 -0.79534,0.7805201 -1.29922,1.0917401 -0.5434,0.34086 -1.3832,0.7163 -2.20818,0.90896 l 0.22724,0.38532 c 0.64714,-0.19266 1.32886,-0.47918 1.85744,-0.77064 v 1.86732 c 0,0.18772 -0.0148,0.43472 -0.0296,0.52858 h 0.48412 c -0.0198,-0.0988 -0.0296,-0.34086 -0.0296,-0.52858 v -2.11432 c 0.50882,-0.3211 0.98306,-0.72618 1.32392,-1.0719801 z m 3.19618,1.1707801 c 0.0148,0.12844 0.0198,0.23712 0.0198,0.35568 0,0.82498 -0.10868,1.5314 -0.87438,2.0007 -0.13832,0.09386 -0.30628,0.1729 -0.43966,0.21736 l 0.36062,0.2964 c 1.2597,-0.62738 1.37826,-1.5314 1.37826,-2.87014 z m 2.1736,-0.8842601 c -0.0741,0.01482 -0.25194,0.02964 -0.3458,0.02964 h -2.83556 c -0.18278,0 -0.39026,-0.01976 -0.56316,-0.03952 v 0.4446001 c 0.1976,-0.01976 0.38038,-0.02964 0.56316,-0.02964 h 2.81086 c -0.15808,0.30628 -0.62244,0.8398 -1.07692,1.10656 l 0.32604,0.26182 c 0.56316,-0.39026 1.03246,-1.02752 1.23006,-1.36344 0.0346,-0.05434 0.0988,-0.12844 0.13338,-0.17784 z m 4.67324,0.4050801 c -0.0642,0.0247 -0.15808,0.03952 -0.34086,0.03952 h -1.10656 V 1.4635601 c 0,-0.10374 0.005,-0.21736 0.0296,-0.3705 h -0.47424 c 0.0198,0.15314 0.0247,0.26676 0.0247,0.3705 v 0.4594201 h -1.09174 c -0.1729,0 -0.31616,-0.00494 -0.45942,-0.01976 0.0148,0.10868 0.0148,0.27664 0.0148,0.38038 v 0.86944 c 0,0.09386 -0.005,0.22724 -0.0148,0.31122 h 0.42978 c -0.0148,-0.0741 -0.0198,-0.20254 -0.0198,-0.29146 v -0.88426 h 2.76146 c -0.0445,0.42484 -0.20254,1.02258 -0.4693,1.44248 -0.30134,0.4693 -0.84474,0.83486 -1.33874,0.99294 -0.15808,0.05928 -0.3458,0.11362 -0.51376,0.13832 l 0.3211,0.3705 c 0.90402,-0.247 1.58574,-0.75088 1.95624,-1.40296 0.27664,-0.4693 0.4199,-1.0868 0.48412,-1.482 0.0198,-0.09386 0.0494,-0.2223 0.0741,-0.2964 z m 4.05574,0.87932 -0.01,-0.40014 c 0,-0.11362 0.005,-0.22724 0.0198,-0.33098 h -0.4199 c 0.0198,0.10868 0.0346,0.23218 0.0346,0.33098 0.005,0.09386 0.01,0.23218 0.0148,0.40014 h -1.48694 c -0.11856,0 -0.25194,-0.00494 -0.36556,-0.01976 v 0.39026 c 0.11856,-0.00988 0.24206,-0.01482 0.37544,-0.01482 h 1.31898 c -0.33592,0.50388 -1.0868,1.15596 -1.8278,1.51164 l 0.27664,0.30628 c 0.67184,-0.35568 1.3832,-0.98306 1.71912,-1.4573 0.01,0.52364 0.0148,1.07692 0.0148,1.38814 0,0.08892 -0.0445,0.14326 -0.13338,0.14326 -0.1482,0 -0.40508,-0.01482 -0.60268,-0.04446 l 0.0198,0.36062 c 0.1976,0.00988 0.5187,0.02964 0.7163,0.02964 0.21736,0 0.37544,-0.12844 0.3705,-0.34086 -0.005,-0.46436 -0.0198,-1.27452 -0.0296,-1.89696 h 0.7163 c 0.0939,0 0.23218,0.00988 0.3211,0.01482 v -0.39026 c -0.0692,0.00988 -0.23218,0.01976 -0.33098,0.01976 z m 2.23782,0.63232 c 0.15314,-0.01482 0.41496,-0.0247 0.68666,-0.0247 h 2.71206 c 0.2223,0 0.42978,0.01976 0.52858,0.0247 v -0.48412 c -0.10868,0.00988 -0.28652,0.0247 -0.53352,0.0247 h -2.70712 c -0.27664,0 -0.53846,-0.01482 -0.68666,-0.0247 z m 5.13266,1.77346 c 0.41496,-0.34086 0.73112,-0.82498 0.87932,-1.35356 0.13338,-0.494 0.15314,-1.55116 0.15314,-2.0995 0,-0.1482 0.0198,-0.2964001 0.0247,-0.3556801 h -0.45448 c 0.0198,0.10374 0.0346,0.2124201 0.0346,0.3606201 0,0.54834 -0.005,1.5314 -0.1482,1.98588 -0.1482,0.47918 -0.4446,0.91884 -0.85956,1.21524 z m 2.15384,-0.00494 c 0.0494,-0.03952 0.0939,-0.0741 0.16796,-0.11362 0.57304,-0.28652 1.2597,-0.7904 1.68454,-1.36838 l -0.23712,-0.33592 c -0.37544,0.55822 -0.98306,1.00776 -1.43754,1.21524 v -2.85038 c 0,-0.1877201 0.0148,-0.3260401 0.0198,-0.3655601 h -0.45448 c 0.005,0.03952 0.0296,0.17784 0.0296,0.3655601 v 2.95906 c 0,0.0988 -0.0148,0.1976 -0.0346,0.27664 z"
       id="text1254"
       aria-label="ファイアウォール" />
  </g>
</svg>
