<svg xmlns="http://www.w3.org/2000/svg" viewBox="0 0 255.66 137.58" height="520" width="966.28">
    <defs>
        <marker markerWidth="3.06" markerHeight="4.71" refX="1.53" refY="2.35" orient="auto" id="a">
            <path d="m.35.35 2 2-2 2" fill="none" stroke="#000"/>
        </marker>
    </defs>
    <g transform="translate(4.3 -10.58)">
        <g transform="translate(-2.95 73.35) scale(1.34587)">
            <path class="st0" d="M7.35 3.17a3.01 3.01 0 1 0-6.03.04v2.03c0 .41.16.82.43 1.13l1.17 1.34c.33.37.8.58 1.3.58h.24c.5 0 .97-.21 1.3-.58l1.16-1.34c.28-.31.43-.72.43-1.13Z" fill="#fff" stroke="#0c322c" stroke-width=".73" stroke-miterlimit="10"/>
            <line class="st0" x1="2.46" y1="7.27" x2="2.46" y2="10.37" fill="none" stroke="#0c322c" stroke-width=".73" stroke-miterlimit="10"/>
            <line class="st0" x1="6.12" y1="7.27" x2="6.12" y2="10.37" fill="none" stroke="#0c322c" stroke-width=".73" stroke-miterlimit="10"/>
            <path d="M2.35 2.97a2.84 2.84 0 0 1 2.39 0l-.8 2.11H5M3.54 6.4c.5.31 1.01.4 1.59 0" fill="none" stroke="#0c322c" stroke-width=".53"/>
        </g>
        <g transform="translate(-18.52)" fill="#fe7c3f">
            <rect width="47.63" height="13.23" x="44.98" y="13.23" paint-order="markers fill stroke"/>
            <text xml:space="preserve" style="line-height:1.25;-inkscape-font-specification:'Poppins, Medium'" x="47.13" y="21.07" font-weight="500" font-size="3.7" font-family="Poppins" letter-spacing="0" fill="#fff" stroke-width=".26"><tspan x="47.13" y="21.07">virt-manager (GUI)</tspan></text>
        </g>
        <g transform="translate(-18.52 23.81)" fill="#fe7c3f">
            <rect width="47.63" height="13.23" x="44.98" y="13.23" paint-order="markers fill stroke"/>
            <text xml:space="preserve" style="line-height:1.25;-inkscape-font-specification:'Poppins, Medium'" x="47.13" y="21.07" font-weight="500" font-size="3.7" font-family="Poppins" letter-spacing="0" fill="#fff" stroke-width=".26"><tspan x="47.13" y="21.07">virsh (CLI)</tspan></text>
        </g>
        <g transform="translate(-18.52 47.63)" fill="#fe7c3f">
            <rect width="47.63" height="13.23" x="44.98" y="13.23" paint-order="markers fill stroke"/>
            <text xml:space="preserve" style="line-height:1.25;-inkscape-font-specification:'Poppins, Medium'" x="47.13" y="21.23" font-weight="500" font-size="3.7" font-family="Poppins" letter-spacing="0" fill="#fff" stroke-width=".26"><tspan x="47.13" y="21.23">virt-install (CLI)</tspan></text>
        </g>
        <rect width="47.63" height="13.23" x="95.25" y="72.84" fill="#f3b292" paint-order="markers fill stroke"/>
        <text xml:space="preserve" style="line-height:1.25;-inkscape-font-specification:'Poppins, Medium'" x="113.79" y="80.87" font-weight="500" font-size="3.7" font-family="Poppins" letter-spacing="0" fill="#fff" stroke-width=".26"><tspan x="113.79" y="80.87" fill="#000">libvirt</tspan></text>
        <g transform="translate(-18.52 71.44)" fill="#fe7c3f">
            <rect width="47.63" height="13.23" x="44.98" y="13.23" paint-order="markers fill stroke"/>
            <text xml:space="preserve" style="line-height:1.25;-inkscape-font-specification:'Poppins, Medium'" x="46.89" y="21.23" font-weight="500" font-size="3.7" font-family="Poppins" letter-spacing="0" fill="#fff" stroke-width=".26"><tspan x="46.89" y="21.23">remote-viewer (CLI)</tspan></text>
            <rect width="47.63" height="13.23" x="44.98" y="37.04" paint-order="markers fill stroke"/>
            <text xml:space="preserve" style="line-height:1.25;-inkscape-font-specification:'Poppins, Medium'" x="47.13" y="45.04" font-weight="500" font-size="3.7" font-family="Poppins" letter-spacing="0" fill="#fff" stroke-width=".26"><tspan x="47.13" y="45.04">virt-clone (CLI)</tspan></text>
            <rect width="47.63" height="13.23" x="44.98" y="60.85" paint-order="markers fill stroke"/>
            <text xml:space="preserve" style="line-height:1.25;-inkscape-font-specification:'Poppins, Medium'" x="47.13" y="68.85" font-weight="500" font-size="3.7" font-family="Poppins" letter-spacing="0" fill="#fff" stroke-width=".26"><tspan x="47.13" y="68.85">virt-host-validate (CLI)</tspan></text>
        </g>
        <rect width="89.96" height="26.46" x="158.75" y="66.15" fill="#0c322c" paint-order="markers fill stroke"/>
        <rect width="34.4" height="10.58" x="166.69" y="74.08" fill="#30ba78" paint-order="markers fill stroke"/>
        <rect width="34.4" height="10.58" x="206.38" y="74.08" fill="#30ba78" paint-order="markers fill stroke"/>
        <text xml:space="preserve" style="line-height:1.25;-inkscape-font-specification:'Poppins, Medium'" x="191.97" y="89.96" font-weight="500" font-size="3.7" font-family="Poppins" letter-spacing="0" stroke-width=".26"><tspan x="191.97" y="89.96" fill="#fff">qemu (KVM)</tspan></text>
        <text xml:space="preserve" style="line-height:1.25;-inkscape-font-specification:'Poppins, Medium'" x="181.07" y="80.66" font-weight="500" font-size="3.7" font-family="Poppins" letter-spacing="0" stroke-width=".26"><tspan x="181.07" y="80.66" fill="#fff">VM</tspan></text>
        <text xml:space="preserve" style="line-height:1.25;-inkscape-font-specification:'Poppins, Medium'" x="220.76" y="80.66" font-weight="500" font-size="3.7" font-family="Poppins" letter-spacing="0" fill="#fff" stroke-width=".26"><tspan x="220.76" y="80.66">VM</tspan></text>
        <path d="m10.58 71.44 13.23-50.27" fill="none" stroke="#000" stroke-width=".53" marker-end="url(#a)"/>
        <path d="m10.58 74.08 13.23-29.1" fill="none" stroke="#000" stroke-width=".53" marker-end="url(#a)"/>
        <path d="m10.58 76.73 13.23-7.94" fill="none" stroke="#000" stroke-width=".53" marker-end="url(#a)"/>
        <path d="m10.58 82.02 13.23 7.94" fill="none" stroke="#000" stroke-width=".53" marker-end="url(#a)"/>
        <path d="m10.58 84.67 13.23 29.1" fill="none" stroke="#000" stroke-width=".53" marker-end="url(#a)"/>
        <path d="m10.58 87.31 13.23 50.27" fill="none" stroke="#000" stroke-width=".53" marker-end="url(#a)"/>
        <path d="M76.73 21.17h7.94v116.41h-7.94m7.94-92.6h-7.94m7.94 23.82h-7.94m7.94 21.16h-7.94m7.94 23.81h-7.94" fill="none" stroke="#000" stroke-width=".53"/>
        <path d="M84.67 79.62h7.93" fill="none" stroke="#000" stroke-width=".53" marker-end="url(#a)"/>
        <path d="M145.52 79.62h10.58" fill="none" stroke="#000" stroke-width=".5" marker-end="url(#a)"/>
    </g>
</svg>

