<?xml version="1.0" encoding="UTF-8" standalone="no"?>
<svg
   width="720"
   height="720"
   viewBox="0 0 190.5 190.5"
   version="1.1"
   id="svg1258"
   sodipodi:docname="multiple-machines-ntp.svg"
   inkscape:version="1.3.2 (091e20e, 2023-11-25, custom)"
   xmlns:inkscape="http://www.inkscape.org/namespaces/inkscape"
   xmlns:sodipodi="http://sodipodi.sourceforge.net/DTD/sodipodi-0.dtd"
   xmlns="http://www.w3.org/2000/svg"
   xmlns:svg="http://www.w3.org/2000/svg"
   xmlns:rdf="http://www.w3.org/1999/02/22-rdf-syntax-ns#"
   xmlns:cc="http://creativecommons.org/ns#"
   xmlns:dc="http://purl.org/dc/elements/1.1/">
  <metadata
     id="metadata1262">
    <rdf:RDF>
      <cc:Work
         rdf:about="">
        <dc:format>image/svg+xml</dc:format>
        <dc:type
           rdf:resource="http://purl.org/dc/dcmitype/StillImage" />
      </cc:Work>
    </rdf:RDF>
  </metadata>
  <sodipodi:namedview
     pagecolor="#ffffff"
     bordercolor="#666666"
     borderopacity="1"
     objecttolerance="10"
     gridtolerance="10"
     guidetolerance="10"
     inkscape:pageopacity="0"
     inkscape:pageshadow="2"
     inkscape:window-width="1920"
     inkscape:window-height="1009"
     id="namedview1260"
     showgrid="false"
     inkscape:zoom="1.1389221"
     inkscape:cx="346.81915"
     inkscape:cy="496.52211"
     inkscape:window-x="-8"
     inkscape:window-y="-8"
     inkscape:window-maximized="1"
     inkscape:current-layer="g1256"
     inkscape:showpageshadow="2"
     inkscape:pagecheckerboard="0"
     inkscape:deskcolor="#d1d1d1" />
  <defs
     id="defs1190">
    <marker
       markerWidth="3.06"
       markerHeight="4.71"
       refX="1.53"
       refY="2.35"
       orient="auto"
       id="a">
      <path
         d="m.35.35 2 2-2 2"
         fill="none"
         stroke="#000"
         id="path1184" />
    </marker>
    <marker
       markerWidth="3.06"
       markerHeight="4.71"
       refX="1.53"
       refY="2.35"
       orient="auto"
       id="b">
      <path
         d="m.35.35 2 2-2 2"
         fill="none"
         stroke="#000"
         id="path1187" />
    </marker>
  </defs>
  <g
     transform="translate(-23.81 50.27)"
     id="g1256">
    <rect
       width="52.92"
       height="37.04"
       x="26.46"
       y="100.54"
       fill="#0c322c"
       paint-order="markers fill stroke"
       id="rect1192" />
    <rect
       width="52.92"
       height="37.04"
       x="92.6"
       y="100.54"
       fill="#f3b292"
       paint-order="markers fill stroke"
       id="rect1194" />
    <rect
       width="52.92"
       height="37.04"
       x="158.75"
       y="100.54"
       fill="#c7f1e3"
       paint-order="markers fill stroke"
       id="rect1196" />
    <path
       d="M113.77 97.9V76.73"
       fill="none"
       stroke="#0c322c"
       stroke-width=".53"
       marker-end="url(#a)"
       id="path1198"
       style="stroke:#000000;stroke-opacity:1;stroke-width:0.52996042;stroke-miterlimit:4;stroke-dasharray:none;stroke-linecap:square" />
    <path
       d="M124.35 76.73V97.9"
       fill="none"
       stroke="#0c322c"
       stroke-width=".53"
       marker-end="url(#a)"
       id="path1200"
       style="stroke:#000000;stroke-opacity:1;stroke-width:0.52996042;stroke-miterlimit:4;stroke-dasharray:none;stroke-linecap:square" />
    <path
       d="M89.96 60.85H58.2V97.9"
       fill="none"
       stroke="#0c322c"
       stroke-width=".53"
       marker-end="url(#a)"
       id="path1202"
       style="stroke:#000000;stroke-opacity:1;stroke-width:0.52996042;stroke-miterlimit:4;stroke-dasharray:none;stroke-linecap:square" />
    <path
       d="M47.62 97.9V50.27h42.34"
       fill="none"
       stroke="#0c322c"
       stroke-width=".53"
       marker-end="url(#a)"
       id="path1204"
       style="stroke:#000000;stroke-opacity:1;stroke-width:0.52996042;stroke-miterlimit:4;stroke-dasharray:none;stroke-linecap:square" />
    <path
       d="M179.92 97.9V60.85h-31.75"
       fill="none"
       stroke="#0c322c"
       stroke-width=".53"
       marker-end="url(#a)"
       id="path1206"
       style="stroke:#000000;stroke-opacity:1;stroke-width:0.52996042;stroke-miterlimit:4;stroke-dasharray:none;stroke-linecap:square" />
    <path
       d="M148.17 50.27h42.33V97.9"
       fill="none"
       stroke="#0c322c"
       stroke-width=".53"
       marker-end="url(#a)"
       id="path1208"
       style="stroke:#000000;stroke-opacity:1;stroke-width:0.52996042;stroke-miterlimit:4;stroke-dasharray:none;stroke-linecap:square" />
    <rect
       width="52.92"
       height="37.04"
       x="92.6"
       y="37.04"
       fill="#fe7c3f"
       paint-order="markers fill stroke"
       id="rect1210" />
    <path
       d="m 43.116285,120.87458 q -0.34086,0 -0.61256,-0.11856 -0.26676,-0.1235 -0.4199,-0.33592 -0.15314,-0.21736 -0.15808,-0.49894 h 0.47918 q 0.0247,0.24206 0.1976,0.41002 0.17784,0.16302 0.51376,0.16302 0.3211,0 0.50388,-0.15808 0.18772,-0.16302 0.18772,-0.41496 0,-0.1976 -0.10868,-0.3211 -0.10868,-0.1235 -0.2717,-0.18772 -0.16302,-0.0642 -0.43966,-0.13832 -0.34086,-0.0889 -0.54834,-0.17784 -0.20254,-0.0889 -0.35074,-0.27664 -0.14326,-0.19266 -0.14326,-0.51376 0,-0.28158 0.14326,-0.49894 0.14326,-0.21736 0.40014,-0.33592 0.26182,-0.11856 0.59774,-0.11856 0.48412,0 0.7904,0.24206 0.31122,0.24206 0.35074,0.6422 h -0.494 q -0.0247,-0.1976 -0.20748,-0.3458 -0.18278,-0.15314 -0.48412,-0.15314 -0.28158,0 -0.45942,0.1482 -0.17784,0.14326 -0.17784,0.40508 0,0.18772 0.10374,0.30628 0.10868,0.11856 0.26182,0.18278 0.15808,0.0593 0.43966,0.13832 0.34086,0.0939 0.54834,0.18772 0.20748,0.0889 0.35568,0.28158 0.1482,0.18772 0.1482,0.51376 0,0.25194 -0.13338,0.47424 -0.13338,0.2223 -0.3952,0.36062 -0.26182,0.13832 -0.6175,0.13832 z m 4.27804,-1.49188 q 0,0.12844 -0.01482,0.2717 h -2.16372 q 0.0247,0.40014 0.2717,0.62738 0.25194,0.2223 0.60762,0.2223 0.29146,0 0.48412,-0.13338 0.1976,-0.13832 0.27664,-0.36556 h 0.48412 q -0.10868,0.39026 -0.43472,0.63726 -0.32604,0.24206 -0.81016,0.24206 -0.38532,0 -0.6916,-0.1729 -0.30134,-0.1729 -0.47424,-0.48906 -0.1729,-0.3211 -0.1729,-0.741 0,-0.4199 0.16796,-0.73606 0.16796,-0.31616 0.4693,-0.48412 0.30628,-0.1729 0.70148,-0.1729 0.38532,0 0.68172,0.16796 0.2964,0.16796 0.45448,0.46436 0.16302,0.29146 0.16302,0.66196 z m -0.46436,-0.0939 q 0,-0.25688 -0.11362,-0.43966 -0.11362,-0.18772 -0.31122,-0.28158 -0.19266,-0.0988 -0.42978,-0.0988 -0.34086,0 -0.58292,0.21736 -0.23712,0.21736 -0.2717,0.60268 z m 1.506704,-0.7163 q 0.11856,-0.23218 0.33592,-0.36062 0.2223,-0.12844 0.53846,-0.12844 v 0.46436 h -0.11856 q -0.75582,0 -0.75582,0.82004 V 120.84 h -0.44954 v -2.70712 h 0.44954 z m 2.400836,1.8525 0.8398,-2.29216 h 0.47918 l -1.0621,2.70712 h -0.52364 l -1.0621,-2.70712 h 0.48412 z m 4.233584,-1.04234 q 0,0.12844 -0.01482,0.2717 h -2.16372 q 0.0247,0.40014 0.2717,0.62738 0.25194,0.2223 0.60762,0.2223 0.29146,0 0.48412,-0.13338 0.1976,-0.13832 0.27664,-0.36556 h 0.48412 q -0.10868,0.39026 -0.43472,0.63726 -0.32604,0.24206 -0.81016,0.24206 -0.38532,0 -0.6916,-0.1729 -0.30134,-0.1729 -0.47424,-0.48906 -0.1729,-0.3211 -0.1729,-0.741 0,-0.4199 0.16796,-0.73606 0.16796,-0.31616 0.4693,-0.48412 0.30628,-0.1729 0.70148,-0.1729 0.38532,0 0.68172,0.16796 0.2964,0.16796 0.45448,0.46436 0.16302,0.29146 0.16302,0.66196 z m -0.46436,-0.0939 q 0,-0.25688 -0.11362,-0.43966 -0.11362,-0.18772 -0.31122,-0.28158 -0.19266,-0.0988 -0.42978,-0.0988 -0.34086,0 -0.58292,0.21736 -0.23712,0.21736 -0.2717,0.60268 z m 3.458004,-1.15596 V 120.84 h -0.44954 v -0.40014 q -0.12844,0.20748 -0.36062,0.32604 -0.22724,0.11362 -0.50388,0.11362 -0.31616,0 -0.5681,-0.12844 -0.25194,-0.13338 -0.40014,-0.3952 -0.14326,-0.26182 -0.14326,-0.63726 v -1.58574 h 0.4446 v 1.52646 q 0,0.40014 0.20254,0.6175 0.20254,0.21242 0.55328,0.21242 0.36062,0 0.5681,-0.2223 0.20748,-0.2223 0.20748,-0.64714 v -1.48694 z m 1.210297,0.43966 q 0.11856,-0.23218 0.33592,-0.36062 0.2223,-0.12844 0.53846,-0.12844 v 0.46436 h -0.11856 q -0.75582,0 -0.75582,0.82004 V 120.84 h -0.44954 v -2.70712 h 0.44954 z m 2.519397,-0.89414 v -0.41002 h 0.92872 V 120.84 h -0.45448 v -3.1616 z"
       id="text1222"
       style="font-weight:500;font-size:4.94px;line-height:1.25;font-family:Poppins;-inkscape-font-specification:'Poppins, Medium';letter-spacing:0;fill:#ffffff;stroke-width:0.26"
       aria-label="Serveur 1" />
    <path
       style="font-weight:500;font-size:4.94px;line-height:1.25;font-family:Poppins;-inkscape-font-specification:'Poppins, Medium';text-align:center;letter-spacing:0;text-anchor:middle;stroke-width:0.26"
       d="m 109.09059,120.91458 q -0.34086,0 -0.61256,-0.11856 -0.26676,-0.1235 -0.4199,-0.33592 -0.15314,-0.21736 -0.15808,-0.49894 h 0.47918 q 0.0247,0.24206 0.1976,0.41002 0.17784,0.16302 0.51376,0.16302 0.3211,0 0.50388,-0.15808 0.18772,-0.16302 0.18772,-0.41496 0,-0.1976 -0.10868,-0.3211 -0.10868,-0.1235 -0.2717,-0.18772 -0.16302,-0.0642 -0.43966,-0.13832 -0.34086,-0.0889 -0.54834,-0.17784 -0.20254,-0.0889 -0.35074,-0.27664 -0.14326,-0.19266 -0.14326,-0.51376 0,-0.28158 0.14326,-0.49894 0.14326,-0.21736 0.40014,-0.33592 0.26182,-0.11856 0.59774,-0.11856 0.48412,0 0.7904,0.24206 0.31122,0.24206 0.35074,0.6422 h -0.494 q -0.0247,-0.1976 -0.20748,-0.3458 -0.18278,-0.15314 -0.48412,-0.15314 -0.28158,0 -0.45942,0.1482 -0.17784,0.14326 -0.17784,0.40508 0,0.18772 0.10374,0.30628 0.10868,0.11856 0.26182,0.18278 0.15808,0.0593 0.43966,0.13832 0.34086,0.0939 0.54834,0.18772 0.20748,0.0889 0.35568,0.28158 0.1482,0.18772 0.1482,0.51376 0,0.25194 -0.13338,0.47424 -0.13338,0.2223 -0.3952,0.36062 -0.26182,0.13832 -0.6175,0.13832 z m 4.27804,-1.49188 q 0,0.12844 -0.0148,0.2717 h -2.16372 q 0.0247,0.40014 0.2717,0.62738 0.25194,0.2223 0.60762,0.2223 0.29146,0 0.48412,-0.13338 0.1976,-0.13832 0.27664,-0.36556 h 0.48412 q -0.10868,0.39026 -0.43472,0.63726 -0.32604,0.24206 -0.81016,0.24206 -0.38532,0 -0.6916,-0.1729 -0.30134,-0.1729 -0.47424,-0.48906 -0.1729,-0.3211 -0.1729,-0.741 0,-0.4199 0.16796,-0.73606 0.16796,-0.31616 0.4693,-0.48412 0.30628,-0.1729 0.70148,-0.1729 0.38532,0 0.68172,0.16796 0.2964,0.16796 0.45448,0.46436 0.16302,0.29146 0.16302,0.66196 z m -0.46436,-0.0939 q 0,-0.25688 -0.11362,-0.43966 -0.11362,-0.18772 -0.31122,-0.28158 -0.19266,-0.0988 -0.42978,-0.0988 -0.34086,0 -0.58292,0.21736 -0.23712,0.21736 -0.2717,0.60268 z m 1.50671,-0.7163 q 0.11856,-0.23218 0.33592,-0.36062 0.2223,-0.12844 0.53846,-0.12844 v 0.46436 h -0.11856 q -0.75582,0 -0.75582,0.82004 V 120.88 h -0.44954 v -2.70712 h 0.44954 z m 2.40083,1.8525 0.8398,-2.29216 h 0.47918 l -1.0621,2.70712 h -0.52364 l -1.0621,-2.70712 h 0.48412 z m 4.23359,-1.04234 q 0,0.12844 -0.0148,0.2717 h -2.16372 q 0.0247,0.40014 0.2717,0.62738 0.25194,0.2223 0.60762,0.2223 0.29146,0 0.48412,-0.13338 0.1976,-0.13832 0.27664,-0.36556 h 0.48412 q -0.10868,0.39026 -0.43472,0.63726 -0.32604,0.24206 -0.81016,0.24206 -0.38532,0 -0.6916,-0.1729 -0.30134,-0.1729 -0.47424,-0.48906 -0.1729,-0.3211 -0.1729,-0.741 0,-0.4199 0.16796,-0.73606 0.16796,-0.31616 0.4693,-0.48412 0.30628,-0.1729 0.70148,-0.1729 0.38532,0 0.68172,0.16796 0.2964,0.16796 0.45448,0.46436 0.16302,0.29146 0.16302,0.66196 z m -0.46436,-0.0939 q 0,-0.25688 -0.11362,-0.43966 -0.11362,-0.18772 -0.31122,-0.28158 -0.19266,-0.0988 -0.42978,-0.0988 -0.34086,0 -0.58292,0.21736 -0.23712,0.21736 -0.2717,0.60268 z m 3.458,-1.15596 V 120.88 h -0.44954 v -0.40014 q -0.12844,0.20748 -0.36062,0.32604 -0.22724,0.11362 -0.50388,0.11362 -0.31616,0 -0.5681,-0.12844 -0.25194,-0.13338 -0.40014,-0.3952 -0.14326,-0.26182 -0.14326,-0.63726 v -1.58574 h 0.4446 v 1.52646 q 0,0.40014 0.20254,0.6175 0.20254,0.21242 0.55328,0.21242 0.36062,0 0.5681,-0.2223 0.20748,-0.2223 0.20748,-0.64714 v -1.48694 z m 1.2103,0.43966 q 0.11856,-0.23218 0.33592,-0.36062 0.2223,-0.12844 0.53846,-0.12844 v 0.46436 h -0.11856 q -0.75582,0 -0.75582,0.82004 V 120.88 h -0.44954 v -2.70712 h 0.44954 z m 2.58362,1.90684 q 0.62738,-0.50388 0.98306,-0.82498 0.35568,-0.32604 0.59774,-0.67678 0.247,-0.35568 0.247,-0.69654 0,-0.3211 -0.15808,-0.50388 -0.15314,-0.18772 -0.49894,-0.18772 -0.33592,0 -0.52364,0.21242 -0.18278,0.20748 -0.1976,0.55822 h -0.43472 q 0.0198,-0.55328 0.33592,-0.85462 0.31616,-0.30134 0.8151,-0.30134 0.50882,0 0.80522,0.28158 0.30134,0.28158 0.30134,0.77558 0,0.41002 -0.247,0.80028 -0.24206,0.38532 -0.55328,0.68172 -0.31122,0.29146 -0.79534,0.68172 h 1.69936 v 0.37544 h -2.37614 z"
       id="text1226"
       aria-label="Serveur 2" />
    <path
       d="m 175.2454,120.91458 q -0.34086,0 -0.61256,-0.11856 -0.26676,-0.1235 -0.4199,-0.33592 -0.15314,-0.21736 -0.15808,-0.49894 h 0.47918 q 0.0247,0.24206 0.1976,0.41002 0.17784,0.16302 0.51376,0.16302 0.3211,0 0.50388,-0.15808 0.18772,-0.16302 0.18772,-0.41496 0,-0.1976 -0.10868,-0.3211 -0.10868,-0.1235 -0.2717,-0.18772 -0.16302,-0.0642 -0.43966,-0.13832 -0.34086,-0.0889 -0.54834,-0.17784 -0.20254,-0.0889 -0.35074,-0.27664 -0.14326,-0.19266 -0.14326,-0.51376 0,-0.28158 0.14326,-0.49894 0.14326,-0.21736 0.40014,-0.33592 0.26182,-0.11856 0.59774,-0.11856 0.48412,0 0.7904,0.24206 0.31122,0.24206 0.35074,0.6422 h -0.494 q -0.0247,-0.1976 -0.20748,-0.3458 -0.18278,-0.15314 -0.48412,-0.15314 -0.28158,0 -0.45942,0.1482 -0.17784,0.14326 -0.17784,0.40508 0,0.18772 0.10374,0.30628 0.10868,0.11856 0.26182,0.18278 0.15808,0.0593 0.43966,0.13832 0.34086,0.0939 0.54834,0.18772 0.20748,0.0889 0.35568,0.28158 0.1482,0.18772 0.1482,0.51376 0,0.25194 -0.13338,0.47424 -0.13338,0.2223 -0.3952,0.36062 -0.26182,0.13832 -0.6175,0.13832 z m 4.27804,-1.49188 q 0,0.12844 -0.0148,0.2717 h -2.16372 q 0.0247,0.40014 0.2717,0.62738 0.25194,0.2223 0.60762,0.2223 0.29146,0 0.48412,-0.13338 0.1976,-0.13832 0.27664,-0.36556 h 0.48412 q -0.10868,0.39026 -0.43472,0.63726 -0.32604,0.24206 -0.81016,0.24206 -0.38532,0 -0.6916,-0.1729 -0.30134,-0.1729 -0.47424,-0.48906 -0.1729,-0.3211 -0.1729,-0.741 0,-0.4199 0.16796,-0.73606 0.16796,-0.31616 0.4693,-0.48412 0.30628,-0.1729 0.70148,-0.1729 0.38532,0 0.68172,0.16796 0.2964,0.16796 0.45448,0.46436 0.16302,0.29146 0.16302,0.66196 z m -0.46436,-0.0939 q 0,-0.25688 -0.11362,-0.43966 -0.11362,-0.18772 -0.31122,-0.28158 -0.19266,-0.0988 -0.42978,-0.0988 -0.34086,0 -0.58292,0.21736 -0.23712,0.21736 -0.2717,0.60268 z m 1.50671,-0.7163 q 0.11856,-0.23218 0.33592,-0.36062 0.2223,-0.12844 0.53846,-0.12844 v 0.46436 h -0.11856 q -0.75582,0 -0.75582,0.82004 V 120.88 h -0.44954 v -2.70712 h 0.44954 z m 2.40083,1.8525 0.8398,-2.29216 h 0.47918 l -1.0621,2.70712 h -0.52364 l -1.0621,-2.70712 h 0.48412 z m 4.23359,-1.04234 q 0,0.12844 -0.0148,0.2717 h -2.16372 q 0.0247,0.40014 0.2717,0.62738 0.25194,0.2223 0.60762,0.2223 0.29146,0 0.48412,-0.13338 0.1976,-0.13832 0.27664,-0.36556 h 0.48412 q -0.10868,0.39026 -0.43472,0.63726 -0.32604,0.24206 -0.81016,0.24206 -0.38532,0 -0.6916,-0.1729 -0.30134,-0.1729 -0.47424,-0.48906 -0.1729,-0.3211 -0.1729,-0.741 0,-0.4199 0.16796,-0.73606 0.16796,-0.31616 0.4693,-0.48412 0.30628,-0.1729 0.70148,-0.1729 0.38532,0 0.68172,0.16796 0.2964,0.16796 0.45448,0.46436 0.16302,0.29146 0.16302,0.66196 z m -0.46436,-0.0939 q 0,-0.25688 -0.11362,-0.43966 -0.11362,-0.18772 -0.31122,-0.28158 -0.19266,-0.0988 -0.42978,-0.0988 -0.34086,0 -0.58292,0.21736 -0.23712,0.21736 -0.2717,0.60268 z m 3.458,-1.15596 V 120.88 h -0.44954 v -0.40014 q -0.12844,0.20748 -0.36062,0.32604 -0.22724,0.11362 -0.50388,0.11362 -0.31616,0 -0.5681,-0.12844 -0.25194,-0.13338 -0.40014,-0.3952 -0.14326,-0.26182 -0.14326,-0.63726 v -1.58574 h 0.4446 v 1.52646 q 0,0.40014 0.20254,0.6175 0.20254,0.21242 0.55328,0.21242 0.36062,0 0.5681,-0.2223 0.20748,-0.2223 0.20748,-0.64714 v -1.48694 z m 1.2103,0.43966 q 0.11856,-0.23218 0.33592,-0.36062 0.2223,-0.12844 0.53846,-0.12844 v 0.46436 h -0.11856 q -0.75582,0 -0.75582,0.82004 V 120.88 h -0.44954 v -2.70712 h 0.44954 z m 2.62808,-0.40508 q 0.0346,-0.45448 0.35074,-0.71136 0.31616,-0.25688 0.82004,-0.25688 0.33592,0 0.57798,0.1235 0.247,0.11856 0.3705,0.32604 0.12844,0.20748 0.12844,0.4693 0,0.30628 -0.17784,0.52858 -0.1729,0.2223 -0.45448,0.28652 v 0.0247 q 0.3211,0.079 0.50882,0.31122 0.18772,0.23218 0.18772,0.60762 0,0.28158 -0.12844,0.50882 -0.12844,0.2223 -0.38532,0.35074 -0.25688,0.12844 -0.6175,0.12844 -0.52364,0 -0.85956,-0.2717 -0.33592,-0.27664 -0.37544,-0.78052 h 0.43472 q 0.0346,0.2964 0.24206,0.48412 0.20748,0.18772 0.55328,0.18772 0.3458,0 0.52364,-0.17784 0.18278,-0.18278 0.18278,-0.4693 0,-0.3705 -0.247,-0.53352 -0.247,-0.16302 -0.74594,-0.16302 h -0.11362 v -0.37544 h 0.11856 q 0.45448,-0.005 0.68666,-0.1482 0.23218,-0.1482 0.23218,-0.45448 0,-0.26182 -0.1729,-0.4199 -0.16796,-0.15808 -0.48412,-0.15808 -0.30628,0 -0.494,0.15808 -0.18772,0.15808 -0.2223,0.42484 z"
       id="text1230"
       style="font-weight:500;font-size:4.94px;line-height:1.25;font-family:Poppins;-inkscape-font-specification:'Poppins, Medium';letter-spacing:0;stroke-width:0.26"
       aria-label="Serveur 3" />
    <rect
       width="52.92"
       height="37.04"
       x="92.6"
       y="-47.62"
       fill="#c0c2c4"
       paint-order="markers fill stroke"
       id="rect1232" />
    <path
       style="font-weight:500;font-size:4.94px;line-height:1.25;font-family:Poppins;-inkscape-font-specification:'Poppins, Medium';text-align:center;letter-spacing:0;text-anchor:middle;stroke-width:0.26"
       d="m 111.21034,-33.964588 q -0.34086,0 -0.61256,-0.11856 -0.26676,-0.1235 -0.4199,-0.33592 -0.15314,-0.21736 -0.15808,-0.49894 h 0.47918 q 0.0247,0.24206 0.1976,0.41002 0.17784,0.16302 0.51376,0.16302 0.3211,0 0.50388,-0.15808 0.18772,-0.16302 0.18772,-0.41496 0,-0.1976 -0.10868,-0.3211 -0.10868,-0.1235 -0.2717,-0.18772 -0.16302,-0.06422 -0.43966,-0.13832 -0.34086,-0.08892 -0.54834,-0.17784 -0.20254,-0.08892 -0.35074,-0.27664 -0.14326,-0.19266 -0.14326,-0.51376 0,-0.28158 0.14326,-0.49894 0.14326,-0.21736 0.40014,-0.33592 0.26182,-0.11856 0.59774,-0.11856 0.48412,0 0.7904,0.24206 0.31122,0.24206 0.35074,0.6422 h -0.494 q -0.0247,-0.1976 -0.20748,-0.3458 -0.18278,-0.15314 -0.48412,-0.15314 -0.28158,0 -0.45942,0.1482 -0.17784,0.14326 -0.17784,0.40508 0,0.18772 0.10374,0.30628 0.10868,0.11856 0.26182,0.18278 0.15808,0.05928 0.43966,0.13832 0.34086,0.09386 0.54834,0.18772 0.20748,0.08892 0.35568,0.28158 0.1482,0.18772 0.1482,0.51376 0,0.25194 -0.13338,0.47424 -0.13338,0.2223 -0.3952,0.36062 -0.26182,0.13832 -0.6175,0.13832 z m 4.27804,-1.49188 q 0,0.12844 -0.0148,0.2717 h -2.16372 q 0.0247,0.40014 0.2717,0.62738 0.25194,0.2223 0.60762,0.2223 0.29146,0 0.48412,-0.13338 0.1976,-0.13832 0.27664,-0.36556 h 0.48412 q -0.10868,0.39026 -0.43472,0.63726 -0.32604,0.24206 -0.81016,0.24206 -0.38532,0 -0.6916,-0.1729 -0.30134,-0.1729 -0.47424,-0.48906 -0.1729,-0.3211 -0.1729,-0.741 0,-0.4199 0.16796,-0.73606 0.16796,-0.31616 0.4693,-0.48412 0.30628,-0.1729 0.70148,-0.1729 0.38532,0 0.68172,0.16796 0.2964,0.16796 0.45448,0.46436 0.16302,0.29146 0.16302,0.66196 z m -0.46436,-0.09386 q 0,-0.25688 -0.11362,-0.43966 -0.11362,-0.18772 -0.31122,-0.28158 -0.19266,-0.0988 -0.42978,-0.0988 -0.34086,0 -0.58292,0.21736 -0.23712,0.21736 -0.2717,0.60268 z m 1.5067,-0.7163 q 0.11856,-0.23218 0.33592,-0.36062 0.2223,-0.12844 0.53846,-0.12844 v 0.46436 h -0.11856 q -0.75582,0 -0.75582,0.82004 v 1.47212 h -0.44954 v -2.70712 h 0.44954 z m 2.40084,1.8525 0.8398,-2.29216 h 0.47918 l -1.0621,2.70712 h -0.52364 l -1.0621,-2.70712 h 0.48412 z m 4.23358,-1.04234 q 0,0.12844 -0.0148,0.2717 h -2.16372 q 0.0247,0.40014 0.2717,0.62738 0.25194,0.2223 0.60762,0.2223 0.29146,0 0.48412,-0.13338 0.1976,-0.13832 0.27664,-0.36556 h 0.48412 q -0.10868,0.39026 -0.43472,0.63726 -0.32604,0.24206 -0.81016,0.24206 -0.38532,0 -0.6916,-0.1729 -0.30134,-0.1729 -0.47424,-0.48906 -0.1729,-0.3211 -0.1729,-0.741 0,-0.4199 0.16796,-0.73606 0.16796,-0.31616 0.4693,-0.48412 0.30628,-0.1729 0.70148,-0.1729 0.38532,0 0.68172,0.16796 0.2964,0.16796 0.45448,0.46436 0.16302,0.29146 0.16302,0.66196 z m -0.46436,-0.09386 q 0,-0.25688 -0.11362,-0.43966 -0.11362,-0.18772 -0.31122,-0.28158 -0.19266,-0.0988 -0.42978,-0.0988 -0.34086,0 -0.58292,0.21736 -0.23712,0.21736 -0.2717,0.60268 z m 3.45801,-1.15596 v 2.70712 h -0.44954 v -0.40014 q -0.12844,0.20748 -0.36062,0.32604 -0.22724,0.11362 -0.50388,0.11362 -0.31616,0 -0.5681,-0.12844 -0.25194,-0.13338 -0.40014,-0.3952 -0.14326,-0.26182 -0.14326,-0.63726 v -1.58574 h 0.4446 v 1.52646 q 0,0.40014 0.20254,0.6175 0.20254,0.21242 0.55328,0.21242 0.36062,0 0.5681,-0.2223 0.20748,-0.2223 0.20748,-0.64714 v -1.48694 z m 1.21029,0.43966 q 0.11856,-0.23218 0.33592,-0.36062 0.2223,-0.12844 0.53846,-0.12844 v 0.46436 h -0.11856 q -0.75582,0 -0.75582,0.82004 v 1.47212 h -0.44954 v -2.70712 h 0.44954 z"
       id="text1240"
       aria-label="Serveur" />
    <path
       style="font-weight:500;font-size:4.94px;line-height:1.25;font-family:Poppins;-inkscape-font-specification:'Poppins, Medium';text-align:center;letter-spacing:0;text-anchor:middle;stroke-width:0.26"
       d="m 111.9711,-30.405688 q 0.30628,0 0.55328,0.13338 0.247,0.12844 0.38532,0.39026 0.14326,0.26182 0.14326,0.63726 v 1.59562 h -0.4446 v -1.5314 q 0,-0.40508 -0.20254,-0.6175 -0.20254,-0.21736 -0.55328,-0.21736 -0.35568,0 -0.5681,0.2223 -0.20748,0.2223 -0.20748,0.64714 v 1.49682 h -0.44954 v -3.6556 h 0.44954 v 1.3338 q 0.13338,-0.20748 0.36556,-0.3211 0.23712,-0.11362 0.52858,-0.11362 z m 2.99858,2.80098 q -0.38038,0 -0.6916,-0.1729 -0.30628,-0.1729 -0.48412,-0.48906 -0.1729,-0.3211 -0.1729,-0.741 0,-0.41496 0.17784,-0.73112 0.18278,-0.3211 0.494,-0.48906 0.31122,-0.1729 0.69654,-0.1729 0.38532,0 0.69654,0.1729 0.31122,0.16796 0.48906,0.48412 0.18278,0.31616 0.18278,0.73606 0,0.4199 -0.18772,0.741 -0.18278,0.31616 -0.49894,0.48906 -0.31616,0.1729 -0.70148,0.1729 z m 0,-0.3952 q 0.24206,0 0.45448,-0.11362 0.21242,-0.11362 0.34086,-0.34086 0.13338,-0.22724 0.13338,-0.55328 0,-0.32604 -0.12844,-0.55328 -0.12844,-0.22724 -0.33592,-0.33592 -0.20748,-0.11362 -0.44954,-0.11362 -0.247,0 -0.45448,0.11362 -0.20254,0.10868 -0.32604,0.33592 -0.1235,0.22724 -0.1235,0.55328 0,0.33098 0.11856,0.55822 0.1235,0.22724 0.32604,0.34086 0.20254,0.10868 0.4446,0.10868 z m 2.43047,-1.91672 q 0.11856,-0.23218 0.33592,-0.36062 0.2223,-0.12844 0.53846,-0.12844 v 0.46436 h -0.11856 q -0.75582,0 -0.75582,0.82004 v 1.47212 h -0.44954 v -2.70712 h 0.44954 z m 1.22512,0.90402 q 0,-0.41496 0.16796,-0.72618 0.16796,-0.31616 0.45942,-0.48906 0.2964,-0.1729 0.65702,-0.1729 0.35568,0 0.6175,0.15314 0.26182,0.15314 0.39026,0.38532 v -0.494 h 0.45448 v 2.70712 h -0.45448 v -0.50388 q -0.13338,0.23712 -0.40014,0.3952 -0.26182,0.15314 -0.61256,0.15314 -0.36062,0 -0.65208,-0.17784 -0.29146,-0.17784 -0.45942,-0.49894 -0.16796,-0.3211 -0.16796,-0.73112 z m 2.29216,0.0049 q 0,-0.30628 -0.1235,-0.53352 -0.1235,-0.22724 -0.33592,-0.3458 -0.20748,-0.1235 -0.45942,-0.1235 -0.25194,0 -0.45942,0.11856 -0.20748,0.11856 -0.33098,0.3458 -0.1235,0.22724 -0.1235,0.53352 0,0.31122 0.1235,0.5434 0.1235,0.22724 0.33098,0.35074 0.20748,0.11856 0.45942,0.11856 0.25194,0 0.45942,-0.11856 0.21242,-0.1235 0.33592,-0.35074 0.1235,-0.23218 0.1235,-0.53846 z m 1.44742,-1.78828 q -0.12844,0 -0.21736,-0.08892 -0.0889,-0.08892 -0.0889,-0.21736 0,-0.12844 0.0889,-0.21736 0.0889,-0.08892 0.21736,-0.08892 0.1235,0 0.20748,0.08892 0.0889,0.08892 0.0889,0.21736 0,0.12844 -0.0889,0.21736 -0.084,0.08892 -0.20748,0.08892 z m 0.21736,0.43966 v 2.70712 h -0.44954 v -2.70712 z m 1.21524,0.43966 q 0.11856,-0.23218 0.33592,-0.36062 0.2223,-0.12844 0.53846,-0.12844 v 0.46436 h -0.11856 q -0.75582,0 -0.75582,0.82004 v 1.47212 h -0.44954 v -2.70712 h 0.44954 z m 3.86308,0.81016 q 0,0.12844 -0.0148,0.2717 h -2.16372 q 0.0247,0.40014 0.2717,0.62738 0.25194,0.2223 0.60762,0.2223 0.29146,0 0.48412,-0.13338 0.1976,-0.13832 0.27664,-0.36556 h 0.48412 q -0.10868,0.39026 -0.43472,0.63726 -0.32604,0.24206 -0.81016,0.24206 -0.38532,0 -0.6916,-0.1729 -0.30134,-0.1729 -0.47424,-0.48906 -0.1729,-0.3211 -0.1729,-0.741 0,-0.4199 0.16796,-0.73606 0.16796,-0.31616 0.4693,-0.48412 0.30628,-0.1729 0.70148,-0.1729 0.38532,0 0.68172,0.16796 0.2964,0.16796 0.45448,0.46436 0.16302,0.29146 0.16302,0.66196 z m -0.46436,-0.09386 q 0,-0.25688 -0.11362,-0.43966 -0.11362,-0.18772 -0.31122,-0.28158 -0.19266,-0.0988 -0.42978,-0.0988 -0.34086,0 -0.58292,0.21736 -0.23712,0.21736 -0.2717,0.60268 z"
       id="text1240-8"
       aria-label="horaire" />
    <path
       style="font-weight:500;font-size:4.94px;line-height:1.25;font-family:Poppins;-inkscape-font-specification:'Poppins, Medium';text-align:center;letter-spacing:0;text-anchor:middle;stroke-width:0.26"
       d="m 112.73185,-22.756468 q 0,0.12844 -0.0148,0.2717 h -2.16372 q 0.0247,0.40014 0.2717,0.62738 0.25194,0.2223 0.60762,0.2223 0.29146,0 0.48412,-0.13338 0.1976,-0.13832 0.27664,-0.36556 h 0.48412 q -0.10868,0.39026 -0.43472,0.63726 -0.32604,0.24206 -0.81016,0.24206 -0.38532,0 -0.6916,-0.1729 -0.30134,-0.1729 -0.47424,-0.48906 -0.1729,-0.3211 -0.1729,-0.741 0,-0.4199 0.16796,-0.73606 0.16796,-0.31616 0.4693,-0.48412 0.30628,-0.1729 0.70148,-0.1729 0.38532,0 0.68172,0.16796 0.2964,0.16796 0.45448,0.46436 0.16302,0.29146 0.16302,0.66196 z m -0.46436,-0.09386 q 0,-0.25688 -0.11362,-0.43966 -0.11362,-0.18772 -0.31122,-0.28158 -0.19266,-0.0988 -0.42978,-0.0988 -0.34086,0 -0.58292,0.21736 -0.23712,0.21736 -0.2717,0.60268 z m 2.47001,1.55116 -0.6422,-1.00776 -0.6175,1.00776 h -0.4693 l 0.87438,-1.34368 -0.87438,-1.36344 h 0.50882 l 0.6422,1.00282 0.61256,-1.00282 h 0.4693 l -0.86944,1.33874 0.87438,1.36838 z m 1.50176,-2.33662 v 1.59562 q 0,0.1976 0.084,0.28158 0.084,0.07904 0.29146,0.07904 h 0.33098 v 0.38038 h -0.40508 q -0.37544,0 -0.56316,-0.1729 -0.18772,-0.1729 -0.18772,-0.5681 v -1.59562 h -0.35074 v -0.3705 h 0.35074 v -0.68172 h 0.44954 v 0.68172 h 0.70642 v 0.3705 z m 3.71982,0.87932 q 0,0.12844 -0.0148,0.2717 h -2.16372 q 0.0247,0.40014 0.2717,0.62738 0.25194,0.2223 0.60762,0.2223 0.29146,0 0.48412,-0.13338 0.1976,-0.13832 0.27664,-0.36556 h 0.48412 q -0.10868,0.39026 -0.43472,0.63726 -0.32604,0.24206 -0.81016,0.24206 -0.38532,0 -0.6916,-0.1729 -0.30134,-0.1729 -0.47424,-0.48906 -0.1729,-0.3211 -0.1729,-0.741 0,-0.4199 0.16796,-0.73606 0.16796,-0.31616 0.4693,-0.48412 0.30628,-0.1729 0.70148,-0.1729 0.38532,0 0.68172,0.16796 0.2964,0.16796 0.45448,0.46436 0.16302,0.29146 0.16302,0.66196 z m -0.46436,-0.09386 q 0,-0.25688 -0.11362,-0.43966 -0.11362,-0.18772 -0.31122,-0.28158 -0.19266,-0.0988 -0.42978,-0.0988 -0.34086,0 -0.58292,0.21736 -0.23712,0.21736 -0.2717,0.60268 z m 1.5067,-0.7163 q 0.11856,-0.23218 0.33592,-0.36062 0.2223,-0.12844 0.53846,-0.12844 v 0.46436 h -0.11856 q -0.75582,0 -0.75582,0.82004 v 1.47212 h -0.44954 v -2.70712 h 0.44954 z m 2.71206,-0.48906 q 0.494,0 0.80028,0.30134 0.30628,0.2964 0.30628,0.85956 v 1.59562 h -0.4446 v -1.5314 q 0,-0.40508 -0.20254,-0.6175 -0.20254,-0.21736 -0.55328,-0.21736 -0.35568,0 -0.5681,0.2223 -0.20748,0.2223 -0.20748,0.64714 v 1.49682 h -0.44954 v -2.70712 h 0.44954 v 0.38532 q 0.13338,-0.20748 0.36062,-0.3211 0.23218,-0.11362 0.50882,-0.11362 z m 4.31262,1.29922 q 0,0.12844 -0.0148,0.2717 h -2.16372 q 0.0247,0.40014 0.2717,0.62738 0.25194,0.2223 0.60762,0.2223 0.29146,0 0.48412,-0.13338 0.1976,-0.13832 0.27664,-0.36556 h 0.48412 q -0.10868,0.39026 -0.43472,0.63726 -0.32604,0.24206 -0.81016,0.24206 -0.38532,0 -0.6916,-0.1729 -0.30134,-0.1729 -0.47424,-0.48906 -0.1729,-0.3211 -0.1729,-0.741 0,-0.4199 0.16796,-0.73606 0.16796,-0.31616 0.4693,-0.48412 0.30628,-0.1729 0.70148,-0.1729 0.38532,0 0.68172,0.16796 0.2964,0.16796 0.45448,0.46436 0.16302,0.29146 0.16302,0.66196 z m -0.46436,-0.09386 q 0,-0.25688 -0.11362,-0.43966 -0.11362,-0.18772 -0.31122,-0.28158 -0.19266,-0.0988 -0.42978,-0.0988 -0.34086,0 -0.58292,0.21736 -0.23712,0.21736 -0.2717,0.60268 z"
       id="text1240-8-8"
       aria-label="externe" />
    <path
       style="font-weight:500;font-size:4.94px;line-height:1.25;font-family:Poppins;-inkscape-font-specification:'Poppins, Medium';text-align:center;letter-spacing:0;text-anchor:middle;stroke-width:0.26"
       d="m 111.21034,50.70208 q -0.34086,0 -0.61256,-0.11856 -0.26676,-0.1235 -0.4199,-0.33592 -0.15314,-0.21736 -0.15808,-0.49894 h 0.47918 q 0.0247,0.24206 0.1976,0.41002 0.17784,0.16302 0.51376,0.16302 0.3211,0 0.50388,-0.15808 0.18772,-0.16302 0.18772,-0.41496 0,-0.1976 -0.10868,-0.3211 -0.10868,-0.1235 -0.2717,-0.18772 -0.16302,-0.06422 -0.43966,-0.13832 -0.34086,-0.08892 -0.54834,-0.17784 -0.20254,-0.08892 -0.35074,-0.27664 -0.14326,-0.19266 -0.14326,-0.51376 0,-0.28158 0.14326,-0.49894 0.14326,-0.21736 0.40014,-0.33592 0.26182,-0.11856 0.59774,-0.11856 0.48412,0 0.7904,0.24206 0.31122,0.24206 0.35074,0.6422 h -0.494 q -0.0247,-0.1976 -0.20748,-0.3458 -0.18278,-0.15314 -0.48412,-0.15314 -0.28158,0 -0.45942,0.1482 -0.17784,0.14326 -0.17784,0.40508 0,0.18772 0.10374,0.30628 0.10868,0.11856 0.26182,0.18278 0.15808,0.05928 0.43966,0.13832 0.34086,0.09386 0.54834,0.18772 0.20748,0.08892 0.35568,0.28158 0.1482,0.18772 0.1482,0.51376 0,0.25194 -0.13338,0.47424 -0.13338,0.2223 -0.3952,0.36062 -0.26182,0.13832 -0.6175,0.13832 z m 4.27804,-1.49188 q 0,0.12844 -0.0148,0.2717 h -2.16372 q 0.0247,0.40014 0.2717,0.62738 0.25194,0.2223 0.60762,0.2223 0.29146,0 0.48412,-0.13338 0.1976,-0.13832 0.27664,-0.36556 h 0.48412 q -0.10868,0.39026 -0.43472,0.63726 -0.32604,0.24206 -0.81016,0.24206 -0.38532,0 -0.6916,-0.1729 -0.30134,-0.1729 -0.47424,-0.48906 -0.1729,-0.3211 -0.1729,-0.741 0,-0.4199 0.16796,-0.73606 0.16796,-0.31616 0.4693,-0.48412 0.30628,-0.1729 0.70148,-0.1729 0.38532,0 0.68172,0.16796 0.2964,0.16796 0.45448,0.46436 0.16302,0.29146 0.16302,0.66196 z m -0.46436,-0.09386 q 0,-0.25688 -0.11362,-0.43966 -0.11362,-0.18772 -0.31122,-0.28158 -0.19266,-0.0988 -0.42978,-0.0988 -0.34086,0 -0.58292,0.21736 -0.23712,0.21736 -0.2717,0.60268 z m 1.5067,-0.7163 q 0.11856,-0.23218 0.33592,-0.36062 0.2223,-0.12844 0.53846,-0.12844 v 0.46436 h -0.11856 q -0.75582,0 -0.75582,0.82004 v 1.47212 h -0.44954 v -2.70712 h 0.44954 z m 2.40084,1.8525 0.8398,-2.29216 h 0.47918 l -1.0621,2.70712 h -0.52364 l -1.0621,-2.70712 h 0.48412 z m 4.23358,-1.04234 q 0,0.12844 -0.0148,0.2717 h -2.16372 q 0.0247,0.40014 0.2717,0.62738 0.25194,0.2223 0.60762,0.2223 0.29146,0 0.48412,-0.13338 0.1976,-0.13832 0.27664,-0.36556 h 0.48412 q -0.10868,0.39026 -0.43472,0.63726 -0.32604,0.24206 -0.81016,0.24206 -0.38532,0 -0.6916,-0.1729 -0.30134,-0.1729 -0.47424,-0.48906 -0.1729,-0.3211 -0.1729,-0.741 0,-0.4199 0.16796,-0.73606 0.16796,-0.31616 0.4693,-0.48412 0.30628,-0.1729 0.70148,-0.1729 0.38532,0 0.68172,0.16796 0.2964,0.16796 0.45448,0.46436 0.16302,0.29146 0.16302,0.66196 z m -0.46436,-0.09386 q 0,-0.25688 -0.11362,-0.43966 -0.11362,-0.18772 -0.31122,-0.28158 -0.19266,-0.0988 -0.42978,-0.0988 -0.34086,0 -0.58292,0.21736 -0.23712,0.21736 -0.2717,0.60268 z m 3.45801,-1.15596 v 2.70712 h -0.44954 v -0.40014 q -0.12844,0.20748 -0.36062,0.32604 -0.22724,0.11362 -0.50388,0.11362 -0.31616,0 -0.5681,-0.12844 -0.25194,-0.13338 -0.40014,-0.3952 -0.14326,-0.26182 -0.14326,-0.63726 v -1.58574 h 0.4446 v 1.52646 q 0,0.40014 0.20254,0.6175 0.20254,0.21242 0.55328,0.21242 0.36062,0 0.5681,-0.2223 0.20748,-0.2223 0.20748,-0.64714 v -1.48694 z m 1.21029,0.43966 q 0.11856,-0.23218 0.33592,-0.36062 0.2223,-0.12844 0.53846,-0.12844 v 0.46436 h -0.11856 q -0.75582,0 -0.75582,0.82004 v 1.47212 h -0.44954 v -2.70712 h 0.44954 z"
       id="text1240-7"
       aria-label="Serveur" />
    <path
       style="font-weight:500;font-size:4.94px;line-height:1.25;font-family:Poppins;-inkscape-font-specification:'Poppins, Medium';text-align:center;letter-spacing:0;text-anchor:middle;stroke-width:0.26"
       d="m 111.9711,54.260982 q 0.30628,0 0.55328,0.13338 0.247,0.12844 0.38532,0.39026 0.14326,0.26182 0.14326,0.63726 v 1.59562 h -0.4446 v -1.5314 q 0,-0.40508 -0.20254,-0.6175 -0.20254,-0.21736 -0.55328,-0.21736 -0.35568,0 -0.5681,0.2223 -0.20748,0.2223 -0.20748,0.64714 v 1.49682 h -0.44954 v -3.6556 h 0.44954 v 1.3338 q 0.13338,-0.20748 0.36556,-0.3211 0.23712,-0.11362 0.52858,-0.11362 z m 2.99858,2.80098 q -0.38038,0 -0.6916,-0.1729 -0.30628,-0.1729 -0.48412,-0.48906 -0.1729,-0.3211 -0.1729,-0.741 0,-0.41496 0.17784,-0.73112 0.18278,-0.3211 0.494,-0.48906 0.31122,-0.1729 0.69654,-0.1729 0.38532,0 0.69654,0.1729 0.31122,0.16796 0.48906,0.48412 0.18278,0.31616 0.18278,0.73606 0,0.4199 -0.18772,0.741 -0.18278,0.31616 -0.49894,0.48906 -0.31616,0.1729 -0.70148,0.1729 z m 0,-0.3952 q 0.24206,0 0.45448,-0.11362 0.21242,-0.11362 0.34086,-0.34086 0.13338,-0.22724 0.13338,-0.55328 0,-0.32604 -0.12844,-0.55328 -0.12844,-0.22724 -0.33592,-0.33592 -0.20748,-0.11362 -0.44954,-0.11362 -0.247,0 -0.45448,0.11362 -0.20254,0.10868 -0.32604,0.33592 -0.1235,0.22724 -0.1235,0.55328 0,0.33098 0.11856,0.55822 0.1235,0.22724 0.32604,0.34086 0.20254,0.10868 0.4446,0.10868 z m 2.43047,-1.91672 q 0.11856,-0.23218 0.33592,-0.36062 0.2223,-0.12844 0.53846,-0.12844 v 0.46436 h -0.11856 q -0.75582,0 -0.75582,0.82004 v 1.47212 h -0.44954 v -2.70712 h 0.44954 z m 1.22512,0.90402 q 0,-0.41496 0.16796,-0.72618 0.16796,-0.31616 0.45942,-0.48906 0.2964,-0.1729 0.65702,-0.1729 0.35568,0 0.6175,0.15314 0.26182,0.15314 0.39026,0.38532 v -0.494 h 0.45448 v 2.70712 h -0.45448 v -0.50388 q -0.13338,0.23712 -0.40014,0.3952 -0.26182,0.15314 -0.61256,0.15314 -0.36062,0 -0.65208,-0.17784 -0.29146,-0.17784 -0.45942,-0.49894 -0.16796,-0.3211 -0.16796,-0.73112 z m 2.29216,0.0049 q 0,-0.30628 -0.1235,-0.53352 -0.1235,-0.22724 -0.33592,-0.3458 -0.20748,-0.1235 -0.45942,-0.1235 -0.25194,0 -0.45942,0.11856 -0.20748,0.11856 -0.33098,0.3458 -0.1235,0.22724 -0.1235,0.53352 0,0.31122 0.1235,0.5434 0.1235,0.22724 0.33098,0.35074 0.20748,0.11856 0.45942,0.11856 0.25194,0 0.45942,-0.11856 0.21242,-0.1235 0.33592,-0.35074 0.1235,-0.23218 0.1235,-0.53846 z m 1.44742,-1.78828 q -0.12844,0 -0.21736,-0.08892 -0.0889,-0.08892 -0.0889,-0.21736 0,-0.12844 0.0889,-0.21736 0.0889,-0.08892 0.21736,-0.08892 0.1235,0 0.20748,0.08892 0.0889,0.08892 0.0889,0.21736 0,0.12844 -0.0889,0.21736 -0.084,0.08892 -0.20748,0.08892 z m 0.21736,0.43966 v 2.70712 h -0.44954 v -2.70712 z m 1.21524,0.43966 q 0.11856,-0.23218 0.33592,-0.36062 0.2223,-0.12844 0.53846,-0.12844 v 0.46436 h -0.11856 q -0.75582,0 -0.75582,0.82004 v 1.47212 h -0.44954 v -2.70712 h 0.44954 z m 3.86308,0.81016 q 0,0.12844 -0.0148,0.2717 h -2.16372 q 0.0247,0.40014 0.2717,0.62738 0.25194,0.2223 0.60762,0.2223 0.29146,0 0.48412,-0.13338 0.1976,-0.13832 0.27664,-0.36556 h 0.48412 q -0.10868,0.39026 -0.43472,0.63726 -0.32604,0.24206 -0.81016,0.24206 -0.38532,0 -0.6916,-0.1729 -0.30134,-0.1729 -0.47424,-0.48906 -0.1729,-0.3211 -0.1729,-0.741 0,-0.4199 0.16796,-0.73606 0.16796,-0.31616 0.4693,-0.48412 0.30628,-0.1729 0.70148,-0.1729 0.38532,0 0.68172,0.16796 0.2964,0.16796 0.45448,0.46436 0.16302,0.29146 0.16302,0.66196 z m -0.46436,-0.09386 q 0,-0.25688 -0.11362,-0.43966 -0.11362,-0.18772 -0.31122,-0.28158 -0.19266,-0.0988 -0.42978,-0.0988 -0.34086,0 -0.58292,0.21736 -0.23712,0.21736 -0.2717,0.60268 z"
       id="text1240-8-5"
       aria-label="horaire" />
    <path
       style="font-weight:500;font-size:4.94px;line-height:1.25;font-family:Poppins;-inkscape-font-specification:'Poppins, Medium';text-align:center;letter-spacing:0;text-anchor:middle;stroke-width:0.26"
       d="m 111.02015,60.220728 q -0.12844,0 -0.21736,-0.08892 -0.0889,-0.08892 -0.0889,-0.21736 0,-0.12844 0.0889,-0.21736 0.0889,-0.08892 0.21736,-0.08892 0.1235,0 0.20748,0.08892 0.0889,0.08892 0.0889,0.21736 0,0.12844 -0.0889,0.21736 -0.084,0.08892 -0.20748,0.08892 z m 0.21736,0.43966 v 2.70712 h -0.44954 v -2.70712 z m 2.08468,-0.0494 q 0.494,0 0.80028,0.30134 0.30628,0.2964 0.30628,0.85956 v 1.59562 h -0.4446 v -1.5314 q 0,-0.40508 -0.20254,-0.6175 -0.20254,-0.21736 -0.55328,-0.21736 -0.35568,0 -0.5681,0.2223 -0.20748,0.2223 -0.20748,0.64714 v 1.49682 h -0.44954 v -2.70712 h 0.44954 v 0.38532 q 0.13338,-0.20748 0.36062,-0.3211 0.23218,-0.11362 0.50882,-0.11362 z m 2.39096,0.4199 v 1.59562 q 0,0.1976 0.084,0.28158 0.084,0.07904 0.29146,0.07904 h 0.33098 v 0.38038 h -0.40508 q -0.37544,0 -0.56316,-0.1729 -0.18772,-0.1729 -0.18772,-0.5681 v -1.59562 h -0.35074 v -0.3705 h 0.35074 v -0.68172 h 0.44954 v 0.68172 h 0.70642 v 0.3705 z m 3.71982,0.87932 q 0,0.12844 -0.0148,0.2717 h -2.16372 q 0.0247,0.40014 0.2717,0.62738 0.25194,0.2223 0.60762,0.2223 0.29146,0 0.48412,-0.13338 0.1976,-0.13832 0.27664,-0.36556 h 0.48412 q -0.10868,0.39026 -0.43472,0.63726 -0.32604,0.24206 -0.81016,0.24206 -0.38532,0 -0.6916,-0.1729 -0.30134,-0.1729 -0.47424,-0.48906 -0.1729,-0.3211 -0.1729,-0.741 0,-0.4199 0.16796,-0.73606 0.16796,-0.31616 0.4693,-0.48412 0.30628,-0.1729 0.70148,-0.1729 0.38532,0 0.68172,0.16796 0.2964,0.16796 0.45448,0.46436 0.16302,0.29146 0.16302,0.66196 z m -0.46436,-0.09386 q 0,-0.25688 -0.11362,-0.43966 -0.11362,-0.18772 -0.31122,-0.28158 -0.19266,-0.0988 -0.42978,-0.0988 -0.34086,0 -0.58292,0.21736 -0.23712,0.21736 -0.2717,0.60268 z m 1.5067,-0.7163 q 0.11856,-0.23218 0.33592,-0.36062 0.2223,-0.12844 0.53846,-0.12844 v 0.46436 h -0.11856 q -0.75582,0 -0.75582,0.82004 v 1.47212 h -0.44954 v -2.70712 h 0.44954 z m 2.71206,-0.48906 q 0.494,0 0.80028,0.30134 0.30628,0.2964 0.30628,0.85956 v 1.59562 h -0.4446 v -1.5314 q 0,-0.40508 -0.20254,-0.6175 -0.20254,-0.21736 -0.55328,-0.21736 -0.35568,0 -0.5681,0.2223 -0.20748,0.2223 -0.20748,0.64714 v 1.49682 h -0.44954 v -2.70712 h 0.44954 v 0.38532 q 0.13338,-0.20748 0.36062,-0.3211 0.23218,-0.11362 0.50882,-0.11362 z m 4.31261,1.29922 q 0,0.12844 -0.0148,0.2717 h -2.16372 q 0.0247,0.40014 0.2717,0.62738 0.25194,0.2223 0.60762,0.2223 0.29146,0 0.48412,-0.13338 0.1976,-0.13832 0.27664,-0.36556 h 0.48412 q -0.10868,0.39026 -0.43472,0.63726 -0.32604,0.24206 -0.81016,0.24206 -0.38532,0 -0.6916,-0.1729 -0.30134,-0.1729 -0.47424,-0.48906 -0.1729,-0.3211 -0.1729,-0.741 0,-0.4199 0.16796,-0.73606 0.16796,-0.31616 0.4693,-0.48412 0.30628,-0.1729 0.70148,-0.1729 0.38532,0 0.68172,0.16796 0.2964,0.16796 0.45448,0.46436 0.16302,0.29146 0.16302,0.66196 z m -0.46436,-0.09386 q 0,-0.25688 -0.11362,-0.43966 -0.11362,-0.18772 -0.31122,-0.28158 -0.19266,-0.0988 -0.42978,-0.0988 -0.34086,0 -0.58292,0.21736 -0.23712,0.21736 -0.2717,0.60268 z"
       id="text1240-8-8-0"
       aria-label="interne" />
    <path
       d="M114.3 34.4V-7.94"
       fill="none"
       stroke="#0c322c"
       stroke-width=".53"
       marker-end="url(#b)"
       id="path1242"
       style="stroke:#000000;stroke-opacity:1;stroke-width:0.52996042;stroke-miterlimit:4;stroke-dasharray:none;stroke-linecap:square" />
    <path
       d="M124.88-7.94v41.8"
       fill="none"
       stroke="#0c322c"
       stroke-width=".53"
       marker-end="url(#b)"
       id="path1244"
       style="stroke:#000000;stroke-opacity:1;stroke-width:0.52996042;stroke-miterlimit:4;stroke-dasharray:none;stroke-linecap:square" />
    <path
       d="M26.46 13.23h185.2"
       fill="none"
       stroke="red"
       stroke-width=".66"
       stroke-dasharray="2.64583, 2.64583"
       id="path1246" />
    <path
       d="m 70.18908,3.1845799 q 0,0.42978 -0.2964,0.7163 -0.29146,0.28158 -0.89414,0.28158 h -0.66196 v 1.43754 H 67.88704 V 2.1768198 h 1.1115 q 0.58292,0 0.88426,0.28158 0.30628,0.2815801 0.30628,0.7261801 z m -1.19054,0.62738 q 0.37544,0 0.55328,-0.16302 0.17784,-0.16302 0.17784,-0.46436 0,-0.6372601 -0.73112,-0.6372601 h -0.66196 v 1.2646401 z m 1.580803,0.4446 q 0,-0.41496 0.16796,-0.72618 0.16796,-0.31616 0.45942,-0.48906 0.2964,-0.1729 0.65702,-0.1729 0.35568,0 0.6175,0.15314 0.26182,0.15314 0.39026,0.38532 v -0.494 h 0.45448 v 2.70712 h -0.45448 v -0.50388 q -0.13338,0.23712 -0.40014,0.3952 -0.26182,0.15314 -0.61256,0.15314 -0.36062,0 -0.65208,-0.17784 -0.29146,-0.17784 -0.45942,-0.49894 -0.16796,-0.3211 -0.16796,-0.73112 z m 2.29216,0.00494 q 0,-0.30628 -0.1235,-0.53352 -0.1235,-0.22724 -0.33592,-0.3458 -0.20748,-0.1235 -0.45942,-0.1235 -0.25194,0 -0.45942,0.11856 -0.20748,0.11856 -0.33098,0.3458 -0.1235,0.22724 -0.1235,0.53352 0,0.31122 0.1235,0.5434 0.1235,0.22724 0.33098,0.35074 0.20748,0.11856 0.45942,0.11856 0.25194,0 0.45942,-0.11856 0.21242,-0.1235 0.33592,-0.35074 0.1235,-0.23218 0.1235,-0.53846 z m 1.664783,-0.90896 q 0.11856,-0.23218 0.33592,-0.36062 0.2223,-0.12844 0.53846,-0.12844 v 0.46436 h -0.11856 q -0.75582,0 -0.75582,0.82004 v 1.47212 h -0.44954 v -2.70712 h 0.44954 z m 3.863076,0.81016 q 0,0.12844 -0.01482,0.2717 h -2.16372 q 0.0247,0.40014 0.2717,0.62738 0.25194,0.2223 0.60762,0.2223 0.29146,0 0.48412,-0.13338 0.1976,-0.13832 0.27664,-0.36556 h 0.48412 q -0.10868,0.39026 -0.43472,0.63726 -0.32604,0.24206 -0.81016,0.24206 -0.38532,0 -0.6916,-0.1729 -0.30134,-0.1729 -0.47424,-0.48906 -0.1729,-0.3211 -0.1729,-0.741 0,-0.4199 0.16796,-0.73606 0.16796,-0.31616 0.4693,-0.48412 0.30628,-0.1729 0.70148,-0.1729 0.38532,0 0.68172,0.16796 0.2964,0.16796 0.45448,0.46436 0.16302,0.29146 0.16302,0.66196 z m -0.46436,-0.09386 q 0,-0.25688 -0.11362,-0.43966 -0.11362,-0.18772 -0.31122,-0.28158 -0.19266,-0.0988 -0.42978,-0.0988 -0.34086,0 -0.58292,0.21736 -0.23712,0.21736 -0.2717,0.60268 z m 2.934364,-0.44954 v 0.38038 h -1.97106 v -0.38038 z m 1.946363,-0.33592 h -0.5681 v 2.33662 h -0.44954 v -2.33662 h -0.35074 v -0.3705 h 0.35074 v -0.19266 q 0,-0.4544801 0.23218,-0.6619601 0.23712,-0.21242 0.75582,-0.21242 v 0.37544 q -0.2964,0 -0.4199,0.11856 -0.11856,0.11362 -0.11856,0.3803801 v 0.19266 h 0.5681 z m 2.993642,0.87932 q 0,0.12844 -0.01482,0.2717 h -2.16372 q 0.0247,0.40014 0.2717,0.62738 0.25194,0.2223 0.60762,0.2223 0.29146,0 0.48412,-0.13338 0.1976,-0.13832 0.27664,-0.36556 h 0.48412 q -0.10868,0.39026 -0.43472,0.63726 -0.32604,0.24206 -0.81016,0.24206 -0.38532,0 -0.6916,-0.1729 -0.30134,-0.1729 -0.47424,-0.48906 -0.1729,-0.3211 -0.1729,-0.741 0,-0.4199 0.16796,-0.73606 0.16796,-0.31616 0.4693,-0.48412 0.30628,-0.1729 0.70148,-0.1729 0.38532,0 0.68172,0.16796 0.2964,0.16796 0.45448,0.46436 0.16302,0.29146 0.16302,0.66196 z m -0.46436,-0.09386 q 0,-0.25688 -0.11362,-0.43966 -0.11362,-0.18772 -0.31122,-0.28158 -0.19266,-0.0988 -0.42978,-0.0988 -0.34086,0 -0.58292,0.21736 -0.23712,0.21736 -0.2717,0.60268 z m 3.458004,-1.15596 v 2.70712 h -0.44954 v -0.40014 q -0.12844,0.20748 -0.36062,0.32604 -0.22724,0.11362 -0.50388,0.11362 -0.31616,0 -0.5681,-0.12844 -0.25194,-0.13338 -0.40014,-0.3952 -0.14326,-0.26182 -0.14326,-0.63726 v -1.58574 h 0.4446 v 1.52646 q 0,0.40014 0.20254,0.6175 0.20254,0.21242 0.55328,0.21242 0.36062,0 0.5681,-0.2223 0.20748,-0.2223 0.20748,-0.64714 v -1.48694 z"
       id="text1250"
       style="font-weight:500;font-size:4.94px;line-height:1.25;font-family:Poppins;-inkscape-font-specification:'Poppins, Medium';letter-spacing:0;stroke-width:0.26"
       aria-label="Pare-feu" />
    <path
       d="m 150.70242,2.6145802 q 0,0.42978 -0.2964,0.7163 -0.29146,0.28158 -0.89414,0.28158 h -0.66196 v 1.43754 h -0.44954 v -3.44318 h 1.1115 q 0.58292,0 0.88426,0.28158 0.30628,0.28158 0.30628,0.72618 z m -1.19054,0.62738 q 0.37544,0 0.55328,-0.16302 0.17784,-0.16302 0.17784,-0.46436 0,-0.63726 -0.73112,-0.63726 h -0.66196 v 1.26464 z m 1.58081,0.4446 q 0,-0.41496 0.16796,-0.72618 0.16796,-0.31616 0.45942,-0.48906 0.2964,-0.1729 0.65702,-0.1729 0.35568,0 0.6175,0.15314 0.26182,0.15314 0.39026,0.38532 v -0.494 h 0.45448 v 2.70712 h -0.45448 v -0.50388 q -0.13338,0.23712 -0.40014,0.3952 -0.26182,0.15314 -0.61256,0.15314 -0.36062,0 -0.65208,-0.17784 -0.29146,-0.17784 -0.45942,-0.49894 -0.16796,-0.3211 -0.16796,-0.73112 z m 2.29216,0.00494 q 0,-0.30628 -0.1235,-0.53352 -0.1235,-0.22724 -0.33592,-0.3458 -0.20748,-0.1235 -0.45942,-0.1235 -0.25194,0 -0.45942,0.11856 -0.20748,0.11856 -0.33098,0.3458 -0.1235,0.22724 -0.1235,0.53352 0,0.31122 0.1235,0.5434 0.1235,0.22724 0.33098,0.35074 0.20748,0.11856 0.45942,0.11856 0.25194,0 0.45942,-0.11856 0.21242,-0.1235 0.33592,-0.35074 0.1235,-0.23218 0.1235,-0.53846 z m 1.66478,-0.90896 q 0.11856,-0.23218 0.33592,-0.36062 0.2223,-0.12844 0.53846,-0.12844 v 0.46436 h -0.11856 q -0.75582,0 -0.75582,0.82004 v 1.47212 h -0.44954 v -2.70712 h 0.44954 z m 3.86308,0.81016 q 0,0.12844 -0.0148,0.2717 h -2.16372 q 0.0247,0.40014 0.2717,0.62738 0.25194,0.2223 0.60762,0.2223 0.29146,0 0.48412,-0.13338 0.1976,-0.13832 0.27664,-0.36556 h 0.48412 q -0.10868,0.39026 -0.43472,0.63726 -0.32604,0.24206 -0.81016,0.24206 -0.38532,0 -0.6916,-0.1729 -0.30134,-0.1729 -0.47424,-0.48906 -0.1729,-0.3211 -0.1729,-0.741 0,-0.4199 0.16796,-0.73606 0.16796,-0.31616 0.4693,-0.48412 0.30628,-0.1729 0.70148,-0.1729 0.38532,0 0.68172,0.16796 0.2964,0.16796 0.45448,0.46436 0.16302,0.29146 0.16302,0.66196 z m -0.46436,-0.09386 q 0,-0.25688 -0.11362,-0.43966 -0.11362,-0.18772 -0.31122,-0.28158 -0.19266,-0.0988 -0.42978,-0.0988 -0.34086,0 -0.58292,0.21736 -0.23712,0.21736 -0.2717,0.60268 z m 2.93436,-0.44954 v 0.38038 h -1.97106 v -0.38038 z m 1.94636,-0.33592 h -0.5681 v 2.33662 h -0.44954 v -2.33662 h -0.35074 v -0.3705 h 0.35074 v -0.19266 q 0,-0.45448 0.23218,-0.6619601 0.23712,-0.21242 0.75582,-0.21242 v 0.3754401 q -0.2964,0 -0.4199,0.11856 -0.11856,0.11362 -0.11856,0.38038 v 0.19266 h 0.5681 z m 2.99364,0.87932 q 0,0.12844 -0.0148,0.2717 h -2.16372 q 0.0247,0.40014 0.2717,0.62738 0.25194,0.2223 0.60762,0.2223 0.29146,0 0.48412,-0.13338 0.1976,-0.13832 0.27664,-0.36556 h 0.48412 q -0.10868,0.39026 -0.43472,0.63726 -0.32604,0.24206 -0.81016,0.24206 -0.38532,0 -0.6916,-0.1729 -0.30134,-0.1729 -0.47424,-0.48906 -0.1729,-0.3211 -0.1729,-0.741 0,-0.4199 0.16796,-0.73606 0.16796,-0.31616 0.4693,-0.48412 0.30628,-0.1729 0.70148,-0.1729 0.38532,0 0.68172,0.16796 0.2964,0.16796 0.45448,0.46436 0.16302,0.29146 0.16302,0.66196 z m -0.46436,-0.09386 q 0,-0.25688 -0.11362,-0.43966 -0.11362,-0.18772 -0.31122,-0.28158 -0.19266,-0.0988 -0.42978,-0.0988 -0.34086,0 -0.58292,0.21736 -0.23712,0.21736 -0.2717,0.60268 z m 3.45801,-1.15596 v 2.70712 h -0.44954 v -0.40014 q -0.12844,0.20748 -0.36062,0.32604 -0.22724,0.11362 -0.50388,0.11362 -0.31616,0 -0.5681,-0.12844 -0.25194,-0.13338 -0.40014,-0.3952 -0.14326,-0.26182 -0.14326,-0.63726 v -1.58574 h 0.4446 v 1.52646 q 0,0.40014 0.20254,0.6175 0.20254,0.21242 0.55328,0.21242 0.36062,0 0.5681,-0.2223 0.20748,-0.2223 0.20748,-0.64714 v -1.48694 z"
       id="text1254"
       style="font-weight:500;font-size:4.94px;line-height:1.25;font-family:Poppins;-inkscape-font-specification:'Poppins, Medium';letter-spacing:0;stroke-width:0.26"
       aria-label="Pare-feu" />
  </g>
</svg>
