<svg xmlns="http://www.w3.org/2000/svg" viewBox="0 0 800 400" width="100%" height="100%">
  <defs>
    <marker id="arrow" viewBox="0 0 10 10" refX="6" refY="5" markerWidth="6" markerHeight="6" orient="auto-start-reverse">
      <path d="M 0 1 L 10 5 L 0 9 z" fill="#2d6a4f" />
    </marker>
  </defs>

  <g transform="translate(10, 0)">
    <rect x="100" y="40" width="160" height="50" rx="5" fill="#74c69d" stroke="#2d6a4f" stroke-width="2" />
    <text x="180" y="70" font-family="sans-serif" font-size="14" font-weight="bold" fill="#1b4332" text-anchor="middle">Client*</text>

    <path d="M 120 200 c -20 0 -30 -20 -15 -35 c -15 -20 5 -40 25 -30 c 10 -20 40 -20 50 0 c 20 -15 45 5 35 25 c 20 15 10 40 -15 35 c -10 15 -40 15 -50 0 z" fill="#b7e4c7" stroke="#2d6a4f" stroke-width="2" />
    <text x="180" y="165" font-family="sans-serif" font-size="16" font-weight="bold" fill="#1b4332" text-anchor="middle">Network</text>

    <rect x="100" y="260" width="160" height="50" rx="5" fill="#74c69d" stroke="#2d6a4f" stroke-width="2" />
    <text x="180" y="290" font-family="sans-serif" font-size="14" font-weight="bold" fill="#1b4332" text-anchor="middle">Server</text>

    <ellipse cx="50" cy="310" rx="35" ry="15" fill="#95d5b2" stroke="#2d6a4f" stroke-width="2" />
    <path d="M 15 310 v 30 a 35 15 0 0 0 70 0 v -30" fill="#95d5b2" stroke="#2d6a4f" stroke-width="2" />
    <ellipse cx="50" cy="310" rx="35" ry="15" fill="#74c69d" stroke="#2d6a4f" stroke-width="1" />
    <text x="50" y="290" font-family="sans-serif" font-size="13" font-weight="bold" fill="#1b4332" text-anchor="middle">Storage</text>

    <path d="M 180 100 v 30" stroke="#2d6a4f" stroke-width="2" marker-end="url(#arrow)" marker-start="url(#arrow)" />
    <path d="M 180 210 v 40" stroke="#2d6a4f" stroke-width="2" marker-end="url(#arrow)" marker-start="url(#arrow)" />
    <path d="M 100 285 h -25" stroke="#2d6a4f" stroke-width="2" marker-end="url(#arrow)" />
  </g>

  <g transform="translate(420, 0)">
    <text x="180" y="30" font-family="monospace" font-size="12" font-weight="bold" fill="#1b4332" text-anchor="middle">iqn.yyyy-mm.name-authority:unique-name</text>
    <ellipse cx="180" cy="65" rx="100" ry="30" fill="#74c69d" stroke="#2d6a4f" stroke-width="2" />
    <text x="180" y="70" font-family="sans-serif" font-size="15" fill="#1b4332" text-anchor="middle">iSCSI <tspan font-style="italic">Initiator</tspan></text>
    <text x="300" y="70" font-family="sans-serif" font-size="14" fill="#000">open-iscsi</text>

    <ellipse cx="180" cy="285" rx="100" ry="30" fill="#74c69d" stroke="#2d6a4f" stroke-width="2" />
    <text x="180" y="290" font-family="sans-serif" font-size="15" fill="#1b4332" text-anchor="middle">iSCSI <tspan font-style="italic">Target</tspan></text>
    <text x="300" y="290" font-family="sans-serif" font-size="14" fill="#000">targetcli-fb/LIO</text>
    <text x="180" y="340" font-family="monospace" font-size="12" font-weight="bold" fill="#1b4332" text-anchor="middle">iqn.yyyy-mm.name-authority:unique-name</text>

    <ellipse cx="40" cy="335" rx="35" ry="15" fill="#95d5b2" stroke="#2d6a4f" stroke-width="2" />
    <path d="M 5 335 v 25 a 35 15 0 0 0 70 0 v -25" fill="#95d5b2" stroke="#2d6a4f" stroke-width="2" />
    <ellipse cx="40" cy="335" rx="35" ry="15" fill="#74c69d" stroke="#2d6a4f" stroke-width="1" />
    <text x="40" y="340" font-family="sans-serif" font-size="13" font-weight="bold" fill="#1b4332" text-anchor="middle">LUN0</text>

    <path d="M 180 105 v 140" stroke="#457b9d" stroke-width="2" marker-end="url(#arrow)" />
    <path d="M 100 295 l -35 20" stroke="#2d6a4f" stroke-width="2" marker-end="url(#arrow)" />
  </g>
</svg>
