<svg xmlns="http://www.w3.org/2000/svg" width="817.52" height="520" viewBox="0 0 216.3 137.58">
    <defs>
        <marker id="a" markerHeight="4.71" markerWidth="3.06" orient="auto" refX="1.53" refY="2.35">
            <path fill="none" stroke="#000" d="m.35.35 2 2-2 2"/>
        </marker>
    </defs>
    <g transform="translate(4.31 -10.59)">
        <g transform="translate(-2.95 73.35) scale(1.34587)">
            <path fill="#fff" stroke="#0c322c" stroke-miterlimit="10" stroke-width=".73" d="M7.35 3.17a3.02 3.02 0 1 0-6.03.04v2.03c0 .41.16.82.43 1.13l1.17 1.34c.33.37.8.58 1.3.58h.24c.5 0 .97-.21 1.3-.58l1.16-1.34c.28-.31.43-.72.43-1.13Z" class="st0"/>
            <line x1="2.46" x2="2.46" y1="7.27" y2="10.37" fill="none" stroke="#0c322c" stroke-miterlimit="10" stroke-width=".73" class="st0"/>
            <line x1="6.12" x2="6.12" y1="7.27" y2="10.37" fill="none" stroke="#0c322c" stroke-miterlimit="10" stroke-width=".73" class="st0"/>
            <path fill="none" stroke="#0c322c" stroke-width=".53" d="M2.35 2.97a2.84 2.84 0 0 1 2.39 0l-.8 2.11H5M3.54 6.4c.5.31 1.01.4 1.59 0"/>
        </g>
        <g fill="#fe7c3f" transform="translate(-18.52)">
            <rect width="47.63" height="13.23" x="44.98" y="13.23" paint-order="markers fill stroke"/>
            <text xml:space="preserve" x="47.13" y="21.07" fill="#fff" stroke-width=".26" font-family="Poppins" font-size="3.7" font-weight="500" letter-spacing="0" style="line-height:1.25;-inkscape-font-specification:'Poppins, Medium'"><tspan x="47.13" y="21.07">virt-manager (GUI)</tspan></text>
        </g>
        <g fill="#fe7c3f" transform="translate(-18.52 23.81)">
            <rect width="47.63" height="13.23" x="44.98" y="13.23" paint-order="markers fill stroke"/>
            <text xml:space="preserve" x="47.13" y="21.07" fill="#fff" stroke-width=".26" font-family="Poppins" font-size="3.7" font-weight="500" letter-spacing="0" style="line-height:1.25;-inkscape-font-specification:'Poppins, Medium'"><tspan x="47.13" y="21.07">virsh (CLI)</tspan></text>
        </g>
        <g fill="#fe7c3f" transform="translate(-18.52 47.63)">
            <rect width="47.63" height="13.23" x="44.98" y="13.23" paint-order="markers fill stroke"/>
            <text xml:space="preserve" x="47.13" y="21.23" fill="#fff" stroke-width=".26" font-family="Poppins" font-size="3.7" font-weight="500" letter-spacing="0" style="line-height:1.25;-inkscape-font-specification:'Poppins, Medium'"><tspan x="47.13" y="21.23">virt-install (CLI)</tspan></text>
        </g>
        <rect width="47.63" height="13.23" x="95.25" y="72.84" fill="#f3b292" paint-order="markers fill stroke"/>
        <text xml:space="preserve" x="112.63" y="80.86" fill="#fff" stroke-width=".26" font-family="Poppins" font-size="3.7" font-weight="500" letter-spacing="0" style="line-height:1.25;-inkscape-font-specification:'Poppins, Medium'"><tspan x="112.63" y="80.86" fill="#000">libvirtd</tspan></text>
        <g fill="#fe7c3f" transform="translate(-18.52 71.44)">
            <rect width="47.63" height="13.23" x="44.98" y="13.23" paint-order="markers fill stroke"/>
            <text xml:space="preserve" x="46.89" y="21.23" fill="#fff" stroke-width=".26" font-family="Poppins" font-size="3.7" font-weight="500" letter-spacing="0" style="line-height:1.25;-inkscape-font-specification:'Poppins, Medium'"><tspan x="46.89" y="21.23">remote-viewer (GUI)</tspan></text>
            <rect width="47.63" height="13.23" x="44.98" y="37.04" paint-order="markers fill stroke"/>
            <text xml:space="preserve" x="47.13" y="45.04" fill="#fff" stroke-width=".26" font-family="Poppins" font-size="3.7" font-weight="500" letter-spacing="0" style="line-height:1.25;-inkscape-font-specification:'Poppins, Medium'"><tspan x="47.13" y="45.04">virt-clone (CLI)</tspan></text>
            <rect width="47.63" height="13.23" x="44.98" y="60.85" paint-order="markers fill stroke"/>
            <text xml:space="preserve" x="47.13" y="68.85" fill="#fff" stroke-width=".26" font-family="Poppins" font-size="3.7" font-weight="500" letter-spacing="0" style="line-height:1.25;-inkscape-font-specification:'Poppins, Medium'"><tspan x="47.13" y="68.85">virt-host-validate (CLI)</tspan></text>
        </g>
        <rect width="50.59" height="26.46" x="158.75" y="66.15" fill="#0c322c" paint-order="markers fill stroke"/>
        <rect width="34.4" height="10.58" x="166.85" y="74.08" fill="#30ba78" paint-order="markers fill stroke"/>
        <text xml:space="preserve" x="172.3" y="89.96" stroke-width=".26" font-family="Poppins" font-size="3.7" font-weight="500" letter-spacing="0" style="line-height:1.25;-inkscape-font-specification:'Poppins, Medium'"><tspan x="172.3" y="89.96" fill="#fff">qemu (KVM)</tspan></text>
        <text xml:space="preserve" x="181.23" y="80.66" stroke-width=".26" font-family="Poppins" font-size="3.7" font-weight="500" letter-spacing="0" style="line-height:1.25;-inkscape-font-specification:'Poppins, Medium'"><tspan x="181.23" y="80.66" fill="#fff">VM</tspan></text>
        <path fill="none" stroke="#000" stroke-width=".53" marker-end="url(#a)" d="m10.58 71.44 13.23-50.27"/>
        <path fill="none" stroke="#000" stroke-width=".53" marker-end="url(#a)" d="m10.58 74.08 13.23-29.1"/>
        <path fill="none" stroke="#000" stroke-width=".53" marker-end="url(#a)" d="m10.58 76.73 13.23-7.94"/>
        <path fill="none" stroke="#000" stroke-width=".53" marker-end="url(#a)" d="m10.58 82.02 13.23 7.94"/>
        <path fill="none" stroke="#000" stroke-width=".53" marker-end="url(#a)" d="m10.58 84.67 13.23 29.1"/>
        <path fill="none" stroke="#000" stroke-width=".53" marker-end="url(#a)" d="m10.58 87.31 13.23 50.27"/>
        <path fill="none" stroke="#000" stroke-width=".53" d="M76.73 21.17h7.94v116.41h-7.94m7.94-92.6h-7.94m7.94 23.82h-7.94m7.94 21.16h-7.94m7.94 23.81h-7.94"/>
        <path fill="none" stroke="#000" stroke-width=".53" marker-end="url(#a)" d="M84.67 79.62h7.93"/>
        <path fill="none" stroke="#000" stroke-width=".5" marker-end="url(#a)" d="M145.52 79.62h10.58"/>
    </g>
</svg>

