<?xml version="1.0" encoding="UTF-8" standalone="no"?>
<svg
   viewBox="0 0 251.35 179.92"
   height="680"
   width="950"
   version="1.1"
   id="svg440"
   sodipodi:docname="tls-handshake.svg"
   inkscape:version="1.2.2 (b0a8486541, 2022-12-01)"
   inkscape:export-filename="tls-handshake.png"
   inkscape:export-xdpi="96"
   inkscape:export-ydpi="96"
   xmlns:inkscape="http://www.inkscape.org/namespaces/inkscape"
   xmlns:sodipodi="http://sodipodi.sourceforge.net/DTD/sodipodi-0.dtd"
   xmlns="http://www.w3.org/2000/svg"
   xmlns:svg="http://www.w3.org/2000/svg">
  <defs
     id="defs444" />
  <sodipodi:namedview
     id="namedview442"
     pagecolor="#ffffff"
     bordercolor="#000000"
     borderopacity="0.25"
     inkscape:showpageshadow="2"
     inkscape:pageopacity="0.0"
     inkscape:pagecheckerboard="0"
     inkscape:deskcolor="#d1d1d1"
     showgrid="false"
     inkscape:zoom="1.5102941"
     inkscape:cx="475.73516"
     inkscape:cy="340.66213"
     inkscape:window-width="2560"
     inkscape:window-height="1363"
     inkscape:window-x="0"
     inkscape:window-y="40"
     inkscape:window-maximized="1"
     inkscape:current-layer="svg440" />
  <path
     d="m 32.98,50.72 h 7.14 l 1.6,1.33 v 8.46 h -8.74 z"
     fill="#ffffff"
     stroke-width="0.77"
     id="path240"
     style="stroke:#0c322c" />
  <path
     d="m 34.3,52.58 h 5.03 m -5.03,1.58 h 5.82 m -5.82,1.59 h 5.82 m -5.82,2.12 h 2.65"
     fill="#90ebcd"
     stroke-width="0.77"
     id="path242"
     style="stroke:#0c322c" />
  <g
     transform="matrix(0.37735,0,0,0.37735,37.78,57.48)"
     stroke="#30ba78"
     stroke-width="1.19"
     id="g248">
    <path
       d="M 4.08,0.35 V 1.33 A 4.16,4.23 0 0 0 3.2,1.71 L 2.35,0.99 0.82,2.79 1.57,3.43 A 4.16,4.23 0 0 0 1.25,4.28 H 0.33 V 6.65 H 1.3 A 4.16,4.23 0 0 0 1.62,7.42 L 0.9,8.2 2.65,9.8 3.28,9.1 a 4.16,4.23 0 0 0 0.8,0.34 v 0.92 H 6.44 V 9.44 a 4.16,4.23 0 0 0 0.9,-0.4 L 8.1,9.78 9.77,8.1 8.97,7.31 A 4.16,4.23 0 0 0 9.23,6.66 h 1.01 V 4.28 H 9.28 A 4.16,4.23 0 0 0 8.95,3.43 L 9.68,2.8 8.13,1 7.32,1.7 A 4.16,4.23 0 0 0 6.45,1.33 V 0.35 Z"
       fill="#ffffff"
       id="path244" />
    <ellipse
       cx="5.29"
       cy="5.3600001"
       rx="2.24"
       ry="2.22"
       fill="#ffffff"
       id="ellipse246" />
  </g>
  <path
     d="M 50.28,142.88 H 211.67"
     fill="none"
     stroke="#30ba78"
     stroke-width="0.77"
     id="path250" />
  <path
     d="m 49.73,103.19 h 161.4"
     fill="none"
     stroke="#30ba78"
     stroke-width="0.74"
     id="path252" />
  <path
     d="m 209.01,101.08 2.11,2.11 -2.11,2.12"
     fill="none"
     stroke="#30ba78"
     stroke-width="0.77"
     id="path254" />
  <path
     d="M 50.28,63.5 H 211.67"
     fill="none"
     stroke="#30ba78"
     stroke-width="0.74"
     id="path256" />
  <path
     d="m 52.66,61.38 -2.12,2.12 2.12,2.12"
     fill="none"
     stroke="#30ba78"
     stroke-width="0.77"
     id="path258" />
  <path
     d="M 211.12,21.17 H 49.72"
     fill="none"
     stroke="#30ba78"
     stroke-width="0.74"
     id="path260" />
  <path
     d="m 209.01,19.05 2.11,2.12 -2.11,2.12 m -156.63,117.47 -2.1,2.12 2.1,2.11 m 156.9,-4.23 2.12,2.12 -2.12,2.11"
     fill="none"
     stroke="#30ba78"
     stroke-width="0.77"
     id="path262" />
  <g
     id="g860">
    <text
       xml:space="preserve"
       style="line-height:1.25;-inkscape-font-specification:'Poppins Light';text-align:center;stroke:#0c322c"
       x="130.07999"
       y="17.6"
       font-weight="300"
       font-size="3.7px"
       font-family="Poppins"
       letter-spacing="0"
       text-anchor="middle"
       stroke-width="0.18"
       id="text270"><tspan
         x="130.07999"
         y="17.6"
         style="-inkscape-font-specification:'Poppins Light';text-align:center"
         id="tspan264">The client requests an TLS communication</tspan><tspan
         x="130.07999"
         y="26.860001"
         style="-inkscape-font-specification:'Poppins Light';text-align:center"
         id="tspan268">by sending a &quot;<tspan
   style="-inkscape-font-specification:'Poppins Light'"
   id="tspan266">ClientHello</tspan>&quot; message</tspan></text>
  </g>
  <text
     xml:space="preserve"
     style="line-height:1.25;-inkscape-font-specification:'Poppins Light';text-align:center;stroke:#0c322c"
     x="130.03"
     y="59.5"
     font-weight="300"
     font-size="3.7px"
     font-family="Poppins"
     letter-spacing="0"
     text-anchor="middle"
     stroke-width="0.18"
     id="text276"><tspan
       x="130.03"
       y="59.5"
       style="-inkscape-font-specification:'Poppins Light';text-align:center"
       id="tspan272">The server responds with a &quot;ServerHello&quot; message</tspan><tspan
       x="130.03"
       y="68.760002"
       style="-inkscape-font-specification:'Poppins Light';text-align:center"
       id="tspan274">and sends a TLS certificate with a public key</tspan></text>
  <text
     xml:space="preserve"
     style="line-height:1.25;-inkscape-font-specification:'Poppins Light';text-align:center;stroke:#0c322c"
     x="130"
     y="99.380005"
     font-weight="300"
     font-size="3.7px"
     font-family="Poppins"
     letter-spacing="0"
     text-anchor="middle"
     stroke-width="0.18"
     id="text284"><tspan
       x="130"
       y="99.380005"
       style="-inkscape-font-specification:'Poppins Light';text-align:center"
       id="tspan278">The client verifies the certificate and sends a session key</tspan><tspan
       x="130"
       y="108.64"
       style="-inkscape-font-specification:'Poppins Light';text-align:center"
       id="tspan282">encrypted with the public key as a &quot;<tspan
   style="-inkscape-font-specification:'Poppins Light'"
   id="tspan280">ClientKeyExchange</tspan>&quot; message</tspan></text>
  <text
     xml:space="preserve"
     style="line-height:1.25;-inkscape-font-specification:'Poppins Light';text-align:center;stroke:#0c322c"
     x="130.04999"
     y="139.2"
     font-weight="300"
     font-size="3.7px"
     font-family="Poppins"
     letter-spacing="0"
     text-anchor="middle"
     stroke-width="0.18"
     id="text292"><tspan
       x="130.04999"
       y="139.2"
       style="-inkscape-font-specification:'Poppins Light';text-align:center"
       id="tspan286">After the message is delivered, the client and server send</tspan><tspan
       x="130.04999"
       y="148.45999"
       style="-inkscape-font-specification:'Poppins Light';text-align:center"
       id="tspan290">a &quot;<tspan
   style="-inkscape-font-specification:'Poppins Light'"
   id="tspan288">ChangeCipherSpec</tspan>&quot; message and establish an encrypted session</tspan></text>
  <g
     transform="translate(217.34 10.54) scale(1.94872)"
     id="g302">
    <rect
       width="6.35"
       height="10.05"
       x="1.85"
       y=".26"
       fill="#fff"
       stroke="#0c322c"
       stroke-width=".53"
       stroke-linecap="square"
       paint-order="fill markers stroke"
       id="rect296" />
    <path
       d="M2.81 4.23v5.3m.79-5.3v5.3"
       fill="#0c322c"
       stroke="#0c322c"
       stroke-width=".53"
       id="path298" />
    <rect
       width="1.06"
       height="1.06"
       x="2.68"
       y="1.85"
       fill="none"
       stroke="#0c322c"
       stroke-width=".4"
       stroke-linecap="square"
       paint-order="fill markers stroke"
       id="rect300" />
  </g>
  <g
     transform="translate(182.65 -16.42) scale(.41812)"
     stroke-width="1.84"
     id="g310">
    <path
       d="m108.2 105.07 13.5-13.51 13.52 13.5-10.13 10.14h-6.76z"
       fill="#30ba78"
       stroke="#0c322c"
       stroke-linejoin="bevel"
       id="path304" />
    <path
       d="M113.07 94.83h14.73l3.3 2.73v17.47h-18.03Zm2.72 3.82h10.38m-10.38 3.42h12m-12 7.55h5.47m-5.47-4.12h12"
       stroke="#0c322c"
       fill="#fff"
       id="path306" />
    <path
       d="m108.2 105.07 10.13 10.13h6.76l10.13-10.13v20.26H108.2v-20.26"
       fill="#fff"
       stroke="#0c322c"
       stroke-linecap="round"
       stroke-linejoin="round"
       id="path308" />
  </g>
  <g
     transform="translate(217.34 50.23) scale(1.94872)"
     id="g318">
    <rect
       width="6.35"
       height="10.05"
       x="1.85"
       y=".26"
       fill="#fff"
       stroke="#0c322c"
       stroke-width=".53"
       stroke-linecap="square"
       paint-order="fill markers stroke"
       id="rect312" />
    <path
       d="M2.81 4.23v5.3m.79-5.3v5.3"
       fill="#0c322c"
       stroke="#0c322c"
       stroke-width=".53"
       id="path314" />
    <rect
       width="1.06"
       height="1.06"
       x="2.68"
       y="1.85"
       fill="none"
       stroke="#0c322c"
       stroke-width=".4"
       stroke-linecap="square"
       paint-order="fill markers stroke"
       id="rect316" />
  </g>
  <g
     transform="translate(182.65 23.27) scale(.41812)"
     stroke-width="1.84"
     id="g326">
    <path
       d="m108.2 105.07 13.5-13.51 13.52 13.5-10.13 10.14h-6.76z"
       fill="#30ba78"
       stroke="#0c322c"
       stroke-linejoin="bevel"
       id="path320" />
    <path
       d="M113.07 94.83h14.73l3.3 2.73v17.47h-18.03Zm2.72 3.82h10.38m-10.38 3.42h12m-12 7.55h5.47m-5.47-4.12h12"
       stroke="#0c322c"
       fill="#fff"
       id="path322" />
    <path
       d="m108.2 105.07 10.13 10.13h6.76l10.13-10.13v20.26H108.2v-20.26"
       fill="#fff"
       stroke="#0c322c"
       stroke-linecap="round"
       stroke-linejoin="round"
       id="path324" />
  </g>
  <g
     transform="translate(217.34 89.92) scale(1.94872)"
     id="g334">
    <rect
       width="6.35"
       height="10.05"
       x="1.85"
       y=".26"
       fill="#fff"
       stroke="#0c322c"
       stroke-width=".53"
       stroke-linecap="square"
       paint-order="fill markers stroke"
       id="rect328" />
    <path
       d="M2.81 4.23v5.3m.79-5.3v5.3"
       fill="#0c322c"
       stroke="#0c322c"
       stroke-width=".53"
       id="path330" />
    <rect
       width="1.06"
       height="1.06"
       x="2.68"
       y="1.85"
       fill="none"
       stroke="#0c322c"
       stroke-width=".4"
       stroke-linecap="square"
       paint-order="fill markers stroke"
       id="rect332" />
  </g>
  <g
     transform="translate(182.65 62.96) scale(.41812)"
     stroke-width="1.84"
     id="g342">
    <path
       d="m108.2 105.07 13.5-13.51 13.52 13.5-10.13 10.14h-6.76z"
       fill="#30ba78"
       stroke="#0c322c"
       stroke-linejoin="bevel"
       id="path336" />
    <path
       d="M113.07 94.83h14.73l3.3 2.73v17.47h-18.03Zm2.72 3.82h10.38m-10.38 3.42h12m-12 7.55h5.47m-5.47-4.12h12"
       stroke="#0c322c"
       fill="#fff"
       id="path338" />
    <path
       d="m108.2 105.07 10.13 10.13h6.76l10.13-10.13v20.26H108.2v-20.26"
       fill="#fff"
       stroke="#0c322c"
       stroke-linecap="round"
       stroke-linejoin="round"
       id="path340" />
  </g>
  <g
     transform="translate(217.34 129.6) scale(1.94872)"
     id="g350">
    <rect
       width="6.35"
       height="10.05"
       x="1.85"
       y=".26"
       fill="#fff"
       stroke="#0c322c"
       stroke-width=".53"
       stroke-linecap="square"
       paint-order="fill markers stroke"
       id="rect344" />
    <path
       d="M2.81 4.23v5.3m.79-5.3v5.3"
       fill="#0c322c"
       stroke="#0c322c"
       stroke-width=".53"
       id="path346" />
    <rect
       width="1.06"
       height="1.06"
       x="2.68"
       y="1.85"
       fill="none"
       stroke="#0c322c"
       stroke-width=".4"
       stroke-linecap="square"
       paint-order="fill markers stroke"
       id="rect348" />
  </g>
  <g
     transform="translate(182.65 102.65) scale(.41812)"
     stroke-width="1.84"
     id="g358">
    <path
       d="m108.2 105.07 13.5-13.51 13.52 13.5-10.13 10.14h-6.76z"
       fill="#30ba78"
       stroke="#0c322c"
       stroke-linejoin="bevel"
       id="path352" />
    <path
       d="M113.07 94.83h14.73l3.3 2.73v17.47h-18.03Zm2.72 3.82h10.38m-10.38 3.42h12m-12 7.55h5.47m-5.47-4.12h12"
       stroke="#0c322c"
       fill="#fff"
       id="path354" />
    <path
       d="m108.2 105.07 10.13 10.13h6.76l10.13-10.13v20.26H108.2v-20.26"
       fill="#fff"
       stroke="#0c322c"
       stroke-linecap="round"
       stroke-linejoin="round"
       id="path356" />
  </g>
  <rect
     class="cls-2"
     x="11.85"
     y="50.68"
     width="19.01"
     height="14.06"
     fill="#fff"
     stroke="#0c322c"
     stroke-width=".95"
     id="rect360" />
  <rect
     class="cls-2"
     x="13.64"
     y="52.45"
     width="15.5"
     height="10.53"
     fill="#fff"
     stroke="#0c322c"
     stroke-width=".95"
     id="rect362" />
  <line
     class="cls-3"
     x1="16.6"
     y1="60.53"
     x2="16.6"
     y2="58.16"
     fill="none"
     stroke="#0c322c"
     stroke-width=".95"
     id="line364" />
  <line
     class="cls-3"
     x1="18.98"
     y1="60.53"
     x2="18.98"
     y2="55.79"
     fill="none"
     stroke="#0c322c"
     stroke-width=".95"
     id="line366" />
  <line
     class="cls-3"
     x1="21.36"
     y1="60.53"
     x2="21.36"
     y2="56.99"
     fill="none"
     stroke="#0c322c"
     stroke-width=".95"
     id="line368" />
  <line
     class="cls-3"
     x1="23.73"
     y1="60.53"
     x2="23.73"
     y2="55.79"
     fill="none"
     stroke="#0c322c"
     stroke-width=".95"
     id="line370" />
  <line
     class="cls-3"
     x1="26.11"
     y1="60.53"
     x2="26.11"
     y2="54.73"
     fill="none"
     stroke="#0c322c"
     stroke-width=".95"
     id="line372" />
  <path
     d="m11.3 67.9-3.96 7.94h27.78l-3.97-7.94H11.3"
     fill="none"
     stroke="#0c322c"
     stroke-width=".95"
     stroke-linecap="round"
     stroke-linejoin="round"
     paint-order="fill markers stroke"
     id="path374" />
  <rect
     width="5.29"
     height="2.65"
     x="18.71"
     y="65.26"
     fill="#0c322c"
     stroke="#0c322c"
     stroke-width=".95"
     stroke-linecap="round"
     paint-order="fill markers stroke"
     id="rect376" />
  <path
     d="m12.63 73.2-.27 1.32h1.33l.26-1.33zm2.11 0v1.32h5.3v-1.33zm6.09 0v1.32h1.32v-1.33zm3.97 0v1.32h1.32v-1.33zm2.11 0v1.32h1.33v-1.33zm2.12 0 .27 1.32h1.32l-.27-1.33zm2.12 0 .26 1.32H33l-.53-1.33zm-19.58 0-.27 1.32H9.72l.53-1.33zm1.73-2.12-.25 1.2h1.2l.24-1.2zm7.72 0v1.2h1.2v-1.2zm3.58 0v1.2h1.2v-1.2zm1.9 0v1.2h1.2v-1.2zm1.92 0 .24 1.2h1.2l-.25-1.2zm1.91 0 .24 1.2H32l-.48-1.2zm-17.67 0-.24 1.2h-1.43l.48-1.2zm2.47 0v1.2h1.2v-1.2zm3.93 0v1.2h1.19v-1.2zm-1.96 0v1.2h1.19v-1.2zm-3-1.85-.21 1.07h1.08l.21-1.07zm6.97 0v1.07h1.08v-1.07zm3.23 0v1.07h1.09v-1.07zm1.73 0v1.07h1.08v-1.07zm1.73 0 .21 1.07h1.08l-.22-1.07zm1.72 0 .22 1.07h1.29l-.43-1.07zm-15.95 0-.21 1.07h-1.3l.43-1.07Zm2.24 0v1.07h1.07v-1.07zm3.53 0v1.07h1.08v-1.07Zm-1.76 0v1.07h1.07v-1.07z"
     fill="#0c322c"
     id="path378" />
  <rect
     class="cls-2"
     x="11.98"
     y="10.9"
     width="19.01"
     height="14.06"
     fill="#fff"
     stroke="#0c322c"
     stroke-width=".95"
     id="rect380" />
  <rect
     class="cls-2"
     x="13.77"
     y="12.67"
     width="15.5"
     height="10.53"
     fill="#fff"
     stroke="#0c322c"
     stroke-width=".95"
     id="rect382" />
  <line
     class="cls-3"
     x1="16.73"
     y1="20.75"
     x2="16.73"
     y2="18.37"
     fill="none"
     stroke="#0c322c"
     stroke-width=".95"
     id="line384" />
  <line
     class="cls-3"
     x1="19.11"
     y1="20.75"
     x2="19.11"
     y2="16"
     fill="none"
     stroke="#0c322c"
     stroke-width=".95"
     id="line386" />
  <line
     class="cls-3"
     x1="21.49"
     y1="20.75"
     x2="21.49"
     y2="17.2"
     fill="none"
     stroke="#0c322c"
     stroke-width=".95"
     id="line388" />
  <line
     class="cls-3"
     x1="23.86"
     y1="20.75"
     x2="23.86"
     y2="16"
     fill="none"
     stroke="#0c322c"
     stroke-width=".95"
     id="line390" />
  <line
     class="cls-3"
     x1="26.24"
     y1="20.75"
     x2="26.24"
     y2="14.95"
     fill="none"
     stroke="#0c322c"
     stroke-width=".95"
     id="line392" />
  <path
     d="m11.44 28.12-3.97 7.93h27.78l-3.97-7.93H11.44"
     fill="none"
     stroke="#0c322c"
     stroke-width=".95"
     stroke-linecap="round"
     stroke-linejoin="round"
     paint-order="fill markers stroke"
     id="path394" />
  <rect
     width="5.29"
     height="2.65"
     x="18.85"
     y="25.47"
     fill="#0c322c"
     stroke="#0c322c"
     stroke-width=".95"
     stroke-linecap="round"
     paint-order="fill markers stroke"
     id="rect396" />
  <path
     d="m12.76 33.4-.26 1.33h1.32l.26-1.32zm2.12 0v1.33h5.29v-1.32zm6.08 0v1.33h1.32v-1.32zm3.97 0v1.33h1.32v-1.32zm2.12 0v1.33h1.32v-1.32zm2.11 0 .27 1.33h1.32l-.26-1.32zm2.12 0 .27 1.33h1.58l-.53-1.32zm-19.58 0-.26 1.33h-1.6l.54-1.32zm1.72-2.1-.23 1.19h1.19l.24-1.2zm7.73 0v1.19h1.2v-1.2zm3.58 0v1.19h1.2v-1.2zm1.91 0v1.19h1.2v-1.2zm1.91 0 .24 1.19h1.2l-.24-1.2zm1.91 0 .24 1.19h1.43l-.47-1.2zm-17.66 0-.25 1.19h-1.43l.48-1.2zm2.47 0v1.19h1.19v-1.2zm3.92 0v1.19h1.2v-1.2zm-1.96 0v1.19h1.2v-1.2zm-2.99-1.86-.22 1.08h1.08l.21-1.08zm6.96 0v1.08h1.08v-1.08zm3.24 0v1.08h1.08v-1.08zm1.72 0v1.08h1.08v-1.08zm1.73 0 .21 1.08h1.08l-.21-1.08zm1.72 0 .22 1.08h1.29l-.43-1.08zm-15.95 0-.21 1.08h-1.3l.44-1.08zm2.24 0v1.08h1.07v-1.08zm3.54 0v1.08h1.07v-1.08zm-1.77 0v1.08h1.07v-1.08z"
     fill="#0c322c"
     id="path398" />
  <rect
     class="cls-2"
     x="11.58"
     y="90.53"
     width="19.01"
     height="14.06"
     fill="#fff"
     stroke="#0c322c"
     stroke-width=".95"
     id="rect400" />
  <rect
     class="cls-2"
     x="13.37"
     y="92.3"
     width="15.5"
     height="10.53"
     fill="#fff"
     stroke="#0c322c"
     stroke-width=".95"
     id="rect402" />
  <line
     class="cls-3"
     x1="16.33"
     y1="100.39"
     x2="16.33"
     y2="98.01"
     fill="none"
     stroke="#0c322c"
     stroke-width=".95"
     id="line404" />
  <line
     class="cls-3"
     x1="18.71"
     y1="100.39"
     x2="18.71"
     y2="95.64"
     fill="none"
     stroke="#0c322c"
     stroke-width=".95"
     id="line406" />
  <line
     class="cls-3"
     x1="21.09"
     y1="100.39"
     x2="21.09"
     y2="96.84"
     fill="none"
     stroke="#0c322c"
     stroke-width=".95"
     id="line408" />
  <line
     class="cls-3"
     x1="23.46"
     y1="100.39"
     x2="23.46"
     y2="95.64"
     fill="none"
     stroke="#0c322c"
     stroke-width=".95"
     id="line410" />
  <line
     class="cls-3"
     x1="25.84"
     y1="100.39"
     x2="25.84"
     y2="94.59"
     fill="none"
     stroke="#0c322c"
     stroke-width=".95"
     id="line412" />
  <path
     d="m11.04 107.76-3.97 7.93h27.78l-3.97-7.93H11.04"
     fill="none"
     stroke="#0c322c"
     stroke-width=".95"
     stroke-linecap="round"
     stroke-linejoin="round"
     paint-order="fill markers stroke"
     id="path414" />
  <rect
     width="5.29"
     height="2.65"
     x="18.44"
     y="105.11"
     fill="#0c322c"
     stroke="#0c322c"
     stroke-width=".95"
     stroke-linecap="round"
     paint-order="fill markers stroke"
     id="rect416" />
  <path
     d="m12.36 113.05-.27 1.32h1.33l.26-1.32zm2.12 0v1.32h5.29v-1.32zm6.08 0v1.32h1.32v-1.32zm3.97 0v1.32h1.32v-1.32zm2.12 0v1.32h1.32v-1.32zm2.11 0 .27 1.32h1.32l-.26-1.32zm2.12 0 .26 1.32h1.6l-.54-1.32zm-19.58 0-.26 1.32h-1.6l.54-1.32zm1.72-2.12-.24 1.2h1.2l.24-1.2zm7.73 0v1.2h1.2v-1.2zm3.58 0v1.2h1.2v-1.2zm1.91 0v1.2h1.2v-1.2zm1.91 0 .24 1.2h1.2l-.25-1.2zm1.91 0 .24 1.2h1.43l-.47-1.2zm-17.66 0-.25 1.2h-1.43l.48-1.2zm2.47 0v1.2h1.19v-1.2zm3.92 0v1.2h1.2v-1.2zm-1.96 0v1.2h1.19v-1.2zm-3-1.85-.21 1.08h1.08l.21-1.08zm6.97 0v1.08h1.08v-1.08zm3.24 0v1.08h1.08v-1.08zm1.72 0v1.08h1.08v-1.08zm1.73 0 .21 1.08h1.08l-.22-1.08zm1.72 0 .22 1.08h1.29l-.43-1.08zm-15.95 0-.21 1.08h-1.3l.44-1.08zm2.24 0v1.08h1.07v-1.08zm3.54 0v1.08h1.07v-1.08zm-1.77 0v1.08h1.07v-1.08z"
     fill="#0c322c"
     id="path418" />
  <rect
     class="cls-2"
     x="11.45"
     y="129.88"
     width="19.01"
     height="14.06"
     fill="#fff"
     stroke="#0c322c"
     stroke-width=".95"
     id="rect420" />
  <rect
     class="cls-2"
     x="13.24"
     y="131.65"
     width="15.5"
     height="10.53"
     fill="#fff"
     stroke="#0c322c"
     stroke-width=".95"
     id="rect422" />
  <line
     class="cls-3"
     x1="16.21"
     y1="139.73"
     x2="16.21"
     y2="137.36"
     fill="none"
     stroke="#0c322c"
     stroke-width=".95"
     id="line424" />
  <line
     class="cls-3"
     x1="18.58"
     y1="139.73"
     x2="18.58"
     y2="134.99"
     fill="none"
     stroke="#0c322c"
     stroke-width=".95"
     id="line426" />
  <line
     class="cls-3"
     x1="20.96"
     y1="139.73"
     x2="20.96"
     y2="136.19"
     fill="none"
     stroke="#0c322c"
     stroke-width=".95"
     id="line428" />
  <line
     class="cls-3"
     x1="23.34"
     y1="139.73"
     x2="23.34"
     y2="134.99"
     fill="none"
     stroke="#0c322c"
     stroke-width=".95"
     id="line430" />
  <line
     class="cls-3"
     x1="25.71"
     y1="139.73"
     x2="25.71"
     y2="133.93"
     fill="none"
     stroke="#0c322c"
     stroke-width=".95"
     id="line432" />
  <path
     d="m10.9 147.1-3.96 7.94h27.78l-3.97-7.94H10.91"
     fill="none"
     stroke="#0c322c"
     stroke-width=".95"
     stroke-linecap="round"
     stroke-linejoin="round"
     paint-order="fill markers stroke"
     id="path434" />
  <rect
     width="5.29"
     height="2.65"
     x="18.32"
     y="144.46"
     fill="#0c322c"
     stroke="#0c322c"
     stroke-width=".95"
     stroke-linecap="round"
     paint-order="fill markers stroke"
     id="rect436" />
  <path
     d="m12.23 152.4-.26 1.32h1.32l.26-1.33zm2.12 0v1.32h5.29v-1.33zm6.08 0v1.32h1.33v-1.33zm3.97 0v1.32h1.32v-1.33zm2.12 0v1.32h1.32v-1.33zm2.11 0 .27 1.32h1.32l-.26-1.33zm2.12 0 .27 1.32h1.58l-.53-1.33zm-19.58 0-.26 1.32H9.32l.53-1.33zm1.73-2.12-.24 1.2h1.19l.24-1.2zm7.72 0v1.2h1.2v-1.2zm3.58 0v1.2h1.2v-1.2zm1.91 0v1.2h1.2v-1.2zm1.91 0 .24 1.2h1.2l-.24-1.2zm1.91 0 .24 1.2h1.43l-.47-1.2zm-17.67 0-.24 1.2H10.6l.48-1.2zm2.48 0v1.2h1.19v-1.2zm3.92 0v1.2h1.2v-1.2zm-1.96 0v1.2h1.2v-1.2zm-3-1.85-.2 1.07h1.07l.21-1.07zm6.98 0v1.07h1.08v-1.07zm3.23 0v1.07H25v-1.07zm1.72 0v1.07h1.08v-1.07zm1.73 0 .21 1.07h1.08l-.21-1.07zm1.72 0 .22 1.07h1.3l-.44-1.07zm-15.94 0-.22 1.07h-1.3l.44-1.07zm2.23 0v1.07h1.08v-1.07zm3.53 0v1.07H20v-1.07zm-1.76 0v1.07h1.08v-1.07z"
     fill="#0c322c"
     id="path438" />
</svg>
