<svg xmlns="http://www.w3.org/2000/svg" viewBox="0 0 251.35 179.92" height="680" width="950">
    <g transform="translate(-2.82 22.08)" stroke="#0c322c" stroke-width=".68">
        <path d="M35.8 28.64h7.14l1.6 1.33v8.46H35.8z" fill="#fff" stroke-width=".77"/>
        <path d="M37.12 30.5h5.03m-5.03 1.58h5.82m-5.82 1.59h5.82m-5.82 2.12h2.65" fill="#90ebcd" stroke-width=".77"/>
        <g transform="translate(40.6 35.4) scale(.37735)" stroke="#30ba78" stroke-width="1.19">
            <path d="M4.08.35v.98a4.16 4.23 0 0 0-.88.38L2.35.99.82 2.79l.75.64a4.16 4.23 0 0 0-.32.85H.33v2.37h.97a4.16 4.23 0 0 0 .32.77L.9 8.2l1.75 1.6.63-.7a4.16 4.23 0 0 0 .8.34v.92h2.36v-.92a4.16 4.23 0 0 0 .9-.4l.76.74L9.77 8.1l-.8-.79a4.16 4.23 0 0 0 .26-.65h1.01V4.28h-.96a4.16 4.23 0 0 0-.33-.85l.73-.63L8.13 1l-.81.7a4.16 4.23 0 0 0-.87-.37V.35Z" fill="#fff"/>
            <ellipse cx="5.29" cy="5.36" rx="2.24" ry="2.22" fill="#fff"/>
        </g>
        <path d="M53.1 120.8h161.39" fill="none" stroke="#30ba78" stroke-width=".77"/>
        <path d="M52.55 81.11h161.4" fill="none" stroke="#30ba78" stroke-width=".74"/>
        <path d="m211.83 79 2.11 2.11-2.11 2.12" fill="none" stroke="#30ba78" stroke-width=".77"/>
        <path d="M53.1 41.42h161.39" fill="none" stroke="#30ba78" stroke-width=".74"/>
        <path d="m55.48 39.3-2.12 2.12 2.12 2.12" fill="none" stroke="#30ba78" stroke-width=".77"/>
        <path d="M213.94-.91H52.54" fill="none" stroke="#30ba78" stroke-width=".74"/>
        <path d="m211.83-3.03 2.11 2.12-2.11 2.12M55.2 118.68l-2.1 2.12 2.1 2.11m156.9-4.23 2.12 2.12-2.12 2.11" fill="none" stroke="#30ba78" stroke-width=".77"/>
        <text xml:space="preserve" style="line-height:1.25;-inkscape-font-specification:'Poppins Light';text-align:center" x="132.9" y="-4.48" font-weight="300" font-size="3.7" font-family="Poppins" letter-spacing="0" text-anchor="middle" stroke-width=".18"><tspan x="132.9" y="-4.48" style="-inkscape-font-specification:'Poppins Light';text-align:center">The client requests an SSL communication</tspan><tspan x="132.9" y="4.78" style="-inkscape-font-specification:'Poppins Light';text-align:center">by sending a &quot;<tspan style="-inkscape-font-specification:'Poppins Light'">ClientHello</tspan>&quot; message</tspan></text>
        <text xml:space="preserve" style="line-height:1.25;-inkscape-font-specification:'Poppins Light';text-align:center" x="132.85" y="37.42" font-weight="300" font-size="3.7" font-family="Poppins" letter-spacing="0" text-anchor="middle" stroke-width=".18"><tspan x="132.85" y="37.42" style="-inkscape-font-specification:'Poppins Light';text-align:center">The server responds with a &quot;ServerHello&quot; message</tspan><tspan x="132.85" y="46.68" style="-inkscape-font-specification:'Poppins Light';text-align:center">ands sends a TLS certificate with a public key</tspan></text>
        <text xml:space="preserve" style="line-height:1.25;-inkscape-font-specification:'Poppins Light';text-align:center" x="132.82" y="77.3" font-weight="300" font-size="3.7" font-family="Poppins" letter-spacing="0" text-anchor="middle" stroke-width=".18"><tspan x="132.82" y="77.3" style="-inkscape-font-specification:'Poppins Light';text-align:center">The client verifies the certificate and sends a session key</tspan><tspan x="132.82" y="86.56" style="-inkscape-font-specification:'Poppins Light';text-align:center">encrypted with the public key as a &quot;<tspan style="-inkscape-font-specification:'Poppins Light'">ClientKeyExchange</tspan>&quot; message</tspan></text>
        <text xml:space="preserve" style="line-height:1.25;-inkscape-font-specification:'Poppins Light';text-align:center" x="132.87" y="117.12" font-weight="300" font-size="3.7" font-family="Poppins" letter-spacing="0" text-anchor="middle" stroke-width=".18"><tspan x="132.87" y="117.12" style="-inkscape-font-specification:'Poppins Light';text-align:center">After the message is delivered, the client and server send</tspan><tspan x="132.87" y="126.38" style="-inkscape-font-specification:'Poppins Light';text-align:center">a &quot;<tspan style="-inkscape-font-specification:'Poppins Light'">ChangeCipherSpec</tspan>&quot; message and establish an encrypted session</tspan></text>
    </g>
    <g transform="translate(217.34 10.54) scale(1.94872)">
        <rect width="6.35" height="10.05" x="1.85" y=".26" fill="#fff" stroke="#0c322c" stroke-width=".53" stroke-linecap="square" paint-order="fill markers stroke"/>
        <path d="M2.81 4.23v5.3m.79-5.3v5.3" fill="#0c322c" stroke="#0c322c" stroke-width=".53"/>
        <rect width="1.06" height="1.06" x="2.68" y="1.85" fill="none" stroke="#0c322c" stroke-width=".4" stroke-linecap="square" paint-order="fill markers stroke"/>
    </g>
    <g transform="translate(182.65 -16.42) scale(.41812)" stroke-width="1.84">
        <path d="m108.2 105.07 13.5-13.51 13.52 13.5-10.13 10.14h-6.76z" fill="#30ba78" stroke="#0c322c" stroke-linejoin="bevel"/>
        <path d="M113.07 94.83h14.73l3.3 2.73v17.47h-18.03Zm2.72 3.82h10.38m-10.38 3.42h12m-12 7.55h5.47m-5.47-4.12h12" stroke="#0c322c" fill="#fff"/>
        <path d="m108.2 105.07 10.13 10.13h6.76l10.13-10.13v20.26H108.2v-20.26" fill="#fff" stroke="#0c322c" stroke-linecap="round" stroke-linejoin="round"/>
    </g>
    <g transform="translate(217.34 50.23) scale(1.94872)">
        <rect width="6.35" height="10.05" x="1.85" y=".26" fill="#fff" stroke="#0c322c" stroke-width=".53" stroke-linecap="square" paint-order="fill markers stroke"/>
        <path d="M2.81 4.23v5.3m.79-5.3v5.3" fill="#0c322c" stroke="#0c322c" stroke-width=".53"/>
        <rect width="1.06" height="1.06" x="2.68" y="1.85" fill="none" stroke="#0c322c" stroke-width=".4" stroke-linecap="square" paint-order="fill markers stroke"/>
    </g>
    <g transform="translate(182.65 23.27) scale(.41812)" stroke-width="1.84">
        <path d="m108.2 105.07 13.5-13.51 13.52 13.5-10.13 10.14h-6.76z" fill="#30ba78" stroke="#0c322c" stroke-linejoin="bevel"/>
        <path d="M113.07 94.83h14.73l3.3 2.73v17.47h-18.03Zm2.72 3.82h10.38m-10.38 3.42h12m-12 7.55h5.47m-5.47-4.12h12" stroke="#0c322c" fill="#fff"/>
        <path d="m108.2 105.07 10.13 10.13h6.76l10.13-10.13v20.26H108.2v-20.26" fill="#fff" stroke="#0c322c" stroke-linecap="round" stroke-linejoin="round"/>
    </g>
    <g transform="translate(217.34 89.92) scale(1.94872)">
        <rect width="6.35" height="10.05" x="1.85" y=".26" fill="#fff" stroke="#0c322c" stroke-width=".53" stroke-linecap="square" paint-order="fill markers stroke"/>
        <path d="M2.81 4.23v5.3m.79-5.3v5.3" fill="#0c322c" stroke="#0c322c" stroke-width=".53"/>
        <rect width="1.06" height="1.06" x="2.68" y="1.85" fill="none" stroke="#0c322c" stroke-width=".4" stroke-linecap="square" paint-order="fill markers stroke"/>
    </g>
    <g transform="translate(182.65 62.96) scale(.41812)" stroke-width="1.84">
        <path d="m108.2 105.07 13.5-13.51 13.52 13.5-10.13 10.14h-6.76z" fill="#30ba78" stroke="#0c322c" stroke-linejoin="bevel"/>
        <path d="M113.07 94.83h14.73l3.3 2.73v17.47h-18.03Zm2.72 3.82h10.38m-10.38 3.42h12m-12 7.55h5.47m-5.47-4.12h12" stroke="#0c322c" fill="#fff"/>
        <path d="m108.2 105.07 10.13 10.13h6.76l10.13-10.13v20.26H108.2v-20.26" fill="#fff" stroke="#0c322c" stroke-linecap="round" stroke-linejoin="round"/>
    </g>
    <g transform="translate(217.34 129.6) scale(1.94872)">
        <rect width="6.35" height="10.05" x="1.85" y=".26" fill="#fff" stroke="#0c322c" stroke-width=".53" stroke-linecap="square" paint-order="fill markers stroke"/>
        <path d="M2.81 4.23v5.3m.79-5.3v5.3" fill="#0c322c" stroke="#0c322c" stroke-width=".53"/>
        <rect width="1.06" height="1.06" x="2.68" y="1.85" fill="none" stroke="#0c322c" stroke-width=".4" stroke-linecap="square" paint-order="fill markers stroke"/>
    </g>
    <g transform="translate(182.65 102.65) scale(.41812)" stroke-width="1.84">
        <path d="m108.2 105.07 13.5-13.51 13.52 13.5-10.13 10.14h-6.76z" fill="#30ba78" stroke="#0c322c" stroke-linejoin="bevel"/>
        <path d="M113.07 94.83h14.73l3.3 2.73v17.47h-18.03Zm2.72 3.82h10.38m-10.38 3.42h12m-12 7.55h5.47m-5.47-4.12h12" stroke="#0c322c" fill="#fff"/>
        <path d="m108.2 105.07 10.13 10.13h6.76l10.13-10.13v20.26H108.2v-20.26" fill="#fff" stroke="#0c322c" stroke-linecap="round" stroke-linejoin="round"/>
    </g>
    <rect class="cls-2" x="11.85" y="50.68" width="19.01" height="14.06" fill="#fff" stroke="#0c322c" stroke-width=".95"/>
    <rect class="cls-2" x="13.64" y="52.45" width="15.5" height="10.53" fill="#fff" stroke="#0c322c" stroke-width=".95"/>
    <line class="cls-3" x1="16.6" y1="60.53" x2="16.6" y2="58.16" fill="none" stroke="#0c322c" stroke-width=".95"/>
    <line class="cls-3" x1="18.98" y1="60.53" x2="18.98" y2="55.79" fill="none" stroke="#0c322c" stroke-width=".95"/>
    <line class="cls-3" x1="21.36" y1="60.53" x2="21.36" y2="56.99" fill="none" stroke="#0c322c" stroke-width=".95"/>
    <line class="cls-3" x1="23.73" y1="60.53" x2="23.73" y2="55.79" fill="none" stroke="#0c322c" stroke-width=".95"/>
    <line class="cls-3" x1="26.11" y1="60.53" x2="26.11" y2="54.73" fill="none" stroke="#0c322c" stroke-width=".95"/>
    <path d="m11.3 67.9-3.96 7.94h27.78l-3.97-7.94H11.3" fill="none" stroke="#0c322c" stroke-width=".95" stroke-linecap="round" stroke-linejoin="round" paint-order="fill markers stroke"/>
    <rect width="5.29" height="2.65" x="18.71" y="65.26" fill="#0c322c" stroke="#0c322c" stroke-width=".95" stroke-linecap="round" paint-order="fill markers stroke"/>
    <path d="m12.63 73.2-.27 1.32h1.33l.26-1.33zm2.11 0v1.32h5.3v-1.33zm6.09 0v1.32h1.32v-1.33zm3.97 0v1.32h1.32v-1.33zm2.11 0v1.32h1.33v-1.33zm2.12 0 .27 1.32h1.32l-.27-1.33zm2.12 0 .26 1.32H33l-.53-1.33zm-19.58 0-.27 1.32H9.72l.53-1.33zm1.73-2.12-.25 1.2h1.2l.24-1.2zm7.72 0v1.2h1.2v-1.2zm3.58 0v1.2h1.2v-1.2zm1.9 0v1.2h1.2v-1.2zm1.92 0 .24 1.2h1.2l-.25-1.2zm1.91 0 .24 1.2H32l-.48-1.2zm-17.67 0-.24 1.2h-1.43l.48-1.2zm2.47 0v1.2h1.2v-1.2zm3.93 0v1.2h1.19v-1.2zm-1.96 0v1.2h1.19v-1.2zm-3-1.85-.21 1.07h1.08l.21-1.07zm6.97 0v1.07h1.08v-1.07zm3.23 0v1.07h1.09v-1.07zm1.73 0v1.07h1.08v-1.07zm1.73 0 .21 1.07h1.08l-.22-1.07zm1.72 0 .22 1.07h1.29l-.43-1.07zm-15.95 0-.21 1.07h-1.3l.43-1.07Zm2.24 0v1.07h1.07v-1.07zm3.53 0v1.07h1.08v-1.07Zm-1.76 0v1.07h1.07v-1.07z" fill="#0c322c"/>
    <rect class="cls-2" x="11.98" y="10.9" width="19.01" height="14.06" fill="#fff" stroke="#0c322c" stroke-width=".95"/>
    <rect class="cls-2" x="13.77" y="12.67" width="15.5" height="10.53" fill="#fff" stroke="#0c322c" stroke-width=".95"/>
    <line class="cls-3" x1="16.73" y1="20.75" x2="16.73" y2="18.37" fill="none" stroke="#0c322c" stroke-width=".95"/>
    <line class="cls-3" x1="19.11" y1="20.75" x2="19.11" y2="16" fill="none" stroke="#0c322c" stroke-width=".95"/>
    <line class="cls-3" x1="21.49" y1="20.75" x2="21.49" y2="17.2" fill="none" stroke="#0c322c" stroke-width=".95"/>
    <line class="cls-3" x1="23.86" y1="20.75" x2="23.86" y2="16" fill="none" stroke="#0c322c" stroke-width=".95"/>
    <line class="cls-3" x1="26.24" y1="20.75" x2="26.24" y2="14.95" fill="none" stroke="#0c322c" stroke-width=".95"/>
    <path d="m11.44 28.12-3.97 7.93h27.78l-3.97-7.93H11.44" fill="none" stroke="#0c322c" stroke-width=".95" stroke-linecap="round" stroke-linejoin="round" paint-order="fill markers stroke"/>
    <rect width="5.29" height="2.65" x="18.85" y="25.47" fill="#0c322c" stroke="#0c322c" stroke-width=".95" stroke-linecap="round" paint-order="fill markers stroke"/>
    <path d="m12.76 33.4-.26 1.33h1.32l.26-1.32zm2.12 0v1.33h5.29v-1.32zm6.08 0v1.33h1.32v-1.32zm3.97 0v1.33h1.32v-1.32zm2.12 0v1.33h1.32v-1.32zm2.11 0 .27 1.33h1.32l-.26-1.32zm2.12 0 .27 1.33h1.58l-.53-1.32zm-19.58 0-.26 1.33h-1.6l.54-1.32zm1.72-2.1-.23 1.19h1.19l.24-1.2zm7.73 0v1.19h1.2v-1.2zm3.58 0v1.19h1.2v-1.2zm1.91 0v1.19h1.2v-1.2zm1.91 0 .24 1.19h1.2l-.24-1.2zm1.91 0 .24 1.19h1.43l-.47-1.2zm-17.66 0-.25 1.19h-1.43l.48-1.2zm2.47 0v1.19h1.19v-1.2zm3.92 0v1.19h1.2v-1.2zm-1.96 0v1.19h1.2v-1.2zm-2.99-1.86-.22 1.08h1.08l.21-1.08zm6.96 0v1.08h1.08v-1.08zm3.24 0v1.08h1.08v-1.08zm1.72 0v1.08h1.08v-1.08zm1.73 0 .21 1.08h1.08l-.21-1.08zm1.72 0 .22 1.08h1.29l-.43-1.08zm-15.95 0-.21 1.08h-1.3l.44-1.08zm2.24 0v1.08h1.07v-1.08zm3.54 0v1.08h1.07v-1.08zm-1.77 0v1.08h1.07v-1.08z" fill="#0c322c"/>
    <rect class="cls-2" x="11.58" y="90.53" width="19.01" height="14.06" fill="#fff" stroke="#0c322c" stroke-width=".95"/>
    <rect class="cls-2" x="13.37" y="92.3" width="15.5" height="10.53" fill="#fff" stroke="#0c322c" stroke-width=".95"/>
    <line class="cls-3" x1="16.33" y1="100.39" x2="16.33" y2="98.01" fill="none" stroke="#0c322c" stroke-width=".95"/>
    <line class="cls-3" x1="18.71" y1="100.39" x2="18.71" y2="95.64" fill="none" stroke="#0c322c" stroke-width=".95"/>
    <line class="cls-3" x1="21.09" y1="100.39" x2="21.09" y2="96.84" fill="none" stroke="#0c322c" stroke-width=".95"/>
    <line class="cls-3" x1="23.46" y1="100.39" x2="23.46" y2="95.64" fill="none" stroke="#0c322c" stroke-width=".95"/>
    <line class="cls-3" x1="25.84" y1="100.39" x2="25.84" y2="94.59" fill="none" stroke="#0c322c" stroke-width=".95"/>
    <path d="m11.04 107.76-3.97 7.93h27.78l-3.97-7.93H11.04" fill="none" stroke="#0c322c" stroke-width=".95" stroke-linecap="round" stroke-linejoin="round" paint-order="fill markers stroke"/>
    <rect width="5.29" height="2.65" x="18.44" y="105.11" fill="#0c322c" stroke="#0c322c" stroke-width=".95" stroke-linecap="round" paint-order="fill markers stroke"/>
    <path d="m12.36 113.05-.27 1.32h1.33l.26-1.32zm2.12 0v1.32h5.29v-1.32zm6.08 0v1.32h1.32v-1.32zm3.97 0v1.32h1.32v-1.32zm2.12 0v1.32h1.32v-1.32zm2.11 0 .27 1.32h1.32l-.26-1.32zm2.12 0 .26 1.32h1.6l-.54-1.32zm-19.58 0-.26 1.32h-1.6l.54-1.32zm1.72-2.12-.24 1.2h1.2l.24-1.2zm7.73 0v1.2h1.2v-1.2zm3.58 0v1.2h1.2v-1.2zm1.91 0v1.2h1.2v-1.2zm1.91 0 .24 1.2h1.2l-.25-1.2zm1.91 0 .24 1.2h1.43l-.47-1.2zm-17.66 0-.25 1.2h-1.43l.48-1.2zm2.47 0v1.2h1.19v-1.2zm3.92 0v1.2h1.2v-1.2zm-1.96 0v1.2h1.19v-1.2zm-3-1.85-.21 1.08h1.08l.21-1.08zm6.97 0v1.08h1.08v-1.08zm3.24 0v1.08h1.08v-1.08zm1.72 0v1.08h1.08v-1.08zm1.73 0 .21 1.08h1.08l-.22-1.08zm1.72 0 .22 1.08h1.29l-.43-1.08zm-15.95 0-.21 1.08h-1.3l.44-1.08zm2.24 0v1.08h1.07v-1.08zm3.54 0v1.08h1.07v-1.08zm-1.77 0v1.08h1.07v-1.08z" fill="#0c322c"/>
    <rect class="cls-2" x="11.45" y="129.88" width="19.01" height="14.06" fill="#fff" stroke="#0c322c" stroke-width=".95"/>
    <rect class="cls-2" x="13.24" y="131.65" width="15.5" height="10.53" fill="#fff" stroke="#0c322c" stroke-width=".95"/>
    <line class="cls-3" x1="16.21" y1="139.73" x2="16.21" y2="137.36" fill="none" stroke="#0c322c" stroke-width=".95"/>
    <line class="cls-3" x1="18.58" y1="139.73" x2="18.58" y2="134.99" fill="none" stroke="#0c322c" stroke-width=".95"/>
    <line class="cls-3" x1="20.96" y1="139.73" x2="20.96" y2="136.19" fill="none" stroke="#0c322c" stroke-width=".95"/>
    <line class="cls-3" x1="23.34" y1="139.73" x2="23.34" y2="134.99" fill="none" stroke="#0c322c" stroke-width=".95"/>
    <line class="cls-3" x1="25.71" y1="139.73" x2="25.71" y2="133.93" fill="none" stroke="#0c322c" stroke-width=".95"/>
    <path d="m10.9 147.1-3.96 7.94h27.78l-3.97-7.94H10.91" fill="none" stroke="#0c322c" stroke-width=".95" stroke-linecap="round" stroke-linejoin="round" paint-order="fill markers stroke"/>
    <rect width="5.29" height="2.65" x="18.32" y="144.46" fill="#0c322c" stroke="#0c322c" stroke-width=".95" stroke-linecap="round" paint-order="fill markers stroke"/>
    <path d="m12.23 152.4-.26 1.32h1.32l.26-1.33zm2.12 0v1.32h5.29v-1.33zm6.08 0v1.32h1.33v-1.33zm3.97 0v1.32h1.32v-1.33zm2.12 0v1.32h1.32v-1.33zm2.11 0 .27 1.32h1.32l-.26-1.33zm2.12 0 .27 1.32h1.58l-.53-1.33zm-19.58 0-.26 1.32H9.32l.53-1.33zm1.73-2.12-.24 1.2h1.19l.24-1.2zm7.72 0v1.2h1.2v-1.2zm3.58 0v1.2h1.2v-1.2zm1.91 0v1.2h1.2v-1.2zm1.91 0 .24 1.2h1.2l-.24-1.2zm1.91 0 .24 1.2h1.43l-.47-1.2zm-17.67 0-.24 1.2H10.6l.48-1.2zm2.48 0v1.2h1.19v-1.2zm3.92 0v1.2h1.2v-1.2zm-1.96 0v1.2h1.2v-1.2zm-3-1.85-.2 1.07h1.07l.21-1.07zm6.98 0v1.07h1.08v-1.07zm3.23 0v1.07H25v-1.07zm1.72 0v1.07h1.08v-1.07zm1.73 0 .21 1.07h1.08l-.21-1.07zm1.72 0 .22 1.07h1.3l-.44-1.07zm-15.94 0-.22 1.07h-1.3l.44-1.07zm2.23 0v1.07h1.08v-1.07zm3.53 0v1.07H20v-1.07zm-1.76 0v1.07h1.08v-1.07z" fill="#0c322c"/>
</svg>

